P2
73 43
4294967295
1455125979
1375589335
1404930875
1321402960
1524274721
1412821192
1459391977
1369815802
1564683782
1488445277
1412113765
1770811117
1443292109
1513098939
1552768736
1444822226
1711332433
1579143588
1350558858
1932901066
1715352733
1427081618
1858531956
1680620292
1606998985
1939427584
1635644007
1751584832
1932865707
1721012612
1744769582
1797221214
1996096928
2015312015
1931511804
1913257530
1917437604
2006799087
1983773831
2031554091
2049770926
2123120516
2191882735
2060024647
2087045123
2043143067
2034370266
2098078942
2144692910
2180938042
2084202795
2058580199
2124342444
2205228980
2173758931
2132892167
2143055230
2017822636
2087215308
2082670839
2126360698
2126356810
2109153249
2042711026
2071737924
2141433005
2115749208
2054328928
2200470589
2107482446
1889755541
1978574285
2028038163
1330516141
1323902125
1400862712
1400537418
1316661055
1371305144
1582919439
1264667336
1515932517
1642576783
1206417726
1714369877
1470854598
1383247534
1787148840
1448344156
1476620619
1826080715
1501013022
1612210819
1661768159
1668390512
1709270568
1814792411
1777908922
1809151809
1854606392
1773946029
1873110808
1955650873
2065180156
2059747964
1898799667
1927844332
2204589728
2110662888
2116443105
2173461563
2175206594
2144428753
2175321194
2207343277
2172973312
2055953370
2266310341
2344329719
2208076665
2212681074
2271174560
2288322578
2198498294
2229875177
2124223635
1995336158
2210974796
2263584739
2120373531
2159201669
2162162735
2056223030
2183651229
2451248369
2145420151
2222966709
2346679427
2193062550
2097916120
2080579962
2086497818
2072681589
2065937106
2060357878
2055396353
1247898789
1373818913
1291869705
1352204202
1530713444
1241693476
1376475277
1654946581
1161436534
1609192538
1505218445
1328740124
1623450813
1453029923
1548734713
1553296774
1616496667
1635890634
1619797925
1764277021
1909266548
1684325079
1916657184
2213517849
1796496353
2151571787
2890841058
2224267644
2112690600
1972805242
2247140521
2178709022
2450302353
2637677246
2238261244
2171408112
2085130517
2443073994
2376284545
2161990470
2494339897
2134828064
2142881968
2357794083
2154748620
2254055722
2259129800
2383704771
2238701602
2314609962
2041917753
1994983422
2465849613
2495725708
2087553303
2139327060
2151591885
2124356240
2399573668
2140121632
2052950175
2195621427
2075407442
2094556535
2050810189
2136080171
2042338446
2091549603
2055015505
1942724859
1819078358
1843202440
2106020160
1214338567
1197634132
1490168366
1156132285
1351037436
1540266908
1100997200
1613769578
1429722779
1307343913
1523833595
1479438536
1573303762
1567345797
1662856247
1702451847
1843140408
2050018824
1795623054
1959032984
2369410573
2207100255
1991921846
2394971515
2231888368
3341075500
4290567594
3108570326
2209530336
2367962180
2473675352
3545025047
3959575268
4284263356
3622999266
2352281493
1943575153
2196012662
2292315529
2291887913
2299999491
2209494936
2113654763
2256974026
2067692118
2167137556
2261954985
2174794859
2279860503
2417088734
2232877827
1870194140
2183185871
2419904596
2181743133
2034981009
1932060605
1887900600
2231245017
2217918028
2143438269
2045020333
1936504184
1888702483
1924380664
1896624144
2092745157
2199878514
2141825070
2158452610
2053038587
1975121483
2045160020
1270732315
1183979155
1300255641
1289923654
1210251244
1428744441
1337871030
1369690327
1435834245
1631879411
1578479261
1749865120
1754149705
2116858002
2317102824
2005724677
2134062540
2409914732
2374763553
2171804790
2357401413
2584621786
2380548254
2187285179
2278858652
3768474079
4192109196
4269327328
3061439073
2223469617
3589344712
4187926857
4138921341
4180900673
4167762944
3203117911
2009249482
2084402947
2135211908
2373812383
2272714364
2061379215
2291670363
2379184070
2048424400
2072062947
2170515135
2051297003
2122796498
2143157999
2026111277
2010753002
1976697427
1807027623
1839106618
2196916334
2283902512
2131041370
2135957391
2253800228
2257446611
2042751568
1876195922
1839502838
2152210721
2324373013
2336501879
2177562007
2056296554
1974746104
1917947089
1977926627
2173269386
1176139865
1199421859
1148806089
1260074332
1330092619
1252228156
1676424445
1757946921
1796293180
1995359744
2315189510
2385426977
2165421817
2443849983
2231579852
2286888802
2293637020
2336875126
2490833186
2408097108
2214988146
2011200278
2480295902
2447401983
3110044917
3207923332
3492050960
4239659830
4129031654
2931980565
3682559380
4149396729
4058990705
4127421913
3872464705
4202780522
2707400635
2065469037
2332881488
2175412222
2141873840
2181506259
2236774388
2271171853
2085445130
2067993188
2102556475
2060795619
2113838453
2109175697
1953301669
1921254928
2018334520
2345267682
2437931445
2224824026
2066869595
2059429960
1871300350
1981405280
2145629040
2175110580
2328882117
2271702410
2012268663
1841636238
1931317973
2004537277
2155178515
2324981872
2188038236
2086976443
2222896074
1189386703
1438270068
1575110853
1728595681
2116094399
2214002504
2061846222
2531744945
2589593491
2289704604
2519947247
2316760704
2417515464
2603585794
2580355811
2485999046
2304821287
2026663240
2032032053
2481956701
2560862250
2253353828
2448794435
2642475911
2889289713
2987160742
3160379901
3393774958
4203388016
3686321450
3254232301
3809149479
4194048809
3863002378
3482471444
4254237767
3256635840
2188883918
2081981442
1727093099
2155120696
2660399746
2539787759
2339046890
2034888994
1798928591
2249655580
2594287287
2421870275
2253833375
2123244218
2115739743
2027978777
1925381702
2152509189
2328043568
2391102414
2241134058
2321957106
2225689392
1963530334
1908070378
2094231476
2418556358
2415129609
2338121381
2312967165
2262620562
2176823408
2210704015
2161550666
2098144009
2155671877
2387545414
2477573148
2509594107
2548842232
2433793158
2310045041
2060006523
2261801799
2421497290
2464973763
2486601552
2458199184
2308836143
2097530199
2216673061
2220983954
2529844423
2554418221
2179763469
1972104174
2067009941
2503292656
2407514367
2494055798
2582266207
2994970061
3523843518
3483479340
3291183599
3621112935
3394685937
3577151162
3418990574
3155016926
2781698308
3543226678
3499466977
2511628182
2030038896
1284876270
2019467584
2653598612
2704680900
2466950505
2233111576
2199423130
2128213699
2190240423
2281447586
2061676448
1916613361
2159779332
2557841468
2653514724
2526185127
2260965714
1992000548
2026374202
2343548892
2515321837
2515892872
2468439154
2211234589
2052472773
1810833516
1922296177
2266831626
2408266119
2417244544
2433152336
2590608911
2559705551
2404195190
2403142589
2050173991
2289301521
2511956524
2571555436
2473185228
2446377233
2133747856
2110720769
1958671111
2471989635
2702425331
2712853820
2345573330
1994811357
2114889073
2279190969
2556004806
2480143157
2185892023
2057787253
2040898724
2294273241
2561480770
2475283040
2423603570
3054848978
3678759439
3460197427
2667971615
3048164717
2995165306
2619957603
2516804036
2421596742
1244785471
1976555862
2969202564
2086740440
1381477358
2196036131
2053315492
2457633714
2655341478
2463526580
2221899991
2118465586
2400077772
2623344750
2430614175
2179674901
2126147608
2106750028
2187651473
2402527190
2580503501
2603101741
2399177703
2142560605
2142694541
2254653054
2339364687
2440862329
3004965968
3376034021
2715468220
2382147197
2161524974
1931226136
1749415338
2138250049
2512950908
2498892893
2261891470
2544480396
2510961762
2165795610
1830752363
2484132364
2749983566
2613255652
2116673303
2038521974
2582069508
3268934868
4093231227
3508614173
1997687948
1925043837
2026924115
2393662971
2327349589
2335119152
2265189637
2170607565
2420476302
2536195031
2446902468
2230089646
2278997057
3157312893
3571649717
1939163761
2173770672
2511784545
2591347628
2559320840
3171381572
1376035943
315177510
2129949136
1500144033
1120310428
2510949881
2190015680
2165889232
2379170077
2290097196
2390018068
2656165028
2553233959
2432613037
2366497684
2363960176
2237575647
1994428955
2188648443
2341967266
2370068279
2532407928
2640953287
2512253040
2336261112
2322473963
2388486803
2403157404
2781751090
3842368010
4177380773
3289867624
3547672148
3611622166
3298560124
2546879975
2616697812
2358585960
2182087819
2264360570
2543134135
2730629372
2506857364
2512916352
2558206489
2315925338
1924651367
2253840149
3016923972
3924319805
4116763120
4294967295
3691892554
2549478234
2671268934
2500494915
2307669547
2232386350
2115077135
1862575111
2228415465
2315580895
2122859400
2113608407
2241530910
3116027763
2687929210
1492335708
1882411776
2652307962
2468663328
2357632846
2303310040
872109701
451842344
631500945
1053543264
942411345
2254770804
2403013360
2537363826
2271145410
2125340461
2036883527
1877602038
1997620952
2438513416
2701484308
2674880022
2354335924
2175853360
2350498307
2504789691
2341471816
2333578820
2529680026
2359498055
2262521838
2377813728
2550297938
2400904645
2403972244
3233252565
4097972098
4114355264
4294967295
4294967295
4294967295
3941265081
3345980590
2080805450
2340939874
1773487167
2056581835
2056940997
2289503733
2627616263
2592689557
2502474314
2486375949
2450702880
3206655759
3559818773
4062953103
4098094930
4294967295
2645049263
2152888743
2520577434
2729216025
2808857527
2725941129
2402973762
2220777113
2214309281
2033617419
1928758115
2317317857
2429334042
2188240043
2012055441
1535361844
2884860030
2839639015
2501077884
2214034761
689946859
591409882
609527875
1036912828
1034619005
1796506724
1406691206
1856162322
1445014175
729052137
1341309865
1960166712
1924728471
2038746407
2528443779
2666969045
2663038856
2546509217
2443286808
2399093752
2713377859
2365385082
2000475736
2380524405
2265484684
2161729736
2295498887
2566233537
2326466469
2638796005
3755317008
3901664625
3924170581
4246819895
3892367228
4236215796
3856784240
2545046364
2293039005
2620082537
2634977151
2455150968
2327065734
2158733876
1832254227
2235864182
2635301714
2694245943
3358368159
3392691725
3032838947
2870890254
3967466847
3267947019
1784302026
2175571526
2670782036
2746992580
2700661014
2389515715
1988540353
1887857997
1746474216
2195585187
2674047590
2656039420
2521264704
2337018464
1883488297
1970535837
2811191596
2639407562
2662152006
1194360342
582160147
569198085
1054558087
938373413
635876406
651957683
1070541321
1070169465
1425987077
2401557072
2642371322
2684965793
2728424641
2210076865
1918645603
1869099462
1787459199
1596503758
1426551645
1615453827
2152074052
1322016998
1098923429
2187573507
2435746752
2261859950
2451350545
2733708037
2471634688
3197318198
3719678975
3789438952
3738437874
3973334472
4196160575
3695922771
1959258690
2130217892
2371711223
2446869834
2441060853
2689427251
2648243081
2284762371
2095073385
2233761509
2764743245
2816598144
2756054116
3107181904
3156918663
3138121574
2978512894
2133439369
2023090169
2072066774
2240549349
2687863417
1431847781
1332968242
2366570396
2007201780
1900934294
2450735499
2645839868
2093772456
1321524086
1113159107
1184871117
1923840391
1850685589
1718231655
1699629704
1161854510
884900681
952658963
410868980
424632744
1244553351
2183888752
2072354457
1928742993
2065104122
1851585893
1824658729
2217391103
2492144492
2287179141
1947254232
1778835796
1725198290
1817311417
1952785009
2217043707
1581452414
643810774
966393228
2083021146
2324236752
2257997946
2417612560
2544399796
2637348000
2828075234
3299140778
3589101142
3921591946
3930293221
3940785570
2798101636
2389035261
2560512351
2277735690
1988208372
1971913166
2475933592
2773953289
2587520290
2427439727
2710078456
2716685100
2540798077
2711198708
3086726328
3418810336
2485448577
1821516476
1563668380
1617034412
1684003508
1837620233
683225504
2233809397
2658436205
2197905511
1952889573
1672455826
1176413782
632563723
294181366
275927724
234597691
721791113
1496308156
1017652067
552526697
1271290296
1134221774
860087001
696019648
1283050091
2497192454
2372190050
2503948991
1770776766
1182355906
2503786291
2137412812
2075512094
1922501872
1890471652
1879744304
2123667582
2560994316
2651146814
2527339292
2526118328
1846170597
915616629
842545043
831608013
1848191782
1973708374
1809405239
1181239929
1438070501
1929701948
2477578322
3192153261
3652208634
3685283014
3834590876
2624123054
2205616811
2417877734
2308238460
2441259236
2272690614
1924358870
1918141184
2356767413
2475108690
2507303433
2751352416
2976260123
2782415054
1416521327
1925996082
1626517712
1810082272
1413703622
1818894827
1622193352
951749932
1209467541
2582024634
2038728387
2408198715
2272925512
1887338382
1878556004
1696633044
1308033182
766533632
453067788
314848634
474261548
1407348936
1398736893
1001805307
1371666653
1245684791
1208167818
1995407075
1874117659
1572672532
1473921596
894965827
681719385
1869695075
1044349491
1729642914
2584313427
2175058975
1911379276
1570255096
1133892720
1493268427
2171809702
2389498392
2249630205
1230092441
897172342
1170309766
694156939
1846848779
2072058013
1916759152
2000835285
2264494819
2440827611
3330175814
3832138597
3873606469
3878262601
2607157420
2631141526
2527728505
2483872694
2457068850
2965390257
3625765319
3250348221
2506224220
2462426305
2610965985
2548486783
1949566514
1400388433
222735897
683330803
1984018345
1094459165
1302730121
1338186408
1783429858
935399729
1506425766
2005607185
1192798837
1126624171
490710443
359030344
1639406412
2636311322
2365067711
2110286185
1754040074
749372808
309205999
593555699
1780088581
1639466372
1111948131
1858014185
1682550253
1413960335
750554256
1715430480
2306231557
2089491685
1725773056
1088822117
1550724383
485767794
781397746
1438139617
1255657375
1773421298
1789993328
1225737974
808394198
1547227707
2551258834
1684993849
1716127352
1250616723
975939633
2026282068
2137706523
1899122696
2482567177
2857725957
2868542435
3013284801
3682026867
4040295091
3788593736
2425493963
2502698258
2301446479
2328505144
2580616723
3241059637
3718785739
4294967295
3476935184
2079622895
1990939164
1984822890
880960566
417675056
267859367
284060529
994614375
918053384
1443427560
1168347746
1737141525
1284446072
2430502725
1030829116
491204246
663721198
517774963
746884299
2457850938
2793261550
2694644906
2770427118
1942751324
721068967
1920836397
1510838905
1582308263
1154183071
987680132
1259941531
1279810977
1687846946
1411999488
988430504
1435320928
1731423923
1957882800
1253345933
1962657423
1842116878
973385083
1634264827
2134309594
1503240740
1517178326
2385421900
2256814059
1400312264
1639818742
1590545065
1835587780
1660999762
1030191984
1724483191
2046087025
2140712557
2799396102
2427908565
2761557191
2550432510
2850748489
3356390023
2324534151
1981222723
2177850943
1926866650
2350012549
2694313548
3285764581
3558990948
3652815096
3973770910
2562820375
2405679189
1828664136
878475219
676741293
417658664
287270057
1327938289
1475423850
755588097
1266108150
1007017772
1209679784
1641946369
522103932
462876437
544909419
757505651
1973466182
2302075679
2324744915
2300342485
2509900891
1355280314
1336640267
2692269713
2410486445
1734514637
2150940512
1523549813
537223114
1916390697
2945346618
1825319068
1064825784
755400928
957624581
1605508816
1470894035
994883984
1222442953
1797556226
1922840105
1777535413
962301254
1355910486
1604177901
1511779757
1963069944
2105482448
1802982655
1806913712
1361555767
963159954
1599348930
1823460044
1865924053
2482856236
2388297983
2194604670
2525729732
2571102727
2423369642
2107082492
2144429451
2558715142
2461779087
3034304670
2792351395
2664265070
3205665998
3187875486
2939388996
1541722255
2068370115
2224713338
840444527
366222062
1236324693
544310524
1216962213
1496876083
700856203
1398674421
1418036675
640539298
641836570
598748080
548831315
356206990
1194701246
2375144879
2572038942
2651151936
2639708882
2736381103
1458451152
1913139861
1312006282
1501845241
2197448287
2309077782
1553516838
834536175
1180777897
1415373277
914682399
1081856810
1483699287
1337662613
1854282610
2224919512
1758307931
1146662631
666436649
1098462411
1381783258
498261156
726912651
708711434
878617439
761850926
1555789079
1304026796
849615090
685714849
1268075267
1759131877
1692667438
1619932007
2372896355
2287666054
1270290100
2078046131
2263211211
2102857549
2107751585
2030570147
2665749979
2770554185
2595723645
2405213660
2282301529
2399425418
2654461401
2408765011
933299586
1183996822
1938721818
1907719584
853530574
1226749116
978396151
848832644
1215243399
1075551003
1794229008
1563156434
1309377199
1428078982
552907636
434092006
473496167
1505554659
1844016837
1389188533
1247961289
1082208947
950751332
1190981958
1286756119
1275000581
1422442667
1139429596
1151257373
772076582
811014818
454550762
1023220858
1143277643
878823324
1436351373
1345121151
1531004854
1815416586
1944746123
2193031121
1718323001
1295352878
749884209
608391272
654264232
843785825
861533883
581664568
292393812
348913182
499650089
628028665
734331985
935251820
1504239606
1392163654
1687725338
1810788003
942892488
1231156545
2292897735
1900004255
2075789924
2128593239
2284502136
2581343630
2402441963
2185198688
2204918008
2160299909
2180981134
2157064369
804022045
551416061
1458635464
1902328152
938416904
673884863
860913241
674833988
909089036
1204697604
1352120817
2528896106
1323378574
574075761
609893953
516931750
476719680
2133740042
1670647622
374362244
150082050
229835123
1335165032
1563288484
901591265
797090060
1007507189
744454544
733959669
823527280
919499610
1569868828
2270025978
2298215478
1577494988
2129271094
2596552587
2479000061
2202776244
2016636399
1845772504
1430336031
1196902953
1828523224
1229519477
625912407
660268513
696263387
745052173
430715415
523480795
533410784
451433721
727794928
895035247
2040411144
2416877804
2168016728
2263174782
1677162394
953438550
1990372480
1865698811
2152779694
2523258122
2007140907
2358952458
2273745904
2004226055
1940045705
1957346608
1971278744
1885659172
805200247
339091306
948223179
640963557
444758973
824574200
957855838
1011471601
789117927
1545785609
1186983786
1731354186
1855384060
1210401044
682418921
506115513
590845863
397598418
246732330
281011381
443620105
602565770
1379565466
1024437076
454043327
428276990
480877934
765923848
1007981118
782847251
827200831
2109296875
1726804310
1630845220
1172393771
1168845325
1607584856
2218673014
2633382976
2609621925
2567670142
2309024978
1358148756
1984259670
1927485749
623594115
651052471
675860336
794092578
395647685
432237317
440965819
703708289
1403379433
1333431705
1816676809
2664934465
2525040832
2490546172
2445581477
1477902462
1960099919
2096856359
1903236451
1850763480
2285585451
2475064661
2076796389
1944993684
2086076271
1792197106
1237958900
1451499324
1111058221
455845990
545203212
320847779
448944428
1107829350
1166821708
945671084
1254814105
1447143430
1353821992
1110843050
1906197419
466614688
537721898
585129618
517371780
751583602
1794331352
2295672535
2383723137
2591624811
2038740800
356470557
487687721
581333213
449984385
492810018
2322246945
1184181576
729124982
2039615427
1532496892
1069645102
1008210276
1526549581
1794783898
628658230
1207661831
2257435334
2133441089
1701406827
1143883042
1056095933
1477206551
715178146
850712291
1067396752
772362784
296779866
665318610
1692197346
1923907499
1586223926
1538668650
1171827372
937295823
1069327209
1191538346
1798331992
1955953947
1770852349
1811323379
1776800412
1741893556
2088900535
2078769971
1871657449
1834631303
1789392163
1662408327
1230943388
861341520
957851699
583059220
462465987
400696786
814677635
1899124710
1194289672
546071197
1009083729
1251481705
689415893
755809305
1685990773
864264305
495392089
486478094
573508671
1286812611
1599457380
1724219093
1667646729
1569035789
1080435358
295773907
647016813
735414172
883960299
818056235
1733039275
1197215226
859581713
865999857
698480178
1162210676
762934733
1208785837
1615585925
1143589513
872833761
1382735356
1140924791
487917158
560847382
879815373
1194962170
871355765
701849678
1375338742
1551200568
982964639
932196132
1090517930
901807335
741421134
1776619162
1908729587
1345383122
1630529615
1462789838
1561331445
2160505424
2261062069
2349084884
2303498693
2318742362
2491267885
2322670615
2161960952
1981891837
1716281862
1431567866
1148227163
749150139
419500941
498850600
579479438
564906223
719699898
1228700597
1267460425
809868804
774507822
1029398082
1538795946
860252320
1099892937
978090988
523451178
625201620
597825314
807892280
1124985794
1475081563
1586472577
1728533973
1712825243
1018670088
982163833
1456593515
1260860000
1212900273
1065978509
815054522
738354351
784683534
601849207
927369481
603879740
438848498
530731903
566901719
570804230
437093621
514757094
959908069
1179344513
1387975236
812025147
832769192
835626379
1169179365
808995126
572222093
483078914
313587411
199927720
658397099
1247290278
1286594567
1401659894
1426914813
1457445755
1641418861
2061398792
1802735759
1793762982
2047360840
2020093472
2533711275
2328694362
2171452948
2005369941
1688967132
1619872366
751876918
814277503
603874850
394233771
478265303
569874571
688842600
1015276543
1278154958
937327524
969934772
787073974
802857083
537078741
517005639
723484898
1123394175
677258730
717847509
624798419
764013198
816543595
959964141
1226459565
1423777109
1570307679
1370573539
1218347400
759066858
731717413
632668989
535365151
530069922
545266730
529135995
667733459
799867305
697660552
659162790
663900242
517380531
788552240
1175434803
1099731853
1525499543
1597407016
1033190252
665090402
750322061
784696365
995607802
661699311
488337072
407110479
725645917
1546926129
1316958345
876960422
848681463
850477056
847135868
905635813
1770349833
1873867473
978401826
1246958445
1501433306
2490990368
2523350627
2388680269
2211541623
1843685034
1174357969
510114941
825485093
636991561
405328656
499759327
860731076
612383185
810803510
881876298
854084912
623373421
862155932
1048100538
789998094
464843069
640226230
1202970224
776539372
1147208947
1247618773
592884107
574400705
674529840
862414959
858039041
775224570
645467478
480130101
495317981
563927423
746369801
573346732
567105701
508484282
588990507
1147892661
855438584
811585964
709535439
951027227
1100911318
1047527205
1125892722
964800836
805466386
869795143
714519512
358695362
455589609
425235683
562868205
489299295
482045971
663220356
1096063119
1601883581
1679051694
1379663764
1081430092
1058847070
1063786022
1024939231
1027109157
1768750645
1172049410
1063057824
1395833501
2256291293
2323925295
2519170778
1868913967
1091397108
1062462012
360057207
417766602
416347226
945071090
837615887
442919386
632282414
487481696
547483298
670692251
950684490
711049382
797694492
889868220
1000538421
523278493
208817445
775830105
1199562336
1346750869
885849081
980933003
907032627
752679034
708612619
511502708
385880716
511314574
447135131
444547749
604978571
590845331
675384127
1268033679
948764204
499704586
235993400
407719519
611093239
1147715439
968583598
474532977
467807412
616305797
1105848874
1193738784
872720078
403989734
518510986
649817281
512937215
1080577888
1852404108
779209756
443060505
797400398
1131659047
1248823319
1196452018
1118590336
1088402918
979872950
914739395
1145429247
1400025984
1321832299
1320623163
2489500805
2329088998
1239402868
220900777
272424570
501299719
236331799
353704602
723308500
850828054
538787060
768280183
733973754
441883257
558503576
992799104
1354262130
1092833195
523617052
601120057
761222229
638114373
631000933
736227387
904633305
971065704
1044548963
1057075109
924531454
809338688
687079803
616080395
628994120
846309452
683633508
662212823
788167873
676558175
668601925
1233400015
589175263
419984257
453030991
497427318
715424002
998646212
696791584
305559858
252150092
368011120
691427719
700016235
797587284
529418853
1256364992
1561673705
1275932428
674938164
2123649564
2025311857
1187007435
582487061
562261234
733166125
637085681
617677915
614221487
632464530
534987106
595518464
1040774689
1253233513
1149541385
1994008219
682130982
165370025
235240027
387366248
339880408
387798769
505041635
533016705
470042028
562286830
958955782
785313469
407262298
456095169
1140958902
1133029349
982721853
1813914549
1198786088
1053074617
826429663
637663943
862034281
623984807
736390737
895434659
894343460
791279272
738690206
725920907
732694985
611347507
560740541
638800826
534660387
774180261
418612103
511481901
562413957
660218075
1358255691
759885783
418445116
807366927
981967682
911213091
574422405
452144360
664507474
775243880
423873411
501484312
1063304434
1073296352
1492225823
1532401395
556582425
817308931
2072839555
2063152068
1815082531
1401738325
1141118653
1393217220
1148297438
1116317605
1073190083
674096205
758354105
1207163100
1384056279
1364914785
1110046715
644234295
567378184
588207903
736804658
706121223
664247947
678233650
458965558
290243844
695446301
775814531
646194292
542181056
555127387
714051447
915014889
1015750927
1296527533
1236359699
989634017
843928768
423948668
568948433
402822888
335454744
518850948
546636494
599713100
671464727
708460737
624818853
469287454
432949743
504364785
503895588
242230971
358282718
607185658
713615909
569051771
1486686701
1960333214
1224884354
843227360
1001285079
983635265
673612691
523856923
650969559
653409595
461948242
364864247
1014034753
1291831889
876771456
383567803
460761841
469724893
1978600566
1716927727
1146248064
1218440514
1260544621
1585906924
1828953171
1970354672
1999140902
1926473142
1819414265
1735968703
1737399242
1597887505
1370965576
1407110796
1599469743
1689919560
1568867339
1282567599
1074517696
985834236
895870575
791360227
833601445
820668190
1078765038
792627040
482365841
595483738
813790432
976214237
605770441
463240053
827812531
307125559
234246261
519752690
505100468
510090928
537861334
585839143
599224858
633894515
607300885
627677418
507899897
689791642
802979378
1313621114
928149818
605936752
707035975
700341297
440379015
395546161
1158343671
1497514446
1155752455
1594837590
1151238829
575754414
567141858
758851458
624499552
589825180
579907208
553068260
1362470793
1462832940
791372437
287482366
583006372
1400900560
1606276067
1485870699
790716110
509380398
767078043
1160990615
1269297647
1309201214
1346928068
1613189762
1818066231
1802541243
1670894212
1178726345
1125107750
1045400882
973586598
979028402
980620324
961126410
1057448280
891077115
1078977515
1523422788
1324954768
966967114
702311853
421058334
518478209
624274506
518760378
523038271
487664923
481189849
610990240
351253938
448182767
540901053
480884054
462019460
453713989
424271594
475223928
565904329
625058541
846371925
853967402
755155009
995426144
984148208
654452132
601878801
677263670
1155287963
878026730
579327090
275689770
723352157
1463124022
1597686178
615752763
954629384
1047277226
777806790
666556400
653265793
686220861
752005449
1872824656
1167837438
788452169
932524905
1504601361
2019329951
2380805589
2206963590
1586311599
1027660003
957516648
1044733351
1104061405
1067231324
1069315302
1439232291
1807632308
1871532967
982127606
893170214
871043761
887900745
898645452
801524032
884340245
1024009894
751215191
609187802
721386634
538943880
510087768
424769756
445360310
526737129
612693212
660912905
582528997
549311626
513140636
446756093
499822227
483488112
356795666
334620469
329213510
293330834
328141624
456027965
597971520
623200333
694343993
609749647
581969522
497260052
445946870
494981339
555185518
609465737
697293741
659860456
562619654
497044536
590922369
811932658
1251489033
1147609632
1592505520
1949374301
1678620279
1462276501
1431605570
1592072595
658848216
1739293249
1610827442
1136511363
977614797
1201936777
1655167606
2187638325
2461564154
2581804262
2469156878
2294818075
2244669677
2119905370
1994013851
1784718580
1721948587
2017626188
1968748384
1128529991
1264067090
1392124670
1306283802
1216704008
936827058
755388185
668065301
406927640
451150602
648117507
680630475
670259405
490126216
495039551
575644189
566467115
613111281
478259686
503388492
507399637
444905103
325899815
416562116
332455441
330809263
351091376
347377667
340999037
351808109
391253257
417077962
488626449
495608755
493048456
477021251
513457261
542093443
533764964
572564069
634667340
670288733
665828306
514889292
505175778
442904503
1135805761
1669188217
1687306761
1913856061
2155163778
2396699902
2366528989
2290202711
1349454169
1351466300
1807445462
1067913608
909171508
863831976
822913925
833445431
1020087299
1265526581
1560730174
1772128610
1919903952
2027311537
2143390040
2050033053
1865380992
1648433780
1508820699
1195323505
1297684809
1187126909
1041797199
1038684353
900755368
684662979
630906418
688991784
641651800
534722524
445373790
383356296
388705400
509806626
541315061
450060244
585845720
515870509
490502434
472290623
440104503
396868469
439265484
492639686
435068090
447649071
434197139
384740132
391897065
422890497
488921568
479212644
474866350
644109128
830419939
1053754971
967565707
1099310030
1311100866
1431601882
1532671957
1258949672
821011335
772494292
660920999
854346522
1333118765
1307703919
1593924919
1720574055
1947782233
2015766850
2461824629
2378246899
1716177250
2091699304
1663271659
1070861951
1006380884
955378403
941875476
954327949
882954972
823804135
811398627
805250418
849865348
912963807
932984307
885693381
892123964
941575024
972373202
946665946
840133144
730232710
695382274
681251183
552829631
441421205
410372739
326131703
296328503
277269501
273245694
307025228
392567899
416789649
372505464
495378655
523405843
404905961
445759158
417998606
432368091
449396970
392466762
402095098
440060675
582785851
812638262
830331571
826550317
684412446
750581673
1077341661
1515247751
1765366068
1889574267
1797744598
1732147231
1740154198
1887630149
1971930457
1867181484
1747318274
1656300749
1541177828
1505483201
1428313211
1171571278
869137437
539427069
499487035
1089191919
2261126594
2255023812
2477464379
2200471409
2098121143
1655424253
1162706410
1111872648
1097605048
1011556998
993115000
995727083
969332533
978941650
992458455
988956574
985020891
1054592017
1113170252
1059306617
957325219
860622871
801299988
721707929
655622314
591842506
454121917
379124842
410878856
364906691
405215159
501128706
588697118
636379576
675761128
841103294
861530972
783546965
779944859
633820281
554846074
681120396
710708151
791643025
877242802
883964314
845170874
827674228
1079464857
1446599701
1436088286
1094124447
1595353027
1764924119
1821261157
1900591528
1921450195
1908660057
1784861610
1778047271
1682981488
1670206038
1838112868
1963345316
1682136151
1445169559
1020525158
720698893
428059697
253444969
311573256
396868272
487299063
1269751471
1379522918
2052191154
2181538369
1720963675
1136659852
869943652
1126864668
1507702767
1289235834
1156055693
1052106322
1040749289
1011935069
982271313
1011590815
1027993977
1066964512
1059275906
999317294
985082395
925438185
927391481
833726770
803502678
747721895
652531250
560021630
558192403
612425406
670188016
645985970
641217707
620532280
605096064
679746090
762382453
846869803
943402421
987344118
1023535789
1160647893
1278906516
1397506583
1341666625
1278842483
1321698646
1391168958
1450015325
1323944440
869508164
1044329269
1317320019
1198937106
1226066607
1084614720
1061016132
1087011507
1200487345
1339767341
1573545998
1762472519
2025091973
1685205171
1053330675
927127028
700548582
619082493
587680930
674553949
856366685
1294037520
1324253135
1505747693
1738121364
1808671677
1953540936
1750943604
1324833072
1160650108
1177340707
1269219811
1341024550
1217832633
1135343112
1092276678
1069784076
1088541673
1091444083
1094433883
1104663733
1035366771
967332061
1030273032
946098202
861891886
807145467
750343505
683331958
582185912
626650316
577400098
642000222
660755006
601722107
588092216
623444954
702256221
807687251
810501512
815476790
783923548
816739981
815606645
886541356
875196216
893765700
971283519
1033176887
963448321
957183937
929574662
794476964
872809527
924094632
901381377
1045851593
1085652001
1242217967
1411893082
1639289357
1873946979
2030161947
2163674597
2275741328
2267516276
2038019685
1733921966
1534257536
1396678628
1567188832
1749734043
1883331990
2197387397
2404516876
2279162524
2142107345
2226783739
2125893666
2050183863
2009673602
1943515418
1671568054
1497155398
1341754820
1200930946
1181634611
1156417652
1247674395
1225455369
1160361283
1156595372
1071682795
1010251621
1010062602
999804062
1050758587
936822366
886645289
879216460
871465629
832644065
821906735
829524212
813053605
825048633
787001700
724264350
734486953
812024156
1084825649
1388372980
1461230747
1222411473
1020965165
927976691
880174024
859554640
923001827
946881125
1073653490
1347748157
1595570745
1717272589
1801350043
1830787468
1917490953
1892564982
1851873082
1950762259
1939828432
1885163487
1945731354
1887785659
1799079381
1839604413
1820370596
1870188801
1949397126
2002197540
2030490777
1991163526
1876903319
2020250862
2086073212
2043923968
2125089956
2222217568
2212751919
2236448666
2326666789
2047018663
1736493168
1444208056
1319859206
1247599822
1230195842
1241884587
1238460080
1205588625
1262523650
1264712182
1192936776
1134634477
1115808915
1130437523
1099583555
1087411382
1098402799
1027487823
1006693672
1058662025
1087479491
1095393243
1052983413
1019699826
978815169
939887181
889990005
832578588
1000725089
1096124792
1380097997
1728709557
1621763712
1591927207
1667768984
1467512067
1315397485
1271874571
1320729830
1420998573
1419631992
1550810047
1640251765
1747029544
1788499149
1748416503
1858080809
1806289876
1807477752
1699581421
1518346184
1471114392
1368295782
1320364528
1323208523
1389775316
1433034962
1561046600
1691172734
1757942088
1774290298
1874697105
2005266983
2000346883
2038632168
1943230805
2061661103
2031575431
2043092620
2002336357
2000030992
1809863132
1470689267
1344941874
1385511196
1353313262
1316567110
1239411898
1181059343
1249142210
1312399808
1225331341
1180020476
1202507966
1213066803
1231755233
1207816282
1103936851
1168882362
1152407765
