P2
73 43
65535
22197 20981 21429 20149 23253 21557 22261 20901 23861 22709 21541
27014 22021 23077 23685 22037 26102 24086 20597 29479 26166 21765
28358 25638 24518 29591 24950 26726 29479 26246 26614 27414 30455
30743 29463 29191 29255 30615 30263 30983 31271 32391 33432 31431
31831 31175 31031 32007 32711 33272 31799 31399 32407 33640 33160
32535 32695 30775 31847 31767 32439 32439 32167 31159 31607 32663
32279 31335 33576 32151 28823 30183 30935 20293 20197 21365 21365
20085 20917 24150 19284 23125 25062 18404 26150 22437 21093 27254
22085 22517 27862 22901 24598 25350 25446 26070 27686 27126 27590
28294 27062 28567 29831 31511 31415 28967 29415 33624 32199 32279
33160 33176 32711 33192 33672 33144 31367 34568 35768 33688 33752
34648 34904 33544 34024 32407 30439 33736 34536 32343 32936 32984
31367 33304 37401 32727 33912 35800 33448 32007 31735 31831 31623
31511 31431 31351 19028 20949 19701 20629 23349 18932 20997 25238
17716 24550 22965 20261 24758 22165 23621 23685 24662 24950 24710
26918 29127 25686 29239 33768 27398 32824 44106 33928 32231 30087
34280 33240 37385 40233 34152 33128 31815 37273 36248 32984 38057
32567 32695 35976 32872 34392 34456 36360 34152 35304 31143 30439
37625 38073 31847 32631 32824 32407 36600 32647 31319 33496 31655
31959 31287 32583 31159 31911 31351 29639 27750 28118 32119 18516
18260 22725 17636 20613 23493 16788 24614 21813 19941 23237 22565
24005 23909 25366 25974 28118 31271 27398 29879 36152 33672 30391
36536 34040 50972 65455 47419 33704 36120 37737 54076 60414 65359
55277 35880 29655 33496 34968 34968 35080 33704 32247 34424 31543
33064 34504 33176 34776 36872 34056 28535 33304 36920 33288 31047
29479 28807 34040 33832 32695 31191 29543 28807 29351 28935 31927
33560 32679 32920 31319 30135 31191 19380 18052 19829 19669 18452
21797 20405 20885 21893 24886 24070 26694 26758 32295 35352 30599
32551 36760 36232 33128 35960 39433 36312 33368 34760 57501 63951
65135 46699 33912 54765 63887 63150 63791 63583 48859 30647 31799
32567 36216 34664 31447 34952 36296 31255 31607 33112 31287 32375
32695 30903 30679 30151 27558 28054 33512 34840 32503 32583 34376
34440 31159 28615 28054 32840 35464 35640 33224 31367 30119 29255
30167 33160 17940 18292 17524 19220 20293 19092 25574 26822 27398
30439 35320 36392 33032 37289 34040 34888 34984 35656 37993 36728
33784 30679 37833 37337 47451 48939 53276 64687 62990 44730 56189
63310 61934 62974 59086 64127 41305 31511 35592 33192 32679 33272
34120 34648 31815 31543 32071 31431 32247 32167 29799 29303 30791
35784 37193 33944 31527 31415 28551 30231 32727 33176 35528 34648
30695 28086 29463 30583 32872 35464 33384 31831 33912 18148 21941
24021 26374 32279 33768 31447 38617 39513 34936 38441 35336 36872
39721 39369 37929 35160 30919 30999 37865 39065 34376 37353 40313
44074 45578 48219 51772 64127 56237 49643 58109 63983 58941 53132
64911 49691 33384 31767 26342 32872 40585 38745 35688 31047 27446
34312 39577 36952 34376 32391 32279 30935 29367 32840 35512 36472
34184 35416 33960 29959 29111 31943 36888 36840 35672 35288 34520
33208 33720 32968 32007 32888 36424 37801 38281 38889 37129 35240
31431 34504 36936 37609 37929 37497 35224 31991 33816 33880 38601
38969 33256 30087 31527 38185 36728 38041 39401 45690 53756 53148
50203 55245 51788 54572 52156 48139 42442 54060 53388 38313 30967
19604 30807 40489 41257 37641 34072 33560 32471 33416 34808 31447
29239 32952 39017 40473 38537 34488 30391 30919 35752 38377 38377
37657 33736 31303 27622 29319 34584 36744 36872 37112 39513 39049
36680 36664 31271 34920 38329 39225 37737 37321 32551 32199 29879
37705 41225 41385 35784 30423 32263 34776 39001 37833 33352 31383
31127 35000 39081 37769 36968 46603 56125 52796 40697 46507 45690
39961 38393 36936 18980 30151 45290 31831 21077 33496 31319 37497
40505 37577 33896 32311 36616 40025 37080 33256 32439 32135 33368
36648 39369 39705 36600 32679 32679 34392 35688 37241 45850 51500
41433 36344 32968 29463 26678 32615 38329 38121 34504 38825 38313
33032 27926 37897 41946 39865 32295 31095 39385 49867 62446 53532
30471 29367 30919 36520 35496 35624 34552 33112 36920 38697 37321
34024 34760 48171 54492 29575 33160 38313 39529 39049 48379 20981
4801 32487 22885 17092 38313 33416 33048 36296 34936 36456 40521
38953 37112 36104 36056 34136 30423 33384 35720 36152 38633 40281
38329 35640 35432 36440 36664 42442 58621 63727 50187 54124 55101
50316 38857 39913 35976 33288 34536 38793 41658 38249 38329 39033
35336 29367 34376 46027 59870 62814 65535 56333 38889 40745 38153
35208 34056 32263 28407 33992 35320 32391 32247 34200 47531 41001
22757 28711 40457 37657 35960 35144 13299 6882 9634 16068 14371 34392
36664 38713 34648 32423 31079 28647 30471 37193 41209 40809 35912
33192 35864 38217 35720 35592 38585 35992 34520 36280 38905 36632
36680 49323 62526 62766 65535 65535 65535 60126 51052 31735 35704
27046 31367 31383 34920 40089 39545 38169 37929 37385 48923 54316
61982 62526 65535 40345 32840 38457 41642 42858 41594 36664 33880
33784 31015 29415 35352 37064 33384 30695 23413 44010 43322 38153
33768 10514 9010 9298 15812 15780 27398 21461 28310 22037 11123 20453
29895 29367 31095 38569 40681 40633 38841 37273 36600 41401 36088
30519 36312 34568 32984 35016 39145 35496 40249 57293 59534 59870
64799 59390 64623 58845 38825 34984 39977 40201 37449 35496 32936
27942 34104 40201 41097 51244 51756 46267 43802 60526 49851 27222
33192 40745 41914 41193 36456 30327 28791 26646 33496 40793 40521
38457 35656 28727 30055 42890 40265 40617 18212 8882 8674 16084 14307
9698 9938 16324 16324 21749 36632 40313 40953 41626 33720 29271 28519
27270 24358 21765 24646 32824 20165 16756 33368 37161 34504 37401
41706 37705 48779 56749 57821 57037 60622 64015 56381 29895 32503
36184 37321 37241 41033 40393 34856 31959 34072 42186 42970 42042
47403 48155 47883 45434 32551 30855 31607 34184 41001 21845 20325
36104 30615 28999 37385 40361 31943 20149 16980 18068 29351 28230
26214 25926 17716 13491 14531 6257 6465 18980 33320 31607 29415 31495
28246 27830 33832 38025 34888 29703 27142 26310 27718 29783 33816
24118 9810 14739 31783 35464 34440 36888 38809 40233 43146 50332
54749 59838 59966 60126 42682 36440 39065 34744 30327 30087 37769
42314 39481 37032 41337 41449 38761 41353 47099 52156 37913 27782
23845 24662 25686 28038 10418 34072 40553 33528 29783 25510 17940
9650 4481 4209 3569 11011 22821 15524 8418 19396 17300 13123 10610
19572 38089 36184 38201 27014 18036 38201 32599 31655 29319 28839
28679 32391 39065 40441 38553 38537 28166 13955 12851 12675 28198
30103 27606 18020 21941 29431 37801 48699 55725 56221 58509 40025
33640 36888 35208 37241 34664 29351 29255 35960 37753 38249 41978
45402 42442 21605 29383 24806 27606 21557 27750 24742 14515 18452
39385 31095 36744 34680 28791 28663 25878 19957 11683 6898 4801 7234
21461 21333 15283 20917 18996 18420 30439 28583 23989 22485 13651
10386 28519 15924 26390 39417 33176 29159 23957 17300 22773 33128
36456 34312 18756 13683 17844 10578 28166 31607 29239 30519 34552
37241 50812 58461 59102 59166 39769 40137 38569 37897 37481 45242
55309 49595 38233 37561 39833 38873 29735 21365 3393 10418 30263
16692 19877 20405 27206 14259 22981 30599 18196 17188 7474 5473 25014
40217 36072 32199 26758 11427 4705 9042 27158 25014 16964 28342 25670
21573 11443 26166 35176 31879 26326 16612 23653 7410 11923 21941
19156 27046 27302 18692 12323 23605 38921 25702 26182 19076 14883
30903 32615 28967 37865 43594 43754 45963 56173 61646 57805 37000
38185 35112 35528 39369 49451 56733 65535 53052 31719 30375 30279
13427 6369 4081 4321 15171 14003 22021 17812 26502 19588 37080 15716
7490 10114 7890 11395 37497 42618 41113 42266 29639 10995 29303 23045
24134 17604 15059 19220 19524 25750 21541 15075 21893 26406 29863
19108 29943 28102 14851 24934 32551 22933 23141 36392 34424 21365
25014 24262 28006 25334 15716 26310 31207 32663 42714 37032 42122
38905 43498 51212 35464 30215 33224 29399 35848 41097 50123 54300
55725 60622 39097 36696 27894 13395 10322 6369 4369 20261 22501 11523
19316 15364 18452 25046 7954 7058 8306 11555 30103 35112 35464 35096
38297 20677 20389 41065 36776 26454 32808 23237 8194 29239 44938
27846 16244 11523 14611 24486 22437 15171 18644 27414 29335 27110
14675 20677 24470 23061 29943 32119 27510 27558 20773 14691 24390
27814 28471 37881 36440 33480 38537 39225 36968 32135 32711 39033
37561 46299 42602 40649 48907 48635 44842 23509 31559 33944 12819
5585 18852 8290 18564 22837 10690 21333 21637 9762 9778 9122 8370
5425 18228 36232 39241 40441 40265 41738 22245 29191 20005 22901
33528 35224 23701 12723 18004 21589 13955 16500 22629 20405 28278
33944 26822 17492 10162 16756 21077 7602 11091 10802 13395 11619
23733 19893 12963 10450 19348 26838 25814 24710 36200 34904 19380
31703 34520 32071 32151 30983 40665 42266 39593 36696 34824 36600
40489 36744 14227 18052 29575 29095 13011 18708 14915 12947 18532
16404 27366 23845 19973 21781 8434 6610 7218 22965 28134 21189 19028
16500 14499 18164 19620 19444 21701 17380 17556 11779 12371 6930
15604 17444 13395 21909 20517 23349 27686 29671 33448 26214 19765
11427 9282 9970 12867 13139 8866 4449 5313 7618 9570 11203 14259
22949 21237 25750 27622 14371 18772 34984 28983 31671 32471 34856
39385 36648 33336 33640 32952 33272 32904 12259 8402 22245 29015
14307 10274 13123 10290 13859 18372 20629 38585 20181 8754 9298 7874
7266 32551 25478 5697 2289 3505 20373 23845 13747 12147 15364 11347
11187 12563 14019 23941 34632 35064 24070 32487 39609 37817 33608
30759 28150 21813 18260 27894 18756 9538 10066 10610 11363 6562 7986
8130 6882 11091 13651 31127 36872 33080 34520 25590 14547 30359 28455
32840 38489 30615 35992 34680 30567 29591 29863 30071 28759 12275
5169 14467 9778 6786 12579 14611 15428 12035 23573 18100 26406 28310
18468 10402 7714 9010 6065 3761 4273 6754 9186 21045 15620 6914 6529
7330 11683 15380 11939 12611 32183 26342 24870 17876 17828 24518
33848 40169 39817 39177 35224 20709 30263 29399 9506 9922 10306 12115
6033 6594 6722 10722 21413 20341 27718 40649 38521 37993 37305 22549
29895 31991 29031 28230 34872 37753 31687 29671 31815 27334 18884
22133 16948 6946 8306 4881 6850 16900 17796 14419 19140 22069 20645
16948 29079 7106 8194 8914 7890 11459 27366 35016 36360 39529 31095
5425 7426 8866 6866 7506 35432 18068 11123 31111 23381 16308 15380
23285 27382 9586 18420 34440 32551 25958 17444 16100 22533 10898
12979 16276 11779 4513 10146 25814 29351 24198 23477 17876 14291
16308 18180 27430 29831 27014 27622 27110 26566 31863 31703 28551
27990 27302 25366 18772 13139 14611 8882 7042 6113 12419 28967 18212
8322 15396 19092 10514 11523 25718 13187 7554 7410 8738 19620 24390
26294 25446 23925 16484 4513 9858 11219 13475 12467 26438 18260 13107
13203 10642 17732 11635 18436 24646 17444 13315 21093 17396 7442 8546
13411 18228 13283 10706 20981 23653 14995 14211 16628 13747 11299
27094 29111 20517 24870 22309 23813 32952 34488 35832 35144 35368
38009 35432 32984 30231 26182 21829 17508 11427 6385 7602 8834 8610
10979 18740 19332 12355 11811 15700 23477 13123 16772 14915 7986 9538
9106 12323 17156 22501 24198 26374 26134 15540 14979 22213 19236
18500 16260 12435 11251 11971 9170 14147 9202 6690 8098 8642 8706
6658 7842 14643 17988 21173 12387 12691 12739 17828 12339 8722 7362
4769 3041 10034 19028 19620 21381 21765 22229 25030 31447 27494 27366
31239 30823 38649 35528 33128 30599 25766 24710 11459 12419 9202 6001
7282 8690 10498 15492 19492 14291 14787 12003 12243 8194 7874 11027
17140 10322 10947 9522 11651 12451 14643 18708 21717 23957 20901
18580 11571 11155 9650 8162 8082 8306 8066 10178 12195 10642 10050
10114 7890 12019 17924 16772 23269 24374 15764 10146 11443 11971
15187 10082 7442 6209 11059 23589 20085 13379 12947 12963 12915 13811
26998 28583 14915 19012 22901 38009 38489 36440 33736 28118 17908
7778 12595 9714 6177 7618 13123 9330 12371 13443 13027 9506 13155
15988 12051 7090 9762 18340 11843 17492 19028 9042 8754 10290 13155
13091 11827 9842 7314 7554 8594 11379 8738 8642 7746 8978 17508 13043
12371 10818 14499 16788 15972 17172 14707 12275 13267 10898 5457 6946
6481 8578 7458 7346 10114 16724 24438 25606 21045 16500 16148 16228
15636 15668 26982 17876 16212 21285 34424 35448 38425 28503 16644
16196 5489 6369 6337 14419 12771 6754 9634 7426 8338 10226 14499
10834 12163 13571 15251 7970 3185 11827 18292 20549 13507 14963 13827
11475 10802 7794 5873 7794 6818 6770 9218 9010 10290 19332 14467 7618
3601 6209 9314 17508 14771 7234 7138 9394 16868 18212 13315 6161 7906
9906 7826 16484 28262 11875 6754 12163 17252 19044 18244 17060 16596
14947 13955 17476 21349 20165 20149 37977 35528 18900 3361 4145 7634
3601 5393 11027 12979 8210 11715 11187 6738 8514 15139 20661 16660
7986 9170 11603 9730 9618 11219 13795 14803 15924 16116 14099 12339
10482 9394 9586 12899 10418 10098 12019 10322 10194 18804 8978 6401
6898 7586 10914 15235 10626 4657 3841 5601 10546 10674 12163 8066
19156 23813 19460 10290 32391 30903 18100 8882 8578 11187 9714 9410
9362 9650 8162 9074 15876 19108 17540 30423 10402 2513 3585 5905 5185
5905 7698 8130 7170 8578 14627 11971 6209 6946 17396 17284 14979
27670 18276 16068 12595 9714 13139 9506 11235 13651 13635 12067 11267
11075 11171 9314 8546 9746 8146 11811 6385 7794 8578 10066 20725
11587 6369 12307 14979 13891 8754 6898 10130 11827 6465 7650 16212
16372 22757 23381 8482 12467 31623 31479 27686 21381 17396 21253
17508 17028 16372 10274 11571 18404 21109 20821 16932 9826 8642 8962
11235 10770 10130 10338 6994 4417 10610 11827 9858 8258 8466 10882
13955 15492 19781 18852 15091 12867 6465 8674 6145 5105 7906 8338
9138 10242 10802 9522 7154 6594 7682 7682 3681 5457 9250 10882 8674
22677 29911 18676 12851 15267 14995 10274 7986 9922 9954 7042 5553
15460 19701 13363 5841 7026 7154 30183 26182 17476 18580 19220 24198
27894 30055 30503 29383 27750 26486 26502 24374 20917 21461 24406
25782 23925 19556 16388 15027 13667 12067 12707 12515 16452 12083
7346 9074 12403 14883 9234 7058 12627 4673 3569 7922 7698 7778 8194
8930 9138 9666 9266 9570 7746 10514 12243 20037 14147 9234 10786
10674 6706 6033 17668 22837 17620 24326 17556 8770 8642 11571 9522
8994 8834 8434 20789 22309 12067 4385 8882 21365 24502 22661 12051
7762 11699 17700 19364 19973 20549 24614 27734 27494 25494 17972
17156 15940 14851 14931 14947 14659 16132 13587 16452 23237 20213
14739 10706 6417 7906 9522 7906 7970 7426 7330 9314 5345 6834 8242
7330 7042 6914 6465 7250 8626 9522 12899 13027 11507 15187 15011 9970
9170 10322 17620 13395 8834 4193 11027 22325 24374 9394 14563 15972
11859 10162 9954 10466 11459 28567 17812 12019 14227 22949 30807
36312 33672 24198 15668 14595 15940 16836 16276 16308 21957 27574
28551 14979 13619 13283 13539 13699 12227 13491 15620 11459 9282
10995 8210 7778 6465 6786 8034 9346 10082 8882 8370 7826 6802 7618
7362 5441 5105 5009 4465 4993 6946 9122 9506 10594 9298 8866 7586
6802 7538 8466 9298 10626 10066 8578 7570 9010 12387 19092 17508
24294 29735 25606 22309 21829 24278 10050 26534 24566 17332 14915
18324 25254 33368 37545 39385 37673 35000 34248 32343 30423 27222
26262 30775 30039 17204 19284 21237 19925 18564 14291 11523 10178
6193 6882 9874 10370 10226 7474 7538 8770 8642 9346 7282 7666 7730
6786 4961 6353 5057 5041 5345 5297 5201 5361 5969 6353 7442 7554 7522
7266 7826 8258 8130 8722 9682 10226 10146 7842 7698 6754 17316 25462
25734 29191 32872 36568 36104 34936 20581 20613 27574 16292 13859
13171 12547 12707 15556 19300 23813 27030 29287 30919 32695 31271
28455 25142 23013 18228 19797 18100 15892 15844 13731 10434 9618
10498 9778 8146 6786 5841 5921 7778 8258 6866 8930 7858 7474 7202
6706 6049 6690 7506 6626 6818 6610 5857 5969 6449 7458 7298 7234 9826
12659 16068 14755 16772 20005 21829 23381 19204 12515 11779 10082
13027 20341 19941 24310 26246 29719 30743 37561 36280 26182 31911
25366 16340 15348 14563 14371 14547 13459 12563 12371 12275 12963
13923 14227 13507 13603 14355 14835 14435 12819 11139 10610 10386
8434 6722 6257 4961 4513 4225 4161 4673 5985 6353 5681 7554 7986 6177
6802 6369 6594 6850 5985 6129 6706 8882 12387 12659 12611 10434 11443
16436 23109 26934 28823 27430 26422 26550 28791 30087 28487 26646
25270 23509 22965 21781 17876 13251 8226 7618 16612 34488 34408 37801
33576 32007 25254 17732 16964 16740 15428 15139 15187 14787 14931
15139 15075 15027 16084 16980 16148 14595 13123 12211 11011 10002
9026 6914 5777 6257 5553 6177 7634 8978 9698 10306 12819 13139 11955
11891 9666 8466 10386 10834 12067 13379 13475 12883 12627 16468 22069
21909 16692 24342 26918 27782 28999 29303 29111 27222 27126 25670
25478 28038 29943 25654 22037 15572 10995 6529 3857 4753 6049 7426
19364 21045 31303 33272 26246 17332 13267 17188 22997 19669 17636
16052 15876 15428 14979 15428 15684 16276 16148 15235 15027 14115
14147 12707 12259 11395 9954 8530 8514 9330 10210 9842 9778 9458 9218
10370 11619 12915 14387 15059 15604 17700 19508 21317 20469 19508
20165 21221 22117 20197 13267 15924 20085 18292 18692 16548 16180
16580 18308 20437 24005 26886 30887 25702 16068 14131 10674 9442 8962
10290 13059 19733 20197 22965 26518 27590 29799 26710 20213 17700
17956 19364 20453 18580 17316 16660 16308 16596 16644 16692 16852
15796 14755 15716 14435 13139 12307 11443 10418 8882 9554 8802 9794
10066 9170 8962 9506 10706 12323 12355 12435 11955 12451 12435 13523
13347 13635 14819 15764 14691 14595 14179 12115 13315 14099 13747
15956 16564 18948 21541 24998 28583 30967 33000 34712 34584 31095
26454 23397 21301 23909 26694 28727 33528 36680 34776 32679 33976
32423 31271 30663 29655 25494 22837 20469 18324 18020 17636 19028
18692 17700 17636 16340 15412 15412 15251 16020 14291 13523 13411
13283 12691 12531 12643 12403 12579 12003 11043 11203 12387 16548
21173 22293 18644 15572 14147 13427 13107 14083 14435 16372 20549
24342 26198 27478 27926 29255 28871 28246 29751 29591 28759 29687
28791 27446 28054 27766 28535 29735 30535 30967 30375 28631 30823
31815 31175 32423 33896 33752 34120 35496 31223 26486 22021 20133
19028 18756 18948 18884 18388 19252 19284 18196 17300 17012 17236
16772 16580 16756 15668 15348 16148 16580 16708 16052 15556 14931
14339 13571 12691 15267 16724 21045 26374 24742 24278 25446 22389
20069 19396 20149 21669 21653 23653 25014 26646 27286 26678 28342
27558 27574 25926 23157 22437 20869 20133 20181 21205 21861 23813
25798 26822 27062 28599 30583 30519 31095 29639 31447 30983 31159
30551 30503 27606 22437 20517 21141 20645 20085 18900 18020 19044
20021 18692 18004 18340 18500 18788 18420 16836 17828 17572
