P2
73 43
255
86 81 83 78 90 83 86 81 92 88 83 105 85 89 92 85 101 93 80 114 101 84
110 99 95 115 97 103 114 102 103 106 118 119 114 113 113 119 117 120
121 126 130 122 123 121 120 124 127 129 123 122 126 130 129 126 127
119 123 123 126 126 125 121 123 127 125 121 130 125 112 117 120 78 78
83 83 78 81 93 75 90 97 71 101 87 82 106 85 87 108 89 95 98 99 101
107 105 107 110 105 111 116 122 122 112 114 130 125 125 129 129 127
129 131 129 122 134 139 131 131 134 135 130 132 126 118 131 134 125
128 128 122 129 145 127 131 139 130 124 123 123 123 122 122 122 74 81
76 80 90 73 81 98 68 95 89 78 96 86 91 92 95 97 96 104 113 100 113
131 106 127 171 132 125 117 133 129 145 156 132 128 123 145 141 128
148 126 127 139 127 133 134 141 132 137 121 118 146 148 123 127 127
126 142 127 121 130 123 124 121 126 121 124 122 115 108 109 125 72 71
88 68 80 91 65 95 84 77 90 87 93 93 98 101 109 121 106 116 140 131
118 142 132 198 254 184 131 140 146 210 235 254 215 139 115 130 136
136 136 131 125 134 122 128 134 129 135 143 132 111 129 143 129 120
114 112 132 131 127 121 114 112 114 112 124 130 127 128 121 117 121
75 70 77 76 71 84 79 81 85 96 93 103 104 125 137 119 126 143 140 128
139 153 141 129 135 223 248 253 181 132 213 248 245 248 247 190 119
123 126 140 134 122 136 141 121 123 128 121 126 127 120 119 117 107
109 130 135 126 126 133 134 121 111 109 127 138 138 129 122 117 113
117 129 69 71 68 74 78 74 99 104 106 118 137 141 128 145 132 135 136
138 147 142 131 119 147 145 184 190 207 251 245 174 218 246 240 245
229 249 160 122 138 129 127 129 132 134 123 122 124 122 125 125 115
114 119 139 144 132 122 122 111 117 127 129 138 134 119 109 114 119
127 138 129 123 131 70 85 93 102 125 131 122 150 153 135 149 137 143
154 153 147 136 120 120 147 152 133 145 156 171 177 187 201 249 218
193 226 249 229 206 252 193 129 123 102 127 157 150 138 120 106 133
154 143 133 126 125 120 114 127 138 141 133 137 132 116 113 124 143
143 138 137 134 129 131 128 124 127 141 147 148 151 144 137 122 134
143 146 147 145 137 124 131 131 150 151 129 117 122 148 142 148 153
177 209 206 195 214 201 212 202 187 165 210 207 149 120 76 119 157
160 146 132 130 126 130 135 122 113 128 151 157 149 134 118 120 139
149 149 146 131 121 107 114 134 142 143 144 153 151 142 142 121 135
149 152 146 145 126 125 116 146 160 161 139 118 125 135 151 147 129
122 121 136 152 146 143 181 218 205 158 180 177 155 149 143 73 117
176 123 82 130 121 145 157 146 131 125 142 155 144 129 126 125 129
142 153 154 142 127 127 133 138 144 178 200 161 141 128 114 103 126
149 148 134 151 149 128 108 147 163 155 125 121 153 194 243 208 118
114 120 142 138 138 134 128 143 150 145 132 135 187 212 115 129 149
153 151 188 81 18 126 89 66 149 130 128 141 135 141 157 151 144 140
140 132 118 129 139 140 150 156 149 138 137 141 142 165 228 248 195
210 214 195 151 155 140 129 134 150 162 148 149 151 137 114 133 179
232 244 255 219 151 158 148 137 132 125 110 132 137 126 125 133 185
159 88 111 157 146 139 136 51 26 37 62 55 133 142 150 134 126 120 111
118 144 160 158 139 129 139 148 139 138 150 140 134 141 151 142 142
191 243 244 255 255 255 234 198 123 138 105 122 122 135 156 153 148
147 145 190 211 241 243 255 157 127 149 162 166 161 142 131 131 120
114 137 144 129 119 91 171 168 148 131 40 35 36 61 61 106 83 110 85
43 79 116 114 121 150 158 158 151 145 142 161 140 118 141 134 128 136
152 138 156 222 231 232 252 231 251 228 151 136 155 156 145 138 128
108 132 156 159 199 201 180 170 235 194 105 129 158 163 160 141 118
112 103 130 158 157 149 138 111 116 166 156 158 70 34 33 62 55 37 38
63 63 84 142 156 159 161 131 113 110 106 94 84 95 127 78 65 129 144
134 145 162 146 189 220 224 221 235 249 219 116 126 140 145 144 159
157 135 124 132 164 167 163 184 187 186 176 126 120 123 133 159 85 79
140 119 112 145 157 124 78 66 70 114 109 102 100 68 52 56 24 25 73
129 123 114 122 109 108 131 147 135 115 105 102 107 115 131 93 38 57
123 137 134 143 151 156 167 195 213 232 233 233 166 141 152 135 118
117 147 164 153 144 160 161 150 160 183 202 147 108 92 96 99 109 40
132 157 130 115 99 69 37 17 16 13 42 88 60 32 75 67 51 41 76 148 140
148 105 70 148 126 123 114 112 111 126 152 157 150 149 109 54 50 49
109 117 107 70 85 114 147 189 216 218 227 155 130 143 137 144 134 114
113 139 146 148 163 176 165 84 114 96 107 83 107 96 56 71 153 121 142
134 112 111 100 77 45 26 18 28 83 83 59 81 73 71 118 111 93 87 53 40
111 62 102 153 129 113 93 67 88 128 141 133 73 53 69 41 109 123 113
118 134 144 197 227 229 230 154 156 150 147 145 176 215 192 148 146
155 151 115 83 13 40 117 64 77 79 105 55 89 119 70 66 29 21 97 156
140 125 104 44 18 35 105 97 66 110 99 83 44 101 136 124 102 64 92 28
46 85 74 105 106 72 47 91 151 100 101 74 57 120 126 112 147 169 170
178 218 239 224 144 148 136 138 153 192 220 255 206 123 118 117 52 24
15 16 59 54 85 69 103 76 144 61 29 39 30 44 145 165 159 164 115 42
114 89 93 68 58 74 75 100 83 58 85 102 116 74 116 109 57 97 126 89 90
141 133 83 97 94 108 98 61 102 121 127 166 144 163 151 169 199 138
117 129 114 139 159 195 211 216 235 152 142 108 52 40 24 17 78 87 44
75 59 71 97 30 27 32 44 117 136 138 136 149 80 79 159 143 102 127 90
31 113 174 108 63 44 56 95 87 59 72 106 114 105 57 80 95 89 116 125
107 107 80 57 94 108 110 147 141 130 149 152 143 125 127 151 146 180
165 158 190 189 174 91 122 132 49 21 73 32 72 88 41 83 84 38 38 35 32
21 70 141 152 157 156 162 86 113 77 89 130 137 92 49 70 84 54 64 88
79 110 132 104 68 39 65 82 29 43 42 52 45 92 77 50 40 75 104 100 96
140 135 75 123 134 124 125 120 158 164 154 142 135 142 157 143 55 70
115 113 50 72 58 50 72 63 106 92 77 84 32 25 28 89 109 82 74 64 56 70
76 75 84 67 68 45 48 26 60 67 52 85 79 90 107 115 130 102 76 44 36 38
50 51 34 17 20 29 37 43 55 89 82 100 107 55 73 136 112 123 126 135
153 142 129 130 128 129 128 47 32 86 112 55 40 51 40 53 71 80 150 78
34 36 30 28 126 99 22 8 13 79 92 53 47 59 44 43 48 54 93 134 136 93
126 154 147 130 119 109 84 71 108 72 37 39 41 44 25 31 31 26 43 53
121 143 128 134 99 56 118 110 127 149 119 140 134 118 115 116 117 111
47 20 56 38 26 48 56 60 46 91 70 102 110 71 40 30 35 23 14 16 26 35
81 60 26 25 28 45 59 46 49 125 102 96 69 69 95 131 156 154 152 137 80
117 114 37 38 40 47 23 25 26 41 83 79 107 158 149 147 145 87 116 124
112 109 135 146 123 115 123 106 73 86 65 27 32 19 26 65 69 56 74 85
80 65 113 27 31 34 30 44 106 136 141 153 121 21 28 34 26 29 137 70 43
121 90 63 59 90 106 37 71 134 126 101 67 62 87 42 50 63 45 17 39 100
114 94 91 69 55 63 70 106 116 105 107 105 103 124 123 111 108 106 98
73 51 56 34 27 23 48 112 70 32 59 74 40 44 100 51 29 28 34 76 94 102
99 93 64 17 38 43 52 48 102 71 51 51 41 69 45 71 95 67 51 82 67 28 33
52 70 51 41 81 92 58 55 64 53 44 105 113 79 96 86 92 128 134 139 136
137 147 137 128 117 101 84 68 44 24 29 34 33 42 72 75 48 45 61 91 51
65 58 31 37 35 47 66 87 94 102 101 60 58 86 74 72 63 48 43 46 35 55
35 26 31 33 33 25 30 56 70 82 48 49 49 69 48 33 28 18 11 39 74 76 83
84 86 97 122 107 106 121 119 150 138 128 119 100 96 44 48 35 23 28 33
40 60 75 55 57 46 47 31 30 42 66 40 42 37 45 48 56 72 84 93 81 72 45
43 37 31 31 32 31 39 47 41 39 39 30 46 69 65 90 94 61 39 44 46 59 39
28 24 43 91 78 52 50 50 50 53 105 111 58 74 89 147 149 141 131 109 69
30 49 37 24 29 51 36 48 52 50 37 51 62 46 27 38 71 46 68 74 35 34 40
51 50 46 38 28 29 33 44 34 33 30 34 68 50 48 42 56 65 62 66 57 47 51
42 21 27 25 33 29 28 39 65 95 99 81 64 62 63 60 60 105 69 63 82 133
137 149 110 64 63 21 24 24 56 49 26 37 28 32 39 56 42 47 52 59 31 12
46 71 79 52 58 53 44 42 30 22 30 26 26 35 35 40 75 56 29 14 24 36 68
57 28 27 36 65 70 51 23 30 38 30 64 109 46 26 47 67 74 71 66 64 58 54
68 83 78 78 147 138 73 13 16 29 14 21 42 50 31 45 43 26 33 58 80 64
31 35 45 37 37 43 53 57 62 62 54 48 40 36 37 50 40 39 46 40 39 73 34
24 26 29 42 59 41 18 14 21 41 41 47 31 74 92 75 40 126 120 70 34 33
43 37 36 36 37 31 35 61 74 68 118 40 9 13 22 20 23 29 31 27 33 56 46
24 27 67 67 58 107 71 62 49 37 51 37 43 53 53 46 43 43 43 36 33 37 31
45 24 30 33 39 80 45 24 47 58 54 34 26 39 46 25 29 63 63 88 90 33 48
123 122 107 83 67 82 68 66 63 40 45 71 82 81 65 38 33 34 43 41 39 40
27 17 41 46 38 32 32 42 54 60 76 73 58 50 25 33 23 19 30 32 35 39 42
37 27 25 29 29 14 21 36 42 33 88 116 72 50 59 58 39 31 38 38 27 21 60
76 52 22 27 27 117 101 68 72 74 94 108 116 118 114 108 103 103 94 81
83 94 100 93 76 63 58 53 46 49 48 64 47 28 35 48 57 35 27 49 18 13 30
29 30 31 34 35 37 36 37 30 40 47 77 55 35 41 41 26 23 68 88 68 94 68
34 33 45 37 35 34 32 80 86 46 17 34 83 95 88 46 30 45 68 75 77 79 95
107 107 99 69 66 62 57 58 58 57 62 52 64 90 78 57 41 24 30 37 30 31
28 28 36 20 26 32 28 27 26 25 28 33 37 50 50 44 59 58 38 35 40 68 52
34 16 42 86 94 36 56 62 46 39 38 40 44 111 69 46 55 89 119 141 131 94
61 56 62 65 63 63 85 107 111 58 53 51 52 53 47 52 60 44 36 42 31 30
25 26 31 36 39 34 32 30 26 29 28 21 19 19 17 19 27 35 37 41 36 34 29
26 29 32 36 41 39 33 29 35 48 74 68 94 115 99 86 84 94 39 103 95 67
58 71 98 129 146 153 146 136 133 125 118 105 102 119 116 67 75 82 77
72 55 44 39 24 26 38 40 39 29 29 34 33 36 28 29 30 26 19 24 19 19 20
20 20 20 23 24 29 29 29 28 30 32 31 33 37 39 39 30 29 26 67 99 100
113 127 142 140 135 80 80 107 63 53 51 48 49 60 75 92 105 113 120 127
121 110 97 89 70 77 70 61 61 53 40 37 40 38 31 26 22 23 30 32 26 34
30 29 28 26 23 26 29 25 26 25 22 23 25 29 28 28 38 49 62 57 65 77 84
90 74 48 45 39 50 79 77 94 102 115 119 146 141 101 124 98 63 59 56 55
56 52 48 48 47 50 54 55 52 52 55 57 56 49 43 41 40 32 26 24 19 17 16
16 18 23 24 22 29 31 24 26 24 25 26 23 23 26 34 48 49 49 40 44 63 89
104 112 106 102 103 112 117 110 103 98 91 89 84 69 51 32 29 64 134
133 147 130 124 98 69 66 65 60 58 59 57 58 58 58 58 62 66 62 56 51 47
42 38 35 26 22 24 21 24 29 34 37 40 49 51 46 46 37 32 40 42 47 52 52
50 49 64 85 85 64 94 104 108 112 114 113 105 105 99 99 109 116 99 85
60 42 25 15 18 23 28 75 81 121 129 102 67 51 66 89 76 68 62 61 60 58
60 61 63 62 59 58 54 55 49 47 44 38 33 33 36 39 38 38 36 35 40 45 50
56 58 60 68 75 82 79 75 78 82 86 78 51 62 78 71 72 64 62 64 71 79 93
104 120 100 62 55 41 36 34 40 50 76 78 89 103 107 115 103 78 68 69 75
79 72 67 64 63 64 64 64 65 61 57 61 56 51 47 44 40 34 37 34 38 39 35
34 37 41 47 48 48 46 48 48 52 51 53 57 61 57 56 55 47 51 54 53 62 64
73 83 97 111 120 128 135 134 121 102 91 82 93 103 111 130 142 135 127
132 126 121 119 115 99 88 79 71 70 68 74 72 68 68 63 59 59 59 62 55
52 52 51 49 48 49 48 48 46 43 43 48 64 82 86 72 60 55 52 51 54 56 63
80 94 101 106 108 113 112 109 115 115 111 115 112 106 109 108 111 115
118 120 118 111 119 123 121 126 131 131 132 138 121 103 85 78 74 73
73 73 71 74 75 70 67 66 67 65 64 65 61 59 62 64 65 62 60 58 55 52 49
59 65 81 102 96 94 99 87 78 75 78 84 84 92 97 103 106 103 110 107 107
100 90 87 81 78 78 82 85 92 100 104 105 111 119 118 121 115 122 120
121 118 118 107 87 79 82 80 78 73 70 74 77 72 70 71 72 73 71 65 69 68
