P2
73 43
65535
22203 20989 21437 20162 23258 21557 22268 20901 23874 22711 21546
27020 22022 23087 23693 22045 26112 24095 20607 29493 26173 21775
28358 25643 24520 29592 24957 26726 29492 26260 26622 27423 30457
30750 29472 29193 29257 30620 30269 30998 31276 32395 33444 31433
31845 31175 31041 32013 32724 33277 31801 31410 32414 33648 33168
32544 32699 30789 31847 31778 32445 32445 32182 31168 31611 32675
32283 31346 33576 32157 28834 30190 30944 20301 20200 21375 21370
20090 20924 24153 19296 23130 25063 18408 26158 22443 21106 27269
22099 22531 27863 22903 24600 25356 25457 26081 27691 27128 27605
28298 27067 28580 29840 31511 31428 28972 29416 33638 32205 32293
33163 33190 32720 33192 33680 33156 31370 34580 35771 33692 33762
34654 34916 33545 34024 32412 30445 33736 34539 32353 32946 32991
31374 33319 37402 32736 33919 35806 33462 32011 31746 31836 31626
31523 31438 31362 19041 20962 19712 20632 23356 18946 21003 25252
17721 24553 22967 20274 24771 22171 23631 23701 24665 24961 24715
26920 29132 25700 29245 33775 27411 32829 44110 33939 32236 30102
34288 33243 37388 40247 34152 33132 31816 37277 36258 32988 38060
32574 32697 35976 32878 34393 34471 36371 34159 35317 31156 30440
37625 38081 31853 32643 32830 32414 36614 32655 31325 33502 31667
31959 31292 32593 31163 31914 31356 29643 27756 28124 32134 18529
18274 22737 17640 20614 23502 16799 24623 21815 19948 23251 22574
24006 23915 25372 25976 28123 31280 27398 29892 36153 33677 30393
36543 34055 50979 65467 47432 33714 36131 37744 54091 60417 65371
55281 35892 29656 33507 34977 34970 35094 33713 32251 34438 31549
33067 34514 33184 34787 36881 34070 28536 33312 36924 33290 31050
29480 28806 34045 33842 32705 31204 29548 28818 29363 28939 31932
33566 32681 32934 31326 30137 31206 19389 18065 19840 19682 18466
21800 20413 20899 21908 24900 24085 26700 26765 32300 35355 30604
32562 36771 36235 33138 35970 39437 36323 33374 34772 57501 63965
65143 46713 33926 54768 63901 63153 63794 63594 48874 30658 31804
32580 36220 34678 31453 34967 36302 31255 31616 33118 31299 32390
32701 30915 30681 30161 27572 28062 33521 34849 32516 32591 34389
34445 31169 28628 28068 32839 35466 35651 33226 31376 30131 29265
30180 33160 17946 18301 17529 19226 20295 19107 25579 26823 27408
30446 35326 36398 33041 37289 34050 34894 34997 35657 38006 36744
33797 30688 37845 37343 47454 48948 53283 64691 63003 44737 56190
63313 61934 62978 59088 64128 41311 31516 35596 33193 32681 33286
34129 34654 31820 31554 32081 31444 32254 32182 29804 29315 30796
35785 37199 33947 31537 31423 28553 30233 32739 33189 35535 34662
30704 28100 29469 30586 32884 35475 33386 31844 33918 18148 21945
24033 26375 32288 33782 31460 38630 39513 34937 38450 35350 36887
39726 39372 37932 35168 30923 31005 37871 39075 34382 37365 40320
44086 45579 48222 51784 64137 56247 49654 58122 63995 58943 53137
64913 49691 33399 31768 26352 32884 40593 38753 35690 31049 27449
34326 39585 36954 34390 32397 32283 30944 29378 32844 35522 36484
34196 35429 33960 29960 29114 31954 36903 36851 35676 35292 34524
33215 33732 32982 32014 32892 36430 37804 38292 38891 37136 35247
31432 34511 36948 37611 37941 37508 35229 32005 33823 33889 38601
38976 33260 30091 31539 38196 36735 38055 39401 45698 53768 53152
50218 55252 51798 54582 52168 48141 42444 54064 53396 38323 30975
19605 30814 40490 41269 37642 34074 33560 32473 33419 34811 31458
29244 32955 39028 40488 38545 34499 30395 30919 35759 38380 38388
37664 33740 31317 27630 29331 34588 36746 36883 37126 39528 39057
36684 36668 31282 34931 38328 39238 37737 37328 32557 32206 29886
37718 41235 41394 35790 30437 32270 34777 39000 37843 33353 31398
31141 35007 39084 37769 36980 46612 56132 52797 40709 46510 45701
39976 38402 36950 18993 30159 45305 31840 21079 33508 31330 37499
40516 37589 33902 32324 36621 40028 37087 33258 32441 32145 33380
36659 39374 39719 36607 32692 32694 34402 35695 37244 45851 51513
41434 36348 32981 29467 26693 32626 38344 38129 34513 38825 38313
33046 27934 37904 41960 39874 32297 31104 39398 49879 62456 53536
30481 29373 30927 36523 35511 35630 34563 33120 36932 38698 37336
34027 34774 48176 54498 29588 33168 38326 39540 39051 48390 20996
4809 32499 22890 17094 38313 33416 33048 36302 34943 36468 40529
38958 37118 36109 36070 34142 30432 33395 35735 36163 38640 40297
38333 35647 35437 36444 36668 42445 58628 63740 50198 54132 55108
50331 38861 39927 35988 33295 34550 38804 41665 38251 38343 39034
35337 29367 34390 46033 59879 62815 65535 56332 38901 40759 38153
35211 34062 32273 28420 34002 35332 32391 32250 34202 47546 41013
22770 28722 40470 37668 35974 35145 13307 6894 9635 16075 14379 34404
36666 38716 34654 32429 31079 28649 30480 37208 41220 40814 35923
33200 35865 38219 35727 35607 38599 36002 34522 36282 38913 36634
36681 49334 62529 62779 65535 65535 65535 60138 51054 31750 35719
27060 31380 31385 34934 40093 39560 38184 37938 37394 48928 54317
61994 62531 65535 40359 32849 38460 41643 42859 41593 36665 33885
33787 31030 29430 35358 37068 33389 30701 23427 44018 43328 38162
33782 10527 9024 9300 15821 15786 27412 21464 28322 22048 11124 20466
29909 29368 31108 38580 40694 40634 38856 37281 36606 41402 36092
30524 36323 34568 32984 35025 39157 35498 40264 57300 59533 59877
64800 59391 64638 58848 38833 34988 39978 40205 37462 35507 32939
27957 34116 40210 41110 51243 51767 46276 43805 60537 49864 27225
33196 40752 41915 41208 36460 30342 28805 26648 33501 40802 40527
38470 35659 28739 30067 42894 40273 40620 18224 8882 8685 16091 14318
9702 9947 16334 16329 21758 36644 40318 40968 41631 33722 29275 28519
27274 24360 21767 24649 32837 20172 16767 33379 37165 34512 37404
41712 37713 48786 56756 57821 57043 60627 64027 56394 29895 32504
36188 37335 37247 41036 40408 34862 31967 34083 42185 42977 42053
47411 48170 47883 45447 32553 30869 31616 34187 41012 21847 20339
36110 30627 29005 37394 40371 31947 20164 16985 18079 29355 28238
26217 25933 17728 13502 14536 6269 6479 18990 33322 31621 29429 31510
28252 27841 33834 38026 34899 29712 27142 26324 27729 29796 33828
24130 9823 14745 31783 35464 34453 36889 38823 40242 43152 50340
54764 59837 59970 60130 42694 36453 39069 34754 30337 30088 37779
42326 39481 37039 41351 41452 38768 41368 47098 52166 37924 27793
23859 24673 25695 28039 10425 34084 40563 33536 29798 25519 17950
9652 4488 4210 3579 11013 22831 15527 8430 19398 17306 13123 10620
19577 38103 36196 38206 27019 18041 38204 32613 31669 29334 28845
28682 32404 39077 40452 38563 38544 28169 13970 12856 12689 28200
30115 27608 18024 21942 29444 37804 48707 55727 56232 58510 40040
33654 36893 35220 37250 34677 29362 29268 35960 37766 38257 41981
45413 42455 21614 29387 24818 27619 21571 27753 24752 14522 18454
39397 31108 36745 34681 28798 28664 25888 19958 11696 6913 4804 7236
21474 21342 15286 20929 19007 18434 30447 28596 23996 22489 13655
10402 28528 15935 26391 39432 33188 29164 23959 17301 22785 33138
36460 34326 18769 13689 17857 10591 28180 31616 29246 30529 34552
37243 50813 58472 59105 59176 39781 40147 38569 37900 37491 45247
55323 49595 38241 37573 39839 38886 29747 21367 3398 10426 30273
16699 19877 20418 27212 14272 22985 30602 18200 17190 7487 5478 25014
40226 36087 32199 26764 11434 4718 9056 27161 25015 16966 28350 25673
21574 11452 26174 35189 31882 26332 16613 23661 7412 11923 21943
19159 27059 27312 18702 12334 23608 38928 25710 26185 19082 14891
30918 32618 28977 37880 43604 43769 45978 56182 61649 57808 37009
38187 35116 35529 39376 49453 56743 65535 53053 31732 30378 30285
13442 6373 4087 4334 15176 14008 22024 17827 26506 19598 37085 15728
7495 10127 7900 11396 37503 42621 41116 42272 29643 11002 29309 23053
24143 17611 15070 19224 19528 25754 21545 15082 21900 26419 29874
19124 29947 28108 14852 24936 32566 22937 23149 36398 34435 21366
25021 24269 28008 25344 15719 26313 31220 32664 42714 37046 42137
38915 43498 51213 35469 30230 33230 29401 35857 41111 50136 54305
55736 60634 39104 36707 27902 13404 10326 6372 4383 20262 22512 11529
19318 15365 18457 25053 7966 7062 8314 11558 30112 35126 35472 35099
38297 20679 20395 41080 36780 26466 32820 23247 8197 29241 44941
27851 16247 11526 14611 24497 22443 15180 18652 27428 29339 27122
14683 20689 24477 23067 29953 32126 27510 27570 20775 14696 24403
27823 28471 37884 36441 33486 38538 39231 36977 32151 32720 39042
37563 46299 42607 40652 48913 48642 44850 23524 31560 33945 12823
5588 18864 8305 18569 22840 10694 21341 21637 9773 9793 9136 8374
5435 18229 36241 39245 40452 40278 41753 22253 29191 20019 22915
33529 35233 23704 12733 18016 21596 13956 16507 22639 20410 28293
33949 26829 17496 10168 16760 21084 7602 11091 10813 13406 11624
23739 19897 12963 10463 19348 26841 25827 24717 36206 34906 19382
31707 34533 32086 32161 30983 40675 42274 39606 36700 34824 36611
40503 36754 14240 18066 29582 29109 13023 18718 14928 12951 18542
16411 27377 23851 19979 21790 8436 6623 7224 22972 28137 21197 19042
16512 14507 18172 19634 19454 21704 17386 17566 11780 12374 6935
15612 17444 13409 21916 20524 23360 27700 29674 33462 26219 19765
11442 9283 9983 12874 13145 8875 4461 5323 7623 9582 11204 14270
22952 21242 25752 27630 14387 18785 34986 28991 31673 32479 34858
39387 36657 33342 33643 32963 33278 32913 12268 8413 22256 29026
14318 10282 13136 10296 13871 18381 20631 38587 20192 8759 9306 7887
7274 32557 25491 5712 2290 3506 20372 23853 13756 12162 15373 11359
11199 12565 14030 23953 34637 35067 24070 32489 39619 37825 33611
30770 28163 21824 18263 27900 18760 9550 10074 10623 11368 6572 7987
8139 6888 11105 13656 31133 36878 33080 34532 25591 14548 30370 28467
32848 38501 30626 35994 34694 30581 29602 29866 30078 28772 12286
5174 14468 9780 6786 12581 14615 15433 12040 23586 18111 26417 28310
18468 10412 7722 9015 6066 3764 4287 6769 9194 21050 15631 6928 6534
7337 11686 15380 11945 12621 32184 26348 24884 17889 17834 24529
33853 40181 39819 39178 35232 20723 30276 29410 9515 9934 10312 12116
6037 6595 6728 10737 21413 20346 27719 40663 38528 38002 37316 22550
29908 31995 29040 28239 34874 37765 31688 29677 31830 27346 18889
22147 16953 6955 8319 4895 6850 16903 17804 14429 19146 22081 20657
16949 29085 7119 8204 8928 7894 11468 27378 35028 36372 39544 31108
5439 7441 8870 6866 7519 35434 18068 11125 31121 23383 16321 15383
23292 27385 9592 18427 34445 32553 25961 17454 16114 22540 10912
12980 16286 11785 4528 10151 25820 29356 24203 23477 17880 14301
16316 18181 27439 29845 27020 27638 27111 26578 31873 31719 28558
27993 27303 25365 18782 13142 14615 8896 7056 6114 12430 28977 18223
8332 15397 19095 10519 11532 25725 13187 7558 7422 8750 19634 24405
26309 25445 23941 16485 4513 9872 11221 13487 12482 26443 18267 13115
13213 10657 17733 11641 18444 24651 17449 13318 21098 17408 7444 8557
13424 18233 13295 10709 20985 23669 14998 14223 16639 13760 11313
27108 29124 20528 24879 22320 23823 32966 34500 35843 35148 35380
38013 35440 32988 30240 26187 21843 17520 11430 6400 7611 8842 8619
10981 18748 19339 12357 11817 15707 23479 13126 16782 14924 7987 9539
9121 12327 17165 22507 24207 26374 26135 15543 14986 22225 19238
18507 16265 12436 11266 11973 9183 14150 9214 6696 8098 8650 8709
6669 7854 14646 17995 21178 12390 12706 12750 17839 12344 8731 7371
4784 3050 10046 19031 19631 21387 21772 22238 25045 31453 27507 27370
31239 30823 38660 35532 33133 30599 25771 24716 11472 12424 9214 6015
7297 8695 10510 15491 19502 14302 14799 12009 12250 8195 7888 11039
17141 10333 10953 9533 11657 12459 14647 18714 21724 23960 20912
18590 11582 11164 9653 8168 8088 8319 8073 10188 12204 10645 10057
10130 7894 12032 17935 16780 23276 24374 15764 10148 11448 11973
15191 10096 7451 6211 11072 23603 20094 13381 12949 12977 12926 13818
27012 28592 14928 19026 22909 38008 38502 36447 33744 28131 17919
7783 12595 9719 6184 7625 13133 9344 12371 13456 13032 9511 13155
15992 12054 7092 9768 18355 11848 17504 19036 9046 8764 10292 13159
13092 11828 9848 7326 7557 8604 11388 8748 8653 7758 8987 17515 13052
12383 10826 14511 16798 15983 17179 14721 12290 13271 10902 5473 6951
6488 8588 7466 7355 10119 16724 24442 25619 21051 16501 16156 16231
15639 15672 26988 17883 16220 21298 34427 35459 38438 28516 16653
16211 5493 6374 6352 14420 12780 6758 9647 7438 8353 10233 14506
10849 12171 13578 15266 7984 3186 11838 18303 20549 13516 14967 13840
11484 10812 7804 5887 7801 6822 6783 9231 9015 10305 19348 14476 7624
3600 6221 9324 17512 14779 7240 7138 9403 16873 18214 13316 6164 7911
9915 7826 16488 28265 11889 6760 12167 17267 19055 18256 17068 16607
14951 13957 17477 21362 20169 20150 37986 35538 18911 3370 4156 7649
3606 5397 11036 12982 8221 11722 11199 6742 8521 15148 20664 16675
7989 9172 11615 9736 9628 11233 13803 14817 15938 16129 14107 12349
10483 9400 9597 12913 10431 10104 12026 10323 10201 18819 8989 6408
6912 7590 10916 15237 10632 4662 3847 5615 10550 10681 12170 8078
19170 23828 19468 10298 32403 30903 18112 8887 8579 11187 9721 9424
9372 9650 8163 9086 15880 19122 17540 30425 10408 2523 3589 5910 5186
5917 7706 8133 7172 8579 14632 11982 6214 6959 17409 17288 14994
27677 18291 16068 12610 9729 13153 9521 11236 13663 13646 12073 11271
11076 11179 9328 8556 9747 8158 11812 6387 7804 8581 10073 20725
11594 6384 12319 14983 13903 8764 6899 10139 11829 6467 7651 16224
16376 22769 23382 8492 12470 31628 31480 27695 21388 17411 21258
17521 17033 16375 10285 11571 18419 21118 20826 16937 9830 8657 8975
11242 10774 10135 10348 7003 4428 10611 11837 9859 8272 8470 10895
13961 15498 19783 18865 15100 12877 6468 8681 6146 5118 7916 8340
9150 10245 10810 9533 7160 6606 7695 7688 3696 5466 9264 10888 8682
22684 29911 18689 12866 15278 15008 10278 7993 9932 9970 7048 5567
15472 19711 13378 5852 7030 7167 30190 26197 17490 18591 19234 24198
27907 30064 30504 29395 27761 26488 26510 24381 20918 21470 24405
25785 23938 19570 16395 15042 13669 12075 12719 12522 16460 12094
7360 9086 12417 14895 9243 7068 12631 4686 3574 7930 7707 7783 8206
8939 9143 9672 9266 9577 7749 10525 12252 20043 14162 9245 10788
10686 6719 6035 17674 22849 17635 24334 17566 8785 8653 11578 9528
8999 8848 8439 20789 22320 12075 4386 8895 21375 24509 22672 12065
7772 11704 17715 19367 19976 20552 24614 27741 27504 25495 17985
17167 15951 14855 14938 14962 14665 16135 13596 16463 23245 20216
14754 10716 6424 7911 9525 7915 7980 7441 7342 9322 5359 6838 8253
7337 7049 6923 6473 7251 8634 9537 12914 13030 11522 15188 15016 9985
9183 10334 17628 13397 8839 4206 11037 22325 24378 9395 14566 15979
11868 10170 9967 10470 11474 28576 17819 12030 14228 22958 30812
36327 33675 24204 15680 14610 15941 16846 16284 16316 21960 27581
28556 14985 13628 13290 13548 13712 12230 13493 15624 11462 9295
11007 8223 7783 6481 6795 8037 9348 10084 8888 8381 7829 6816 7626
7377 5444 5105 5023 4475 5006 6958 9124 9509 10594 9303 8880 7587
6804 7552 8471 9299 10639 10068 8584 7584 9016 12388 19095 17510
24299 29744 25613 22312 21844 24292 10053 26539 24578 17341 14916
18339 25255 33380 37559 39394 37675 35015 34250 32346 30425 27232
26274 30786 30040 17219 19287 21241 19932 18565 14294 11526 10193
6209 6883 9889 10385 10227 7478 7553 8783 8643 9355 7297 7680 7742
6788 4972 6356 5072 5047 5357 5300 5203 5368 5969 6364 7455 7562 7523
7278 7834 8271 8144 8736 9684 10227 10159 7856 7708 6758 17330 25469
25745 29202 32884 36570 36109 34945 20590 20621 27579 16294 13872
13180 12556 12717 15565 19310 23814 27040 29294 30933 32705 31280
28463 25152 23022 18238 19800 18113 15896 15848 13744 10446 9626
10513 9790 8159 6795 5849 5931 7778 8259 6867 8939 7871 7484 7206
6715 6055 6702 7516 6638 6830 6625 5870 5979 6452 7460 7312 7245 9828
12671 16078 14763 16773 20005 21844 23386 19209 12527 11787 10084
13036 20341 19953 24320 26253 29720 30757 37563 36288 26186 31916
25379 16339 15355 14577 14371 14561 13472 12570 12380 12286 12967
13930 14235 13514 13612 14367 14837 14444 12819 11142 10610 10394
8435 6735 6261 4976 4521 4230 4169 4684 5990 6359 5683 7558 7986 6178
6801 6378 6597 6857 5988 6135 6714 8892 12399 12669 12611 10443 11452
16438 23120 26936 28832 27430 26430 26552 28802 30088 28490 26661
25272 23516 22971 21793 17876 13261 8230 7621 16619 34501 34408 37802
33576 32014 25259 17741 16965 16747 15434 15153 15193 14790 14937
15143 15090 15029 16091 16985 16163 14607 13131 12226 11012 10003
9030 6929 5784 6269 5567 6182 7646 8982 9710 10311 12834 13145 11955
11900 9671 8466 10392 10844 12079 13385 13488 12896 12629 16471 22073
21912 16694 24342 26930 27789 29000 29318 29123 27234 27130 25679
25484 28046 29957 25666 22051 15571 10996 6531 3867 4754 6055 7435
19374 21049 31313 33287 26259 17343 13274 17194 23005 19671 17639
16053 15880 15440 14988 15435 15685 16280 16163 15248 15030 14120
14150 12721 12260 11409 9956 8545 8517 9344 10226 9856 9784 9468 9232
10371 11632 12922 14394 15065 15617 17709 19514 21323 20471 19513
20167 21227 22125 20201 13267 15934 20100 18294 18708 16549 16189
16586 18317 20442 24010 26892 30899 25713 16072 14146 10689 9446 8967
10292 13066 19745 20206 22975 26521 27597 29808 26716 20215 17709
17964 19366 20462 18582 17323 16666 16323 16609 16653 16699 16855
15798 14760 15720 14436 13151 12315 11449 10426 8883 9561 8810 9795
10082 9181 8973 9512 10715 12324 12367 12442 11961 12462 12444 13527
13354 13637 14820 15764 14700 14605 14183 12122 13317 14100 13753
15958 16565 18954 21543 25013 28593 30977 33014 34724 34599 31097
26457 23410 21311 23913 26698 28736 33528 36689 34776 32685 33977
32438 31282 30664 29655 25505 22844 20473 18324 18030 17645 19037
18698 17705 17647 16352 15414 15412 15255 16033 14294 13528 13415
13297 12704 12541 12657 12406 12589 12008 11051 11207 12390 16552
21184 22296 18652 15578 14159 13430 13115 14083 14448 16382 20564
24346 26203 27486 27935 29258 28877 28256 29765 29598 28764 29689
28804 27451 28069 27776 28536 29744 30550 30982 30382 28638 30826
31830 31187 32425 33907 33763 34124 35501 31234 26496 22036 20139
19036 18771 18949 18897 18395 19264 19297 18202 17312 17025 17248
16778 16592 16760 15677 15360 16153 16593 16714 16067 15559 14935
14341 13579 12703 15269 16725 21058 26377 24745 24290 25447 22392
20071 19406 20152 21682 21661 23663 25027 26657 27289 26678 28351
27561 27579 25933 23167 22447 20878 20146 20190 21205 21866 23819
25804 26823 27073 28605 30597 30522 31106 29650 31457 30998 31174
30552 30517 27615 22440 20521 21140 20649 20088 18911 18021 19060
20025 18696 18005 18348 18509 18794 18429 16844 17835 17584
