P2
73 43
65535
22165 20948 21397 20115 23254 21525 22229 20884 23831 22678 21525
26970 21973 23062 23639 22037 26073 24087 20564 29468 26137 21717
28315 25625 24472 29532 24920 26714 29468 26201 26586 27418 30429
30750 29468 29148 29212 30557 30237 30942 31262 32351 33440 31390
31839 31134 31006 31967 32671 33248 31775 31390 32351 33632 33120
32543 32671 30750 31839 31775 32415 32415 32159 31134 31582 32671
32223 31326 33568 32095 28828 30173 30942 20243 20179 21333 21333
20051 20884 24151 19283 23126 25048 18386 26137 22422 21076 27226
22037 22486 27803 22870 24600 25304 25432 26073 27675 27098 27546
28251 27034 28571 29789 31454 31390 28956 29404 33632 32159 32287
33120 33184 32671 33184 33632 33120 31326 34529 35746 33632 33760
34593 34914 33504 34017 32351 30429 33696 34529 32351 32928 32928
31326 33312 37348 32735 33889 35746 33440 31967 31710 31775 31582
31518 31390 31326 19026 20948 19667 20628 23318 18898 20948 25240
17681 24536 22934 20243 24728 22165 23575 23639 24664 24920 24664
26906 29084 25689 29212 33760 27354 32800 44074 33889 32223 30045
34273 33184 37348 40231 34145 33120 31775 37220 36195 32928 38053
32543 32671 35939 32864 34337 34465 36323 34145 35298 31134 30429
37604 38053 31839 32607 32800 32351 36579 32607 31262 33440 31646
31903 31262 32543 31134 31903 31326 29596 27739 28123 32095 18514
18258 22678 17617 20564 23447 16784 24600 21781 19923 23190 22550
23959 23895 25368 25945 28123 31262 27354 29853 36131 33632 30365
36515 34017 50929 65407 47406 33696 36131 37732 54068 60410 65343
55221 35874 29596 33504 34914 34914 35042 33696 32223 34401 31518
33056 34465 33184 34785 36835 34017 28507 33312 36899 33248 31006
29468 28764 34017 33825 32671 31198 29532 28764 29340 28892 31903
33504 32671 32928 31326 30109 31198 19347 18065 19795 19667 18450
21781 20372 20884 21845 24856 24023 26650 26714 32287 35298 30557
32543 36771 36195 33120 35939 39398 36323 33312 34721 57463 63933
65087 46701 33889 54709 63869 63101 63741 63549 48815 30621 31775
32543 36195 34657 31390 34914 36259 31198 31582 33056 31262 32351
32671 30878 30621 30109 27546 28059 33504 34785 32479 32543 34337
34401 31134 28571 28059 32800 35426 35618 33184 31326 30109 29212
30173 33120 17937 18258 17489 19218 20243 19090 25561 26778 27354
30429 35298 36387 32992 37284 34017 34850 34978 35618 37989 36707
33760 30685 37796 37284 47406 48943 53235 64638 62973 44715 56182
63293 61883 62973 59065 64126 41256 31454 35554 33184 32671 33248
34081 34593 31775 31518 32031 31390 32223 32159 29789 29276 30750
35746 37156 33889 31518 31390 28507 30173 32735 33184 35490 34657
30685 28059 29468 30557 32864 35426 33376 31839 33889 18129 21909
24023 26329 32287 33760 31454 38629 39462 34914 38437 35298 36835
39718 39334 37924 35106 30878 31006 37860 39014 34337 37348 40295
44074 45548 48174 51762 64126 56246 49648 58104 63933 58937 53107
64894 49648 33376 31710 26329 32864 40551 38693 35682 31006 27418
34273 39526 36899 34337 32351 32223 30942 29340 32800 35490 36451
34145 35426 33953 29917 29084 31903 36899 36835 35618 35234 34465
33184 33696 32928 31967 32864 36387 37796 38245 38885 37092 35234
31390 34465 36899 37604 37924 37476 35170 31967 33760 33889 38565
38949 33248 30045 31518 38181 36707 38053 39398 45676 53748 53107
50160 55221 51762 54580 52146 48110 42409 54004 53363 38309 30942
19603 30814 40487 41256 37604 34017 33504 32415 33376 34785 31454
29212 32928 39014 40487 38501 34465 30365 30878 35746 38373 38373
37604 33696 31262 27611 29276 34529 36707 36835 37092 39526 39014
36643 36643 31262 34914 38309 39206 37732 37284 32543 32159 29853
37668 41192 41384 35746 30429 32223 34721 38949 37796 33312 31390
31134 34978 39078 37732 36964 46573 56118 52787 40679 46509 45676
39974 38373 36899 18962 30109 45292 31839 21076 33504 31326 37476
40487 37540 33889 32287 36579 39974 37028 33248 32415 32095 33376
36643 39334 39718 36579 32671 32671 34401 35682 37220 45804 51506
41384 36323 32928 29404 26650 32607 38309 38117 34465 38821 38309
32992 27931 37860 41960 39846 32287 31070 39398 49840 62396 53491
30429 29340 30878 36515 35490 35618 34529 33120 36899 38693 37284
34017 34721 48174 54452 29532 33120 38309 39526 39014 48366 20948
4805 32479 22870 17040 38309 33376 32992 36259 34914 36451 40487
38949 37092 36067 36067 34081 30429 33376 35682 36131 38629 40295
38309 35618 35426 36387 36643 42409 58616 63677 50160 54132 55093
50288 38821 39910 35939 33248 34529 38757 41640 38245 38309 39014
35298 29340 34337 45996 59834 62780 65535 56310 38885 40743 38117
35170 34017 32223 28379 33953 35298 32351 32223 34145 47534 40999
22742 28700 40423 37668 35939 35106 13261 6855 9609 16015 14350 34401
36643 38693 34593 32415 31070 28636 30429 37156 41192 40807 35874
33184 35810 38181 35682 35554 38565 35939 34465 36259 38885 36579
36643 49327 62524 62716 65535 65535 65535 60090 50993 31710 35682
27034 31326 31326 34914 40038 39526 38181 37924 37348 48879 54260
61948 62524 65535 40359 32800 38437 41640 42857 41576 36643 33825
33760 31006 29404 35298 37028 33376 30685 23382 44010 43306 38117
33760 10506 8969 9289 15759 15759 27354 21461 28315 22037 11083 20436
29853 29340 31070 38565 40679 40615 38821 37220 36579 41384 36067
30493 36323 34529 32928 34978 39142 35490 40231 57271 59513 59834
64766 59385 64638 58809 38821 34978 39974 40167 37412 35490 32928
27931 34081 40167 41063 51185 51762 46252 43754 60474 49840 27162
33184 40743 41896 41192 36451 30301 28764 26586 33440 40743 40487
38437 35618 28700 30045 42857 40231 40615 18193 8840 8648 16079 14286
9673 9930 16272 16272 21717 36643 40295 40935 41576 33696 29212 28507
27226 24343 21717 24600 32800 20115 16720 33376 37156 34465 37348
41704 37668 48751 56695 57784 57015 60602 63998 56374 29853 32479
36131 37284 37220 40999 40359 34850 31967 34081 42153 42921 42024
47406 48110 47854 45420 32543 30814 31582 34145 40999 21845 20308
36067 30621 28956 37348 40359 31903 20115 16976 18065 29340 28187
26201 25881 17681 13453 14478 6214 6470 18962 33312 31582 29404 31454
28251 27803 33825 37989 34850 29661 27098 26265 27675 29789 33825
24087 9801 14734 31775 35426 34401 36835 38821 40231 43113 50288
54709 59834 59962 60090 42665 36451 39014 34721 30301 30045 37732
42281 39462 37028 41320 41448 38757 41320 47085 52146 37860 27739
23831 24664 25689 27995 10378 34081 40551 33504 29789 25497 17937
9609 4484 4164 3523 10955 22806 15503 8392 19347 17297 13069 10570
19539 38053 36195 38181 26970 18001 38181 32607 31646 29276 28828
28636 32351 39014 40423 38501 38501 28123 13965 12812 12684 28187
30109 27546 18001 21909 29404 37796 48687 55670 56182 58488 40038
33632 36835 35170 37220 34657 29340 29212 35939 37732 38245 41960
45356 42409 21589 29340 24792 27611 21525 27739 24728 14478 18450
39398 31070 36707 34657 28764 28636 25881 19923 11659 6855 4741 7175
21461 21333 15247 20884 18962 18386 30429 28571 23959 22486 13645
10378 28507 15887 26329 39398 33184 29148 23959 17297 22742 33120
36451 34273 18706 13645 17809 10570 28123 31582 29212 30493 34529
37220 50801 58424 59065 59129 39718 40103 38565 37860 37476 45227
55285 49584 38181 37540 39782 38885 29725 21333 3395 10378 30237
16656 19859 20372 27162 14222 22934 30557 18193 17169 7431 5445 24984
40167 36067 32159 26714 11403 4676 9033 27098 24984 16912 28315 25625
21525 11403 26137 35170 31839 26329 16592 23639 7367 11915 21909
19154 27034 27290 18642 12300 23575 38885 25689 26137 19026 14862
30878 32607 28956 37860 43562 43754 45932 56182 61627 57784 36964
38181 35106 35490 39334 49391 56695 65535 53043 31710 30365 30237
13389 6342 4036 4292 15119 13965 21973 17809 26457 19539 37028 15695
7431 10122 7880 11339 37476 42601 41063 42217 29596 10955 29276 22998
24087 17553 15054 19218 19475 25753 21525 15054 21845 26393 29853
19090 29917 28059 14798 24920 32543 22934 23126 36387 34401 21333
24984 24215 27995 25304 15695 26265 31198 32607 42665 37028 42088
38885 43498 51185 35426 30173 33184 29340 35810 41063 50096 54260
55734 60602 39078 36643 27867 13389 10314 6342 4356 20243 22486 11467
19283 15311 18450 25048 7944 7047 8264 11531 30109 35106 35426 35042
38245 20628 20372 41063 36771 26457 32800 23190 8136 29212 44907
27803 16208 11467 14606 24472 22422 15119 18642 27418 29276 27098
14670 20628 24472 23062 29917 32095 27482 27546 20756 14670 24343
27803 28443 37860 36387 33440 38501 39206 36964 32095 32671 39014
37540 46252 42601 40615 48879 48623 44843 23511 31518 33889 12812
5573 18834 8264 18514 22806 10634 21333 21589 9737 9737 9097 8328
5381 18193 36195 39206 40423 40231 41704 22229 29148 19987 22870
33504 35170 23703 12684 18001 21589 13901 16464 22614 20372 28251
33889 26778 17489 10122 16720 21076 7559 11083 10762 13389 11595
23703 19859 12940 10442 19347 26842 25817 24664 36195 34850 19347
31646 34529 32031 32159 30942 40615 42217 39590 36643 34785 36579
40487 36707 14222 18065 29532 29084 13005 18706 14926 12940 18514
16400 27354 23831 19923 21781 8392 6598 7175 22934 28123 21140 19026
16464 14478 18129 19603 19411 21653 17361 17553 11723 12364 6919
15567 17425 13389 21909 20500 23318 27675 29661 33440 26201 19731
11403 9225 9930 12812 13133 8840 4420 5317 7623 9545 11147 14222
22934 21204 25689 27611 14350 18770 34978 28956 31646 32479 34850
39334 36643 33312 33632 32928 33248 32864 12236 8392 22229 29020
14286 10250 13133 10250 13837 18322 20628 38565 20179 8712 9289 7880
7239 32543 25432 5701 2242 3459 20372 23831 13709 12108 15311 11339
11147 12556 14029 23895 34593 35042 24023 32479 39590 37796 33568
30750 28123 21781 18258 27867 18706 9545 10058 10570 11339 6534 7944
8136 6855 11083 13645 31070 36835 33056 34529 25561 14542 30365 28443
32800 38501 30621 35939 34657 30557 29596 29853 30045 28764 12236
5125 14414 9737 6726 12556 14606 15375 11980 23575 18065 26393 28251
18450 10378 7687 8969 6022 3716 4228 6726 9161 21012 15631 6919 6534
7303 11659 15375 11915 12620 32159 26329 24856 17873 17809 24472
33825 40167 39782 39142 35170 20692 30237 29404 9481 9930 10250 12108
6022 6534 6726 10698 21397 20308 27675 40615 38501 37989 37284 22550
29853 31967 29020 28187 34850 37732 31646 29661 31775 27290 18834
22101 16912 6919 8264 4869 6791 16848 17745 14414 19090 22037 20628
16912 29084 7111 8200 8905 7880 11467 27354 34978 36323 39526 31070
5381 7431 8840 6855 7495 35426 18065 11083 31070 23382 16272 15375
23254 27354 9545 18386 34401 32543 25945 17425 16079 22486 10890
12940 16272 11723 4484 10122 25817 29340 24151 23447 17873 14286
16272 18129 27418 29789 26970 27611 27098 26521 31839 31710 28507
27931 27290 25304 18770 13133 14606 8840 7047 6086 12428 28956 18193
8328 15375 19090 10506 11531 25689 13133 7495 7367 8712 19603 24343
26265 25432 23895 16464 4484 9865 11211 13453 12428 26393 18258 13069
13197 10634 17681 11595 18386 24600 17425 13261 21076 17361 7431 8520
13389 18193 13261 10698 20948 23639 14990 14222 16592 13709 11275
27098 29084 20500 24856 22293 23767 32928 34465 35810 35106 35362
37989 35426 32928 30237 26137 21781 17489 11403 6342 7559 8840 8584
10955 18706 19283 12300 11787 15695 23447 13069 16720 14862 7944 9481
9097 12300 17104 22486 24151 26329 26073 15503 14926 22165 19218
18450 16208 12428 11211 11915 9161 14094 9161 6662 8072 8648 8648
6662 7816 14606 17937 21140 12364 12684 12748 17809 12300 8712 7367
4741 3011 9994 19026 19603 21333 21717 22229 24984 31390 27482 27354
31198 30814 38629 35490 33120 30557 25753 24664 11467 12364 9161 5958
7239 8648 10506 15439 19475 14286 14798 11980 12236 8136 7880 11019
17104 10314 10890 9481 11595 12428 14606 18706 21717 23959 20884
18578 11531 11147 9609 8136 8072 8264 8072 10186 12172 10634 10058
10122 7880 11980 17873 16720 23254 24343 15759 10122 11403 11915
15183 10058 7431 6150 11019 23575 20051 13325 12940 12940 12876 13773
26970 28571 14926 19026 22870 37989 38501 36387 33696 28123 17873
7751 12556 9673 6150 7623 13133 9289 12364 13453 13005 9481 13133
15951 12044 7047 9737 18322 11787 17489 19026 9033 8712 10250 13133
13069 11787 9801 7303 7495 8584 11339 8712 8648 7751 8969 17489 13005
12364 10826 14478 16784 15951 17169 14670 12236 13261 10890 5445 6919
6470 8584 7431 7303 10058 16720 24407 25561 21012 16464 16144 16208
15631 15631 26970 17873 16208 21268 34401 35426 38437 28507 16592
16208 5445 6342 6342 14414 12748 6726 9609 7431 8328 10186 14478
10826 12108 13517 15247 7944 3139 11787 18258 20500 13453 14926 13837
11467 10762 7751 5830 7751 6791 6726 9225 8969 10250 19347 14414 7623
3587 6214 9289 17489 14734 7239 7111 9353 16848 18193 13261 6150 7880
9865 7816 16464 28251 11851 6726 12108 17233 19026 18193 17040 16592
14926 13901 17425 21333 20115 20115 37924 35490 18898 3331 4100 7623
3587 5381 11019 12940 8200 11659 11147 6726 8520 15119 20628 16656
7944 9161 11595 9673 9609 11211 13773 14798 15887 16079 14094 12300
10442 9353 9545 12876 10378 10058 11980 10314 10186 18770 8969 6406
6855 7559 10890 15183 10570 4612 3844 5573 10506 10634 12108 8072
19154 23767 19411 10250 32351 30878 18065 8840 8520 11147 9673 9417
9353 9609 8136 9033 15823 19090 17489 30365 10378 2498 3587 5894 5125
5894 7687 8072 7111 8520 14606 11980 6214 6919 17361 17233 14990
27675 18258 16015 12556 9673 13133 9481 11211 13645 13645 12044 11211
11019 11147 9289 8520 9737 8136 11787 6342 7751 8520 10058 20692
11531 6342 12300 14926 13901 8712 6855 10122 11787 6406 7623 16208
16336 22742 23318 8456 12428 31582 31454 27675 21333 17361 21204
17489 16976 16336 10250 11531 18386 21076 20820 16912 9801 8648 8969
11211 10762 10122 10314 6983 4420 10570 11787 9801 8264 8456 10890
13901 15439 19731 18834 15054 12876 6406 8648 6086 5061 7880 8328
9097 10186 10762 9481 7111 6598 7687 7687 3652 5445 9225 10826 8648
22678 29853 18642 12812 15247 14990 10250 7944 9930 9930 7047 5509
15439 19667 13325 5830 6983 7111 30173 26137 17489 18578 19218 24151
27867 30045 30493 29340 27739 26457 26457 24343 20884 21461 24343
25753 23895 19539 16336 14990 13645 12044 12684 12492 16400 12044
7303 9033 12364 14862 9225 7047 12620 4676 3523 7880 7687 7751 8200
8905 9097 9609 9225 9545 7687 10506 12236 19987 14158 9225 10762
10634 6662 6022 17617 22806 17617 24279 17553 8776 8648 11531 9481
8969 8840 8392 20756 22293 12044 4356 8840 21333 24472 22614 12044
7751 11659 17681 19347 19923 20500 24600 27739 27482 25432 17937
17104 15887 14798 14926 14926 14606 16079 13581 16400 23190 20179
14734 10698 6406 7880 9481 7880 7944 7431 7303 9289 5317 6791 8200
7303 7047 6919 6470 7239 8584 9481 12876 13005 11467 15183 14990 9930
9161 10314 17617 13389 8776 4164 11019 22293 24343 9353 14542 15951
11851 10122 9930 10442 11467 28571 17809 11980 14222 22934 30750
36323 33632 24151 15631 14606 15887 16784 16272 16272 21909 27546
28507 14926 13581 13261 13517 13709 12172 13453 15567 11403 9289
10955 8200 7751 6470 6791 8008 9289 10058 8840 8328 7816 6791 7623
7367 5381 5061 4997 4420 4997 6919 9097 9481 10570 9289 8840 7559
6791 7495 8456 9289 10634 10058 8584 7559 8969 12364 19090 17489
24279 29725 25561 22293 21781 24279 9994 26521 24536 17297 14862
18322 25240 33376 37540 39334 37668 34978 34209 32287 30365 27226
26265 30750 29981 17169 19283 21204 19923 18514 14286 11467 10186
6150 6855 9865 10378 10186 7431 7495 8776 8584 9353 7239 7623 7687
6726 4933 6342 5061 4997 5317 5253 5189 5317 5958 6342 7431 7559 7495
7239 7816 8264 8136 8712 9673 10186 10122 7816 7687 6726 17297 25432
25689 29148 32864 36515 36067 34914 20564 20564 27546 16272 13837
13133 12556 12684 15503 19283 23767 27034 29276 30878 32671 31262
28443 25112 22998 18193 19795 18065 15887 15823 13709 10442 9609
10506 9737 8136 6791 5830 5894 7751 8200 6855 8905 7816 7431 7175
6662 6022 6662 7495 6598 6791 6598 5830 5958 6406 7431 7303 7239 9801
12620 16015 14734 16720 19987 21781 23382 19154 12492 11723 10058
13005 20308 19923 24279 26201 29661 30750 37540 36259 26137 31903
25368 16336 15311 14542 14350 14542 13453 12556 12364 12236 12940
13901 14222 13453 13581 14350 14798 14414 12812 11083 10570 10378
8392 6726 6214 4933 4484 4228 4164 4676 5958 6342 5637 7495 7944 6150
6791 6342 6534 6855 5958 6086 6662 8840 12364 12620 12556 10442 11403
16400 23062 26906 28828 27418 26393 26521 28764 30045 28443 26650
25240 23511 22934 21781 17873 13261 8200 7559 16592 34465 34401 37796
33568 31967 25240 17681 16912 16720 15375 15119 15183 14734 14926
15119 15054 14990 16079 16976 16144 14606 13069 12172 10955 9994 8969
6919 5766 6214 5509 6150 7623 8969 9673 10250 12812 13133 11915 11851
9609 8456 10378 10826 12044 13325 13453 12876 12620 16464 22037 21909
16656 24279 26906 27739 28956 29276 29084 27226 27098 25625 25432
27995 29917 25625 22037 15567 10955 6470 3844 4741 6022 7431 19347
21012 31262 33248 26201 17297 13261 17169 22998 19667 17617 16015
15823 15439 14926 15375 15631 16272 16144 15247 14990 14094 14094
12684 12236 11403 9930 8520 8456 9289 10186 9801 9737 9417 9225 10314
11595 12876 14350 15054 15567 17681 19475 21268 20436 19475 20115
21204 22101 20179 13261 15887 20051 18258 18706 16528 16144 16528
18258 20436 23959 26842 30878 25689 16015 14094 10634 9417 8905 10250
13005 19731 20179 22934 26457 27546 29789 26714 20179 17681 17937
19347 20436 18578 17297 16656 16272 16592 16592 16656 16848 15759
14734 15695 14414 13133 12300 11403 10378 8840 9545 8776 9737 10058
9161 8969 9481 10698 12300 12364 12428 11915 12428 12428 13517 13325
13581 14798 15759 14670 14542 14158 12108 13261 14094 13709 15951
16528 18898 21525 24984 28571 30942 32992 34721 34593 31070 26393
23382 21268 23895 26650 28700 33504 36643 34721 32671 33953 32415
31262 30621 29596 25497 22806 20436 18322 18001 17617 19026 18642
17681 17617 16336 15375 15375 15247 16015 14286 13517 13389 13261
12684 12492 12620 12364 12556 11980 11019 11147 12364 16528 21140
22293 18642 15567 14158 13389 13069 14029 14414 16336 20564 24343
26201 27482 27931 29212 28828 28251 29725 29596 28764 29661 28764
27418 28059 27739 28507 29725 30493 30942 30365 28636 30814 31775
31134 32415 33889 33760 34081 35490 31198 26457 21973 20115 19026
18770 18898 18834 18386 19218 19283 18193 17297 16976 17233 16720
16592 16720 15631 15311 16144 16592 16656 16015 15503 14926 14286
13517 12684 15247 16720 21012 26329 24728 24279 25432 22357 20051
19347 20115 21653 21653 23639 24984 26650 27226 26650 28315 27546
27546 25881 23126 22422 20820 20115 20179 21204 21845 23767 25753
26778 27034 28571 30557 30493 31070 29596 31454 30942 31134 30493
30493 27611 22422 20500 21140 20628 20051 18898 18001 19026 19987
18642 18001 18322 18450 18770 18386 16784 17809 17553
