P2
73 43
255
85 68 68 68 85 68 85 68 85 85 68 102 85 85 85 85 85 85 68 102 85 68
102 85 85 102 85 102 102 102 102 102 102 119 102 102 102 119 102 119
119 119 119 119 119 119 119 119 119 119 119 119 119 119 119 119 119
119 119 119 119 119 119 119 119 119 119 119 119 119 102 102 119 68 68
68 68 68 68 85 68 85 85 68 85 85 68 102 85 85 102 85 85 85 85 85 102
102 102 102 102 102 102 119 119 102 102 119 119 119 119 119 119 119
119 119 119 119 136 119 119 119 119 119 119 119 102 119 119 119 119
119 119 119 136 119 119 136 119 119 119 119 119 119 119 119 68 68 68
68 85 68 68 85 68 85 85 68 85 85 85 85 85 85 85 102 102 85 102 119
102 119 170 119 119 102 119 119 136 153 119 119 119 136 136 119 136
119 119 136 119 119 119 136 119 136 119 102 136 136 119 119 119 119
136 119 119 119 119 119 119 119 119 119 119 102 102 102 119 68 68 85
68 68 85 51 85 68 68 85 85 85 85 85 85 102 119 102 102 136 119 102
136 119 187 238 170 119 136 136 204 221 238 204 136 102 119 136 136
136 119 119 119 119 119 119 119 119 136 119 102 119 136 119 119 102
102 119 119 119 119 102 102 102 102 119 119 119 119 119 102 119 68 68
68 68 68 68 68 68 85 85 85 102 102 119 136 119 119 136 136 119 136
153 136 119 119 221 238 238 170 119 204 238 238 238 238 187 119 119
119 136 119 119 136 136 119 119 119 119 119 119 119 119 102 102 102
119 119 119 119 119 119 119 102 102 119 136 136 119 119 102 102 102
119 68 68 68 68 68 68 85 102 102 102 136 136 119 136 119 119 136 136
136 136 119 119 136 136 170 187 204 238 238 170 204 238 238 238 221
238 153 119 136 119 119 119 119 119 119 119 119 119 119 119 102 102
119 136 136 119 119 119 102 102 119 119 136 119 119 102 102 119 119
136 119 119 119 68 85 85 102 119 119 119 136 153 119 136 136 136 153
153 136 136 119 119 136 136 119 136 153 170 170 187 187 238 204 187
221 238 221 204 238 187 119 119 102 119 153 136 136 119 102 119 153
136 119 119 119 119 102 119 136 136 119 136 119 102 102 119 136 136
136 136 119 119 119 119 119 119 136 136 136 136 136 136 119 119 136
136 136 136 136 119 119 119 136 136 119 102 119 136 136 136 153 170
204 204 187 204 187 204 187 187 153 204 204 136 119 68 119 153 153
136 119 119 119 119 119 119 102 119 136 153 136 119 102 119 136 136
136 136 119 119 102 102 119 136 136 136 153 136 136 136 119 119 136
136 136 136 119 119 102 136 153 153 136 102 119 119 136 136 119 119
119 136 136 136 136 170 204 204 153 170 170 153 136 136 68 102 170
119 68 119 119 136 153 136 119 119 136 153 136 119 119 119 119 136
153 153 136 119 119 119 136 136 170 187 153 136 119 102 102 119 136
136 119 136 136 119 102 136 153 153 119 119 153 187 238 204 102 102
119 136 136 136 119 119 136 136 136 119 119 187 204 102 119 136 153
136 187 68 17 119 85 51 136 119 119 136 119 136 153 136 136 136 136
119 102 119 136 136 136 153 136 136 136 136 136 153 221 238 187 204
204 187 136 153 136 119 119 136 153 136 136 136 136 102 119 170 221
238 255 204 136 153 136 136 119 119 102 119 136 119 119 119 170 153
85 102 153 136 136 136 51 17 34 51 51 119 136 136 119 119 119 102 102
136 153 153 136 119 136 136 136 136 136 136 119 136 136 136 136 187
238 238 255 255 255 221 187 119 136 102 119 119 119 153 153 136 136
136 187 204 238 238 255 153 119 136 153 153 153 136 119 119 119 102
136 136 119 119 85 170 153 136 119 34 34 34 51 51 102 68 102 85 34 68
102 102 119 136 153 153 136 136 136 153 136 102 136 119 119 136 136
136 153 221 221 221 238 221 238 221 136 136 153 153 136 136 119 102
119 153 153 187 187 170 170 221 187 102 119 153 153 153 136 102 102
102 119 153 153 136 136 102 102 153 153 153 68 34 17 51 51 34 34 51
51 68 136 153 153 153 119 102 102 102 85 68 85 119 68 51 119 136 119
136 153 136 187 204 221 221 221 238 204 102 119 136 136 136 153 153
119 119 119 153 153 153 170 187 170 170 119 119 119 119 153 85 68 136
119 102 136 153 119 68 51 68 102 102 102 85 68 51 51 17 17 68 119 119
102 119 102 102 119 136 119 102 102 102 102 102 119 85 34 51 119 136
119 136 136 153 153 187 204 221 221 221 153 136 136 119 102 102 136
153 153 136 153 153 136 153 170 187 136 102 85 85 85 102 34 119 153
119 102 85 68 34 17 0 0 34 85 51 17 68 51 51 34 68 136 136 136 102 68
136 119 119 102 102 102 119 136 153 136 136 102 51 34 34 102 102 102
68 85 102 136 187 204 204 221 153 119 136 136 136 119 102 102 136 136
136 153 170 153 68 102 85 102 68 102 85 51 68 153 119 136 119 102 102
85 68 34 17 17 17 68 68 51 68 68 68 102 102 85 85 51 34 102 51 102
153 119 102 85 51 85 119 136 119 68 51 68 34 102 119 102 102 119 136
187 221 221 221 153 153 136 136 136 170 204 187 136 136 153 136 102
68 0 34 102 51 68 68 102 51 85 119 68 51 17 17 85 153 136 119 102 34
17 34 102 85 51 102 85 68 34 85 136 119 102 51 85 17 34 85 68 102 102
68 34 85 136 85 85 68 51 119 119 102 136 153 170 170 204 238 221 136
136 136 136 153 187 204 255 204 119 102 102 51 17 0 0 51 51 85 68 102
68 136 51 17 34 17 34 136 153 153 153 102 34 102 85 85 68 51 68 68 85
68 51 85 102 102 68 102 102 51 85 119 85 85 136 119 68 85 85 102 85
51 102 119 119 153 136 153 136 153 187 136 102 119 102 136 153 187
204 204 221 136 136 102 51 34 17 17 68 85 34 68 51 68 85 17 17 17 34
102 136 136 136 136 68 68 153 136 102 119 85 17 102 170 102 51 34 51
85 85 51 68 102 102 102 51 68 85 85 102 119 102 102 68 51 85 102 102
136 136 119 136 136 136 119 119 136 136 170 153 153 187 187 170 85
119 119 34 17 68 17 68 85 34 68 68 34 34 34 17 17 68 136 136 153 153
153 85 102 68 85 119 136 85 34 68 68 51 51 85 68 102 119 102 68 34 51
68 17 34 34 51 34 85 68 34 34 68 102 85 85 136 119 68 119 119 119 119
119 153 153 153 136 119 136 153 136 51 68 102 102 34 68 51 34 68 51
102 85 68 68 17 17 17 85 102 68 68 51 51 68 68 68 68 51 68 34 34 17
51 51 51 85 68 85 102 102 119 102 68 34 34 34 34 51 34 17 17 17 34 34
51 85 68 85 102 51 68 136 102 119 119 119 153 136 119 119 119 119 119
34 17 85 102 51 34 51 34 51 68 68 136 68 34 34 17 17 119 85 17 0 0 68
85 51 34 51 34 34 34 51 85 119 136 85 119 153 136 119 119 102 68 68
102 68 34 34 34 34 17 17 17 17 34 51 119 136 119 119 85 51 102 102
119 136 119 136 119 102 102 102 102 102 34 17 51 34 17 34 51 51 34 85
68 102 102 68 34 17 34 17 0 0 17 34 68 51 17 17 17 34 51 34 34 119
102 85 68 68 85 119 153 153 136 136 68 102 102 34 34 34 34 17 17 17
34 68 68 102 153 136 136 136 85 102 119 102 102 119 136 119 102 119
102 68 85 51 17 17 17 17 51 68 51 68 85 68 51 102 17 17 34 17 34 102
136 136 153 119 17 17 34 17 17 136 68 34 119 85 51 51 85 102 34 68
119 119 85 51 51 85 34 34 51 34 17 34 85 102 85 85 68 51 51 68 102
102 102 102 102 102 119 119 102 102 102 85 68 51 51 34 17 17 34 102
68 17 51 68 34 34 85 51 17 17 34 68 85 102 85 85 51 17 34 34 51 34
102 68 51 51 34 68 34 68 85 51 51 68 51 17 17 51 68 51 34 68 85 51 51
51 51 34 102 102 68 85 85 85 119 119 136 136 136 136 136 119 102 85
68 68 34 17 17 34 17 34 68 68 34 34 51 85 51 51 51 17 34 34 34 51 85
85 102 85 51 51 85 68 68 51 34 34 34 34 51 34 17 17 17 17 17 17 51 68
68 34 34 34 68 34 17 17 17 0 34 68 68 68 68 85 85 119 102 102 119 119
136 136 119 119 85 85 34 34 34 17 17 17 34 51 68 51 51 34 34 17 17 34
51 34 34 34 34 34 51 68 68 85 68 68 34 34 34 17 17 17 17 34 34 34 34
34 17 34 68 51 85 85 51 34 34 34 51 34 17 17 34 85 68 51 34 34 34 51
102 102 51 68 85 136 136 136 119 102 68 17 34 34 17 17 51 34 34 51 34
34 51 51 34 17 34 68 34 68 68 34 34 34 51 34 34 34 17 17 17 34 34 17
17 34 68 34 34 34 51 51 51 51 51 34 51 34 17 17 17 17 17 17 34 51 85
85 68 51 51 51 51 51 102 68 51 68 119 136 136 102 51 51 17 17 17 51
34 17 34 17 17 34 51 34 34 51 51 17 0 34 68 68 51 51 51 34 34 17 17
17 17 17 34 34 34 68 51 17 0 17 34 68 51 17 17 34 51 68 51 17 17 34
17 51 102 34 17 34 51 68 68 51 51 51 51 68 68 68 68 136 136 68 0 0 17
0 17 34 34 17 34 34 17 17 51 68 51 17 34 34 34 34 34 51 51 51 51 51
34 34 34 34 34 34 34 34 34 34 68 34 17 17 17 34 51 34 17 0 17 34 34
34 17 68 85 68 34 119 119 68 34 17 34 34 34 34 34 17 34 51 68 68 102
34 0 0 17 17 17 17 17 17 17 51 34 17 17 51 51 51 102 68 51 34 34 51
34 34 51 51 34 34 34 34 34 17 34 17 34 17 17 17 34 68 34 17 34 51 51
34 17 34 34 17 17 51 51 85 85 17 34 119 119 102 68 51 68 68 51 51 34
34 68 68 68 51 34 17 34 34 34 34 34 17 17 34 34 34 17 17 34 51 51 68
68 51 34 17 17 17 17 17 17 34 34 34 34 17 17 17 17 0 17 34 34 17 85
102 68 34 51 51 34 17 34 34 17 17 51 68 51 17 17 17 102 85 68 68 68
85 102 102 102 102 102 102 102 85 68 68 85 85 85 68 51 51 51 34 34 34
51 34 17 34 34 51 34 17 34 17 0 17 17 17 17 34 34 34 34 34 17 34 34
68 51 34 34 34 17 17 68 85 68 85 68 34 17 34 34 34 34 17 68 85 34 17
34 68 85 85 34 17 34 68 68 68 68 85 102 102 85 68 51 51 51 51 51 51
51 51 51 85 68 51 34 17 17 34 17 17 17 17 34 17 17 17 17 17 17 17 17
17 34 34 34 34 51 51 34 34 34 68 51 34 0 34 85 85 34 51 51 34 34 34
34 34 102 68 34 51 85 119 136 119 85 51 51 51 51 51 51 85 102 102 51
51 51 51 51 34 51 51 34 34 34 17 17 17 17 17 34 34 34 17 17 17 17 17
17 17 17 17 17 17 34 34 34 34 34 17 17 17 17 34 34 34 17 17 34 34 68
68 85 102 85 85 68 85 34 102 85 51 51 68 85 119 136 153 136 136 119
119 102 102 102 119 102 51 68 68 68 68 51 34 34 17 17 34 34 34 17 17
34 17 34 17 17 17 17 17 17 17 17 17 17 17 17 17 17 17 17 17 17 17 17
17 17 34 34 34 17 17 17 51 85 85 102 119 136 136 119 68 68 102 51 51
51 34 34 51 68 85 102 102 119 119 119 102 85 85 68 68 68 51 51 51 34
34 34 34 17 17 17 17 17 17 17 34 17 17 17 17 17 17 17 17 17 17 17 17
17 17 17 17 34 34 51 51 51 68 68 85 68 34 34 34 34 68 68 85 102 102
119 136 136 85 119 85 51 51 51 51 51 51 34 34 34 34 51 51 51 51 51 51
51 34 34 34 34 17 17 17 17 17 0 0 17 17 17 17 17 17 17 17 17 17 17 17
17 17 34 34 34 34 34 34 51 85 102 102 102 102 102 102 102 102 102 85
85 85 68 68 51 17 17 51 119 119 136 119 119 85 68 51 51 51 51 51 51
51 51 51 51 51 51 51 51 51 34 34 34 34 17 17 17 17 17 17 34 34 34 34
51 34 34 34 17 34 34 34 51 51 34 34 51 85 85 51 85 102 102 102 102
102 102 102 85 85 102 102 85 85 51 34 17 0 17 17 17 68 68 119 119 102
51 51 51 85 68 68 51 51 51 51 51 51 51 51 51 51 51 51 34 34 34 34 17
17 34 34 34 34 34 34 34 34 34 51 51 51 68 68 68 68 68 68 68 85 68 51
51 68 68 68 51 51 51 68 68 85 102 119 85 51 51 34 34 34 34 34 68 68
85 102 102 102 102 68 68 68 68 68 68 51 51 51 51 51 51 51 51 51 51 51
51 34 34 34 34 34 34 34 34 34 34 34 34 34 34 34 34 34 34 51 51 51 51
51 51 51 51 34 51 51 51 51 51 68 68 85 102 119 119 119 119 119 102 85
68 85 102 102 119 136 119 119 119 119 119 119 102 85 85 68 68 68 68
68 68 68 68 51 51 51 51 51 51 51 51 51 34 34 34 34 34 34 34 34 34 51
68 85 68 51 51 51 51 51 51 51 68 85 85 102 102 102 102 102 102 102
102 102 102 102 102 102 102 102 102 119 102 102 119 119 119 119 119
119 119 136 119 102 85 68 68 68 68 68 68 68 68 68 51 51 51 51 51 51
51 51 51 51 51 51 51 51 51 51 34 51 51 68 102 85 85 85 85 68 68 68 68
68 85 85 102 102 102 102 102 102 85 85 85 68 68 68 68 85 85 85 102
102 102 119 102 119 102 119 119 119 102 102 102 85 68 68 68 68 68 68
68 68 68 68 68 68 68 68 51 68 68
