P2
73 43
4294967295
1448498774 1364283729 1397969747 1313754702 1515870810 1397969747
1448498774 1364283729 1549556828 1482184792 1397969747 1768515945
1431655765 1499027801 1549556828 1431655765 1701143909 1566399837
1347440720 1920103026 1701143909 1414812756 1852730990 1667457891
1600085855 1936946035 1633771873 1734829927 1920103026 1717986918
1734829927 1785358954 1987475062 2004318071 1920103026 1903260017
1903260017 2004318071 1970632053 2021161080 2038004089 2122219134
2189591170 2054847098 2071690107 2038004089 2021161080 2088533116
2139062143 2172748161 2071690107 2054847098 2122219134 2189591170
2172748161 2122219134 2139062143 2004318071 2071690107 2071690107
2122219134 2122219134 2105376125 2038004089 2071690107 2139062143
2105376125 2038004089 2189591170 2105376125 1886417008 1970632053
2021161080 1313754702 1313754702 1397969747 1397969747 1313754702
1364283729 1566399837 1263225675 1515870810 1633771873 1195853639
1701143909 1465341783 1381126738 1785358954 1431655765 1465341783
1819044972 1499027801 1600085855 1650614882 1667457891 1701143909
1802201963 1768515945 1802201963 1852730990 1768515945 1869573999
1953789044 2054847098 2054847098 1886417008 1920103026 2189591170
2105376125 2105376125 2172748161 2172748161 2139062143 2172748161
2206434179 2172748161 2054847098 2256963206 2341178251 2206434179
2206434179 2256963206 2273806215 2189591170 2223277188 2122219134
1987475062 2206434179 2256963206 2105376125 2155905152 2155905152
2054847098 2172748161 2442236305 2139062143 2206434179 2341178251
2189591170 2088533116 2071690107 2071690107 2071690107 2054847098
2054847098 2054847098 1246382666 1364283729 1280068684 1347440720
1515870810 1229539657 1364283729 1650614882 1145324612 1600085855
1499027801 1313754702 1616928864 1448498774 1532713819 1549556828
1600085855 1633771873 1616928864 1751672936 1903260017 1684300900
1903260017 2206434179 1785358954 2139062143 2880154539 2223277188
2105376125 1970632053 2240120197 2172748161 2442236305 2627509404
2223277188 2155905152 2071690107 2442236305 2374864269 2155905152
2492765332 2122219134 2139062143 2341178251 2139062143 2240120197
2256963206 2374864269 2223277188 2307492233 2038004089 1987475062
2459079314 2492765332 2071690107 2139062143 2139062143 2122219134
2391707278 2139062143 2038004089 2189591170 2071690107 2088533116
2038004089 2122219134 2038004089 2088533116 2054847098 1936946035
1819044972 1835887981 2105376125 1212696648 1195853639 1482184792
1145324612 1347440720 1532713819 1094795585 1600085855 1414812756
1296911693 1515870810 1465341783 1566399837 1566399837 1650614882
1701143909 1835887981 2038004089 1785358954 1953789044 2358021260
2206434179 1987475062 2391707278 2223277188 3334915782 4278124286
3099113656 2206434179 2358021260 2459079314 3537031890 3958107115
4278124286 3621246935 2341178251 1936946035 2189591170 2290649224
2290649224 2290649224 2206434179 2105376125 2256963206 2054847098
2155905152 2256963206 2172748161 2273806215 2408550287 2223277188
1869573999 2172748161 2408550287 2172748161 2021161080 1920103026
1886417008 2223277188 2206434179 2139062143 2038004089 1920103026
1886417008 1920103026 1886417008 2088533116 2189591170 2139062143
2155905152 2038004089 1970632053 2038004089 1263225675 1179010630
1296911693 1280068684 1195853639 1414812756 1330597711 1364283729
1431655765 1616928864 1566399837 1734829927 1751672936 2105376125
2307492233 2004318071 2122219134 2408550287 2358021260 2155905152
2341178251 2576980377 2374864269 2172748161 2273806215 3755991007
4177066232 4261281277 3048584629 2223277188 3587560917 4177066232
4126537205 4177066232 4160223223 3200171710 2004318071 2071690107
2122219134 2358021260 2256963206 2054847098 2290649224 2374864269
2038004089 2071690107 2155905152 2038004089 2122219134 2139062143
2021161080 2004318071 1970632053 1802201963 1835887981 2189591170
2273806215 2122219134 2122219134 2240120197 2256963206 2038004089
1869573999 1835887981 2139062143 2324335242 2324335242 2172748161
2054847098 1970632053 1903260017 1970632053 2172748161 1162167621
1195853639 1145324612 1246382666 1313754702 1246382666 1667457891
1751672936 1785358954 1987475062 2307492233 2374864269 2155905152
2442236305 2223277188 2273806215 2290649224 2324335242 2475922323
2391707278 2206434179 2004318071 2475922323 2442236305 3099113656
3200171710 3486502863 4227595259 4126537205 2930683566 3671775962
4143380214 4042322160 4126537205 3857049061 4193909241 2694881440
2054847098 2324335242 2172748161 2139062143 2172748161 2223277188
2256963206 2071690107 2054847098 2088533116 2054847098 2105376125
2105376125 1936946035 1920103026 2004318071 2341178251 2425393296
2223277188 2054847098 2054847098 1869573999 1970632053 2139062143
2172748161 2324335242 2256963206 2004318071 1835887981 1920103026
2004318071 2139062143 2324335242 2172748161 2071690107 2206434179
1179010630 1431655765 1566399837 1717986918 2105376125 2206434179
2054847098 2526451350 2576980377 2273806215 2509608341 2307492233
2408550287 2593823386 2576980377 2475922323 2290649224 2021161080
2021161080 2475922323 2560137368 2240120197 2442236305 2627509404
2880154539 2981212593 3149642683 3385444809 4193909241 3671775962
3250700737 3806520034 4193909241 3857049061 3469659854 4244438268
3250700737 2172748161 2071690107 1717986918 2139062143 2644352413
2526451350 2324335242 2021161080 1785358954 2240120197 2593823386
2408550287 2240120197 2122219134 2105376125 2021161080 1920103026
2139062143 2324335242 2374864269 2240120197 2307492233 2223277188
1953789044 1903260017 2088533116 2408550287 2408550287 2324335242
2307492233 2256963206 2172748161 2206434179 2155905152 2088533116
2139062143 2374864269 2475922323 2492765332 2543294359 2425393296
2307492233 2054847098 2256963206 2408550287 2459079314 2475922323
2442236305 2307492233 2088533116 2206434179 2206434179 2526451350
2543294359 2172748161 1970632053 2054847098 2492765332 2391707278
2492765332 2576980377 2981212593 3520188881 3469659854 3284386755
3604403926 3385444809 3570717908 3402287818 3149642683 2779096485
3537031890 3486502863 2509608341 2021161080 1280068684 2004318071
2644352413 2694881440 2459079314 2223277188 2189591170 2122219134
2189591170 2273806215 2054847098 1903260017 2155905152 2543294359
2644352413 2509608341 2256963206 1987475062 2021161080 2341178251
2509608341 2509608341 2459079314 2206434179 2038004089 1802201963
1920103026 2256963206 2391707278 2408550287 2425393296 2576980377
2543294359 2391707278 2391707278 2038004089 2273806215 2509608341
2560137368 2459079314 2442236305 2122219134 2105376125 1953789044
2459079314 2694881440 2711724449 2341178251 1987475062 2105376125
2273806215 2543294359 2475922323 2172748161 2054847098 2038004089
2290649224 2560137368 2459079314 2408550287 3048584629 3671775962
3452816845 2661195422 3031741620 2981212593 2610666395 2509608341
2408550287 1229539657 1970632053 2964369584 2071690107 1381126738
2189591170 2038004089 2442236305 2644352413 2459079314 2206434179
2105376125 2391707278 2610666395 2425393296 2172748161 2122219134
2105376125 2172748161 2391707278 2576980377 2593823386 2391707278
2139062143 2139062143 2240120197 2324335242 2425393296 2998055602
3368601800 2711724449 2374864269 2155905152 1920103026 1734829927
2122219134 2509608341 2492765332 2256963206 2543294359 2509608341
2155905152 1819044972 2475922323 2745410467 2610666395 2105376125
2038004089 2576980377 3267543746 4092851187 3503345872 1987475062
1920103026 2021161080 2391707278 2324335242 2324335242 2256963206
2155905152 2408550287 2526451350 2442236305 2223277188 2273806215
3149642683 3570717908 1936946035 2172748161 2509608341 2576980377
2543294359 3166485692 1364283729 303174162 2122219134 1499027801
1111638594 2509608341 2189591170 2155905152 2374864269 2273806215
2374864269 2644352413 2543294359 2425393296 2358021260 2358021260
2223277188 1987475062 2172748161 2341178251 2358021260 2526451350
2627509404 2509608341 2324335242 2307492233 2374864269 2391707278
2779096485 3840206052 4177066232 3284386755 3537031890 3604403926
3284386755 2543294359 2610666395 2358021260 2172748161 2256963206
2526451350 2728567458 2492765332 2509608341 2543294359 2307492233
1920103026 2240120197 3014898611 3907578088 4109694196 4294967295
3688618971 2543294359 2661195422 2492765332 2307492233 2223277188
2105376125 1852730990 2223277188 2307492233 2122219134 2105376125
2240120197 3115956665 2678038431 1482184792 1869573999 2644352413
2459079314 2341178251 2290649224 858993459 437918234 623191333
1044266558 926365495 2240120197 2391707278 2526451350 2256963206
2122219134 2021161080 1869573999 1987475062 2425393296 2694881440
2661195422 2341178251 2172748161 2341178251 2492765332 2341178251
2324335242 2526451350 2358021260 2256963206 2374864269 2543294359
2391707278 2391707278 3217014719 4092851187 4109694196 4294967295
4294967295 4294967295 3941264106 3334915782 2071690107 2324335242
1768515945 2054847098 2054847098 2273806215 2627509404 2576980377
2492765332 2475922323 2442236305 3200171710 3553874899 4059165169
4092851187 4294967295 2644352413 2139062143 2509608341 2728567458
2795939494 2711724449 2391707278 2206434179 2206434179 2021161080
1920103026 2307492233 2425393296 2172748161 2004318071 1532713819
2880154539 2829625512 2492765332 2206434179 673720360 589505315
606348324 1027423549 1027423549 1785358954 1397969747 1852730990
1431655765 724249387 1330597711 1953789044 1920103026 2038004089
2526451350 2661195422 2661195422 2543294359 2442236305 2391707278
2711724449 2358021260 1987475062 2374864269 2256963206 2155905152
2290649224 2560137368 2324335242 2627509404 3739147998 3890735079
3907578088 4244438268 3890735079 4227595259 3840206052 2543294359
2290649224 2610666395 2627509404 2442236305 2324335242 2155905152
1819044972 2223277188 2627509404 2678038431 3351758791 3385444809
3031741620 2863311530 3958107115 3267543746 1768515945 2172748161
2661195422 2745410467 2694881440 2374864269 1987475062 1886417008
1734829927 2189591170 2661195422 2644352413 2509608341 2324335242
1869573999 1953789044 2795939494 2627509404 2661195422 1179010630
572662306 555819297 1044266558 926365495 623191333 640034342
1061109567 1061109567 1414812756 2391707278 2627509404 2678038431
2711724449 2206434179 1903260017 1852730990 1785358954 1583242846
1414812756 1600085855 2139062143 1313754702 1094795585 2172748161
2425393296 2256963206 2442236305 2728567458 2459079314 3183328701
3705461980 3772834016 3722304989 3958107115 4193909241 3688618971
1953789044 2122219134 2358021260 2442236305 2425393296 2678038431
2644352413 2273806215 2088533116 2223277188 2762253476 2812782503
2745410467 3099113656 3149642683 3132799674 2964369584 2122219134
2021161080 2071690107 2240120197 2678038431 1431655765 1330597711
2358021260 2004318071 1886417008 2442236305 2644352413 2088533116
1313754702 1111638594 1179010630 1920103026 1835887981 1717986918
1684300900 1145324612 875836468 943208504 404232216 421075225
1229539657 2172748161 2071690107 1920103026 2054847098 1835887981
1819044972 2206434179 2475922323 2273806215 1936946035 1768515945
1717986918 1802201963 1936946035 2206434179 1566399837 640034342
960051513 2071690107 2307492233 2256963206 2408550287 2543294359
2627509404 2812782503 3284386755 3587560917 3907578088 3924421097
3924421097 2795939494 2374864269 2560137368 2273806215 1987475062
1970632053 2475922323 2762253476 2576980377 2425393296 2694881440
2711724449 2526451350 2694881440 3082270647 3402287818 2475922323
1819044972 1549556828 1616928864 1667457891 1835887981 673720360
2223277188 2644352413 2189591170 1936946035 1667457891 1162167621
623191333 286331153 269488144 218959117 707406378 1482184792
1010580540 538976288 1263225675 1128481603 858993459 690563369
1280068684 2492765332 2358021260 2492765332 1768515945 1179010630
2492765332 2122219134 2071690107 1920103026 1886417008 1869573999
2122219134 2560137368 2644352413 2526451350 2509608341 1835887981
909522486 842150450 825307441 1835887981 1970632053 1802201963
1179010630 1431655765 1920103026 2475922323 3183328701 3638089944
3671775962 3823363043 2610666395 2189591170 2408550287 2307492233
2425393296 2256963206 1920103026 1903260017 2341178251 2459079314
2492765332 2745410467 2964369584 2779096485 1414812756 1920103026
1616928864 1802201963 1397969747 1802201963 1616928864 943208504
1195853639 2576980377 2038004089 2391707278 2256963206 1886417008
1869573999 1684300900 1296911693 757935405 437918234 303174162
471604252 1397969747 1397969747 993737531 1364283729 1229539657
1195853639 1987475062 1869573999 1566399837 1465341783 892679477
673720360 1869573999 1044266558 1717986918 2576980377 2172748161
1903260017 1566399837 1128481603 1482184792 2155905152 2374864269
2240120197 1229539657 892679477 1162167621 690563369 1835887981
2071690107 1903260017 1987475062 2256963206 2425393296 3318072773
3823363043 3857049061 3873892070 2593823386 2627509404 2526451350
2475922323 2442236305 2964369584 3621246935 3233857728 2492765332
2459079314 2610666395 2543294359 1936946035 1397969747 218959117
673720360 1970632053 1077952576 1296911693 1330597711 1768515945
926365495 1499027801 2004318071 1179010630 1111638594 488447261
353703189 1633771873 2627509404 2358021260 2105376125 1751672936
741092396 303174162 589505315 1768515945 1633771873 1111638594
1852730990 1667457891 1397969747 741092396 1701143909 2290649224
2088533116 1717986918 1077952576 1549556828 471604252 774778414
1431655765 1246382666 1768515945 1785358954 1212696648 791621423
1532713819 2543294359 1684300900 1701143909 1246382666 960051513
2021161080 2122219134 1886417008 2475922323 2846468521 2863311530
2998055602 3671775962 4025479151 3772834016 2425393296 2492765332
2290649224 2324335242 2576980377 3233857728 3705461980 4294967295
3469659854 2071690107 1987475062 1970632053 875836468 404232216
252645135 269488144 993737531 909522486 1431655765 1162167621
1734829927 1280068684 2425393296 1027423549 488447261 656877351
505290270 741092396 2442236305 2779096485 2678038431 2762253476
1936946035 707406378 1920103026 1499027801 1566399837 1145324612
976894522 1246382666 1263225675 1684300900 1397969747 976894522
1431655765 1717986918 1953789044 1246382666 1953789044 1835887981
960051513 1633771873 2122219134 1499027801 1515870810 2374864269
2240120197 1397969747 1633771873 1583242846 1819044972 1650614882
1027423549 1717986918 2038004089 2139062143 2795939494 2425393296
2745410467 2543294359 2846468521 3351758791 2324335242 1970632053
2172748161 1920103026 2341178251 2678038431 3284386755 3553874899
3638089944 3958107115 2560137368 2391707278 1819044972 875836468
673720360 404232216 286331153 1313754702 1465341783 741092396
1263225675 993737531 1195853639 1633771873 505290270 454761243
538976288 741092396 1970632053 2290649224 2324335242 2290649224
2509608341 1347440720 1330597711 2678038431 2408550287 1717986918
2139062143 1515870810 522133279 1903260017 2930683566 1819044972
1061109567 741092396 943208504 1600085855 1465341783 993737531
1212696648 1785358954 1920103026 1768515945 960051513 1347440720
1600085855 1499027801 1953789044 2105376125 1802201963 1802201963
1347440720 960051513 1583242846 1819044972 1852730990 2475922323
2374864269 2189591170 2509608341 2560137368 2408550287 2105376125
2139062143 2543294359 2459079314 3031741620 2779096485 2661195422
3200171710 3183328701 2930683566 1532713819 2054847098 2223277188
825307441 353703189 1229539657 538976288 1212696648 1482184792
690563369 1397969747 1414812756 640034342 640034342 589505315
538976288 353703189 1179010630 2374864269 2560137368 2644352413
2627509404 2728567458 1448498774 1903260017 1296911693 1499027801
2189591170 2307492233 1549556828 825307441 1179010630 1414812756
909522486 1077952576 1482184792 1330597711 1852730990 2223277188
1751672936 1145324612 656877351 1094795585 1381126738 488447261
724249387 707406378 875836468 757935405 1549556828 1296911693
842150450 673720360 1263225675 1751672936 1684300900 1616928864
2358021260 2273806215 1263225675 2071690107 2256963206 2088533116
2105376125 2021161080 2661195422 2762253476 2593823386 2391707278
2273806215 2391707278 2644352413 2408550287 926365495 1179010630
1936946035 1903260017 842150450 1212696648 976894522 842150450
1212696648 1061109567 1785358954 1549556828 1296911693 1414812756
538976288 421075225 471604252 1499027801 1835887981 1381126738
1246382666 1077952576 943208504 1179010630 1280068684 1263225675
1414812756 1128481603 1145324612 757935405 808464432 437918234
1010580540 1128481603 875836468 1431655765 1330597711 1515870810
1802201963 1936946035 2189591170 1717986918 1280068684 741092396
606348324 640034342 842150450 858993459 572662306 286331153 336860180
488447261 623191333 724249387 926365495 1499027801 1381126738
1684300900 1802201963 926365495 1229539657 2290649224 1886417008
2071690107 2122219134 2273806215 2576980377 2391707278 2172748161
2189591170 2155905152 2172748161 2155905152 791621423 538976288
1448498774 1886417008 926365495 673720360 858993459 673720360
892679477 1195853639 1347440720 2526451350 1313754702 572662306
606348324 505290270 471604252 2122219134 1667457891 370546198
134744072 218959117 1330597711 1549556828 892679477 791621423
993737531 741092396 724249387 808464432 909522486 1566399837
2256963206 2290649224 1566399837 2122219134 2593823386 2475922323
2189591170 2004318071 1835887981 1414812756 1195853639 1819044972
1212696648 623191333 656877351 690563369 741092396 421075225
522133279 522133279 437918234 724249387 892679477 2038004089
2408550287 2155905152 2256963206 1667457891 943208504 1987475062
1852730990 2139062143 2509608341 2004318071 2358021260 2256963206
1987475062 1936946035 1953789044 1970632053 1869573999 791621423
336860180 943208504 640034342 437918234 808464432 943208504
1010580540 774778414 1532713819 1179010630 1717986918 1852730990
1195853639 673720360 505290270 589505315 387389207 235802126
269488144 437918234 589505315 1364283729 1010580540 437918234
421075225 471604252 757935405 993737531 774778414 825307441
2105376125 1717986918 1616928864 1162167621 1162167621 1600085855
2206434179 2627509404 2593823386 2560137368 2307492233 1347440720
1970632053 1920103026 623191333 640034342 673720360 791621423
387389207 421075225 437918234 690563369 1397969747 1330597711
1802201963 2661195422 2509608341 2475922323 2442236305 1465341783
1953789044 2088533116 1886417008 1835887981 2273806215 2459079314
2071690107 1936946035 2071690107 1785358954 1229539657 1448498774
1094795585 454761243 538976288 320017171 437918234 1094795585
1162167621 943208504 1246382666 1431655765 1347440720 1094795585
1903260017 454761243 522133279 572662306 505290270 741092396
1785358954 2290649224 2374864269 2576980377 2038004089 353703189
471604252 572662306 437918234 488447261 2307492233 1179010630
724249387 2038004089 1515870810 1061109567 993737531 1515870810
1785358954 623191333 1195853639 2256963206 2122219134 1701143909
1128481603 1044266558 1465341783 707406378 842150450 1061109567
757935405 286331153 656877351 1684300900 1920103026 1583242846
1532713819 1162167621 926365495 1061109567 1179010630 1785358954
1953789044 1768515945 1802201963 1768515945 1734829927 2088533116
2071690107 1869573999 1819044972 1785358954 1650614882 1229539657
858993459 943208504 572662306 454761243 387389207 808464432
1886417008 1179010630 538976288 993737531 1246382666 673720360
741092396 1684300900 858993459 488447261 471604252 572662306
1280068684 1583242846 1717986918 1667457891 1566399837 1077952576
286331153 640034342 724249387 875836468 808464432 1717986918
1195853639 858993459 858993459 690563369 1162167621 757935405
1195853639 1600085855 1128481603 858993459 1381126738 1128481603
471604252 555819297 875836468 1179010630 858993459 690563369
1364283729 1549556828 976894522 926365495 1077952576 892679477
741092396 1768515945 1903260017 1330597711 1616928864 1448498774
1549556828 2155905152 2256963206 2341178251 2290649224 2307492233
2475922323 2307492233 2155905152 1970632053 1701143909 1414812756
1145324612 741092396 404232216 488447261 572662306 555819297
707406378 1212696648 1263225675 808464432 757935405 1027423549
1532713819 858993459 1094795585 976894522 522133279 623191333
589505315 791621423 1111638594 1465341783 1583242846 1717986918
1701143909 1010580540 976894522 1448498774 1246382666 1212696648
1061109567 808464432 724249387 774778414 589505315 926365495
589505315 437918234 522133279 555819297 555819297 421075225 505290270
943208504 1179010630 1381126738 808464432 825307441 825307441
1162167621 808464432 555819297 471604252 303174162 185273099
656877351 1246382666 1280068684 1397969747 1414812756 1448498774
1633771873 2054847098 1802201963 1785358954 2038004089 2004318071
2526451350 2324335242 2155905152 2004318071 1684300900 1616928864
741092396 808464432 589505315 387389207 471604252 555819297 673720360
1010580540 1263225675 926365495 960051513 774778414 791621423
522133279 505290270 707406378 1111638594 673720360 707406378
623191333 757935405 808464432 943208504 1212696648 1414812756
1566399837 1364283729 1212696648 757935405 724249387 623191333
522133279 522133279 538976288 522133279 656877351 791621423 690563369
656877351 656877351 505290270 774778414 1162167621 1094795585
1515870810 1583242846 1027423549 656877351 741092396 774778414
993737531 656877351 471604252 404232216 724249387 1532713819
1313754702 875836468 842150450 842150450 842150450 892679477
1768515945 1869573999 976894522 1246382666 1499027801 2475922323
2509608341 2374864269 2206434179 1835887981 1162167621 505290270
825307441 623191333 404232216 488447261 858993459 606348324 808464432
875836468 842150450 623191333 858993459 1044266558 774778414
454761243 640034342 1195853639 774778414 1145324612 1246382666
589505315 572662306 673720360 858993459 842150450 774778414 640034342
471604252 488447261 555819297 741092396 572662306 555819297 505290270
572662306 1145324612 842150450 808464432 707406378 943208504
1094795585 1044266558 1111638594 960051513 791621423 858993459
707406378 353703189 454761243 421075225 555819297 488447261 471604252
656877351 1094795585 1600085855 1667457891 1364283729 1077952576
1044266558 1061109567 1010580540 1010580540 1768515945 1162167621
1061109567 1381126738 2240120197 2307492233 2509608341 1852730990
1077952576 1061109567 353703189 404232216 404232216 943208504
825307441 437918234 623191333 471604252 538976288 656877351 943208504
707406378 791621423 875836468 993737531 522133279 202116108 774778414
1195853639 1330597711 875836468 976894522 892679477 741092396
707406378 505290270 370546198 505290270 437918234 437918234 589505315
589505315 673720360 1263225675 943208504 488447261 235802126
404232216 606348324 1145324612 960051513 471604252 454761243
606348324 1094795585 1179010630 858993459 387389207 505290270
640034342 505290270 1077952576 1835887981 774778414 437918234
791621423 1128481603 1246382666 1195853639 1111638594 1077952576
976894522 909522486 1145324612 1397969747 1313754702 1313754702
2475922323 2324335242 1229539657 218959117 269488144 488447261
235802126 353703189 707406378 842150450 522133279 757935405 724249387
437918234 555819297 976894522 1347440720 1077952576 522133279
589505315 757935405 623191333 623191333 724249387 892679477 960051513
1044266558 1044266558 909522486 808464432 673720360 606348324
623191333 842150450 673720360 656877351 774778414 673720360 656877351
1229539657 572662306 404232216 437918234 488447261 707406378
993737531 690563369 303174162 235802126 353703189 690563369 690563369
791621423 522133279 1246382666 1549556828 1263225675 673720360
2122219134 2021161080 1179010630 572662306 555819297 724249387
623191333 606348324 606348324 623191333 522133279 589505315
1027423549 1246382666 1145324612 1987475062 673720360 151587081
218959117 370546198 336860180 387389207 488447261 522133279 454761243
555819297 943208504 774778414 404232216 454761243 1128481603
1128481603 976894522 1802201963 1195853639 1044266558 825307441
623191333 858993459 623191333 724249387 892679477 892679477 774778414
724249387 724249387 724249387 606348324 555819297 623191333 522133279
757935405 404232216 505290270 555819297 656877351 1347440720
757935405 404232216 791621423 976894522 909522486 572662306 437918234
656877351 774778414 421075225 488447261 1061109567 1061109567
1482184792 1515870810 555819297 808464432 2071690107 2054847098
1802201963 1397969747 1128481603 1381126738 1145324612 1111638594
1061109567 673720360 757935405 1195853639 1381126738 1364283729
1094795585 640034342 555819297 572662306 724249387 690563369
656877351 673720360 454761243 286331153 690563369 774778414 640034342
538976288 538976288 707406378 909522486 1010580540 1280068684
1229539657 976894522 842150450 421075225 555819297 387389207
320017171 505290270 538976288 589505315 656877351 707406378 623191333
454761243 421075225 488447261 488447261 235802126 353703189 606348324
707406378 555819297 1482184792 1953789044 1212696648 842150450
993737531 976894522 656877351 522133279 640034342 640034342 454761243
353703189 1010580540 1280068684 875836468 370546198 454761243
454761243 1970632053 1701143909 1145324612 1212696648 1246382666
1583242846 1819044972 1953789044 1987475062 1920103026 1819044972
1734829927 1734829927 1583242846 1364283729 1397969747 1583242846
1684300900 1566399837 1280068684 1061109567 976894522 892679477
774778414 825307441 808464432 1077952576 791621423 471604252
589505315 808464432 960051513 589505315 454761243 825307441 303174162
218959117 505290270 488447261 505290270 522133279 572662306 589505315
623191333 606348324 623191333 505290270 673720360 791621423
1296911693 926365495 589505315 690563369 690563369 437918234
387389207 1145324612 1482184792 1145324612 1583242846 1145324612
572662306 555819297 757935405 623191333 589505315 572662306 538976288
1347440720 1448498774 774778414 286331153 572662306 1397969747
1600085855 1482184792 774778414 505290270 757935405 1145324612
1263225675 1296911693 1330597711 1600085855 1802201963 1802201963
1667457891 1162167621 1111638594 1044266558 960051513 976894522
976894522 960051513 1044266558 875836468 1077952576 1515870810
1313754702 960051513 690563369 404232216 505290270 623191333
505290270 522133279 471604252 471604252 606348324 336860180 437918234
538976288 471604252 454761243 437918234 421075225 471604252 555819297
623191333 842150450 842150450 741092396 993737531 976894522 640034342
589505315 673720360 1145324612 875836468 572662306 269488144
707406378 1448498774 1583242846 606348324 943208504 1044266558
774778414 656877351 640034342 673720360 741092396 1869573999
1162167621 774778414 926365495 1499027801 2004318071 2374864269
2206434179 1583242846 1027423549 943208504 1044266558 1094795585
1061109567 1061109567 1431655765 1802201963 1869573999 976894522
892679477 858993459 875836468 892679477 791621423 875836468
1010580540 741092396 606348324 707406378 522133279 505290270
421075225 437918234 522133279 606348324 656877351 572662306 538976288
505290270 437918234 488447261 471604252 353703189 320017171 320017171
286331153 320017171 454761243 589505315 623191333 690563369 606348324
572662306 488447261 437918234 488447261 538976288 606348324 690563369
656877351 555819297 488447261 589505315 808464432 1246382666
1145324612 1583242846 1936946035 1667457891 1448498774 1414812756
1583242846 656877351 1734829927 1600085855 1128481603 976894522
1195853639 1650614882 2172748161 2459079314 2576980377 2459079314
2290649224 2240120197 2105376125 1987475062 1768515945 1717986918
2004318071 1953789044 1128481603 1263225675 1381126738 1296911693
1212696648 926365495 741092396 656877351 404232216 437918234
640034342 673720360 656877351 488447261 488447261 572662306 555819297
606348324 471604252 488447261 505290270 437918234 320017171 404232216
320017171 320017171 336860180 336860180 336860180 336860180 387389207
404232216 488447261 488447261 488447261 471604252 505290270 538976288
522133279 555819297 623191333 656877351 656877351 505290270 488447261
437918234 1128481603 1667457891 1684300900 1903260017 2139062143
2391707278 2358021260 2273806215 1347440720 1347440720 1802201963
1061109567 892679477 858993459 808464432 825307441 1010580540
1263225675 1549556828 1768515945 1903260017 2021161080 2139062143
2038004089 1852730990 1633771873 1499027801 1179010630 1296911693
1179010630 1027423549 1027423549 892679477 673720360 623191333
673720360 640034342 522133279 437918234 370546198 387389207 505290270
538976288 437918234 572662306 505290270 488447261 471604252 437918234
387389207 437918234 488447261 421075225 437918234 421075225 370546198
387389207 421075225 488447261 471604252 471604252 640034342 825307441
1044266558 960051513 1094795585 1296911693 1414812756 1515870810
1246382666 808464432 757935405 656877351 842150450 1330597711
1296911693 1583242846 1717986918 1936946035 2004318071 2459079314
2374864269 1701143909 2088533116 1650614882 1061109567 993737531
943208504 926365495 943208504 875836468 808464432 808464432 791621423
842150450 909522486 926365495 875836468 875836468 926365495 960051513
943208504 825307441 724249387 690563369 673720360 538976288 437918234
404232216 320017171 286331153 269488144 269488144 303174162 387389207
404232216 370546198 488447261 522133279 404232216 437918234 404232216
421075225 437918234 387389207 387389207 437918234 572662306 808464432
825307441 825307441 673720360 741092396 1061109567 1499027801
1751672936 1886417008 1785358954 1717986918 1734829927 1886417008
1970632053 1852730990 1734829927 1650614882 1532713819 1499027801
1414812756 1162167621 858993459 538976288 488447261 1077952576
2256963206 2240120197 2475922323 2189591170 2088533116 1650614882
1162167621 1111638594 1094795585 1010580540 976894522 993737531
960051513 976894522 976894522 976894522 976894522 1044266558
1111638594 1044266558 943208504 858993459 791621423 707406378
640034342 589505315 437918234 370546198 404232216 353703189 404232216
488447261 572662306 623191333 673720360 825307441 858993459 774778414
774778414 623191333 538976288 673720360 707406378 791621423 875836468
875836468 842150450 825307441 1077952576 1431655765 1431655765
1077952576 1583242846 1751672936 1819044972 1886417008 1920103026
1903260017 1768515945 1768515945 1667457891 1667457891 1835887981
1953789044 1667457891 1431655765 1010580540 707406378 421075225
252645135 303174162 387389207 471604252 1263225675 1364283729
2038004089 2172748161 1717986918 1128481603 858993459 1111638594
1499027801 1280068684 1145324612 1044266558 1027423549 1010580540
976894522 1010580540 1027423549 1061109567 1044266558 993737531
976894522 909522486 926365495 825307441 791621423 741092396 640034342
555819297 555819297 606348324 656877351 640034342 640034342 606348324
589505315 673720360 757935405 842150450 943208504 976894522
1010580540 1145324612 1263225675 1381126738 1330597711 1263225675
1313754702 1381126738 1448498774 1313754702 858993459 1044266558
1313754702 1195853639 1212696648 1077952576 1044266558 1077952576
1195853639 1330597711 1566399837 1751672936 2021161080 1684300900
1044266558 926365495 690563369 606348324 572662306 673720360
842150450 1280068684 1313754702 1499027801 1734829927 1802201963
1936946035 1734829927 1313754702 1145324612 1162167621 1263225675
1330597711 1212696648 1128481603 1077952576 1061109567 1077952576
1077952576 1077952576 1094795585 1027423549 960051513 1027423549
943208504 858993459 791621423 741092396 673720360 572662306 623191333
572662306 640034342 656877351 589505315 572662306 623191333 690563369
791621423 808464432 808464432 774778414 808464432 808464432 875836468
858993459 892679477 960051513 1027423549 960051513 943208504
926365495 791621423 858993459 909522486 892679477 1044266558
1077952576 1229539657 1397969747 1633771873 1869573999 2021161080
2155905152 2273806215 2256963206 2038004089 1717986918 1532713819
1381126738 1566399837 1734829927 1869573999 2189591170 2391707278
2273806215 2139062143 2223277188 2122219134 2038004089 2004318071
1936946035 1667457891 1482184792 1330597711 1195853639 1179010630
1145324612 1246382666 1212696648 1145324612 1145324612 1061109567
993737531 993737531 993737531 1044266558 926365495 875836468
875836468 858993459 825307441 808464432 825307441 808464432 808464432
774778414 724249387 724249387 808464432 1077952576 1381126738
1448498774 1212696648 1010580540 926365495 875836468 858993459
909522486 943208504 1061109567 1347440720 1583242846 1701143909
1785358954 1819044972 1903260017 1886417008 1835887981 1936946035
1936946035 1869573999 1936946035 1886417008 1785358954 1835887981
1819044972 1869573999 1936946035 1987475062 2021161080 1987475062
1869573999 2004318071 2071690107 2038004089 2122219134 2206434179
2206434179 2223277188 2324335242 2038004089 1734829927 1431655765
1313754702 1246382666 1229539657 1229539657 1229539657 1195853639
1246382666 1263225675 1179010630 1128481603 1111638594 1128481603
1094795585 1077952576 1094795585 1027423549 993737531 1044266558
1077952576 1094795585 1044266558 1010580540 976894522 926365495
875836468 825307441 993737531 1094795585 1364283729 1717986918
1616928864 1583242846 1667457891 1465341783 1313754702 1263225675
1313754702 1414812756 1414812756 1549556828 1633771873 1734829927
1785358954 1734829927 1852730990 1802201963 1802201963 1684300900
1515870810 1465341783 1364283729 1313754702 1313754702 1381126738
1431655765 1549556828 1684300900 1751672936 1768515945 1869573999
2004318071 1987475062 2038004089 1936946035 2054847098 2021161080
2038004089 1987475062 1987475062 1802201963 1465341783 1330597711
1381126738 1347440720 1313754702 1229539657 1179010630 1246382666
1296911693 1212696648 1179010630 1195853639 1212696648 1229539657
1195853639 1094795585 1162167621 1145324612
