P3
73 43
255
65 69 45 65 69 45 134 122 93 65 69 45 65 69 45 65 69 45 134 122 93
134 122 93 65 69 45 65 69 45 65 69 45 134 122 93 65 69 45 65 69 45
134 122 93 65 69 45 134 122 93 65 69 45 134 122 93 134 122 93
65 69 45 134 122 93 134 122 93 134 122 93 65 69 45 134 122 93
65 69 45 134 122 93 134 122 93 65 69 45 134 122 93 134 122 93
134 122 93 134 122 93 134 122 93 134 122 93 134 122 93 134 122 93
134 122 93 134 122 93 134 122 93 134 122 93 134 122 93 134 122 93
134 122 93 134 122 93 134 122 93 134 122 93 134 122 93 134 122 93
134 122 93 134 122 93 134 122 93 134 122 93 154 143 107 134 122 93
134 122 93 134 122 93 134 122 93 134 122 93 134 122 93 65 69 45
154 143 107 134 122 93 134 122 93 134 122 93 134 122 93 134 122 93
134 122 93 134 122 93 134 122 93 134 122 93 134 122 93 134 122 93
65 69 45 134 122 93 65 69 45 134 122 93 65 69 45 65 69 45 65 69 45
65 69 45 134 122 93 65 69 45 134 122 93 134 122 93 65 69 45
134 122 93 65 69 45 65 69 45 134 122 93 65 69 45 134 122 93 65 69 45
134 122 93 65 69 45 134 122 93 134 122 93 134 122 93 134 122 93
134 122 93 134 122 93 134 122 93 134 122 93 134 122 93 134 122 93
134 122 93 154 143 107 134 122 93 134 122 93 134 122 93 134 122 93
134 122 93 134 122 93 134 122 93 134 122 93 134 122 93 134 122 93
192 195 165 134 122 93 134 122 93 134 122 93 154 143 107 134 122 93
154 143 107 134 122 93 134 122 93 134 122 93 154 143 107 134 122 93
134 122 93 134 122 93 134 122 93 154 143 107 192 195 165 134 122 93
134 122 93 134 122 93 134 122 93 134 122 93 134 122 93 134 122 93
134 122 93 134 122 93 134 122 93 134 122 93 65 69 45 65 69 45
65 69 45 65 69 45 65 69 45 65 69 45 134 122 93 65 69 45 65 69 45
134 122 93 65 69 45 65 69 45 134 122 93 65 69 45 134 122 93 65 69 45
134 122 93 134 122 93 134 122 93 134 122 93 134 122 93 134 122 93
134 122 93 134 122 93 134 122 93 154 143 107 154 143 107 134 122 93
134 122 93 134 122 93 154 143 107 192 195 165 134 122 93 192 195 165
154 143 107 134 122 93 65 69 45 192 195 165 154 143 107 134 122 93
192 195 165 134 122 93 134 122 93 154 143 107 134 122 93 134 122 93
134 122 93 192 195 165 192 195 165 65 69 45 134 122 93 134 122 93
134 122 93 154 143 107 154 143 107 134 122 93 134 122 93 134 122 93
134 122 93 134 122 93 134 122 93 134 122 93 134 122 93 134 122 93
134 122 93 134 122 93 134 122 93 134 122 93 134 122 93 134 122 93
134 122 93 65 69 45 134 122 93 65 69 45 65 69 45 134 122 93 65 69 45
134 122 93 65 69 45 65 69 45 134 122 93 134 122 93 65 69 45 65 69 45
134 122 93 65 69 45 134 122 93 65 69 45 134 122 93 65 69 45
134 122 93 134 122 93 134 122 93 154 143 107 134 122 93 134 122 93
134 122 93 134 122 93 192 195 165 192 195 165 192 195 165 134 122 93
134 122 93 192 195 165 192 195 165 192 195 165 192 195 165
192 195 165 192 195 165 134 122 93 134 122 93 154 143 107 154 143 107
154 143 107 134 122 93 134 122 93 154 143 107 134 122 93 134 122 93
154 143 107 134 122 93 134 122 93 192 195 165 134 122 93 134 122 93
134 122 93 192 195 165 134 122 93 134 122 93 134 122 93 134 122 93
154 143 107 134 122 93 134 122 93 134 122 93 134 122 93 134 122 93
134 122 93 134 122 93 134 122 93 154 143 107 154 143 107 134 122 93
134 122 93 134 122 93 134 122 93 134 122 93 65 69 45 134 122 93
65 69 45 65 69 45 65 69 45 65 69 45 65 69 45 134 122 93 65 69 45
134 122 93 65 69 45 134 122 93 134 122 93 134 122 93 134 122 93
154 143 107 154 143 107 154 143 107 134 122 93 134 122 93 192 195 165
154 143 107 134 122 93 154 143 107 192 195 165 192 195 165
192 195 165 192 195 165 192 195 165 192 195 165 192 195 165
192 195 165 192 195 165 192 195 165 192 195 165 134 122 93 134 122 93
134 122 93 134 122 93 134 122 93 134 122 93 154 143 107 154 143 107
134 122 93 134 122 93 154 143 107 134 122 93 134 122 93 134 122 93
134 122 93 134 122 93 134 122 93 134 122 93 65 69 45 134 122 93
134 122 93 134 122 93 134 122 93 154 143 107 134 122 93 134 122 93
134 122 93 134 122 93 134 122 93 154 143 107 134 122 93 134 122 93
134 122 93 134 122 93 134 122 93 134 122 93 134 122 93 65 69 45
65 69 45 65 69 45 65 69 45 134 122 93 65 69 45 134 122 93 65 69 45
134 122 93 134 122 93 134 122 93 192 195 165 134 122 93 134 122 93
134 122 93 154 143 107 134 122 93 154 143 107 154 143 107 154 143 107
134 122 93 134 122 93 154 143 107 134 122 93 192 195 165 192 195 165
192 195 165 192 195 165 192 195 165 192 195 165 192 195 165
192 195 165 192 195 165 192 195 165 192 195 165 192 195 165
192 195 165 134 122 93 192 195 165 134 122 93 134 122 93 134 122 93
134 122 93 154 143 107 134 122 93 134 122 93 134 122 93 134 122 93
134 122 93 134 122 93 134 122 93 134 122 93 134 122 93 134 122 93
192 195 165 134 122 93 134 122 93 134 122 93 134 122 93 134 122 93
134 122 93 154 143 107 134 122 93 134 122 93 134 122 93 134 122 93
134 122 93 134 122 93 134 122 93 154 143 107 134 122 93 134 122 93
134 122 93 65 69 45 65 69 45 134 122 93 65 69 45 134 122 93
134 122 93 134 122 93 192 195 165 134 122 93 134 122 93 154 143 107
134 122 93 134 122 93 192 195 165 192 195 165 134 122 93 154 143 107
134 122 93 65 69 45 192 195 165 154 143 107 154 143 107 154 143 107
192 195 165 192 195 165 192 195 165 192 195 165 192 195 165
192 195 165 192 195 165 192 195 165 192 195 165 192 195 165
192 195 165 192 195 165 192 195 165 192 195 165 134 122 93 65 69 45
134 122 93 134 122 93 192 195 165 192 195 165 154 143 107 134 122 93
134 122 93 154 143 107 154 143 107 154 143 107 154 143 107 134 122 93
134 122 93 134 122 93 65 69 45 154 143 107 134 122 93 154 143 107
134 122 93 154 143 107 134 122 93 134 122 93 65 69 45 134 122 93
154 143 107 134 122 93 154 143 107 154 143 107 154 143 107 134 122 93
154 143 107 134 122 93 134 122 93 134 122 93 192 195 165 134 122 93
134 122 93 192 195 165 134 122 93 134 122 93 134 122 93 154 143 107
134 122 93 192 195 165 134 122 93 192 195 165 134 122 93 134 122 93
134 122 93 134 122 93 154 143 107 134 122 93 192 195 165 134 122 93
134 122 93 154 143 107 154 143 107 134 122 93 192 195 165 192 195 165
192 195 165 192 195 165 192 195 165 192 195 165 192 195 165
192 195 165 192 195 165 192 195 165 192 195 165 192 195 165
192 195 165 192 195 165 134 122 93 65 69 45 134 122 93 154 143 107
154 143 107 154 143 107 134 122 93 134 122 93 134 122 93 134 122 93
134 122 93 134 122 93 134 122 93 134 122 93 134 122 93 192 195 165
192 195 165 134 122 93 134 122 93 134 122 93 134 122 93 134 122 93
192 195 165 192 195 165 134 122 93 134 122 93 134 122 93 134 122 93
134 122 93 154 143 107 154 143 107 154 143 107 192 195 165
154 143 107 154 143 107 154 143 107 154 143 107 134 122 93
154 143 107 154 143 107 154 143 107 154 143 107 134 122 93 134 122 93
134 122 93 154 143 107 154 143 107 192 195 165 192 195 165 134 122 93
134 122 93 154 143 107 154 143 107 154 143 107 154 143 107 134 122 93
134 122 93 154 143 107 192 195 165 154 143 107 154 143 107
192 195 165 192 195 165 192 195 165 154 143 107 192 195 165
154 143 107 192 195 165 154 143 107 154 143 107 65 69 45 65 69 45
192 195 165 134 122 93 65 69 45 154 143 107 134 122 93 154 143 107
154 143 107 154 143 107 134 122 93 134 122 93 154 143 107 154 143 107
154 143 107 154 143 107 134 122 93 134 122 93 154 143 107 154 143 107
192 195 165 192 195 165 134 122 93 134 122 93 134 122 93 134 122 93
154 143 107 154 143 107 192 195 165 192 195 165 192 195 165
192 195 165 154 143 107 154 143 107 134 122 93 154 143 107
154 143 107 154 143 107 134 122 93 154 143 107 154 143 107 134 122 93
134 122 93 134 122 93 192 195 165 154 143 107 134 122 93 134 122 93
192 195 165 192 195 165 192 195 165 192 195 165 134 122 93 134 122 93
134 122 93 154 143 107 154 143 107 154 143 107 154 143 107 134 122 93
134 122 93 192 195 165 192 195 165 134 122 93 154 143 107 192 195 165
192 195 165 134 122 93 134 122 93 154 143 107 192 195 165 154 143 107
192 195 165 65 69 45 65 69 45 65 69 45 65 69 45 65 69 45 154 143 107
154 143 107 154 143 107 154 143 107 154 143 107 154 143 107
192 195 165 154 143 107 154 143 107 154 143 107 154 143 107
154 143 107 134 122 93 134 122 93 154 143 107 154 143 107 192 195 165
154 143 107 192 195 165 154 143 107 134 122 93 154 143 107 134 122 93
192 195 165 192 195 165 192 195 165 192 195 165 192 195 165
192 195 165 192 195 165 192 195 165 192 195 165 154 143 107
154 143 107 154 143 107 154 143 107 192 195 165 154 143 107
154 143 107 192 195 165 134 122 93 134 122 93 134 122 93 192 195 165
192 195 165 192 195 165 192 195 165 192 195 165 192 195 165
154 143 107 154 143 107 154 143 107 154 143 107 134 122 93 134 122 93
154 143 107 154 143 107 134 122 93 134 122 93 134 122 93 192 195 165
154 143 107 134 122 93 134 122 93 154 143 107 154 143 107 134 122 93
154 143 107 65 69 45 65 69 45 65 69 45 65 69 45 65 69 45 154 143 107
154 143 107 154 143 107 154 143 107 134 122 93 134 122 93 134 122 93
154 143 107 154 143 107 192 195 165 154 143 107 154 143 107
134 122 93 154 143 107 154 143 107 154 143 107 134 122 93 154 143 107
154 143 107 154 143 107 154 143 107 134 122 93 134 122 93 154 143 107
192 195 165 192 195 165 192 195 165 192 195 165 192 195 165
192 195 165 192 195 165 192 195 165 134 122 93 192 195 165 65 69 45
134 122 93 134 122 93 134 122 93 192 195 165 154 143 107 154 143 107
134 122 93 154 143 107 192 195 165 192 195 165 192 195 165
192 195 165 192 195 165 154 143 107 134 122 93 192 195 165
154 143 107 154 143 107 154 143 107 154 143 107 154 143 107
134 122 93 134 122 93 134 122 93 154 143 107 154 143 107 134 122 93
134 122 93 65 69 45 154 143 107 154 143 107 154 143 107 134 122 93
65 69 45 65 69 45 65 69 45 65 69 45 65 69 45 134 122 93 65 69 45
154 143 107 65 69 45 65 69 45 65 69 45 134 122 93 65 69 45 134 122 93
154 143 107 154 143 107 192 195 165 154 143 107 154 143 107
154 143 107 154 143 107 134 122 93 134 122 93 154 143 107 134 122 93
134 122 93 134 122 93 192 195 165 134 122 93 192 195 165 192 195 165
192 195 165 192 195 165 192 195 165 192 195 165 192 195 165
192 195 165 154 143 107 134 122 93 154 143 107 192 195 165 134 122 93
134 122 93 134 122 93 134 122 93 154 143 107 154 143 107 154 143 107
192 195 165 192 195 165 192 195 165 192 195 165 192 195 165
192 195 165 65 69 45 154 143 107 154 143 107 154 143 107 154 143 107
192 195 165 134 122 93 134 122 93 134 122 93 134 122 93 192 195 165
134 122 93 154 143 107 154 143 107 134 122 93 134 122 93 154 143 107
192 195 165 154 143 107 65 69 45 65 69 45 65 69 45 65 69 45 65 69 45
65 69 45 65 69 45 65 69 45 65 69 45 65 69 45 154 143 107 154 143 107
192 195 165 154 143 107 154 143 107 134 122 93 134 122 93 134 122 93
65 69 45 65 69 45 65 69 45 134 122 93 65 69 45 65 69 45 134 122 93
192 195 165 134 122 93 134 122 93 192 195 165 154 143 107 192 195 165
192 195 165 192 195 165 192 195 165 192 195 165 192 195 165
192 195 165 134 122 93 134 122 93 154 143 107 154 143 107 154 143 107
192 195 165 154 143 107 134 122 93 134 122 93 154 143 107 192 195 165
154 143 107 192 195 165 192 195 165 192 195 165 192 195 165
192 195 165 134 122 93 134 122 93 134 122 93 154 143 107 192 195 165
65 69 45 65 69 45 134 122 93 134 122 93 134 122 93 154 143 107
154 143 107 65 69 45 65 69 45 65 69 45 65 69 45 134 122 93 134 122 93
134 122 93 65 69 45 65 69 45 65 69 45 65 69 45 65 69 45 65 69 45
65 69 45 134 122 93 134 122 93 134 122 93 154 143 107 154 143 107
65 69 45 154 143 107 154 143 107 154 143 107 65 69 45 134 122 93
65 69 45 134 122 93 134 122 93 134 122 93 65 69 45 65 69 45 65 69 45
65 69 45 192 195 165 134 122 93 134 122 93 154 143 107 192 195 165
154 143 107 192 195 165 192 195 165 192 195 165 192 195 165
192 195 165 192 195 165 154 143 107 154 143 107 154 143 107
134 122 93 134 122 93 154 143 107 192 195 165 154 143 107 154 143 107
192 195 165 154 143 107 154 143 107 154 143 107 192 195 165
192 195 165 192 195 165 65 69 45 134 122 93 65 69 45 134 122 93
65 69 45 65 69 45 134 122 93 192 195 165 134 122 93 134 122 93
134 122 93 65 69 45 65 69 45 65 69 45 65 69 45 65 69 45 65 69 45
65 69 45 65 69 45 65 69 45 65 69 45 65 69 45 65 69 45 65 69 45
65 69 45 154 143 107 154 143 107 154 143 107 65 69 45 65 69 45
154 143 107 154 143 107 134 122 93 134 122 93 134 122 93 134 122 93
134 122 93 154 143 107 192 195 165 154 143 107 154 143 107 134 122 93
65 69 45 65 69 45 65 69 45 65 69 45 134 122 93 134 122 93 65 69 45
65 69 45 154 143 107 154 143 107 192 195 165 192 195 165 192 195 165
192 195 165 154 143 107 154 143 107 154 143 107 154 143 107
154 143 107 154 143 107 154 143 107 65 69 45 154 143 107 154 143 107
154 143 107 192 195 165 192 195 165 154 143 107 65 69 45 134 122 93
134 122 93 134 122 93 65 69 45 134 122 93 65 69 45 65 69 45 65 69 45
154 143 107 134 122 93 154 143 107 134 122 93 134 122 93 134 122 93
65 69 45 65 69 45 65 69 45 65 69 45 65 69 45 65 69 45 65 69 45
65 69 45 65 69 45 65 69 45 65 69 45 65 69 45 65 69 45 134 122 93
65 69 45 134 122 93 65 69 45 65 69 45 134 122 93 65 69 45 65 69 45
154 143 107 134 122 93 134 122 93 134 122 93 65 69 45 65 69 45
134 122 93 154 143 107 134 122 93 65 69 45 65 69 45 65 69 45 65 69 45
134 122 93 134 122 93 134 122 93 154 143 107 154 143 107 154 143 107
192 195 165 192 195 165 192 195 165 192 195 165 154 143 107
154 143 107 154 143 107 154 143 107 192 195 165 192 195 165
192 195 165 192 195 165 154 143 107 154 143 107 154 143 107
154 143 107 134 122 93 65 69 45 65 69 45 65 69 45 65 69 45 65 69 45
65 69 45 65 69 45 134 122 93 65 69 45 65 69 45 154 143 107 65 69 45
65 69 45 65 69 45 65 69 45 134 122 93 154 143 107 134 122 93
154 143 107 134 122 93 65 69 45 65 69 45 65 69 45 65 69 45 134 122 93
65 69 45 134 122 93 65 69 45 65 69 45 65 69 45 65 69 45 154 143 107
134 122 93 134 122 93 65 69 45 65 69 45 65 69 45 65 69 45 65 69 45
65 69 45 134 122 93 134 122 93 65 69 45 65 69 45 65 69 45 154 143 107
65 69 45 134 122 93 65 69 45 65 69 45 134 122 93 134 122 93
134 122 93 134 122 93 192 195 165 192 195 165 154 143 107 192 195 165
192 195 165 192 195 165 192 195 165 154 143 107 154 143 107
134 122 93 192 195 165 192 195 165 192 195 165 192 195 165
192 195 165 134 122 93 134 122 93 154 143 107 65 69 45 65 69 45
65 69 45 65 69 45 65 69 45 65 69 45 65 69 45 65 69 45 134 122 93
65 69 45 154 143 107 65 69 45 65 69 45 65 69 45 65 69 45 65 69 45
65 69 45 192 195 165 154 143 107 154 143 107 154 143 107 65 69 45
154 143 107 65 69 45 134 122 93 65 69 45 65 69 45 65 69 45 65 69 45
134 122 93 65 69 45 65 69 45 65 69 45 65 69 45 154 143 107 65 69 45
134 122 93 134 122 93 65 69 45 65 69 45 134 122 93 65 69 45 65 69 45
134 122 93 134 122 93 65 69 45 134 122 93 134 122 93 134 122 93
134 122 93 65 69 45 65 69 45 134 122 93 134 122 93 192 195 165
134 122 93 192 195 165 154 143 107 192 195 165 192 195 165
154 143 107 134 122 93 154 143 107 134 122 93 154 143 107 154 143 107
192 195 165 192 195 165 192 195 165 192 195 165 134 122 93
154 143 107 65 69 45 65 69 45 65 69 45 65 69 45 65 69 45 65 69 45
65 69 45 65 69 45 65 69 45 65 69 45 65 69 45 65 69 45 65 69 45
65 69 45 65 69 45 65 69 45 134 122 93 134 122 93 154 143 107
154 143 107 154 143 107 65 69 45 65 69 45 154 143 107 154 143 107
134 122 93 154 143 107 65 69 45 65 69 45 65 69 45 192 195 165
65 69 45 65 69 45 65 69 45 65 69 45 134 122 93 65 69 45 65 69 45
65 69 45 134 122 93 154 143 107 65 69 45 65 69 45 65 69 45 65 69 45
65 69 45 134 122 93 154 143 107 134 122 93 65 69 45 134 122 93
65 69 45 134 122 93 65 69 45 154 143 107 154 143 107 154 143 107
154 143 107 154 143 107 192 195 165 134 122 93 134 122 93 134 122 93
154 143 107 154 143 107 192 195 165 192 195 165 192 195 165
192 195 165 192 195 165 192 195 165 134 122 93 134 122 93 154 143 107
65 69 45 65 69 45 65 69 45 65 69 45 65 69 45 65 69 45 65 69 45
65 69 45 65 69 45 65 69 45 65 69 45 65 69 45 65 69 45 65 69 45
65 69 45 154 143 107 134 122 93 154 143 107 154 143 107 192 195 165
65 69 45 134 122 93 65 69 45 65 69 45 154 143 107 134 122 93
134 122 93 65 69 45 65 69 45 134 122 93 65 69 45 65 69 45 134 122 93
65 69 45 65 69 45 154 143 107 65 69 45 65 69 45 65 69 45 65 69 45
134 122 93 65 69 45 65 69 45 65 69 45 65 69 45 65 69 45 65 69 45
65 69 45 65 69 45 65 69 45 65 69 45 65 69 45 134 122 93 65 69 45
154 143 107 154 143 107 65 69 45 134 122 93 134 122 93 134 122 93
134 122 93 134 122 93 192 195 165 154 143 107 134 122 93 192 195 165
192 195 165 192 195 165 134 122 93 134 122 93 65 69 45 65 69 45
65 69 45 65 69 45 65 69 45 65 69 45 65 69 45 65 69 45 65 69 45
65 69 45 134 122 93 65 69 45 65 69 45 65 69 45 65 69 45 65 69 45
65 69 45 65 69 45 65 69 45 65 69 45 65 69 45 65 69 45 65 69 45
65 69 45 65 69 45 65 69 45 65 69 45 65 69 45 65 69 45 65 69 45
65 69 45 65 69 45 65 69 45 65 69 45 65 69 45 65 69 45 65 69 45
134 122 93 134 122 93 134 122 93 134 122 93 134 122 93 134 122 93
65 69 45 65 69 45 65 69 45 65 69 45 65 69 45 65 69 45 65 69 45
65 69 45 65 69 45 65 69 45 65 69 45 65 69 45 65 69 45 65 69 45
134 122 93 134 122 93 65 69 45 65 69 45 134 122 93 134 122 93
134 122 93 134 122 93 65 69 45 192 195 165 134 122 93 134 122 93
134 122 93 134 122 93 134 122 93 134 122 93 65 69 45 65 69 45
65 69 45 134 122 93 65 69 45 65 69 45 65 69 45 65 69 45 65 69 45
65 69 45 65 69 45 154 143 107 65 69 45 65 69 45 65 69 45 65 69 45
65 69 45 65 69 45 134 122 93 65 69 45 65 69 45 65 69 45 65 69 45
65 69 45 65 69 45 65 69 45 65 69 45 65 69 45 65 69 45 65 69 45
65 69 45 65 69 45 134 122 93 154 143 107 65 69 45 134 122 93
154 143 107 154 143 107 134 122 93 134 122 93 134 122 93 65 69 45
65 69 45 65 69 45 65 69 45 65 69 45 65 69 45 65 69 45 65 69 45
65 69 45 65 69 45 65 69 45 65 69 45 65 69 45 65 69 45 65 69 45
154 143 107 134 122 93 134 122 93 65 69 45 65 69 45 134 122 93
134 122 93 134 122 93 192 195 165 154 143 107 154 143 107 134 122 93
134 122 93 134 122 93 134 122 93 134 122 93 134 122 93 65 69 45
65 69 45 65 69 45 65 69 45 65 69 45 65 69 45 65 69 45 65 69 45
65 69 45 134 122 93 65 69 45 134 122 93 65 69 45 65 69 45 65 69 45
65 69 45 65 69 45 65 69 45 65 69 45 65 69 45 65 69 45 65 69 45
65 69 45 65 69 45 65 69 45 65 69 45 65 69 45 65 69 45 65 69 45
65 69 45 65 69 45 134 122 93 154 143 107 65 69 45 65 69 45 65 69 45
134 122 93 134 122 93 192 195 165 154 143 107 154 143 107 134 122 93
65 69 45 134 122 93 65 69 45 65 69 45 65 69 45 65 69 45 65 69 45
65 69 45 65 69 45 65 69 45 65 69 45 65 69 45 65 69 45 134 122 93
192 195 165 134 122 93 154 143 107 134 122 93 65 69 45 134 122 93
154 143 107 134 122 93 65 69 45 134 122 93 192 195 165 134 122 93
134 122 93 134 122 93 134 122 93 65 69 45 134 122 93 65 69 45
65 69 45 65 69 45 65 69 45 65 69 45 65 69 45 65 69 45 65 69 45
65 69 45 65 69 45 65 69 45 65 69 45 65 69 45 65 69 45 65 69 45
65 69 45 65 69 45 65 69 45 65 69 45 154 143 107 154 143 107 65 69 45
65 69 45 65 69 45 65 69 45 65 69 45 65 69 45 65 69 45 154 143 107
65 69 45 65 69 45 154 143 107 65 69 45 65 69 45 65 69 45 134 122 93
65 69 45 65 69 45 65 69 45 65 69 45 134 122 93 134 122 93 65 69 45
65 69 45 134 122 93 65 69 45 65 69 45 65 69 45 65 69 45 65 69 45
65 69 45 65 69 45 134 122 93 134 122 93 65 69 45 65 69 45 65 69 45
65 69 45 65 69 45 134 122 93 134 122 93 134 122 93 65 69 45
134 122 93 134 122 93 134 122 93 134 122 93 134 122 93 134 122 93
134 122 93 65 69 45 65 69 45 65 69 45 65 69 45 65 69 45 65 69 45
65 69 45 65 69 45 65 69 45 65 69 45 65 69 45 65 69 45 65 69 45
65 69 45 65 69 45 65 69 45 65 69 45 65 69 45 65 69 45 65 69 45
65 69 45 65 69 45 65 69 45 134 122 93 65 69 45 65 69 45 65 69 45
65 69 45 65 69 45 65 69 45 65 69 45 65 69 45 65 69 45 65 69 45
65 69 45 65 69 45 65 69 45 65 69 45 65 69 45 65 69 45 65 69 45
65 69 45 65 69 45 65 69 45 65 69 45 65 69 45 65 69 45 65 69 45
65 69 45 65 69 45 65 69 45 65 69 45 65 69 45 65 69 45 65 69 45
65 69 45 65 69 45 65 69 45 65 69 45 65 69 45 65 69 45 134 122 93
65 69 45 154 143 107 134 122 93 134 122 93 154 143 107 134 122 93
134 122 93 134 122 93 134 122 93 134 122 93 134 122 93 65 69 45
65 69 45 65 69 45 65 69 45 65 69 45 65 69 45 65 69 45 65 69 45
65 69 45 65 69 45 65 69 45 65 69 45 65 69 45 65 69 45 65 69 45
65 69 45 65 69 45 65 69 45 65 69 45 65 69 45 65 69 45 65 69 45
65 69 45 65 69 45 65 69 45 134 122 93 65 69 45 65 69 45 65 69 45
65 69 45 65 69 45 65 69 45 65 69 45 65 69 45 65 69 45 65 69 45
65 69 45 65 69 45 65 69 45 65 69 45 65 69 45 65 69 45 65 69 45
65 69 45 65 69 45 65 69 45 65 69 45 65 69 45 65 69 45 65 69 45
65 69 45 65 69 45 65 69 45 65 69 45 65 69 45 65 69 45 65 69 45
65 69 45 65 69 45 65 69 45 65 69 45 65 69 45 134 122 93 134 122 93
134 122 93 134 122 93 134 122 93 134 122 93 154 143 107 134 122 93
134 122 93 134 122 93 65 69 45 134 122 93 65 69 45 65 69 45 65 69 45
65 69 45 65 69 45 65 69 45 65 69 45 65 69 45 65 69 45 65 69 45
65 69 45 65 69 45 65 69 45 65 69 45 65 69 45 65 69 45 65 69 45
65 69 45 65 69 45 65 69 45 65 69 45 65 69 45 65 69 45 65 69 45
65 69 45 65 69 45 65 69 45 65 69 45 65 69 45 65 69 45 65 69 45
65 69 45 65 69 45 65 69 45 65 69 45 65 69 45 65 69 45 65 69 45
65 69 45 65 69 45 65 69 45 65 69 45 65 69 45 65 69 45 65 69 45
65 69 45 65 69 45 65 69 45 65 69 45 65 69 45 65 69 45 65 69 45
65 69 45 65 69 45 65 69 45 134 122 93 134 122 93 65 69 45 65 69 45
65 69 45 65 69 45 65 69 45 65 69 45 134 122 93 65 69 45 65 69 45
134 122 93 192 195 165 134 122 93 192 195 165 134 122 93 65 69 45
65 69 45 65 69 45 65 69 45 65 69 45 65 69 45 65 69 45 65 69 45
65 69 45 65 69 45 65 69 45 65 69 45 65 69 45 65 69 45 65 69 45
65 69 45 65 69 45 65 69 45 65 69 45 65 69 45 65 69 45 65 69 45
65 69 45 65 69 45 65 69 45 65 69 45 65 69 45 65 69 45 65 69 45
65 69 45 65 69 45 65 69 45 65 69 45 65 69 45 65 69 45 65 69 45
65 69 45 65 69 45 65 69 45 65 69 45 65 69 45 65 69 45 65 69 45
65 69 45 65 69 45 65 69 45 65 69 45 65 69 45 65 69 45 65 69 45
65 69 45 65 69 45 65 69 45 65 69 45 65 69 45 65 69 45 65 69 45
65 69 45 134 122 93 65 69 45 65 69 45 65 69 45 65 69 45 65 69 45
65 69 45 134 122 93 65 69 45 65 69 45 65 69 45 134 122 93 134 122 93
134 122 93 65 69 45 65 69 45 65 69 45 65 69 45 65 69 45 65 69 45
65 69 45 65 69 45 65 69 45 65 69 45 65 69 45 65 69 45 65 69 45
65 69 45 65 69 45 65 69 45 65 69 45 65 69 45 65 69 45 65 69 45
65 69 45 65 69 45 65 69 45 65 69 45 65 69 45 65 69 45 65 69 45
65 69 45 65 69 45 65 69 45 65 69 45 65 69 45 65 69 45 65 69 45
65 69 45 65 69 45 65 69 45 65 69 45 65 69 45 65 69 45 65 69 45
65 69 45 65 69 45 65 69 45 65 69 45 65 69 45 65 69 45 65 69 45
65 69 45 65 69 45 65 69 45 65 69 45 65 69 45 65 69 45 65 69 45
65 69 45 65 69 45 65 69 45 65 69 45 65 69 45 65 69 45 65 69 45
65 69 45 65 69 45 65 69 45 65 69 45 65 69 45 134 122 93 65 69 45
65 69 45 154 143 107 134 122 93 65 69 45 65 69 45 65 69 45 65 69 45
65 69 45 65 69 45 65 69 45 65 69 45 65 69 45 65 69 45 65 69 45
65 69 45 65 69 45 65 69 45 65 69 45 65 69 45 65 69 45 65 69 45
65 69 45 65 69 45 65 69 45 65 69 45 65 69 45 65 69 45 65 69 45
65 69 45 65 69 45 65 69 45 65 69 45 65 69 45 65 69 45 65 69 45
65 69 45 65 69 45 65 69 45 65 69 45 65 69 45 65 69 45 65 69 45
65 69 45 65 69 45 65 69 45 65 69 45 65 69 45 65 69 45 65 69 45
65 69 45 65 69 45 65 69 45 65 69 45 65 69 45 65 69 45 65 69 45
65 69 45 65 69 45 65 69 45 154 143 107 134 122 93 65 69 45 65 69 45
65 69 45 65 69 45 65 69 45 65 69 45 65 69 45 65 69 45 65 69 45
65 69 45 65 69 45 65 69 45 65 69 45 134 122 93 65 69 45 65 69 45
65 69 45 65 69 45 65 69 45 65 69 45 65 69 45 65 69 45 65 69 45
65 69 45 65 69 45 65 69 45 65 69 45 65 69 45 65 69 45 65 69 45
65 69 45 65 69 45 65 69 45 65 69 45 65 69 45 65 69 45 65 69 45
65 69 45 65 69 45 65 69 45 65 69 45 65 69 45 65 69 45 65 69 45
65 69 45 65 69 45 65 69 45 65 69 45 65 69 45 65 69 45 65 69 45
65 69 45 65 69 45 65 69 45 65 69 45 65 69 45 65 69 45 65 69 45
65 69 45 65 69 45 65 69 45 65 69 45 65 69 45 65 69 45 65 69 45
65 69 45 65 69 45 65 69 45 65 69 45 65 69 45 65 69 45 65 69 45
65 69 45 134 122 93 65 69 45 65 69 45 65 69 45 65 69 45 65 69 45
65 69 45 65 69 45 65 69 45 65 69 45 65 69 45 134 122 93 65 69 45
65 69 45 65 69 45 65 69 45 65 69 45 65 69 45 65 69 45 65 69 45
65 69 45 65 69 45 65 69 45 65 69 45 65 69 45 65 69 45 65 69 45
65 69 45 65 69 45 65 69 45 65 69 45 65 69 45 65 69 45 65 69 45
65 69 45 65 69 45 65 69 45 65 69 45 65 69 45 65 69 45 65 69 45
65 69 45 65 69 45 65 69 45 65 69 45 65 69 45 65 69 45 65 69 45
65 69 45 65 69 45 65 69 45 65 69 45 65 69 45 65 69 45 65 69 45
65 69 45 65 69 45 65 69 45 65 69 45 65 69 45 65 69 45 65 69 45
65 69 45 65 69 45 65 69 45 65 69 45 65 69 45 65 69 45 65 69 45
65 69 45 65 69 45 65 69 45 134 122 93 134 122 93 65 69 45 65 69 45
65 69 45 65 69 45 134 122 93 134 122 93 134 122 93 134 122 93
65 69 45 65 69 45 134 122 93 134 122 93 65 69 45 134 122 93 65 69 45
65 69 45 65 69 45 65 69 45 65 69 45 65 69 45 65 69 45 65 69 45
65 69 45 65 69 45 65 69 45 65 69 45 65 69 45 65 69 45 65 69 45
65 69 45 65 69 45 65 69 45 65 69 45 65 69 45 65 69 45 65 69 45
65 69 45 65 69 45 65 69 45 65 69 45 65 69 45 65 69 45 65 69 45
65 69 45 65 69 45 65 69 45 65 69 45 65 69 45 65 69 45 65 69 45
65 69 45 65 69 45 65 69 45 65 69 45 65 69 45 65 69 45 65 69 45
65 69 45 65 69 45 65 69 45 65 69 45 65 69 45 65 69 45 65 69 45
65 69 45 65 69 45 65 69 45 65 69 45 65 69 45 65 69 45 65 69 45
65 69 45 65 69 45 134 122 93 65 69 45 65 69 45 65 69 45 65 69 45
65 69 45 65 69 45 65 69 45 134 122 93 134 122 93 65 69 45 134 122 93
65 69 45 65 69 45 65 69 45 65 69 45 65 69 45 65 69 45 65 69 45
65 69 45 65 69 45 65 69 45 65 69 45 65 69 45 65 69 45 65 69 45
65 69 45 65 69 45 65 69 45 65 69 45 65 69 45 65 69 45 65 69 45
65 69 45 65 69 45 65 69 45 65 69 45 65 69 45 65 69 45 65 69 45
65 69 45 65 69 45 65 69 45 65 69 45 65 69 45 65 69 45 65 69 45
65 69 45 65 69 45 65 69 45 65 69 45 65 69 45 65 69 45 65 69 45
65 69 45 65 69 45 65 69 45 65 69 45 65 69 45 65 69 45 65 69 45
65 69 45 65 69 45 65 69 45 65 69 45 65 69 45 65 69 45 65 69 45
65 69 45 65 69 45 65 69 45 65 69 45 154 143 107 154 143 107
134 122 93 65 69 45 65 69 45 65 69 45 65 69 45 65 69 45 65 69 45
65 69 45 134 122 93 65 69 45 134 122 93 65 69 45 65 69 45 65 69 45
65 69 45 65 69 45 65 69 45 65 69 45 65 69 45 65 69 45 65 69 45
65 69 45 65 69 45 65 69 45 65 69 45 65 69 45 65 69 45 65 69 45
65 69 45 65 69 45 65 69 45 65 69 45 65 69 45 65 69 45 65 69 45
65 69 45 65 69 45 65 69 45 65 69 45 65 69 45 65 69 45 65 69 45
65 69 45 65 69 45 65 69 45 65 69 45 65 69 45 65 69 45 65 69 45
65 69 45 65 69 45 65 69 45 65 69 45 65 69 45 65 69 45 65 69 45
65 69 45 65 69 45 65 69 45 65 69 45 134 122 93 65 69 45 65 69 45
134 122 93 65 69 45 65 69 45 134 122 93 65 69 45 65 69 45 65 69 45
65 69 45 134 122 93 154 143 107 154 143 107 154 143 107 192 195 165
134 122 93 134 122 93 134 122 93 134 122 93 134 122 93 65 69 45
134 122 93 134 122 93 65 69 45 65 69 45 65 69 45 65 69 45 65 69 45
65 69 45 65 69 45 65 69 45 65 69 45 65 69 45 65 69 45 65 69 45
65 69 45 65 69 45 65 69 45 65 69 45 65 69 45 65 69 45 65 69 45
65 69 45 65 69 45 65 69 45 65 69 45 65 69 45 65 69 45 65 69 45
65 69 45 65 69 45 65 69 45 65 69 45 65 69 45 65 69 45 65 69 45
65 69 45 65 69 45 65 69 45 65 69 45 65 69 45 65 69 45 65 69 45
65 69 45 65 69 45 65 69 45 65 69 45 65 69 45 65 69 45 65 69 45
65 69 45 134 122 93 134 122 93 134 122 93 134 122 93 154 143 107
134 122 93 65 69 45 65 69 45 134 122 93 65 69 45 65 69 45 65 69 45
65 69 45 65 69 45 65 69 45 65 69 45 65 69 45 134 122 93 134 122 93
134 122 93 134 122 93 134 122 93 134 122 93 134 122 93 65 69 45
65 69 45 65 69 45 65 69 45 65 69 45 65 69 45 65 69 45 65 69 45
65 69 45 65 69 45 65 69 45 65 69 45 65 69 45 65 69 45 65 69 45
65 69 45 65 69 45 65 69 45 65 69 45 65 69 45 65 69 45 65 69 45
65 69 45 65 69 45 65 69 45 65 69 45 65 69 45 65 69 45 65 69 45
65 69 45 65 69 45 65 69 45 65 69 45 65 69 45 65 69 45 65 69 45
65 69 45 65 69 45 65 69 45 65 69 45 65 69 45 134 122 93 65 69 45
65 69 45 65 69 45 65 69 45 65 69 45 65 69 45 65 69 45 65 69 45
134 122 93 65 69 45 65 69 45 134 122 93 154 143 107 134 122 93
134 122 93 154 143 107 65 69 45 65 69 45 65 69 45 65 69 45 65 69 45
65 69 45 65 69 45 65 69 45 65 69 45 65 69 45 65 69 45 65 69 45
65 69 45 65 69 45 65 69 45 65 69 45 65 69 45 65 69 45 65 69 45
65 69 45 65 69 45 65 69 45 65 69 45 65 69 45 65 69 45 65 69 45
65 69 45 65 69 45 65 69 45 65 69 45 65 69 45 65 69 45 65 69 45
65 69 45 65 69 45 65 69 45 65 69 45 65 69 45 65 69 45 65 69 45
65 69 45 65 69 45 65 69 45 65 69 45 65 69 45 65 69 45 65 69 45
65 69 45 65 69 45 65 69 45 65 69 45 134 122 93 65 69 45 65 69 45
134 122 93 134 122 93 134 122 93 134 122 93 134 122 93 134 122 93
65 69 45 134 122 93 65 69 45 65 69 45 65 69 45 65 69 45 65 69 45
65 69 45 65 69 45 134 122 93 134 122 93 134 122 93 134 122 93
134 122 93 134 122 93 65 69 45 65 69 45 65 69 45 65 69 45 65 69 45
65 69 45 65 69 45 65 69 45 65 69 45 65 69 45 65 69 45 65 69 45
65 69 45 65 69 45 65 69 45 65 69 45 65 69 45 65 69 45 65 69 45
65 69 45 65 69 45 65 69 45 65 69 45 65 69 45 65 69 45 65 69 45
65 69 45 65 69 45 65 69 45 65 69 45 65 69 45 65 69 45 65 69 45
65 69 45 65 69 45 65 69 45 65 69 45 65 69 45 65 69 45 65 69 45
65 69 45 65 69 45 65 69 45 65 69 45 65 69 45 65 69 45 65 69 45
134 122 93 134 122 93 134 122 93 134 122 93 134 122 93 65 69 45
134 122 93 134 122 93 65 69 45 134 122 93 134 122 93 134 122 93
65 69 45 65 69 45 65 69 45 65 69 45 65 69 45 65 69 45 65 69 45
65 69 45 65 69 45 65 69 45 134 122 93 134 122 93 134 122 93 65 69 45
65 69 45 65 69 45 134 122 93 65 69 45 65 69 45 65 69 45 65 69 45
65 69 45 65 69 45 65 69 45 65 69 45 65 69 45 65 69 45 65 69 45
65 69 45 65 69 45 65 69 45 65 69 45 65 69 45 65 69 45 65 69 45
65 69 45 65 69 45 65 69 45 65 69 45 65 69 45 65 69 45 65 69 45
65 69 45 65 69 45 65 69 45 65 69 45 65 69 45 65 69 45 65 69 45
65 69 45 65 69 45 65 69 45 65 69 45 65 69 45 65 69 45 65 69 45
134 122 93 65 69 45 65 69 45 65 69 45 65 69 45 65 69 45 65 69 45
65 69 45 65 69 45 65 69 45 65 69 45 65 69 45 134 122 93 65 69 45
134 122 93 134 122 93 65 69 45 65 69 45 65 69 45 65 69 45 65 69 45
65 69 45 65 69 45 65 69 45 65 69 45 134 122 93 134 122 93 134 122 93
134 122 93 134 122 93 65 69 45 65 69 45 65 69 45 65 69 45 65 69 45
65 69 45 65 69 45 65 69 45 65 69 45 65 69 45 65 69 45 65 69 45
65 69 45 65 69 45 65 69 45 65 69 45 65 69 45 65 69 45 65 69 45
65 69 45 65 69 45 65 69 45 65 69 45 65 69 45 65 69 45 65 69 45
65 69 45 65 69 45 65 69 45 65 69 45 65 69 45 65 69 45 65 69 45
65 69 45 65 69 45 65 69 45 65 69 45 65 69 45 65 69 45 65 69 45
65 69 45 65 69 45 65 69 45 65 69 45 65 69 45 65 69 45 65 69 45
65 69 45 65 69 45 65 69 45 65 69 45 65 69 45 134 122 93 134 122 93
134 122 93 134 122 93 134 122 93 134 122 93 134 122 93 134 122 93
65 69 45 65 69 45 134 122 93 134 122 93 134 122 93 134 122 93
134 122 93 134 122 93 134 122 93 134 122 93 134 122 93 134 122 93
134 122 93 134 122 93 134 122 93 65 69 45 65 69 45 65 69 45 65 69 45
65 69 45 65 69 45 65 69 45 65 69 45 65 69 45 65 69 45 65 69 45
65 69 45 65 69 45 65 69 45 65 69 45 65 69 45 65 69 45 65 69 45
65 69 45 65 69 45 65 69 45 65 69 45 65 69 45 65 69 45 65 69 45
65 69 45 65 69 45 65 69 45 134 122 93 65 69 45 65 69 45 65 69 45
65 69 45 65 69 45 65 69 45 65 69 45 65 69 45 65 69 45 65 69 45
134 122 93 65 69 45 65 69 45 134 122 93 134 122 93 134 122 93
134 122 93 134 122 93 134 122 93 134 122 93 134 122 93 134 122 93
134 122 93 65 69 45 134 122 93 134 122 93 134 122 93 134 122 93
134 122 93 134 122 93 134 122 93 134 122 93 134 122 93 134 122 93
134 122 93 134 122 93 134 122 93 134 122 93 134 122 93 134 122 93
134 122 93 65 69 45 65 69 45 65 69 45 65 69 45 134 122 93 134 122 93
65 69 45 65 69 45 134 122 93 65 69 45 65 69 45 65 69 45 65 69 45
65 69 45 65 69 45 65 69 45 65 69 45 65 69 45 65 69 45 65 69 45
65 69 45 65 69 45 65 69 45 65 69 45 65 69 45 65 69 45 65 69 45
65 69 45 65 69 45 65 69 45 65 69 45 65 69 45 65 69 45 65 69 45
134 122 93 65 69 45 65 69 45 65 69 45 65 69 45 65 69 45 65 69 45
134 122 93 134 122 93 134 122 93 134 122 93 134 122 93 134 122 93
65 69 45 134 122 93 65 69 45 65 69 45 134 122 93 134 122 93 65 69 45
65 69 45 65 69 45 134 122 93 65 69 45 134 122 93 134 122 93
134 122 93 134 122 93 134 122 93 134 122 93 134 122 93 134 122 93
134 122 93 134 122 93 134 122 93 134 122 93 134 122 93 134 122 93
65 69 45 65 69 45 134 122 93 65 69 45 65 69 45 65 69 45 65 69 45
65 69 45 65 69 45 65 69 45 65 69 45 65 69 45 134 122 93 65 69 45
65 69 45 65 69 45 65 69 45
