P3
73 43
255
86 91 69 83 84 70 83 84 70 78 82 69 92 92 76 85 86 74 85 86 74
85 86 74 102 95 72 85 86 74 85 86 74 105 106 87 85 86 74 92 92 76
92 92 76 85 86 74 101 99 83 102 95 72 78 82 69 125 119 98 101 99 83
85 86 74 119 114 93 100 98 77 101 99 83 123 116 94 101 99 83
109 108 90 125 119 98 101 99 83 105 106 87 105 106 87 133 123 100
133 123 100 125 119 98 115 110 91 125 119 98 125 119 98 125 119 98
126 122 100 133 123 100 132 124 100 141 131 105 132 124 100
132 124 100 126 122 100 133 123 100 133 123 100 138 126 102
138 126 102 133 123 100 133 123 100 133 123 100 147 134 107
138 126 102 133 123 100 138 126 102 133 123 100 138 126 102
133 123 100 138 126 102 138 126 102 138 126 102 116 121 105
133 123 100 138 126 102 138 126 102 133 123 100 138 126 102
138 126 102 115 110 91 125 119 98 133 123 100 78 82 69 78 82 69
85 86 74 85 86 74 78 82 69 83 84 70 102 95 72 73 75 67 92 92 76
101 99 83 73 75 67 101 99 83 92 92 76 83 84 70 109 108 90 92 92 76
92 92 76 114 108 84 95 95 82 95 95 82 101 99 83 101 99 83 101 99 83
115 110 91 105 106 87 115 110 91 115 110 91 106 103 84 115 110 91
125 119 98 132 124 100 133 123 100 119 114 93 115 110 91 141 131 105
138 126 102 126 122 100 141 131 105 137 134 105 138 126 102
140 130 102 141 131 105 138 126 102 132 124 100 147 134 107
155 140 110 138 126 102 147 134 107 147 134 107 150 141 116
147 134 107 138 126 102 133 123 100 133 123 100 147 134 107
147 134 107 138 126 102 138 126 102 138 126 102 133 123 100
138 126 102 158 147 114 138 126 102 147 134 107 162 141 113
138 126 102 133 123 100 133 123 100 133 123 100 133 123 100
133 123 100 133 123 100 133 123 100 73 75 67 83 84 70 73 75 67
83 84 70 92 92 76 73 75 67 78 82 69 101 99 83 73 75 67 104 89 82
85 86 74 78 82 69 101 99 83 86 91 69 92 92 76 104 89 82 102 95 72
93 101 92 95 95 82 105 106 87 125 119 98 101 99 83 125 119 98
137 134 105 109 108 90 138 126 102 175 180 151 138 126 102
132 124 100 125 119 98 137 134 105 140 130 102 157 142 113
166 159 134 147 134 107 138 126 102 133 123 100 157 142 113
150 141 116 138 126 102 162 141 113 140 130 102 137 134 105
155 140 110 138 126 102 147 134 107 141 131 105 150 141 116
147 134 107 147 134 107 133 123 100 125 119 98 164 149 115
164 149 115 133 123 100 138 126 102 138 126 102 138 126 102
157 142 113 138 126 102 133 123 100 138 126 102 133 123 100
133 123 100 133 123 100 133 123 100 133 123 100 138 126 102
133 123 100 123 116 94 115 110 91 115 110 91 133 123 100 73 75 67
70 74 60 92 92 76 67 69 59 78 82 69 92 92 76 67 69 59 93 101 92
85 86 74 78 82 69 91 101 69 92 92 76 95 95 82 95 95 82 101 99 83
101 99 83 115 110 91 133 123 100 107 116 89 125 119 98 149 138 108
140 130 102 125 119 98 157 142 113 141 131 105 200 200 170
255 255 245 200 191 164 137 134 105 157 142 113 164 149 115
207 212 182 236 238 210 255 255 245 216 216 184 155 140 110
125 119 98 147 134 107 147 134 107 147 134 107 155 140 110
138 126 102 132 124 100 147 134 107 132 124 100 138 126 102
147 134 107 141 131 105 147 134 107 155 140 110 147 134 107
115 110 91 138 126 102 162 141 113 138 126 102 133 123 100 123 116 94
115 110 91 147 134 107 138 126 102 138 126 102 133 123 100 123 116 94
123 116 94 123 116 94 119 114 93 133 123 100 138 126 102 138 126 102
138 126 102 133 123 100 123 116 94 133 123 100 73 75 67 75 76 60
83 84 70 73 75 67 73 75 67 85 86 74 78 82 69 85 86 74 85 86 74
101 99 83 101 99 83 105 106 87 105 106 87 132 124 100 150 141 116
125 119 98 137 134 105 150 141 116 149 138 108 137 134 105
150 141 116 172 156 116 150 141 116 140 130 102 147 134 107
221 225 199 252 253 231 255 255 245 184 186 153 141 131 105
216 216 184 252 253 231 248 249 218 248 249 218 252 253 231
200 191 164 132 124 92 133 123 100 133 123 100 155 140 110
147 134 107 133 123 100 147 134 107 155 140 110 133 123 100
132 124 92 138 126 102 133 123 100 138 126 102 138 126 102 125 119 98
123 116 94 133 123 100 114 108 84 115 110 91 138 126 102 150 141 116
133 123 100 133 123 100 141 131 105 138 126 102 138 126 102
125 119 98 104 110 104 138 126 102 147 134 107 150 141 116
133 123 100 133 123 100 133 123 100 119 114 93 125 119 98 138 126 102
67 69 59 73 75 67 55 73 65 73 75 67 85 86 74 73 75 67 101 99 83
105 106 87 105 106 87 116 121 105 147 134 107 150 141 116 137 134 105
157 142 113 147 134 107 137 134 105 149 138 108 149 138 108
164 148 110 155 140 110 140 130 102 126 122 100 157 146 110
158 147 114 186 188 165 191 196 177 207 212 182 252 253 231
252 253 231 175 180 151 221 225 199 248 249 218 248 249 218
248 249 218 232 232 199 252 253 231 166 159 134 133 123 100
155 140 110 138 126 102 140 130 102 141 131 105 141 131 105
147 134 107 133 123 100 133 123 100 138 126 102 133 123 100
138 126 102 133 123 100 125 119 98 125 119 98 125 119 98 150 141 116
164 149 115 138 126 102 133 123 100 132 124 100 119 114 93 125 119 98
138 126 102 138 126 102 162 141 113 138 126 102 133 123 100
114 108 84 123 116 94 133 123 100 133 123 100 155 140 110 138 126 102
133 123 100 138 126 102 73 75 67 85 86 74 104 89 82 105 106 87
133 123 100 138 126 102 132 124 100 169 153 121 172 156 116
149 138 108 164 149 115 149 138 108 158 147 114 169 153 121
166 153 115 158 147 114 147 134 107 126 122 100 126 122 100
158 147 114 166 153 115 137 134 105 157 142 113 169 153 121
166 176 165 173 181 167 190 194 169 206 201 174 252 253 231
218 221 199 200 200 170 232 232 199 252 253 231 238 233 187
207 212 182 252 253 231 200 200 170 138 126 102 132 124 100
106 103 84 138 126 102 169 153 121 169 151 107 149 138 108 125 119 98
109 108 90 141 131 105 169 153 121 157 142 113 151 136 102
133 123 100 132 124 100 123 116 94 119 114 93 138 126 102 155 140 110
155 140 110 138 126 102 155 140 110 147 134 107 123 116 94 123 116 94
133 123 100 162 141 113 162 141 113 150 141 116 149 138 108
149 138 108 138 126 102 138 126 102 138 126 102 138 126 102
138 126 102 150 141 116 162 141 113 158 147 114 166 153 115
150 141 116 150 141 116 132 124 100 141 131 105 157 142 113
158 147 114 158 147 114 158 147 114 147 134 107 140 130 102
137 134 105 137 134 105 164 149 115 166 153 115 137 134 105
125 119 98 126 122 100 166 153 115 152 154 101 151 152 121
147 157 146 173 181 167 207 212 182 207 212 182 200 200 170
207 212 182 200 200 170 214 215 170 207 207 150 184 186 153
165 170 138 214 215 170 214 215 170 169 151 107 122 119 87 76 85 56
126 122 100 178 158 119 178 158 119 162 141 113 147 134 107
141 131 105 138 126 102 140 130 102 147 134 107 133 123 100
119 114 93 140 130 102 169 153 121 178 158 119 164 148 110
147 134 107 133 123 100 132 124 100 155 140 110 162 141 113
164 149 115 164 149 115 138 126 102 133 123 100 109 108 90 123 116 94
147 134 107 157 142 113 162 141 113 162 141 113 169 153 121
169 153 121 162 141 113 155 140 110 132 124 92 137 134 105
164 149 115 166 153 115 157 146 110 157 146 110 137 134 105
132 124 100 125 119 98 162 141 113 174 164 121 174 164 121
151 136 102 125 119 98 132 124 100 137 134 105 166 153 115
164 148 110 137 134 105 126 122 100 132 124 100 135 138 117
147 157 146 140 150 136 148 155 133 186 188 165 216 216 184
207 212 182 156 164 117 188 195 152 180 179 140 174 164 121
151 152 121 143 150 111 61 82 37 119 119 73 176 172 116 132 132 71
73 86 40 135 138 117 126 122 100 164 149 115 172 156 116 162 141 113
137 134 105 140 130 102 157 142 113 172 156 116 162 141 113
138 126 102 138 126 102 132 124 100 141 131 105 157 146 110
164 149 115 164 149 115 162 141 113 138 126 102 138 126 102
147 134 107 149 138 108 162 141 113 184 186 153 206 201 174
174 164 121 155 140 110 138 126 102 135 120 86 104 89 82 138 126 102
162 141 113 164 149 115 147 134 107 169 151 107 166 153 115
140 130 102 107 116 89 157 146 110 180 164 119 166 153 115
124 133 120 126 122 100 164 149 115 207 207 150 248 249 218
207 212 182 123 116 94 125 119 98 126 122 100 157 146 110 149 138 108
149 138 108 137 134 105 140 130 102 144 148 125 157 164 148
140 150 136 124 133 120 124 133 120 190 194 169 214 215 170
118 132 44 118 132 44 152 154 101 156 164 117 143 150 111 188 195 152
86 107 42 9 24 7 137 134 90 86 107 42 61 82 37 166 153 115
140 130 102 140 130 102 155 140 110 147 134 107 158 147 114
169 153 121 172 156 116 162 141 113 155 140 110 162 141 113
151 136 102 133 123 100 138 126 102 155 140 110 155 140 110
164 149 115 172 156 116 162 141 113 150 141 116 155 140 110
155 140 110 155 140 110 163 170 148 232 232 199 252 253 231
200 200 170 216 216 184 216 216 184 206 201 174 169 153 121
166 159 134 155 140 110 140 130 102 137 134 105 158 147 114
174 164 121 164 148 110 164 148 110 166 153 115 149 138 108
122 119 87 147 134 107 184 186 153 236 238 210 248 249 218
255 255 245 218 221 199 166 153 115 166 153 115 164 148 110
137 134 105 151 136 102 140 130 102 119 114 93 124 133 120
123 134 135 124 133 120 124 133 120 124 133 120 188 195 152
156 164 117 89 103 29 112 128 26 175 178 77 150 165 77 148 147 77
137 134 90 44 70 23 13 39 6 24 42 9 44 70 23 38 67 8 137 134 90
157 146 110 164 148 110 137 134 105 138 126 102 123 116 94 123 111 83
123 116 94 162 141 113 178 158 119 180 164 119 151 136 102
133 123 100 155 140 110 164 148 110 155 140 110 155 140 110
164 149 115 155 140 110 147 134 107 155 140 110 169 153 121
150 141 116 140 150 136 190 194 169 248 249 218 248 249 218
252 253 231 255 255 245 255 255 245 236 238 210 206 201 174
132 124 92 149 138 108 109 108 90 140 130 102 126 122 100 147 134 107
172 156 116 166 153 115 157 146 110 155 140 110 158 147 114
190 194 169 207 212 182 236 238 210 252 253 231 255 255 245
166 159 134 140 130 102 166 153 115 180 164 119 180 164 119
180 164 119 149 138 108 135 138 117 124 133 120 124 133 120
106 118 104 143 150 111 155 140 110 141 131 105 124 132 85 86 107 42
175 178 77 176 172 116 166 153 115 137 134 90 25 52 5 25 52 5
29 43 20 60 84 23 60 84 23 108 117 73 87 88 55 108 117 73 91 99 61
37 54 12 86 88 43 122 119 87 123 116 94 133 123 100 158 147 114
148 155 133 165 170 138 151 152 121 144 148 125 152 154 101
176 172 116 151 136 102 135 120 86 157 142 113 147 134 107
138 126 102 135 138 117 147 157 146 134 141 132 158 165 137
221 225 199 238 233 187 241 236 195 252 253 231 232 232 199
252 253 231 232 232 199 169 153 121 149 138 108 169 153 121
172 156 116 157 146 110 149 138 108 138 126 102 115 110 91
137 134 105 169 151 107 158 165 137 191 196 177 214 215 170
180 179 140 175 180 151 236 238 210 191 196 177 114 108 84
137 134 105 172 156 116 176 172 116 174 164 121 135 138 117
110 121 114 106 118 104 91 101 69 140 130 102 172 156 116 178 158 119
169 151 107 149 138 108 119 119 73 118 132 44 176 172 116 172 156 116
174 164 121 60 84 23 13 39 6 25 52 5 60 84 23 37 54 12 29 43 20
36 45 14 56 71 26 59 71 37 90 102 42 149 138 108 169 153 121
174 164 121 180 164 119 135 138 117 106 118 104 106 118 104
107 116 89 91 101 69 73 86 40 89 103 29 137 134 90 71 85 29 60 84 23
137 134 90 162 141 113 141 131 105 140 150 136 163 170 148
148 155 133 188 195 152 227 222 178 238 233 187 227 222 178
241 236 195 252 253 231 216 216 184 133 123 100 137 134 105
149 138 108 157 146 110 157 146 110 174 164 121 166 153 115
147 134 107 140 130 102 137 134 105 158 165 137 188 195 152
156 164 117 188 195 152 188 195 152 188 195 152 180 179 140
132 124 100 122 119 87 123 116 94 151 136 102 178 158 119 86 107 42
76 85 56 155 140 110 126 122 100 106 118 104 157 146 110 172 156 116
132 124 92 76 85 56 59 71 37 61 82 37 116 120 57 119 119 73
105 106 87 106 104 72 60 84 23 53 52 12 52 58 24 13 39 6 13 39 6
73 86 40 137 134 90 125 132 72 108 117 73 124 132 85 115 110 91
115 110 91 141 131 105 162 141 113 151 136 102 116 120 57 107 119 53
104 103 57 108 117 73 122 119 87 140 130 102 91 99 61 25 52 5 38 67 8
132 124 92 150 141 116 135 138 117 134 141 132 148 155 133
156 164 117 175 178 77 214 207 93 226 221 138 238 233 187 241 236 195
241 236 195 166 159 134 155 140 110 169 151 107 147 134 107
125 119 98 119 114 93 164 148 110 180 164 119 166 153 115 144 148 125
158 165 137 158 165 137 148 155 133 158 165 137 184 186 153
206 203 112 150 165 77 108 117 73 86 107 42 91 101 69 108 117 73
108 117 73 25 52 5 137 134 90 174 164 121 140 130 102 122 119 87
106 104 72 68 75 52 35 44 20 9 24 7 9 24 7 0 15 6 37 54 12 90 102 42
59 60 45 24 42 9 71 85 29 60 84 23 52 58 24 25 52 5 71 85 29
152 154 101 151 136 102 167 148 90 116 108 77 60 84 23 152 154 101
138 126 102 132 124 100 119 114 93 122 119 87 114 108 84 140 130 102
164 149 115 169 153 121 169 151 107 166 153 115 119 119 73 38 67 8
38 67 8 44 70 23 114 108 84 107 116 89 106 118 104 61 66 44 90 102 42
128 127 15 166 162 18 214 207 93 227 222 178 227 222 178 238 233 187
178 158 119 140 130 102 157 146 110 151 136 102 140 150 136
134 141 132 116 121 105 122 119 87 149 138 108 157 146 110
156 164 117 158 165 137 175 180 151 165 170 138 86 107 42 111 129 78
86 107 42 105 126 43 79 97 27 105 126 43 91 99 61 44 64 32 61 82 37
166 153 115 135 120 86 152 154 101 140 130 102 123 111 83 119 114 93
108 102 75 75 76 60 40 55 24 20 36 12 9 24 7 20 36 12 84 83 60
87 88 55 56 71 26 84 87 28 83 75 26 71 85 29 119 119 73 119 114 93
105 104 45 91 99 61 52 58 24 37 54 12 105 126 43 56 71 26 106 104 72
169 153 121 137 134 90 122 119 87 99 93 68 61 82 37 93 90 67
138 126 102 155 140 110 147 134 107 71 85 29 38 67 8 60 84 23 25 52 5
108 117 73 124 133 120 122 119 87 135 120 86 152 151 46 152 151 46
206 203 112 231 228 174 232 232 199 241 236 195 166 159 134
174 164 121 164 148 110 151 152 121 147 157 146 166 176 165
218 221 199 186 188 165 169 153 121 164 148 110 169 153 121
151 152 121 122 119 87 86 91 69 9 24 7 30 50 21 118 132 44 59 71 37
71 85 29 73 86 40 108 117 73 38 67 8 86 91 69 122 119 87 67 76 45
61 82 37 20 36 20 13 39 6 91 101 69 172 156 116 155 140 110
132 124 100 114 108 84 40 55 24 9 24 7 24 42 9 106 104 72 106 104 72
83 75 26 130 106 49 105 104 45 86 88 43 37 54 12 106 104 72
135 138 117 132 124 92 108 102 75 56 71 26 90 102 42 24 42 9 40 55 24
76 85 56 76 85 56 108 117 73 105 106 87 76 75 52 52 45 28 93 90 67
169 153 121 106 104 72 106 104 72 71 85 29 57 69 11 110 121 114
124 133 120 107 116 89 144 148 125 176 172 116 176 172 116
188 195 152 216 216 184 244 242 202 232 232 199 162 141 113
164 148 110 151 136 102 134 141 132 147 157 146 200 200 170
218 221 199 252 253 231 207 212 182 123 116 94 125 119 98 132 124 92
40 55 24 13 39 6 9 24 7 9 24 7 56 71 26 44 64 32 79 97 27 60 84 23
108 117 73 73 86 40 158 147 114 59 71 37 21 42 25 28 50 24 13 39 6
28 50 24 158 147 114 180 164 119 174 164 121 180 164 119 122 119 87
37 54 12 116 108 77 105 104 45 105 104 45 68 67 45 52 58 24 84 87 28
86 88 43 104 103 57 86 88 43 59 71 37 85 86 74 105 106 87 125 119 98
86 88 43 119 119 73 116 108 77 59 71 37 86 107 42 125 132 72
103 87 45 83 77 52 162 141 113 151 136 102 87 88 55 106 104 72
104 103 57 116 108 77 100 98 77 56 71 26 108 117 73 116 121 105
124 133 120 165 170 138 140 150 136 165 170 138 158 165 137
165 170 138 206 201 174 155 140 110 135 120 86 140 130 102 123 116 94
144 148 125 157 164 148 191 196 177 216 216 184 216 216 184
244 242 202 167 148 90 150 165 77 108 117 73 44 70 23 25 52 5 13 39 6
0 15 6 71 85 29 86 107 42 25 52 5 73 86 40 44 64 32 61 82 37
100 98 77 14 33 26 14 33 26 21 42 25 30 48 40 122 119 87 149 138 108
151 136 102 151 136 102 164 149 115 87 88 55 73 86 40 174 164 121
162 141 113 107 119 53 132 132 71 103 91 55 24 42 9 116 120 57
180 179 140 119 119 73 59 71 37 30 48 40 58 73 56 87 88 55 87 88 55
56 71 26 73 86 40 114 108 84 119 119 73 116 120 57 75 61 21 106 80 42
104 89 82 104 89 82 125 119 98 132 132 71 119 105 72 119 119 73
87 88 55 52 58 24 105 104 45 107 119 53 108 117 73 148 155 133
143 150 111 137 134 105 157 146 110 169 153 121 157 142 113
132 124 92 138 126 102 164 148 110 157 146 110 175 180 151
163 170 148 157 164 148 186 188 165 200 200 170 175 180 151 89 103 29
131 144 57 131 144 57 37 54 12 9 24 7 73 86 40 24 42 9 73 86 40
86 107 42 28 50 24 73 86 40 86 107 42 25 52 5 28 44 29 28 44 29
21 42 25 12 25 20 68 75 52 155 140 110 164 149 115 178 158 119
172 156 116 180 164 119 87 88 55 119 119 73 83 77 52 87 88 55
148 125 75 148 147 77 105 104 45 40 55 24 68 75 52 87 88 55 57 52 33
59 71 37 91 99 61 84 83 60 108 117 73 140 130 102 106 104 72 58 73 56
35 44 20 56 71 26 86 88 43 38 30 12 52 45 28 52 45 28 53 59 44
42 44 28 99 93 68 83 77 52 40 55 24 36 45 14 84 87 28 104 103 57
105 104 45 104 103 57 149 138 108 147 134 107 73 86 40 125 132 72
151 136 102 133 123 100 138 126 102 133 123 100 178 158 119
180 164 119 166 159 134 134 141 132 134 141 132 123 134 135
153 159 164 153 159 164 44 70 23 61 82 37 118 132 44 108 117 73
40 55 24 73 86 40 56 71 26 52 58 24 71 85 29 60 84 23 107 119 53
87 88 55 82 79 58 86 91 69 21 42 25 13 39 6 13 39 6 86 91 69
107 116 89 86 91 69 75 76 60 62 66 52 52 59 37 73 71 52 73 86 40
83 77 52 86 88 43 83 75 26 71 72 24 44 53 21 40 55 24 20 36 12
59 71 37 73 86 40 44 53 21 87 88 55 84 83 60 93 90 67 107 116 89
132 124 92 138 126 102 119 105 72 76 85 56 40 55 24 29 43 20 30 50 21
52 59 37 40 55 24 21 42 25 12 25 20 12 25 20 26 41 34 26 41 34
36 51 36 44 64 32 91 99 61 76 85 56 106 104 72 105 106 87 52 59 37
71 85 29 143 150 111 115 110 91 133 123 100 133 123 100 151 136 102
166 153 115 155 140 110 123 134 135 123 134 135 123 134 135
123 134 135 118 124 117 30 50 21 20 36 20 86 91 69 111 129 78
56 71 26 36 45 14 44 53 21 36 45 14 52 58 24 60 84 23 73 86 40
150 165 77 76 85 56 21 42 25 25 52 5 13 39 6 13 39 6 137 134 90
106 104 72 9 24 7 0 15 6 9 24 7 84 83 60 91 101 69 51 54 43 43 52 28
61 66 44 42 44 28 44 53 21 44 53 21 57 69 11 90 102 42 137 134 90
151 136 102 91 101 69 137 134 90 166 153 115 164 148 110 138 126 102
132 124 92 114 108 84 86 91 69 58 73 56 108 117 73 76 75 52 29 43 20
28 50 24 28 50 24 37 42 28 19 27 23 14 33 26 20 36 28 20 36 28
30 48 40 52 59 37 122 119 87 168 147 104 138 126 102 151 136 102
106 104 72 44 70 23 107 116 89 114 108 84 133 123 100 162 141 113
125 119 98 149 138 108 135 138 117 118 124 117 110 121 114
106 118 104 110 121 114 106 118 104 40 55 24 14 33 26 44 70 23
25 52 5 21 29 12 40 55 24 61 66 44 61 62 35 40 55 24 89 103 29
71 85 29 105 126 43 105 126 43 67 69 59 25 52 5 13 39 6 21 42 25
21 29 12 9 24 7 9 24 7 20 36 12 34 37 21 87 88 55 53 59 44 26 29 14
27 30 19 26 29 14 43 52 28 56 71 26 44 53 21 44 53 21 132 132 71
114 108 84 101 99 83 67 69 59 61 82 37 91 99 61 151 136 102
178 158 119 172 156 116 166 153 115 151 136 102 86 88 43 111 129 78
108 117 73 28 50 24 30 50 21 28 50 24 40 55 39 14 33 26 14 33 26
14 33 26 28 50 24 84 83 60 87 88 55 108 117 73 172 156 116
169 153 121 164 149 115 162 141 113 91 85 61 135 120 86 138 126 102
135 120 86 123 116 94 147 134 107 164 148 110 118 124 117 110 121 114
118 124 117 107 116 89 76 85 56 76 85 56 59 71 37 20 36 12 21 42 25
9 24 7 20 36 12 59 71 37 55 73 65 44 64 32 82 79 58 84 87 28 71 85 29
59 71 37 118 132 44 13 39 6 25 52 5 21 42 25 24 42 9 43 52 28
116 108 77 151 136 102 151 136 102 166 153 115 135 120 86 21 29 12
26 29 14 34 37 21 27 30 19 38 30 12 151 136 102 74 72 41 53 52 12
125 132 72 87 88 55 59 71 37 44 64 32 91 101 69 105 106 87 35 44 20
74 72 41 135 138 117 140 130 102 106 104 72 68 67 45 56 71 26
91 99 61 30 50 21 38 67 8 44 70 23 43 52 28 9 24 7 28 44 29
108 102 75 122 119 87 106 104 72 93 90 67 67 68 52 53 59 44 62 66 52
68 75 52 114 108 84 123 111 83 114 108 84 114 108 84 116 108 77
108 102 75 132 124 92 132 124 92 106 118 104 104 110 104 104 110 104
93 101 92 70 74 60 44 70 23 44 70 23 24 42 9 20 36 12 9 24 7 44 53 21
119 119 73 70 74 60 21 42 25 61 66 44 73 86 40 37 54 12 37 54 12
86 107 42 44 70 23 14 33 26 14 33 26 21 42 25 72 81 67 91 101 69
114 108 84 106 104 72 99 93 68 61 66 44 9 24 7 28 44 29 40 55 24
44 64 32 46 51 45 106 103 84 76 85 56 40 55 24 52 58 24 44 53 21
67 76 45 36 43 35 70 74 60 91 101 69 58 73 56 40 55 39 72 81 67
58 73 56 21 42 25 20 36 28 44 70 23 60 84 23 38 67 8 38 67 8 73 86 40
87 88 55 59 71 37 44 70 23 59 71 37 52 59 37 28 50 24 116 108 77
122 119 87 83 77 52 106 104 72 86 91 69 91 101 69 137 134 105
151 136 102 155 140 110 151 136 102 155 140 110 164 148 110
149 138 108 138 126 102 133 123 100 101 99 83 85 86 74 58 73 56
40 55 39 21 29 12 20 36 12 29 43 20 29 43 20 36 45 14 67 76 45
76 85 56 40 55 24 30 48 40 57 69 11 105 104 45 44 53 21 59 71 37
59 71 37 21 42 25 26 41 34 26 41 34 30 48 40 58 73 56 91 101 69
100 98 77 108 102 75 108 102 75 61 66 44 44 64 32 85 86 74 72 81 67
58 73 56 61 66 44 40 55 24 37 54 12 40 55 24 29 43 20 52 59 37
29 43 20 20 36 12 28 36 11 29 43 20 26 41 34 14 33 26 20 36 28
53 59 44 74 72 41 84 87 28 38 67 8 25 52 5 38 67 8 61 82 37 30 50 21
25 52 5 13 39 6 9 24 7 9 24 7 25 52 5 76 75 52 82 79 58 91 85 61
86 91 69 91 85 61 91 101 69 124 132 85 108 102 75 114 108 84
132 124 92 135 120 86 169 151 107 151 136 102 138 126 102 135 120 86
93 101 92 93 101 92 40 55 24 43 52 28 28 36 29 13 39 6 28 36 11
37 39 11 36 45 14 59 71 37 83 77 52 44 64 32 56 71 26 40 55 24
45 51 36 28 35 20 24 42 9 36 45 14 59 71 37 37 42 28 43 52 28
29 43 20 40 55 24 36 51 36 59 60 45 73 71 52 86 91 69 99 93 68
86 91 69 83 77 52 39 43 37 39 43 37 36 45 14 28 36 11 28 36 11
24 42 9 28 36 11 36 45 14 52 45 28 37 42 28 26 41 34 26 41 34
21 42 25 36 51 36 58 73 56 67 76 45 108 94 28 105 104 45 60 84 23
25 52 5 30 50 21 37 54 12 57 69 11 25 52 5 13 39 6 13 39 6 40 55 24
103 91 55 82 79 58 51 54 43 45 51 36 51 54 43 51 54 43 53 59 44
105 106 87 108 117 73 56 58 52 76 75 52 99 93 68 169 151 107
168 147 104 155 140 110 137 134 90 122 119 87 58 73 56 20 36 12
40 55 39 28 44 29 21 29 12 28 36 11 44 53 21 35 44 20 37 54 12
57 69 11 53 52 12 24 42 9 50 52 30 68 63 42 40 55 24 26 29 14
30 50 21 71 85 29 44 53 21 74 72 41 76 75 52 35 44 20 28 35 20
35 44 20 51 54 43 51 53 37 45 51 36 35 38 27 27 30 19 28 35 20
34 37 21 43 45 20 35 44 20 28 36 11 28 36 11 29 43 20 67 68 52
52 59 37 40 55 39 36 51 36 46 64 50 58 73 56 58 73 56 58 73 56
52 59 37 53 52 12 44 53 21 53 52 12 9 24 7 20 36 12 21 29 12 25 52 5
13 39 6 13 39 6 28 50 24 68 63 42 99 93 68 120 101 59 91 85 61
68 67 45 65 63 49 65 63 49 59 61 51 61 66 44 108 117 73 70 74 60
59 61 51 83 84 70 151 136 102 151 136 102 169 151 107 123 111 83
62 66 52 61 66 44 9 24 7 21 29 12 21 29 12 52 59 37 45 51 36 20 36 12
29 43 20 28 36 11 24 42 9 37 54 12 56 71 26 43 45 20 50 52 30
52 58 24 59 71 37 27 30 19 0 15 6 53 52 12 67 76 45 76 85 56 52 59 37
53 59 44 52 59 37 42 44 28 42 44 28 28 35 20 18 22 12 37 39 11
26 29 14 26 29 14 35 44 20 37 39 11 29 43 20 84 87 28 52 58 24
28 35 20 12 25 20 21 27 20 26 41 34 71 72 24 56 71 26 20 36 28
20 36 28 21 42 25 74 72 41 71 72 24 52 58 24 21 29 12 28 36 11
37 54 12 24 42 9 56 71 26 108 117 73 43 52 28 26 29 14 43 52 28
74 72 41 83 77 52 73 71 52 68 63 42 68 67 45 59 60 45 51 53 37
73 71 52 82 79 58 82 79 58 83 77 52 168 147 104 151 136 102 73 75 67
0 15 6 12 25 20 20 36 12 9 24 7 12 25 20 36 51 36 51 54 43 26 41 34
36 51 36 40 55 24 12 25 20 20 36 12 57 69 11 84 87 28 71 72 24
20 36 20 36 45 14 43 52 28 29 43 20 34 37 21 44 53 21 56 71 26
52 58 24 68 63 42 61 66 44 52 59 37 51 53 37 35 44 20 37 42 28
37 42 28 40 55 39 35 44 20 35 44 20 44 53 21 43 45 20 37 54 12
74 72 41 21 42 25 14 33 26 12 25 20 20 36 20 42 44 28 71 72 24
36 45 14 9 24 7 9 24 7 12 25 20 37 42 28 43 52 28 44 53 21 28 36 11
86 76 44 103 87 45 84 87 28 25 52 5 124 132 85 136 117 74 74 72 41
37 39 11 28 35 20 42 44 28 42 44 28 35 38 27 42 44 28 34 37 21
28 36 29 35 38 27 65 63 49 82 79 58 73 71 52 135 120 86 37 42 28
0 15 6 9 24 7 12 25 20 9 24 7 14 33 26 20 36 28 20 36 28 19 27 23
26 41 34 53 59 44 43 52 28 21 29 12 27 30 19 74 72 41 74 72 41
52 58 24 116 120 57 74 72 41 61 62 35 50 52 30 36 45 14 52 58 24
28 35 20 44 53 21 52 59 37 46 51 45 45 51 36 36 51 36 30 48 40
30 48 40 28 44 29 21 42 25 35 44 20 28 35 20 43 52 28 26 29 14
26 29 14 28 35 20 43 45 20 106 80 42 43 45 20 21 29 12 52 45 28
57 69 11 52 58 24 21 42 25 14 33 26 28 44 29 40 55 24 21 29 12
28 36 11 71 72 24 68 67 45 103 91 55 103 87 45 37 39 11 40 55 24
137 134 90 148 125 75 124 108 68 87 88 55 74 72 41 87 88 55 73 71 52
73 71 52 59 61 51 42 44 28 45 51 36 82 79 58 82 79 58 82 79 58
62 66 52 37 42 28 26 41 34 28 36 29 28 50 24 36 51 36 36 43 35
30 48 40 20 36 28 12 25 20 26 41 34 40 55 24 37 42 28 28 35 20
28 35 20 36 51 36 40 55 39 71 72 24 73 86 40 83 75 26 61 62 35
57 52 33 20 36 20 20 36 20 26 29 14 9 24 7 28 35 20 26 41 34 26 41 34
30 48 40 30 48 40 26 41 34 20 36 28 12 25 20 28 36 11 26 29 14 9 24 7
18 22 12 34 37 21 44 53 21 37 39 11 106 80 42 136 117 74 74 72 41
53 52 12 71 72 24 56 71 26 26 41 34 21 42 25 28 44 29 37 42 28
27 30 19 26 29 14 53 52 12 84 87 28 50 52 30 26 29 14 27 30 19
28 35 20 130 106 49 120 101 59 74 72 41 76 75 52 86 76 44 99 93 68
116 108 77 136 117 74 131 111 69 135 120 86 116 108 77 108 102 75
119 105 72 102 95 72 83 84 70 85 86 74 102 95 72 108 102 75 99 93 68
82 79 58 65 63 49 56 58 52 51 54 43 45 51 36 40 55 39 43 52 28
68 63 42 51 53 37 19 27 23 21 42 25 43 52 28 61 62 35 36 45 14
26 29 14 44 53 21 18 22 12 9 24 7 27 30 19 35 38 27 19 27 23 20 36 28
26 41 34 26 41 34 26 41 34 26 41 34 26 41 34 20 36 28 30 48 40
44 53 21 84 87 28 52 58 24 34 37 21 42 44 28 43 45 20 26 29 14
18 22 12 86 76 44 103 87 45 71 72 24 103 91 55 76 75 52 28 44 29
21 42 25 43 52 28 34 37 21 34 37 21 35 38 27 34 37 21 86 88 43
103 87 45 50 52 30 18 22 12 34 37 21 103 87 45 103 91 55 103 91 55
43 52 28 27 30 19 50 52 30 73 71 52 76 75 52 83 77 52 91 85 61
102 95 72 116 108 77 119 105 72 108 102 75 70 74 60 67 69 59 59 61 51
59 60 45 56 58 52 56 58 52 56 58 52 65 63 49 51 54 43 73 71 52
103 91 55 83 77 52 61 62 35 39 43 37 14 33 26 20 36 20 28 44 29
28 35 20 20 36 20 26 29 14 26 29 14 35 44 20 9 24 7 28 36 11 27 30 19
28 36 29 14 33 26 14 33 26 20 36 20 21 27 20 26 41 34 26 41 34
45 51 36 51 53 37 42 44 28 68 63 42 68 63 42 42 44 28 34 37 21
42 44 28 86 76 44 52 45 28 38 30 12 18 22 12 43 45 20 103 91 55
103 91 55 26 41 34 53 59 44 61 66 44 50 52 30 36 43 35 37 42 28
42 44 28 36 45 14 119 119 73 74 72 41 52 45 28 53 59 44 103 91 55
136 117 74 165 140 87 152 133 87 102 95 72 59 60 45 59 60 45 62 66 52
67 68 52 62 66 52 65 63 49 91 85 61 123 111 83 131 111 69 56 58 52
51 54 43 51 53 37 51 54 43 51 54 43 45 51 36 57 52 33 65 63 49
45 51 36 35 38 27 42 44 28 34 37 21 28 36 29 19 27 23 19 27 23
21 42 25 21 42 25 37 42 28 35 38 27 34 37 21 37 39 11 21 29 12
28 36 11 26 29 14 18 22 12 18 22 12 18 22 12 18 22 12 18 22 12
21 27 20 35 38 27 34 37 21 42 44 28 35 38 27 34 37 21 28 35 20
26 29 14 27 30 19 34 37 21 34 37 21 42 44 28 42 44 28 34 37 21
27 30 19 34 37 21 50 52 30 86 76 44 75 61 21 103 91 55 148 125 75
120 101 59 87 88 55 87 88 55 103 91 55 43 45 20 104 103 57 102 95 72
68 67 45 59 60 45 76 75 52 119 105 72 148 126 83 167 148 90
168 147 104 168 147 104 152 133 87 152 133 87 148 126 83 135 120 86
114 108 84 106 104 72 135 120 86 125 119 98 67 68 52 82 79 58
91 85 61 82 79 58 73 71 52 59 60 45 39 43 37 39 43 37 21 27 20
21 27 20 36 43 35 37 42 28 36 43 35 14 33 26 21 42 25 20 36 20
24 42 9 35 44 20 27 30 19 28 35 20 27 30 19 26 29 14 18 22 12
21 29 12 21 27 20 18 22 12 18 22 12 18 22 12 21 27 20 18 22 12
21 27 20 26 29 14 28 35 20 28 35 20 27 30 19 27 30 19 27 30 19
35 38 27 27 30 19 35 38 27 35 38 27 43 45 20 35 38 27 34 37 21
28 36 11 27 30 19 74 72 41 120 101 59 130 106 49 130 106 49
148 125 75 165 140 87 167 148 90 164 131 73 83 77 52 87 88 55
131 111 69 68 63 42 51 54 43 57 52 33 39 43 37 51 54 43 68 63 42
83 77 52 99 93 68 119 105 72 123 111 83 135 120 86 148 126 83
135 120 86 123 111 83 102 95 72 99 93 68 73 71 52 82 79 58 73 71 52
65 63 49 65 63 49 46 51 45 39 43 37 39 43 37 36 43 35 36 43 35
27 30 19 19 27 23 12 25 20 19 27 23 19 27 23 20 36 20 13 39 6
29 43 20 28 35 20 20 36 20 27 30 19 27 30 19 21 27 20 27 30 19
27 30 19 27 30 19 21 27 20 27 30 19 21 27 20 21 27 20 21 27 20
27 30 19 27 30 19 27 30 19 35 38 27 57 52 33 68 63 42 68 63 42
68 63 42 86 76 44 103 87 45 103 91 55 86 76 44 50 52 30 52 45 28
42 44 28 57 52 33 83 77 52 86 76 44 120 101 59 130 106 49 130 106 49
148 125 75 165 140 87 167 148 90 130 106 49 148 125 75 102 95 72
68 67 45 59 60 45 59 60 45 59 60 45 59 60 45 51 53 37 51 53 37
46 51 45 45 51 36 51 54 43 53 59 44 56 58 52 51 54 43 51 54 43
56 58 52 56 58 52 56 58 52 46 51 45 46 51 45 39 43 37 39 43 37
28 36 29 21 27 20 19 27 23 12 25 20 18 22 12 19 27 23 18 22 12
12 25 20 19 27 23 21 27 20 12 25 20 20 36 12 27 30 19 27 30 19
21 27 20 21 27 20 21 27 20 21 27 20 18 22 12 21 27 20 27 30 19
28 36 29 52 45 28 45 51 36 50 52 30 42 44 28 52 45 28 68 63 42
103 91 55 124 108 68 131 111 69 130 106 49 120 101 59 120 101 59
131 111 69 131 111 69 131 111 69 120 101 59 120 101 59 103 91 55
103 91 55 106 80 42 75 61 21 52 45 28 38 30 12 38 30 12 106 80 42
148 125 75 148 125 75 165 140 87 148 126 83 148 125 75 108 102 75
73 71 52 67 68 52 67 68 52 59 61 51 59 60 45 56 58 52 59 60 45
56 58 52 59 60 45 59 60 45 59 61 51 59 61 51 70 74 60 59 60 45
56 58 52 46 51 45 46 51 45 39 43 37 39 43 37 39 43 37 19 27 23
19 27 23 19 27 23 12 25 20 19 27 23 19 27 23 35 38 27 35 38 27
37 42 28 51 54 43 51 54 43 52 45 28 43 52 28 42 44 28 34 37 21
42 44 28 36 43 35 52 45 28 57 52 33 57 52 33 51 53 37 51 53 37
68 63 42 103 91 55 103 91 55 68 63 42 103 91 55 131 111 69 130 106 49
131 111 69 131 111 69 131 111 69 131 111 69 124 108 68 120 101 59
120 101 59 124 108 68 136 117 74 120 101 59 106 80 42 68 63 42
42 44 28 35 38 27 18 22 12 18 22 12 21 27 20 38 30 12 106 80 42
106 80 42 131 111 69 148 125 75 131 111 69 73 71 52 51 53 37 68 67 45
99 93 68 75 76 60 73 71 52 68 67 45 62 66 52 59 61 51 65 63 49
65 63 49 56 58 52 62 66 52 59 61 51 59 60 45 56 58 52 56 58 52
56 58 52 46 51 45 46 51 45 39 43 37 39 43 37 28 36 29 28 36 29
39 43 37 39 43 37 39 43 37 39 43 37 28 36 29 36 43 35 37 42 28
39 43 37 51 53 37 59 60 45 53 59 44 59 60 45 73 71 52 83 77 52
87 88 55 84 83 60 91 85 61 83 77 52 83 77 52 103 91 55 86 76 44
51 53 37 68 63 42 83 77 52 74 72 41 83 77 52 68 67 45 68 67 45
68 63 42 76 75 52 83 77 52 104 103 57 120 101 59 136 117 74
120 101 59 59 60 45 51 54 43 42 44 28 39 43 37 35 38 27 42 44 28
52 45 28 86 76 44 86 76 44 106 80 42 120 101 59 119 105 72 131 111 69
119 105 72 83 77 52 73 71 52 73 71 52 76 75 52 84 83 60 75 76 60
67 69 59 59 61 51 67 69 59 59 61 51 67 69 59 67 69 59 67 69 59
56 58 52 56 58 52 65 63 49 56 58 52 56 58 52 46 51 45 39 43 37
39 43 37 39 43 37 39 43 37 36 43 35 26 41 34 39 43 37 26 41 34
39 43 37 28 36 29 39 43 37 51 54 43 51 54 43 45 51 36 45 51 36
51 53 37 46 51 45 51 54 43 51 54 43 51 54 43 59 61 51 59 61 51
53 59 44 51 54 43 59 60 45 45 51 36 45 51 36 53 59 44 68 63 42
65 63 49 65 63 49 83 77 52 103 91 55 102 95 72 131 111 69 136 117 74
148 126 83 165 140 87 148 126 83 136 117 74 119 105 72 103 91 55
91 85 61 103 91 55 119 105 72 131 111 69 148 126 83 165 140 87
165 140 87 148 126 83 152 133 87 148 125 75 136 117 74 135 120 86
123 111 83 106 104 72 99 93 68 78 82 69 75 76 60 67 69 59 67 69 59
73 75 67 75 76 60 67 69 59 73 71 52 62 66 52 59 61 51 67 69 59
56 58 52 56 58 52 56 58 52 46 51 45 46 51 45 46 51 45 46 51 45
46 51 45 46 51 45 46 51 45 46 51 45 46 51 45 39 43 37 39 43 37
46 51 45 67 68 52 91 85 61 99 93 68 73 71 52 59 61 51 51 54 43
51 54 43 51 54 43 51 54 43 56 58 52 65 63 49 91 85 61 106 104 72
108 102 75 119 105 72 119 105 72 135 120 86 131 111 69 119 105 72
131 111 69 135 120 86 131 111 69 136 117 74 131 111 69 119 105 72
119 105 72 131 111 69 123 111 83 136 117 74 136 117 74 136 117 74
135 120 86 131 111 69 136 117 74 148 126 83 136 117 74 148 126 83
152 133 87 148 126 83 152 133 87 152 133 87 135 120 86 108 102 75
103 91 55 82 79 58 75 76 60 76 75 52 75 76 60 75 76 60 73 71 52
82 79 58 73 75 67 70 74 60 67 69 59 59 61 51 73 75 67 59 61 51
67 69 59 67 69 59 59 61 51 67 69 59 67 69 59 67 69 59 73 75 67
56 58 52 56 58 52 56 58 52 56 58 52 51 54 43 46 51 45 56 58 52
67 69 59 85 86 74 104 89 82 104 89 82 99 93 68 108 102 75 93 90 67
82 79 58 82 79 58 82 79 58 103 91 55 83 84 70 99 93 68 102 95 72
116 108 77 116 108 77 119 105 72 123 111 83 119 105 72 116 108 77
104 89 82 103 91 55 103 91 55 78 82 69 82 79 58 73 75 67 91 85 61
103 91 55 99 93 68 108 102 75 119 105 72 119 105 72 131 111 69
135 120 86 136 117 74 136 117 74 131 111 69 135 120 86 135 120 86
135 120 86 135 120 86 136 117 74 116 108 77 93 90 67 83 84 70
84 83 60 78 82 69 82 79 58 75 76 60 70 74 60 75 76 60 78 82 69
73 75 67 67 69 59 67 69 59 73 75 67 73 75 67 75 76 60 59 61 51
73 75 67 67 69 59
