P2
73 43
4294967295
1455125947 1375589374 1404930877 1321402947 1524274778 1412821174
1459391996 1369815845 1564683843 1488445240 1412113707 1770811148
1443292167 1513098928 1552768781 1444822174 1711332480 1579143583
1350558848 1932901045 1715352766 1427081615 1858531911 1680620332
1606998984 1939427609 1635644030 1751584871 1932865717 1721012628
1744769535 1797221151 1996096890 2015312031 1931511840 1913257482
1917437641 2006799133 1983773886 2031554071 2049770925 2123120524
2191882661 2060024649 2087045093 2043143111 2034370242 2098078990
2144692949 2180937982 2084202810 2058580147 2124342430 2205228913
2173758864 2132892193 2143055292 2017822661 2087215336 2082670883
2126360637 2126356797 2109153207 2042710977 2071737980 2141432995
2115749147 2054328946 2200470568 2107482397 1889755555 1978574318
2028038113 1330516174 1323902185 1400862719 1400537466 1316661114
1371305148 1582919385 1264667361 1515932507 1642576743 1206417768
1714369839 1470854571 1383247474 1787148805 1448344148 1476620675
1826080727 1501012983 1612210840 1661768204 1668390513 1709270625
1814792363 1777908984 1809151829 1854606347 1773946044 1873110821
1955650832 2065180184 2059747909 1898799661 1927844328 2204589671
2110662862 2116443046 2173461644 2175206567 2144428753 2175321256
2207343249 2172973188 2055953419 2266310421 2344329659 2208076700
2212681186 2271174495 2288322661 2198498314 2229875177 2124223645
1995336174 2210974920 2263584747 2120373474 2159201714 2162162655
2056222991 2183651111 2451248411 2145420128 2222966655 2346679519
2193062583 2097916171 2080579971 2086497757 2072681610 2065937059
2060357838 2055396354 1247898849 1373818850 1291869696 1352204185
1530713404 1241693442 1376475275 1654946596 1161436474 1609192554
1505218487 1328740147 1623450820 1453029915 1548734671 1553296789
1616496729 1635890689 1619797900 1764277032 1909266509 1684325092
1916657213 2213517807 1796496404 2151571774 2890841166 2224267667
2112690541 1972805270 2247140592 2178708956 2450302476 2637677367
2238261353 2171408237 2085130568 2443073950 2376284579 2161990365
2494340012 2134828094 2142881977 2357794185 2154748526 2254055770
2259129767 2383704852 2238701679 2314609910 2041917749 1994983401
2465849593 2495725761 2087553261 2139327107 2151591998 2124356255
2399573766 2140121615 2052950237 2195621342 2075407412 2094556504
2050810172 2136080210 2042338491 2091549610 2055015549 1942724811
1819078381 1843202397 2106020103 1214338529 1197634146 1490168402
1156132329 1351037447 1540266958 1100997152 1613769520 1429722808
1307343852 1523833556 1479438510 1573303750 1567345771 1662856221
1702451833 1843140444 2050018864 1795623047 1959033028 2369410618
2207100301 1991921850 2394971584 2231888391 3341075492 4290567612
3108570440 2209530290 2367962148 2473675377 3545025100 3959575297
4284263260 3622999282 2352281396 1943575128 2196012772 2292315553
2291888027 2299999511 2209494962 2113654779 2256973958 2067692094
2167137579 2261955026 2174794912 2279860451 2417088785 2232877846
1870194168 2183185952 2419904572 2181743114 2034981067 1932060584
1887900551 2231245054 2217918002 2143438274 2045020388 1936504172
1888702483 1924380723 1896624140 2092745148 2199878431 2141825065
2158452647 2053038558 1975121466 2045160038 1270732350 1183979154
1300255616 1289923682 1210251299 1428744489 1337871038 1369690275
1435834261 1631879364 1578479253 1749865164 1754149646 2116858028
2317102876 2005724684 2134062515 2409914788 2374763659 2171804787
2357401475 2584621838 2380548324 2187285087 2278858708 3768474013
4192109278 4269327224 3061439097 2223469703 3589344752 4187926942
4138921394 4180900659 4167763050 3203117803 2009249474 2084403005
2135211844 2373812349 2272714358 2061379166 2291670424 2379184079
2048424344 2072062977 2170515039 2051296964 2122796551 2143157949
2026111300 2010752985 1976697426 1807027637 1839106590 2196916210
2283902497 2131041413 2135957328 2253800278 2257446541 2042751553
1876195924 1839502884 2152210760 2324373131 2336501828 2177562058
2056296592 1974746164 1917947089 1977926628 2173269385 1176139802
1199421821 1148806137 1260074395 1330092615 1252228131 1676424428
1757946952 1796293137 1995359726 2315189502 2385426990 2165421841
2443849898 2231579907 2286888783 2293637046 2336875081 2490833271
2408097160 2214988038 2011200224 2480295894 2447401952 3110045023
3207923252 3492050980 4239659955 4129031707 2931980482 3682559359
4149396818 4058990830 4127421955 3872464592 4202780544 2707400543
2065469084 2332881420 2175412138 2141873834 2181506311 2236774482
2271171935 2085445069 2067993155 2102556498 2060795605 2113838462
2109175735 1953301613 1921254916 2018334541 2345267657 2437931343
2224823964 2066869553 2059429952 1871300361 1981405337 2145629027
2175110565 2328882127 2271702375 2012268656 1841636293 1931317917
2004537338 2155178613 2324981908 2188038250 2086976484 2222895998
1189386724 1438270010 1575110882 1728595720 2116094369 2214002422
2061846245 2531744999 2589593433 2289704570 2519947315 2316760598
2417515544 2603585839 2580355789 2485999149 2304821344 2026663244
2032032030 2481956591 2560862371 2253353807 2448794357 2642475904
2889289782 2987160844 3160379999 3393774920 4203388042 3686321336
3254232311 3809149450 4194048763 3863002432 3482471569 4254237842
3256635932 2188883831 2081981464 1727093105 2155120756 2660399762
2539787873 2339046762 2034889033 1798928569 2249655574 2594287265
2421870170 2253833302 2123244174 2115739803 2027978720 1925381699
2152509260 2328043459 2391102341 2241133972 2321957222 2225689513
1963530377 1908070330 2094231507 2418556456 2415129587 2338121308
2312967133 2262620636 2176823487 2210704068 2161550550 2098144015
2155671932 2387545422 2477573036 2509594005 2548842220 2433793040
2310045104 2060006473 2261801680 2421497173 2464973804 2486601526
2458199173 2308836254 2097530245 2216673055 2220983905 2529844426
2554418241 2179763436 1972104203 2067009972 2503292725 2407514239
2494055848 2582266090 2994969987 3523843593 3483479457 3291183659
3621113045 3394686038 3577151286 3418990537 3155016973 2781698253
3543226673 3499466901 2511628212 2030038911 1284876309 2019467614
2653598506 2704681014 2466950410 2233111578 2199423256 2128213721
2190240396 2281447676 2061676386 1916613309 2159779259 2557841525
2653514793 2526185106 2260965827 1992000571 2026374216 2343548847
2515321836 2515892981 2468439073 2211234508 2052472790 1810833519
1922296211 2266831645 2408266123 2417244436 2433152262 2590609001
2559705489 2404195149 2403142716 2050174003 2289301619 2511956409
2571555398 2473185129 2446377168 2133747886 2110720719 1958671166
2471989591 2702425363 2712853938 2345573326 1994811366 2114889102
2279191001 2556004697 2480143059 2185891914 2057787303 2040898725
2294273215 2561480877 2475283081 2423603573 3054849045 3678759493
3460197438 2667971589 3048164783 2995165318 2619957545 2516804099
2421596758 1244785458 1976555855 2969202682 2086740449 1381477335
2196036068 2053315555 2457633660 2655341381 2463526614 2221899887
2118465605 2400077838 2623344732 2430614240 2179674859 2126147642
2106749970 2187651428 2402527283 2580503503 2603101736 2399177728
2142560564 2142694582 2254653027 2339364719 2440862332 3004965915
3376034105 2715468250 2382147324 2161524950 1931226140 1749415366
2138250099 2512950984 2498892785 2261891537 2544480425 2510961834
2165795607 1830752415 2484132368 2749983465 2613255619 2116673321
2038521985 2582069479 3268934871 4093231353 3508614176 1997687954
1925043773 2026924112 2393662892 2327349688 2335119151 2265189636
2170607456 2420476229 2536195115 2446902488 2230089708 2278996950
3157312816 3571649762 1939163797 2173770641 2511784630 2591347572
2559320716 3171381511 1376035972 315177513 2129949172 1500143978
1120310470 2510949801 2190015624 2165889304 2379169999 2290097280
2390018164 2656164945 2553233967 2432613118 2366497805 2363960295
2237575774 1994428896 2188648564 2341967255 2370068292 2532408049
2640953193 2512253117 2336261184 2322473838 2388486749 2403157309
2781750990 3842368005 4177380861 3289867543 3547672180 3611622212
3298560155 2546879950 2616697847 2358586005 2182087696 2264360695
2543134101 2730629313 2506857323 2512916423 2558206587 2315925258
1924651319 2253840214 3016923858 3924319719 4116763232 4294967295
3691892493 2549478133 2671268920 2500494858 2307669644 2232386319
2115077137 1862575108 2228415442 2315580932 2122859400 2113608443
2241531035 3116027834 2687929142 1492335731 1882411827 2652307990
2468663332 2357632902 2303310153 872109691 451842350 631500964
1053543244 942411372 2254770789 2403013435 2537363773 2271145310
2125340462 2036883560 1877602025 1997621009 2438513496 2701484293
2674880111 2354335828 2175853232 2350498329 2504789579 2341471887
2333578775 2529680071 2359498147 2262521819 2377813690 2550297858
2400904730 2403972169 3233252535 4097972033 4114355259 4294967295
4294967295 4294967295 3941265130 3345980527 2080805510 2340939911
1773487157 2056581780 2056940954 2289503607 2627616158 2592689545
2502474280 2486375987 2450702866 3206655777 3559818798 4062953003
4098094915 4294967295 2645049256 2152888658 2520577340 2729215916
2808857451 2725941114 2402973754 2220777054 2214309371 2033617462
1928758134 2317317919 2429333964 2188239981 2012055405 1535361795
2884860147 2839639105 2501077779 2214034679 689946848 591409856
609527893 1036912846 1034618987 1796506772 1406691160 1856162338
1445014177 729052148 1341309810 1960166741 1924728505 2038746372
2528443828 2666969078 2663038906 2546509256 2443286689 2399093759
2713377978 2365384956 2000475708 2380524515 2265484808 2161729753
2295498962 2566233589 2326466475 2638796104 3755316949 3901664654
3924170469 4246819872 3892367104 4236215679 3856784353 2545046450
2293039020 2620082475 2634977038 2455150934 2327065780 2158733995
1832254262 2235864132 2635301651 2694246038 3358368044 3392691768
3032838853 2870890270 3967466874 3267946952 1784302042 2175571628
2670782000 2746992571 2700660984 2389515629 1988540294 1887858054
1746474265 2195585245 2674047586 2656039503 2521264711 2337018444
1883488323 1970535796 2811191695 2639407442 2662152109 1194360368
582160179 569198061 1054558107 938373422 635876391 651957660
1070541327 1070169481 1425987071 2401557028 2642371199 2684965897
2728424608 2210076859 1918645596 1869099496 1787459210 1596503720
1426551687 1615453769 2152074054 1322016972 1098923392 2187573603
2435746862 2261860049 2451350556 2733708016 2471634770 3197318290
3719678901 3789438941 3738437843 3973334483 4196160539 3695922762
1959258695 2130217848 2371711325 2446869720 2441060735 2689427277
2648243160 2284762414 2095073376 2233761572 2764743370 2816598241
2756054085 3107181875 3156918570 3138121483 2978512776 2133439401
2023090197 2072066817 2240549260 2687863349 1431847768 1332968179
2366570510 2007201827 1900934350 2450735379 2645839796 2093772492
1321524037 1113159129 1184871071 1923840427 1850685647 1718231658
1699629646 1161854528 884900670 952658952 410868989 424632751
1244553390 2183888683 2072354437 1928743030 2065104151 1851585885
1824658754 2217391146 2492144523 2287179091 1947254288 1778835846
1725198292 1817311442 1952784997 2217043749 1581452355 643810784
966393242 2083021096 2324236680 2257997974 2417612569 2544399784
2637347890 2828075152 3299140772 3589101037 3921591998 3930293315
3940785635 2798101703 2389035365 2560512414 2277735619 1988208385
1971913225 2475933587 2773953367 2587520314 2427439791 2710078344
2716685037 2540798065 2711198617 3086726395 3418810310 2485448484
1821516434 1563668403 1617034466 1684003551 1837620231 683225529
2233809445 2658436212 2197905409 1952889574 1672455855 1176413726
632563700 294181353 275927730 234597692 721791109 1496308144
1017652072 552526703 1271290310 1134221723 860086980 696019644
1283050105 2497192408 2372190052 2503949119 1770776715 1182355961
2503786300 2137412838 2075512117 1922501911 1890471598 1879744266
2123667604 2560994213 2651146757 2527339172 2526118289 1846170634
915616659 842545016 831608017 1848191785 1973708324 1809405273
1181239912 1438070455 1929701892 2477578412 3192153156 3652208559
3685282984 3834590862 2624122984 2205616759 2417877789 2308238484
2441259138 2272690550 1924358835 1918141140 2356767353 2475108743
2507303538 2751352318 2976260197 2782415064 1416521326 1925996108
1626517746 1810082275 1413703619 1818894826 1622193328 951749946
1209467543 2582024678 2038728324 2408198794 2272925562 1887338366
1878556024 1696632992 1308033143 766533616 453067777 314848644
474261541 1407348962 1398736863 1001805302 1371666626 1245684799
1208167811 1995407087 1874117684 1572672573 1473921626 894965848
681719394 1869695089 1044349503 1729642904 2584313353 2175058852
1911379309 1570255128 1133892758 1493268481 2171809651 2389498476
2249630230 1230092497 897172346 1170309825 694156960 1846848788
2072057985 1916759103 2000835266 2264494841 2440827516 3330175870
3832138601 3873606370 3878262569 2607157349 2631141587 2527728553
2483872780 2457068915 2965390272 3625765404 3250348220 2506224225
2462426309 2610965920 2548486886 1949566516 1400388472 222735895
683330811 1984018369 1094459196 1302730150 1338186435 1783429837
935399745 1506425802 2005607179 1192798872 1126624167 490710432
359030342 1639406391 2636311330 2365067768 2110286152 1754040076
749372778 309205998 593555681 1780088602 1639466424 1111948103
1858014143 1682550217 1413960391 750554236 1715430463 2306231670
2089491723 1725773021 1088822118 1550724334 485767796 781397715
1438139576 1255657432 1773421236 1789993265 1225737999 808394223
1547227704 2551258897 1684993903 1716127306 1250616715 975939627
2026282054 2137706474 1899122738 2482567160 2857726037 2868542458
3013284762 3682026870 4040295121 3788593616 2425493906 2502698284
2301446445 2328505034 2580616656 3241059630 3718785703 4294967295
3476935229 2079622900 1990939179 1984822862 880960578 417675045
267859367 284060526 994614344 918053368 1443427593 1168347683
1737141514 1284446095 2430502622 1030829105 491204231 663721167
517774972 746884292 2457851007 2793261437 2694644892 2770427169
1942751308 721068986 1920836349 1510838925 1582308304 1154183115
987680159 1259941529 1279811016 1687846938 1411999529 988430506
1435320973 1731423923 1957882802 1253345972 1962657403 1842116940
973385092 1634264809 2134309558 1503240729 1517178350 2385421870
2256813956 1400312311 1639818685 1590545101 1835587816 1660999808
1030191975 1724483145 2046087028 2140712600 2799396059 2427908534
2761557145 2550432516 2850748394 3356389902 2324534157 1981222679
2177850831 1926866649 2350012434 2694313623 3285764568 3558990881
3652815033 3973770970 2562820289 2405679203 1828664191 878475228
676741270 417658661 287270047 1327938342 1475423857 755588105
1266108151 1007017798 1209679770 1641946334 522103935 462876439
544909435 757505638 1973466144 2302075702 2324744848 2300342556
2509900953 1355280328 1336640299 2692269688 2410486445 1734514658
2150940468 1523549775 537223109 1916390713 2945346702 1825319116
1064825784 755400902 957624596 1605508786 1470893996 994883980
1222442973 1797556260 1922840092 1777535475 962301275 1355910481
1604177949 1511779740 1963069954 2105482495 1802982647 1806913715
1361555751 963159976 1599348948 1823460015 1865924023 2482856189
2388298074 2194604751 2525729675 2571102783 2423369585 2107082519
2144429393 2558715266 2461779131 3034304731 2792351343 2664265165
3205666066 3187875586 2939388979 1541722212 2068370120 2224713370
840444504 366222068 1236324657 544310513 1216962185 1496876088
700856198 1398674398 1418036613 640539310 641836545 598748080
548831286 356207003 1194701237 2375144849 2572038990 2651151877
2639708758 2736381209 1458451182 1913139848 1312006323 1501845252
2197448186 2309077665 1553516824 834536190 1180777953 1415373277
914682373 1081856764 1483699311 1337662651 1854282630 2224919453
1758307917 1146662616 666436665 1098462457 1381783260 498261171
726912660 708711422 878617438 761850921 1555789115 1304026810
849615076 685714847 1268075285 1759131866 1692667492 1619932046
2372896367 2287666010 1270290103 2078046172 2263211237 2102857559
2107751585 2030570120 2665749987 2770554147 2595723703 2405213532
2282301449 2399425540 2654461495 2408765074 933299617 1183996818
1938721806 1907719605 853530592 1226749086 978396177 848832664
1215243375 1075551003 1794228977 1563156396 1309377163 1428079006
552907637 434092000 473496153 1505554621 1844016873 1389188557
1247961314 1082208897 950751339 1190982013 1286756146 1275000575
1422442696 1139429610 1151257375 772076613 811014807 454550776
1023220861 1143277605 878823330 1436351389 1345121197 1531004865
1815416629 1944746090 2193031094 1718323051 1295352885 749884210
608391299 654264255 843785803 861533914 581664555 292393806 348913196
499650088 628028655 734331973 935251839 1504239657 1392163706
1687725336 1810787950 942892467 1231156578 2292897706 1900004287
2075789882 2128593247 2284502058 2581343708 2402442034 2185198655
2204918124 2160299971 2180981247 2157064338 804022060 551416030
1458635505 1902328163 938416879 673884843 860913232 674833977
909089007 1204697550 1352120855 2528896187 1323378529 574075768
609893978 516931760 476719690 2133740078 1670647572 374362256
150082050 229835123 1335165077 1563288494 901591293 797090050
1007507213 744454559 733959679 823527254 919499598 1569868818
2270026061 2298215419 1577495046 2129271146 2596552644 2479000002
2202776139 2016636339 1845772548 1430336065 1196902999 1828523261
1229519433 625912399 660268507 696263360 745052200 430715404
523480788 533410795 451433736 727794913 895035225 2040411166
2416877838 2168016697 2263174885 1677162359 953438548 1990372514
1865698868 2152779600 2523258213 2007140898 2358952346 2273745798
2004226038 1940045730 1957346602 1971278719 1885659108 805200254
339091318 948223173 640963572 444758978 824574182 957855831
1011471626 789117897 1545785634 1186983744 1731354162 1855384086
1210401061 682418925 506115499 590845879 397598419 246732325
281011392 443620113 602565738 1379565498 1024437071 454043312
428276999 480877930 765923879 1007981140 782847273 827200846
2109296825 1726804333 1630845236 1172393825 1168845355 1607584849
2218672958 2633382902 2609621899 2567670027 2309024928 1358148723
1984259653 1927485795 623594091 651052494 675860361 794092565
395647669 432237315 440965833 703708274 1403379494 1333431674
1816676808 2664934359 2525040768 2490546290 2445581508 1477902487
1960099924 2096856315 1903236465 1850763472 2285585467 2475064710
2076796361 1944993646 2086076247 1792197074 1237958857 1451499268
1111058233 455845996 545203199 320847776 448944418 1107829384
1166821644 945671070 1254814155 1447143489 1353822001 1110843062
1906197406 466614704 537721869 585129632 517371766 751583628
1794331379 2295672533 2383723028 2591624824 2038740740 356470559
487687729 581333222 449984370 492810016 2322247018 1184181525
729124981 2039615378 1532496856 1069645121 1008210264 1526549629
1794783866 628658232 1207661819 2257435277 2133441065 1701406825
1143883054 1056095922 1477206540 715178145 850712309 1067396767
772362761 296779856 665318632 1692197340 1923907500 1586223883
1538668598 1171827416 937295838 1069327228 1191538309 1798331952
1955953941 1770852365 1811323382 1776800359 1741893587 2088900482
2078770023 1871657487 1834631258 1789392168 1662408342 1230943326
861341527 957851671 583059201 462466001 400696770 814677647
1899124658 1194289711 546071180 1009083749 1251481752 689415895
755809293 1685990782 864264323 495392103 486478079 573508655
1286812595 1599457365 1724219077 1667646694 1569035781 1080435302
295773921 647016785 735414165 883960304 818056258 1733039308
1197215196 859581692 865999838 698480162 1162210630 762934713
1208785804 1615585868 1143589546 872833734 1382735339 1140924801
487917173 560847406 879815345 1194962233 871355760 701849685
1375338746 1551200629 982964631 932196112 1090517888 901807360
741421105 1776619109 1908729540 1345383089 1630529584 1462789808
1561331472 2160505542 2261062085 2349084932 2303498572 2318742325
2491267965 2322670705 2161960924 1981891873 1716281804 1431567828
1148227184 749150119 419500929 498850588 579479434 564906220
719699878 1228700604 1267460364 809868805 774507818 1029398107
1538795960 860252294 1099892879 978090956 523451187 625201604
597825314 807892263 1124985742 1475081580 1586472591 1728534023
1712825239 1018670071 982163850 1456593490 1260859943 1212900299
1065978505 815054549 738354370 784683525 601849183 927369478
603879742 438848488 530731906 566901706 570804230 437093613 514757102
959908087 1179344459 1387975226 812025126 832769187 835626382
1169179312 808995128 572222107 483078923 313587409 199927723
658397118 1247290328 1286594608 1401659915 1426914829 1457445727
1641418838 2061398750 1802735731 1793762922 2047360904 2020093416
2533711365 2328694477 2171453037 2005369991 1688967083 1619872397
751876945 814277513 603874878 394233759 478265314 569874551 688842575
1015276548 1278154927 937327518 969934800 787073962 802857114
537078723 517005649 723484895 1123394165 677258718 717847497
624798398 764013194 816543595 959964152 1226459546 1423777117
1570307737 1370573489 1218347422 759066878 731717405 632668982
535365161 530069912 545266752 529136010 667733453 799867309 697660565
659162762 663900242 517380534 788552256 1175434767 1099731852
1525499501 1597407030 1033190229 665090404 750322041 784696389
995607832 661699313 488337083 407110468 725645888 1546926132
1316958335 876960453 848681494 850477041 847135870 905635835
1770349829 1873867441 978401809 1246958419 1501433342 2490990457
2523350631 2388680288 2211541713 1843685092 1174358015 510114952
825485108 636991544 405328649 499759338 860731086 612383168 810803540
881876304 854084904 623373416 862155939 1048100537 789998102
464843061 640226217 1202970164 776539401 1147208929 1247618781
592884119 574400701 674529844 862414951 858039012 775224565 645467449
480130110 495317990 563927453 746369789 573346732 567105677 508484271
588990491 1147892715 855438589 811585952 709535434 951027247
1100911262 1047527216 1125892763 964800833 805466370 869795160
714519511 358695361 455589608 425235672 562868237 489299306 482045979
663220360 1096063060 1601883642 1679051668 1379663804 1081430133
1058847068 1063786024 1024939223 1027109176 1768750701 1172049372
1063057821 1395833522 2256291196 2323925380 2519170855 1868914021
1091397133 1062462036 360057206 417766599 416347217 945071060
837615917 442919398 632282416 487481710 547483298 670692282 950684458
711049378 797694476 889868234 1000538403 523278480 208817442
775830078 1199562368 1346750917 885849101 980932984 907032656
752679005 708612604 511502717 385880704 511314586 447135143 444547743
604978575 590845303 675384129 1268033684 948764173 499704585
235993393 407719533 611093228 1147715432 968583611 474532969
467807426 616305788 1105848938 1193738791 872720068 403989748
518510984 649817275 512937203 1080577896 1852404073 779209778
443060520 797400391 1131658995 1248823279 1196452048 1118590380
1088402911 979872935 914739398 1145429190 1400025970 1321832265
1320623159 2489500770 2329088979 1239402847 220900779 272424573
501299713 236331798 353704597 723308509 850828022 538787037 768280203
733973759 441883255 558503562 992799085 1354262072 1092833187
523617046 601120084 761222239 638114377 631000924 736227362 904633323
971065697 1044548994 1057075137 924531483 809338685 687079796
616080376 628994110 846309425 683633535 662212792 788167866 676558163
668601946 1233400068 589175262 419984264 453030977 497427302
715423972 998646214 696791560 305559862 252150087 368011119 691427702
700016249 797587274 529418862 1256365026 1561673749 1275932429
674938171 2123649556 2025311799 1187007424 582487032 562261251
733166131 637085689 617677905 614221468 632464498 534987107 595518463
1040774665 1253233459 1149541380 1994008282 682130984 165370027
235240021 387366263 339880418 387798781 505041626 533016709 470042020
562286852 958955752 785313487 407262310 456095183 1140958849
1133029384 982721875 1813914526 1198786036 1053074628 826429634
637663938 862034273 623984817 736390756 895434655 894343438 791279274
738690183 725920901 732694956 611347504 560740524 638800851 534660382
774180261 418612115 511481916 562413958 660218074 1358255733
759885771 418445105 807366943 981967687 911213072 574422397 452144371
664507483 775243893 423873412 501484324 1063304416 1073296377
1492225777 1532401366 556582445 817308919 2072839565 2063152121
1815082544 1401738381 1141118596 1393217162 1148297457 1116317577
1073190071 674096174 758354099 1207163124 1384056319 1364914779
1110046762 644234278 567378193 588207887 736804651 706121238
664247959 678233645 458965563 290243853 695446324 775814526 646194308
542181073 555127382 714051471 915014858 1015750923 1296527559
1236359729 989634044 843928781 423948677 568948457 402822882
335454751 518850957 546636501 599713087 671464710 708460730 624818878
469287449 432949742 504364784 503895593 242230976 358282715 607185649
713615881 569051755 1486686749 1960333272 1224884354 843227330
1001285102 983635297 673612710 523856921 650969549 653409586
461948233 364864255 1014034737 1291831935 876771458 383567805
460761847 469724895 1978600559 1716927702 1146248018 1218440480
1260544674 1585906951 1828953219 1970354673 1999140904 1926473171
1819414258 1735968760 1737399182 1597887549 1370965559 1407110750
1599469782 1689919546 1568867331 1282567538 1074517644 985834242
895870566 791360235 833601456 820668202 1078765004 792627070
482365856 595483710 813790401 976214256 605770459 463240060 827812503
307125550 234246262 519752699 505100475 510090919 537861327 585839147
599224887 633894536 607300915 627677417 507899910 689791645 802979356
1313621068 928149842 605936734 707036004 700341310 440379008
395546163 1158343691 1497514434 1155752419 1594837647 1151238814
575754385 567141838 758851451 624499577 589825192 579907217 553068279
1362470837 1462832945 791372459 287482371 583006400 1400900608
1606276029 1485870736 790716129 509380412 767078073 1160990643
1269297704 1309201161 1346928072 1613189799 1818066269 1802541296
1670894231 1178726338 1125107728 1045400911 973586568 979028379
980620339 961126409 1057448263 891077085 1078977488 1523422797
1324954745 966967139 702311836 421058329 518478215 624274486
518760364 523038285 487664913 481189838 610990251 351253936 448182775
540901053 480884042 462019466 453713995 424271594 475223923 565904315
625058561 846371954 853967398 755155011 995426133 984148201 654452162
601878816 677263646 1155287900 878026709 579327112 275689775
723352157 1463124021 1597686202 615752755 954629414 1047277228
777806812 666556411 653265776 686220839 752005459 1872824609
1167837468 788452159 932524885 1504601390 2019330012 2380805608
2206963595 1586311565 1027660033 957516626 1044733381 1104061390
1067231324 1069315324 1439232329 1807632318 1871532941 982127626
893170236 871043755 887900716 898645456 801524038 884340214
1024009865 751215174 609187791 721386623 538943904 510087783
424769745 445360300 526737125 612693189 660912933 582529017 549311614
513140630 446756097 499822219 483488113 356795652 334620466 329213503
293330844 328141615 456027950 597971492 623200357 694343971 609749656
581969520 497260067 445946869 494981345 555185495 609465748 697293712
659860437 562619657 497044544 590922361 811932645 1251489048
1147609575 1592505579 1949374257 1678620301 1462276520 1431605588
1592072549 658848197 1739293227 1610827395 1136511422 977614789
1201936804 1655167655 2187638372 2461564088 2581804259 2469156908
2294817992 2244669642 2119905371 1994013914 1784718560 1721948578
2017626178 1968748376 1128529988 1264067032 1392124666 1306283740
1216704005 936827031 755388166 668065298 406927649 451150596
648117537 680630481 670259379 490126231 495039554 575644175 566467139
613111307 478259682 503388481 507399646 444905093 325899821 416562100
332455441 330809272 351091373 347377652 340999027 351808120 391253266
417077948 488626464 495608746 493048451 477021263 513457275 542093456
533764976 572564065 634667348 670288756 665828336 514889296 505175772
442904518 1135805747 1669188221 1687306770 1913856019 2155163765
2396699866 2366529038 2290202753 1349454191 1351466253 1807445435
1067913639 909171505 863831997 822913932 833445421 1020087309
1265526638 1560730118 1772128672 1919903983 2027311574 2143390017
2050033073 1865381039 1648433729 1508820718 1195323455 1297684825
1187126850 1041797208 1038684329 900755376 684662991 630906395
688991761 641651775 534722527 445373804 383356281 388705387 509806627
541315076 450060243 585845739 515870495 490502428 472290630 440104507
396868456 439265487 492639677 435068079 447649070 434197153 384740143
391897052 422890485 488921572 479212656 474866350 644109156 830419967
1053754959 967565676 1099310086 1311100838 1431601876 1532671962
1258949642 821011311 772494283 660920997 854346540 1333118709
1307703922 1593924865 1720574093 1947782296 2015766822 2461824700
2378246849 1716177226 2091699244 1663271715 1070861972 1006380860
955378418 941875492 954327970 882954977 823804122 811398621 805250431
849865320 912963819 932984284 885693386 892123949 941575007 972373173
946665965 840133139 730232710 695382259 681251163 552829619 441421199
410372726 326131696 296328490 277269511 273245705 307025229 392567910
416789656 372505460 495378663 523405842 404905954 445759154 417998602
432368101 449396969 392466756 402095095 440060667 582785852 812638256
830331582 826550340 684412427 750581693 1077341623 1515247696
1765366073 1889574304 1797744551 1732147262 1740154168 1887630211
1971930505 1867181514 1747318310 1656300729 1541177820 1505483196
1428313250 1171571284 869137422 539427047 499487045 1089191915
2261126598 2255023720 2477464491 2200471336 2098121102 1655424299
1162706381 1111872710 1097605100 1011557003 993114994 995727065
969332551 978941657 992458471 988956594 985020918 1054592028
1113170265 1059306595 957325199 860622860 801299971 721707908
655622292 591842503 454121905 379124857 410878845 364906688 405215175
501128703 588697111 636379566 675761159 841103266 861530970 783546996
779944829 633820295 554846098 681120409 710708124 791643055 877242825
883964336 845170848 827674197 1079464919 1446599737 1436088345
1094124471 1595352983 1764924082 1821261198 1900591560 1921450247
1908660035 1784861666 1778047226 1682981456 1670206093 1838112911
1963345286 1682136131 1445169571 1020525140 720698869 428059684
253444971 311573266 396868264 487299051 1269751471 1379522874
2052191185 2181538311 1720963731 1136659904 869943642 1126864682
1507702749 1289235800 1156055656 1052106294 1040749320 1011935057
982271308 1011590795 1027993990 1066964504 1059275875 999317264
985082423 925438185 927391495 833726769 803502692 747721873 652531237
560021601 558192389 612425409 670188018 645985985 641217720 620532284
605096081 679746116 762382449 846869818 943402427 987344089
1023535810 1160647854 1278906554 1397506636 1341666680 1278842425
1321698631 1391169003 1450015341 1323944425 869508179 1044329279
1317320068 1198937078 1226066580 1084614694 1061016126 1087011530
1200487310 1339767387 1573546058 1762472461 2025092020 1685205234
1053330696 927127043 700548609 619082470 587680903 674553973
856366667 1294037537 1324253166 1505747648 1738121369 1808671694
1953540976 1750943581 1324833015 1160650158 1177340717 1269219750
1341024494 1217832598 1135343148 1092276635 1069784067 1088541666
1091444110 1094433851 1104663768 1035366774 967332072 1030273000
946098212 861891871 807145436 750343481 683331963 582185907 626650330
577400106 642000196 660754978 601722077 588092237 623444969 702256219
807687268 810501519 815476763 783923578 816739950 815606621 886541335
875196202 893765702 971283492 1033176917 963448301 957183949
929574632 794476955 872809542 924094612 901381370 1045851606
1085652021 1242217994 1411893031 1639289397 1873946930 2030161921
2163674615 2275741349 2267516199 2038019705 1733922009 1534257523
1396678591 1567188841 1749734090 1883332033 2197387513 2404516945
2279162585 2142107309 2226783674 2125893686 2050183859 2009673545
1943515479 1671568034 1497155388 1341754873 1200930964 1181634670
1156417645 1247674334 1225455371 1160361257 1156595312 1071682784
1010251639 1010062580 999804056 1050758561 936822359 886645273
879216488 871465649 832644065 821906749 829524209 813053622 825048621
787001705 724264363 734486983 812024166 1084825641 1388372929
1461230744 1222411484 1020965146 927976720 880174006 859554620
923001796 946881136 1073653502 1347748181 1595570714 1717272539
1801349982 1830787487 1917490890 1892564942 1851873121 1950762310
1939828383 1885163485 1945731321 1887785605 1799079355 1839604390
1820370560 1870188792 1949397169 2002197591 2030490758 1991163566
1876903263 2020250858 2086073174 2043923923 2125089962 2222217588
2212751843 2236448589 2326666670 2047018627 1736493184 1444208021
1319859243 1247599837 1230195795 1241884549 1238460113 1205588572
1262523712 1264712162 1192936730 1134634529 1115808898 1130437473
1099583498 1087411408 1098402808 1027487806 1006693697 1058662042
1087479505 1095393226 1052983427 1019699847 978815191 939887173
889990028 832578592 1000725094 1096124757 1380097986 1728709514
1621763754 1591927267 1667768936 1467512056 1315397479 1271874511
1320729784 1420998578 1419632030 1550810095 1640251716 1747029537
1788499098 1748416566 1858080832 1806289833 1807477692 1699581389
1518346240 1471114415 1368295822 1320364467 1323208542 1389775318
1433034986 1561046539 1691172685 1757942088 1774290241 1874697149
2005266949 2000346938 2038632195 1943230803 2061661154 2031575447
2043092679 2002336345 2000031030 1809863136 1470689321 1344941866
1385511189 1353313322 1316567161 1239411936 1181059301 1249142260
1312399801 1225331337 1180020437 1202507949 1213066830 1231755243
1207816318 1103936844 1168882347 1152407728
