P3
73 43
255
31 31 25 27 28 23 29 29 24 25 26 22 34 34 28 29 30 24 31 31 25
28 27 23 37 36 29 33 32 27 29 29 25 47 46 36 30 30 25 34 33 28
35 35 29 30 30 26 44 43 35 37 37 30 26 26 23 58 55 44 45 44 36
29 30 26 54 51 41 43 42 35 38 38 32 59 56 45 39 39 33 46 45 37
59 56 45 45 44 36 46 44 37 49 47 39 63 59 48 65 61 50 58 55 45
56 54 45 56 54 44 62 59 48 61 58 48 64 61 50 66 62 51 71 67 55
78 72 58 67 63 51 69 65 53 67 62 51 65 61 50 71 66 53 75 69 55
79 72 58 69 65 53 67 63 51 74 68 55 80 73 59 78 71 58 75 68 56
75 69 55 64 60 50 70 65 54 69 65 53 73 68 55 73 68 54 73 67 55
66 62 51 68 64 52 75 69 56 74 67 55 67 63 51 78 72 59 74 67 55
55 52 44 61 58 47 66 62 50 25 26 22 25 26 22 28 28 24 28 29 24
25 25 22 27 28 24 37 37 30 23 23 21 34 34 28 40 40 32 21 21 19
44 43 35 31 32 26 28 28 24 47 47 38 30 30 27 32 31 27 51 50 39
33 33 28 38 38 32 42 40 34 42 41 34 43 43 35 50 48 40 47 46 39
49 48 40 55 51 42 47 46 38 53 51 43 58 56 46 67 63 52 67 63 52
57 54 44 58 55 45 78 72 60 69 66 54 69 66 53 75 70 57 76 71 58
73 68 55 77 71 58 79 73 60 77 71 58 67 63 51 85 77 62 92 83 67
79 73 59 80 73 59 85 78 62 87 79 64 79 72 58 81 75 60 74 68 55
63 59 50 80 73 59 86 78 62 74 68 55 77 70 58 76 70 57 67 63 52
76 71 58 100 91 72 75 69 56 79 74 61 93 83 66 79 72 58 70 66 54
69 65 53 71 66 53 70 65 53 68 64 52 67 63 52 67 63 52 22 23 20
27 28 24 24 24 21 26 27 23 34 35 28 22 23 20 27 28 23 40 40 32
19 19 18 38 38 31 33 33 27 25 26 22 38 38 31 30 31 26 35 35 29
35 35 29 39 38 31 40 39 32 39 38 33 46 45 37 56 54 44 42 41 35
56 54 45 79 74 58 48 47 39 69 68 56 124 121 103 81 75 60 71 67 54
58 57 47 80 75 61 79 72 56 94 89 74 107 102 86 82 76 59 76 70 57
67 64 52 98 90 71 95 86 68 77 70 57 107 95 74 74 68 55 74 69 56
92 84 66 75 69 56 84 76 62 84 77 61 94 86 69 81 75 60 91 81 65
66 62 50 62 59 49 102 92 73 108 96 74 71 66 54 76 69 56 75 69 56
73 67 55 98 87 69 75 69 56 67 63 52 79 72 58 69 64 52 70 66 53
67 63 51 74 68 56 66 62 50 71 66 53 69 64 52 59 56 46 51 49 41
52 50 42 70 66 54 21 21 19 21 21 18 32 33 27 19 19 18 26 27 23
35 35 28 17 18 16 38 38 31 29 30 26 24 24 22 34 34 28 32 32 27
37 36 31 36 36 30 41 40 33 42 42 35 52 50 41 66 63 50 47 47 39
57 56 46 89 84 65 77 73 57 60 58 48 93 86 68 81 75 59 160 160 139
255 255 237 140 139 122 79 74 58 93 85 66 98 92 72 183 181 157
223 224 196 255 255 242 193 189 166 94 84 66 59 56 46 77 72 58
86 79 63 88 79 63 88 80 63 81 74 59 74 67 55 84 77 61 67 64 52
77 70 57 85 77 62 77 71 57 85 78 63 99 89 69 81 75 60 54 51 43
76 71 56 99 89 70 79 72 57 67 62 51 59 55 46 55 52 43 81 75 59
81 74 60 76 69 56 68 63 51 60 56 46 56 53 43 59 55 45 56 53 44
68 65 53 79 72 59 75 69 55 77 70 57 68 63 52 62 58 48 68 63 52
23 24 20 20 20 18 24 24 21 24 24 22 21 21 19 29 30 25 26 26 23
27 28 24 30 30 26 39 39 33 36 36 31 46 45 38 45 45 37 69 66 54
86 81 63 61 59 49 70 67 55 94 88 69 91 85 65 74 70 56 88 83 66
111 101 78 92 85 67 77 72 57 81 77 62 202 206 179 248 251 226
254 255 241 139 136 117 81 75 58 186 186 158 248 251 226 245 245 216
251 251 215 245 249 222 157 150 129 66 61 48 68 65 52 73 68 55
95 86 67 86 78 62 67 63 52 87 79 64 97 86 68 66 62 50 69 64 52
76 70 56 68 63 52 74 68 55 75 69 55 65 61 50 65 61 49 63 58 48
50 48 40 53 50 42 79 72 58 87 79 63 75 68 56 74 68 56 82 76 61
85 77 62 68 63 52 56 52 44 51 50 42 74 69 56 89 82 65 92 83 66
78 71 58 68 63 52 61 58 48 57 55 45 61 58 48 78 71 58 19 20 18
20 21 19 18 19 18 23 23 21 25 26 23 22 23 21 40 41 34 46 45 38
48 47 40 59 58 49 86 80 64 92 85 68 73 69 56 95 89 70 78 74 59
82 78 63 85 79 62 88 82 65 103 94 72 94 88 68 77 73 58 62 60 49
100 93 72 98 90 69 139 139 122 145 151 131 173 178 155 252 253 235
239 239 225 123 124 107 192 197 173 244 245 219 233 235 210
243 243 212 214 217 187 248 249 233 117 109 91 68 64 51 89 82 66
77 71 57 74 69 54 77 71 57 81 75 60 86 78 62 71 66 53 69 64 52
71 66 53 68 64 51 73 67 53 74 67 54 61 57 47 56 54 45 62 60 49
91 83 66 99 90 70 84 75 60 69 64 53 66 63 51 53 51 43 60 58 48
74 69 56 77 71 57 89 82 65 86 78 62 66 61 50 52 50 41 57 55 46
63 60 49 75 69 56 91 82 66 79 72 58 69 65 53 81 75 60 20 20 19
30 30 26 36 36 31 44 43 37 70 67 54 78 73 59 64 63 51 105 97 76
111 101 77 84 78 63 103 96 74 86 81 64 95 88 70 112 103 79 111 101 76
100 93 71 85 80 63 62 60 49 62 60 50 99 93 71 108 100 75 81 76 61
99 91 70 111 104 83 115 121 115 125 130 118 141 145 127 164 168 142
248 249 225 192 195 173 150 154 132 207 211 177 251 251 221
217 217 178 172 176 151 254 255 230 162 155 131 81 73 56 68 65 51
43 43 35 74 69 56 119 108 81 111 99 74 92 83 65 65 62 50 47 47 39
81 76 61 116 103 80 98 89 69 84 77 60 74 68 55 70 67 53 64 61 49
57 55 45 74 69 56 89 82 65 95 86 69 82 76 61 88 81 65 81 75 59
61 57 48 56 54 45 69 65 53 98 89 71 99 89 72 92 83 67 89 81 64
85 77 62 79 72 57 80 73 58 76 70 57 71 66 54 76 70 56 93 86 68
99 92 72 103 95 73 107 98 76 95 89 68 86 80 63 65 63 52 81 77 60
95 89 68 100 92 72 102 93 72 99 92 70 87 80 64 68 65 53 76 72 58
77 74 58 104 97 74 107 99 74 75 71 56 59 57 47 66 63 51 103 95 74
95 88 67 90 91 75 92 99 90 126 130 116 176 180 158 173 176 150
156 160 131 187 192 162 164 170 143 185 188 149 178 175 122
143 146 118 110 115 95 180 185 151 192 182 145 112 97 75 64 62 45
24 29 16 61 60 50 119 108 81 127 112 85 104 93 72 82 75 60 78 72 58
73 68 55 78 72 57 86 79 61 69 64 52 56 54 45 74 69 56 109 99 78
120 108 80 109 98 74 86 77 62 63 59 49 64 61 50 91 83 65 108 96 76
107 96 74 103 93 72 81 74 59 69 64 50 53 49 40 56 55 44 84 77 62
98 88 70 98 89 70 97 89 71 115 102 80 112 100 78 98 87 71 95 87 67
69 64 49 85 79 61 104 95 74 108 100 75 98 92 69 98 90 69 70 68 53
69 66 53 56 56 46 99 92 71 121 112 81 120 112 83 89 83 64 60 58 48
70 67 53 81 77 60 108 100 74 102 93 71 76 71 57 65 63 50 65 62 50
78 77 63 90 98 89 85 89 83 81 87 79 132 136 119 192 195 168
173 175 142 103 109 77 133 139 112 130 134 104 99 103 79 91 95 75
85 89 66 22 27 14 58 59 40 142 134 95 66 73 36 29 32 17 78 72 60
63 62 50 100 92 72 120 108 80 103 93 71 81 75 59 71 67 55 95 87 67
120 106 79 102 90 71 79 71 58 74 68 56 73 67 55 78 72 57 95 87 68
113 102 78 117 104 78 98 87 69 76 69 56 75 69 56 84 77 61 91 83 66
100 90 72 137 133 109 176 168 141 121 111 88 98 87 68 79 71 57
61 56 45 48 46 37 75 69 56 107 96 74 107 95 75 85 78 61 109 100 72
105 96 73 75 70 56 49 49 40 100 93 71 127 116 84 113 104 78 69 66 53
61 61 50 112 102 75 163 158 127 236 237 208 176 176 152 60 59 47
56 55 45 62 60 49 94 87 66 87 82 63 86 81 63 81 77 60 75 70 55
84 86 74 88 97 87 82 89 81 69 75 65 74 78 66 142 146 122 185 190 145
59 66 20 72 80 35 92 100 64 97 104 74 95 100 75 146 151 111 28 34 16
1 3 0 68 73 44 33 42 15 18 24 9 107 96 76 77 72 58 76 70 56 95 86 67
86 79 63 95 86 70 120 107 84 112 100 77 100 90 70 94 84 67 94 84 67
84 76 61 63 59 49 78 72 59 93 83 66 93 85 67 108 98 75 119 107 80
108 96 75 93 83 66 91 82 66 97 87 69 97 87 70 109 113 99 208 213 189
249 247 224 166 159 133 183 181 155 192 187 165 162 157 139 103 96 81
109 102 83 95 84 67 75 71 57 80 76 61 107 98 76 124 114 84 103 95 71
104 96 73 109 100 75 86 81 63 54 54 45 82 76 60 137 133 111
218 222 195 241 243 211 255 255 248 197 194 179 107 98 74 120 109 81
103 95 71 86 80 62 79 75 56 70 67 53 54 51 41 70 74 64 73 80 73
62 66 61 62 66 59 70 76 64 140 145 115 108 108 73 36 39 11 57 65 14
111 117 45 93 100 48 84 87 51 80 80 52 11 17 4 3 6 0 6 8 3 15 24 6
12 19 5 77 76 52 94 88 64 105 98 72 84 77 62 73 67 55 65 62 47
56 53 38 64 60 47 99 90 72 127 113 83 124 110 81 97 85 66 80 72 57
93 84 66 107 95 76 93 83 68 91 82 66 109 97 78 94 84 67 85 77 62
93 85 68 111 99 78 86 84 72 80 85 76 148 152 131 238 241 212
243 243 210 255 255 230 255 255 237 255 255 242 222 222 197
171 163 143 76 67 52 88 82 64 45 46 38 65 63 50 65 63 50 85 79 62
113 105 79 111 102 76 103 95 71 103 94 71 93 89 72 145 151 132
181 185 155 236 237 202 238 241 212 255 255 255 103 101 87 74 70 53
103 96 74 124 114 84 134 122 87 126 114 83 94 87 69 68 73 67 67 73 68
57 61 56 51 56 48 78 79 62 92 88 68 76 71 58 61 60 47 36 43 13
132 136 56 131 124 82 104 95 74 81 75 55 6 12 1 5 9 1 5 8 3 15 22 7
15 23 6 48 52 31 29 32 19 51 53 36 31 35 21 8 11 4 27 30 15 61 58 42
57 55 44 66 62 50 102 95 78 102 103 87 102 105 83 94 97 77 86 89 72
86 87 60 120 113 74 94 86 63 62 60 42 94 86 67 86 77 64 77 70 57
79 77 65 91 97 91 75 79 74 98 103 88 201 204 176 228 222 183
224 223 184 253 252 230 217 217 190 252 253 228 220 214 192 112 99 78
82 78 62 112 103 80 116 106 79 98 91 68 87 82 63 74 69 55 49 49 41
78 75 59 117 107 77 107 105 87 159 165 145 168 171 127 134 139 102
118 123 99 222 226 200 155 154 134 50 47 37 73 70 56 120 109 82
128 116 84 123 112 80 86 84 68 53 60 56 49 54 47 43 46 39 75 72 56
120 110 79 120 108 80 107 98 71 88 82 65 54 56 33 60 67 26 127 122 74
117 106 83 117 109 76 21 28 9 4 10 0 4 8 1 16 23 7 12 18 6 6 8 3
6 8 4 17 21 9 17 21 9 30 34 18 94 87 68 119 106 83 123 110 83
128 114 86 70 73 60 49 57 50 48 56 46 44 51 41 35 43 29 30 37 14
40 48 13 71 71 43 27 31 11 17 25 9 74 72 52 103 91 72 75 74 62
83 91 81 105 109 97 86 89 78 147 152 123 206 203 158 213 211 159
211 207 157 230 229 188 251 249 221 204 198 168 61 57 49 70 67 54
93 85 66 98 90 68 97 90 68 121 110 82 117 107 81 84 78 60 69 66 51
74 73 59 107 113 99 114 119 96 111 115 86 137 143 118 142 148 120
143 149 111 130 133 97 74 68 55 60 60 44 65 64 47 79 76 54 120 110 81
29 35 20 25 31 19 92 85 64 63 60 48 53 53 43 97 90 70 117 107 80
70 67 47 26 28 18 18 21 12 20 24 14 58 62 26 52 54 32 43 43 35
43 45 31 19 26 9 12 17 3 13 17 6 2 5 0 3 5 0 23 26 13 75 73 49
68 67 38 56 58 33 63 65 44 53 50 43 50 49 40 78 74 58 105 96 69
88 81 56 60 59 35 50 50 25 47 47 24 52 51 30 60 57 42 80 74 59
39 40 21 5 12 0 12 21 5 69 66 49 89 81 67 71 76 68 81 88 76 92 97 81
102 107 73 130 126 64 181 175 78 200 197 122 230 226 179 228 225 185
232 227 187 130 118 97 94 87 65 111 100 74 85 78 60 59 58 48 60 58 47
102 93 69 130 118 85 112 102 76 87 86 70 103 109 94 105 111 90
91 97 81 104 109 90 137 142 112 174 178 118 97 103 41 50 54 32
37 43 17 38 42 27 42 45 30 50 51 37 5 12 2 77 76 50 119 108 79
78 73 55 59 57 44 43 42 33 21 21 14 6 8 3 1 2 0 1 2 0 0 2 0 7 11 3
34 36 18 15 17 11 4 6 2 25 30 10 20 24 7 11 13 5 7 11 1 25 30 11
99 94 70 97 88 57 104 98 59 51 48 34 21 28 7 94 94 61 75 68 56
70 65 53 59 55 45 56 54 42 56 54 40 71 68 51 108 99 77 119 106 85
109 98 75 108 97 76 55 53 32 12 19 1 9 19 0 10 15 4 52 51 37 56 60 43
46 50 41 21 23 14 32 35 16 65 64 8 109 107 12 165 161 80 204 198 148
200 198 161 220 215 178 115 103 85 79 74 56 99 90 67 88 81 62
83 87 80 70 76 74 53 55 47 59 55 42 89 83 65 104 94 69 94 92 74
106 113 96 126 131 108 111 116 92 29 35 20 55 59 36 40 47 18 50 61 20
30 38 11 50 58 24 39 43 26 12 19 7 21 28 13 109 101 79 64 63 44
93 88 62 84 78 57 56 54 40 56 53 41 44 43 34 25 26 20 8 11 6 3 5 1
1 3 1 3 5 2 29 30 21 30 29 20 15 17 8 31 32 10 26 26 8 23 28 6
59 63 38 51 53 39 38 41 19 33 35 20 12 15 6 7 10 1 53 60 26 16 21 7
45 47 29 112 101 78 77 72 54 58 55 40 38 38 24 19 21 12 33 35 24
77 71 57 97 87 70 86 77 62 23 26 10 10 19 3 20 28 6 7 11 2 47 54 43
61 63 54 54 56 41 60 63 37 85 84 28 99 99 29 171 170 103 218 215 168
217 216 180 222 217 187 115 103 82 116 106 78 108 98 72 94 91 74
84 88 82 120 128 124 184 190 173 155 153 130 104 96 72 100 92 69
113 103 79 98 96 74 53 60 46 27 32 23 0 2 0 6 9 5 61 69 26 17 23 10
25 32 11 26 34 11 47 51 32 12 20 5 33 36 25 62 60 46 21 25 13
18 23 12 2 7 2 1 4 1 40 41 28 117 107 79 92 85 66 73 67 53 47 46 35
8 10 5 1 3 0 5 8 2 49 48 31 43 41 30 21 20 8 67 59 21 47 46 19
31 32 16 9 12 2 44 45 31 88 80 66 71 67 49 47 45 32 18 23 7 36 42 19
3 6 1 9 12 6 29 35 23 22 26 18 46 47 36 50 48 37 23 24 15 10 12 6
36 36 24 111 99 80 47 44 28 44 46 28 23 29 10 14 19 5 57 62 55
64 67 59 51 55 44 88 93 74 121 121 86 121 124 89 132 136 102
197 196 163 239 235 201 220 210 179 102 90 72 107 96 71 87 80 62
76 79 72 92 98 91 148 152 137 196 200 176 255 255 235 178 175 150
69 65 51 61 59 48 61 58 47 11 15 6 2 5 0 1 2 0 1 2 0 15 18 7 11 17 8
31 38 12 20 26 9 45 45 32 24 29 14 94 89 66 15 18 11 3 6 3 5 10 5
3 7 2 7 11 6 99 92 67 133 120 86 121 111 80 128 117 87 59 57 41
7 11 3 57 56 37 36 37 18 39 42 17 20 20 13 15 16 8 26 26 9 26 27 11
44 45 24 31 32 17 15 17 9 29 32 25 43 45 37 60 57 47 24 25 14
58 60 35 54 51 37 15 16 9 41 44 21 70 75 37 35 38 17 37 35 26
104 88 75 93 79 63 30 31 17 41 40 30 40 39 26 54 51 36 42 41 32
16 19 8 44 47 32 58 62 55 63 68 61 112 115 98 84 87 72 109 112 92
94 95 78 116 120 98 166 163 137 88 81 67 65 60 48 77 71 56 56 55 45
78 80 72 102 107 96 153 157 135 180 185 156 193 195 158 229 232 187
100 100 62 89 92 50 50 53 32 11 15 7 6 10 4 2 4 1 1 2 1 27 30 13
32 38 17 8 13 2 23 31 11 14 20 8 21 27 11 40 41 30 3 6 4 2 4 4 3 6 5
7 11 8 60 58 44 88 81 62 91 83 61 88 81 61 107 96 73 28 28 18
27 32 12 121 110 84 100 88 72 46 47 25 75 71 45 39 37 20 5 6 1
56 57 33 142 130 101 53 50 35 16 20 12 7 11 8 12 16 13 39 39 25
33 34 19 15 18 8 22 25 14 50 48 36 60 57 35 50 53 22 18 16 3 44 31 18
48 39 37 44 35 35 60 57 49 69 68 44 56 51 30 54 51 32 28 28 19
15 17 5 42 42 13 54 53 26 51 56 35 88 91 78 82 82 68 71 73 54
102 96 73 107 99 78 99 89 71 74 67 53 76 69 55 108 100 74 102 93 69
133 133 114 109 115 102 99 103 95 145 146 133 145 146 127 124 127 107
38 42 14 68 75 22 78 85 30 11 15 4 1 4 1 22 28 12 4 7 2 23 26 10
34 38 17 7 11 4 28 34 18 30 35 17 6 9 2 5 8 5 4 7 5 4 6 4 1 4 2
20 24 16 92 85 67 112 101 76 119 107 83 116 106 80 126 114 88
32 33 19 55 58 33 26 26 18 34 35 23 86 78 39 91 85 45 39 38 17
10 13 5 20 23 14 29 32 22 12 14 9 17 21 10 32 35 22 27 28 19 52 53 35
79 75 55 47 47 32 19 21 13 6 9 4 17 21 10 29 32 15 4 5 1 13 9 4
13 8 6 11 13 9 10 9 6 38 37 25 26 26 15 11 13 6 6 10 3 25 28 12
48 49 24 46 46 20 41 42 20 92 85 67 86 79 62 25 28 12 65 67 40
91 79 63 76 68 52 74 68 53 68 62 50 120 109 80 131 118 84 98 97 82
80 85 77 72 76 77 82 87 92 99 103 107 80 83 84 12 19 6 20 26 12
57 62 31 56 56 34 10 13 6 22 28 13 14 18 7 11 14 5 23 26 10 17 23 7
48 54 27 37 38 25 25 26 19 29 32 25 4 7 3 2 6 1 2 7 1 33 35 25
53 50 41 28 30 23 23 23 18 17 18 13 13 15 9 21 23 15 24 27 17
24 26 15 31 33 17 30 23 8 22 21 9 9 12 3 9 12 5 3 5 2 16 18 8
20 21 11 12 15 5 31 32 21 27 27 20 34 35 27 50 49 39 59 56 45
79 72 58 48 45 32 25 28 17 8 10 5 5 8 4 6 9 4 10 12 7 10 14 8 5 6 4
1 2 1 1 3 2 3 5 4 5 7 6 7 9 8 12 16 9 34 36 21 29 31 20 42 44 31
48 50 37 13 16 9 22 28 12 78 77 60 56 54 42 70 65 50 77 69 54
85 79 61 113 102 76 91 86 69 65 69 68 67 73 75 64 70 73 65 71 73
64 69 65 9 14 4 3 7 4 30 38 22 54 56 36 13 16 8 6 9 3 11 13 6 8 8 2
12 15 6 22 27 8 27 34 12 97 107 50 26 28 18 4 7 4 4 9 2 2 8 1 2 7 1
70 68 49 46 42 32 2 4 1 0 1 0 0 2 0 26 27 20 35 36 29 12 13 9 10 10 6
16 16 10 9 9 5 8 10 4 10 13 4 13 16 5 38 42 17 82 79 51 88 81 57
37 38 27 67 67 49 112 102 78 107 94 72 81 74 57 67 62 49 51 50 40
31 30 23 21 24 14 48 55 36 23 24 15 5 7 4 5 9 5 6 10 5 7 11 7 2 4 3
3 5 4 3 6 4 2 4 4 7 9 7 11 14 8 62 63 42 102 90 68 78 71 54 86 78 60
47 43 32 13 18 6 57 62 43 50 54 40 68 69 51 100 95 73 62 59 48
92 84 65 76 75 65 55 58 57 52 56 51 54 56 51 54 56 52 51 54 43 9 12 5
1 3 1 11 19 8 5 9 2 3 5 1 10 13 6 13 15 9 15 17 10 9 11 6 39 42 11
22 25 8 45 57 17 52 60 24 21 23 16 6 11 3 2 8 1 4 9 3 2 3 2 1 2 1
1 2 1 3 4 2 5 7 4 28 29 21 16 17 11 3 4 2 3 3 2 3 4 2 9 10 5 16 17 9
9 11 4 11 14 3 74 70 38 46 44 36 39 39 31 19 22 16 20 24 13 38 41 26
84 76 55 120 107 78 120 106 78 112 101 74 88 81 58 28 30 17 57 66 40
54 60 36 5 8 4 5 9 4 5 10 5 8 12 8 2 3 3 2 4 4 2 5 3 7 9 5 29 31 21
27 27 18 49 51 33 123 109 84 112 98 76 107 94 75 108 92 74 35 34 22
61 58 43 76 67 54 60 55 43 53 51 40 86 79 62 103 93 71 61 62 57
52 55 53 60 63 62 45 49 42 22 26 16 31 35 22 18 22 11 2 5 2 4 7 3
1 3 1 3 5 1 18 21 11 20 21 15 12 16 11 23 24 18 34 35 11 29 32 11
18 24 8 56 64 24 3 5 2 3 8 1 4 9 2 3 6 2 8 9 5 50 48 35 87 81 58
95 87 63 113 103 75 68 63 46 2 3 1 4 5 1 5 6 3 3 3 2 4 4 2 92 83 61
23 22 12 8 11 2 64 65 36 35 37 24 17 20 9 15 18 9 33 38 27 46 49 39
6 8 3 21 23 15 78 76 60 70 68 53 47 44 33 21 20 13 16 21 8 32 37 20
6 11 5 10 17 3 16 22 9 9 11 6 1 2 1 6 9 6 43 43 32 61 57 41 40 38 29
36 35 26 20 21 15 12 15 11 16 18 13 21 22 16 51 49 36 65 59 46
51 47 36 56 50 39 53 48 37 49 46 35 71 66 51 69 65 51 49 52 48
46 49 47 44 47 44 38 42 38 21 24 18 11 15 6 13 18 7 5 7 3 3 5 2 2 4 1
10 14 3 56 55 37 20 23 17 3 7 4 14 18 13 24 28 10 8 9 3 8 11 3
43 53 18 10 15 7 3 6 3 2 5 3 4 7 5 23 26 21 39 38 30 48 45 33
44 42 30 38 37 28 17 18 12 1 2 1 5 8 6 7 10 6 11 13 9 10 11 7
44 44 33 21 23 15 11 13 7 12 13 5 7 9 4 19 21 15 8 10 7 20 23 19
37 42 31 19 21 14 10 14 9 26 30 25 18 21 17 3 5 4 4 6 5 11 16 5
20 30 7 10 18 4 6 14 0 27 34 16 38 37 22 14 17 9 11 18 8 18 20 11
12 14 8 8 11 5 48 47 34 64 56 43 27 28 19 39 40 29 31 34 23 35 41 26
75 70 53 89 79 61 95 85 65 92 81 63 92 82 64 107 96 71 91 82 63
74 70 55 59 57 48 42 43 36 29 31 26 18 21 17 8 10 6 2 4 2 3 6 1 5 7 2
5 6 3 7 10 4 22 25 15 23 26 16 8 13 8 7 12 8 17 19 5 46 39 20 11 14 6
17 23 11 13 18 10 3 6 4 4 8 6 4 8 6 7 13 10 17 21 16 31 34 25
37 38 27 47 45 32 47 45 32 16 16 10 14 16 10 30 32 26 21 26 21
20 24 19 16 19 13 9 12 7 8 11 4 9 11 4 5 7 3 12 15 11 5 7 4 3 4 1
4 6 2 5 7 3 4 7 4 2 4 3 3 6 4 13 15 10 21 22 13 30 34 12 9 17 1
9 17 1 9 17 1 19 26 12 9 15 4 3 9 1 2 7 0 1 3 0 0 2 0 6 9 3 24 24 17
26 25 18 32 30 22 32 31 23 32 32 24 39 42 29 62 66 46 53 49 38
53 49 37 70 64 49 71 63 48 109 99 71 91 83 61 78 72 53 66 61 46
40 42 38 36 39 36 8 11 6 9 12 7 5 7 5 2 4 1 3 4 2 5 6 2 7 9 3 15 18 9
25 26 14 12 16 10 13 18 8 9 11 5 9 11 7 4 6 3 3 6 3 8 10 3 18 22 12
6 8 6 8 9 5 6 7 4 8 11 6 9 11 7 13 15 10 22 23 16 30 30 22 39 37 27
29 28 20 22 22 17 8 10 8 7 9 7 6 7 3 4 6 2 4 6 2 4 6 2 4 5 1 7 8 2
11 11 4 7 8 4 6 8 6 5 8 6 3 6 4 8 11 9 19 24 18 18 20 12 46 40 12
43 41 21 17 19 7 6 11 0 8 13 3 8 13 4 14 21 4 5 11 1 2 7 1 1 5 1
7 11 4 41 37 25 28 27 19 11 12 9 10 11 8 10 11 9 10 11 9 12 13 10
45 49 34 51 54 39 14 15 11 23 24 17 37 35 25 108 96 70 112 99 72
98 88 63 82 75 53 53 51 39 19 22 16 3 6 2 9 12 8 5 7 5 2 4 1 4 5 2
11 14 6 6 7 2 10 12 4 12 15 4 11 13 6 6 8 2 11 12 7 18 17 11 9 11 5
3 4 2 6 8 3 23 26 8 9 10 4 20 21 12 23 25 16 5 6 3 5 6 3 7 8 5
11 11 8 11 11 8 9 9 7 6 7 5 4 4 2 4 4 2 5 5 3 9 9 4 5 6 3 5 7 2 4 5 1
5 6 3 19 21 14 10 12 9 8 11 10 6 9 8 12 16 12 16 20 16 14 19 16
16 21 19 13 16 10 11 12 1 13 13 4 8 8 3 2 3 1 3 5 2 2 5 1 4 8 2 3 7 1
3 6 2 6 9 4 19 19 12 47 41 27 51 45 30 32 29 20 17 18 13 17 17 13
17 17 13 16 16 12 15 16 12 46 49 33 20 20 15 17 17 13 29 29 21
89 79 59 92 83 61 109 98 72 58 54 39 17 18 14 16 19 12 2 4 1 2 4 2
2 4 1 13 15 9 10 12 8 3 4 2 6 8 3 4 5 1 5 6 1 7 10 0 14 17 5 8 8 5
10 11 6 11 15 7 16 16 9 4 5 3 1 1 0 9 11 4 21 23 14 26 31 18 12 13 8
14 15 11 12 13 9 8 9 5 8 8 5 4 4 2 2 3 1 4 5 2 3 4 2 3 4 2 6 7 3
5 7 2 7 9 3 28 26 13 14 15 6 3 5 4 0 1 1 2 3 3 5 7 5 20 21 11 14 18 6
3 4 3 2 4 4 5 7 5 19 20 9 26 24 8 13 13 6 2 4 1 4 6 1 6 9 2 3 7 1
17 23 9 50 54 35 9 10 6 3 4 2 10 11 6 21 20 13 27 24 16 23 22 15
19 19 13 18 18 13 14 15 11 12 13 9 19 20 14 30 30 20 27 26 19
27 26 19 105 95 70 93 83 63 23 23 17 0 1 1 1 2 1 3 6 2 1 1 1 1 3 2
7 9 6 10 12 10 3 5 5 8 10 7 8 9 6 2 4 3 4 7 3 15 20 4 30 32 9 18 21 9
4 5 2 5 7 3 8 10 6 6 7 4 6 7 3 8 10 4 12 14 7 15 15 8 16 17 11
17 17 12 13 14 9 10 11 7 7 8 4 5 7 4 5 7 5 9 13 8 7 9 4 6 8 3 10 11 5
7 8 3 7 9 3 24 24 12 4 6 5 2 4 4 3 4 3 4 5 2 8 8 5 17 17 5 7 10 2
1 3 1 1 2 1 1 3 1 7 8 5 7 8 5 10 11 5 4 5 2 25 25 13 49 40 22
29 27 11 7 11 1 67 73 45 74 64 42 26 23 12 5 6 2 4 6 3 8 9 6 6 6 5
6 6 4 6 6 4 6 7 5 4 5 3 5 6 4 16 17 12 24 24 17 20 20 15 67 62 42
7 8 6 0 1 1 0 1 1 2 3 2 1 3 1 2 3 3 3 5 4 3 5 4 2 4 3 4 6 5 13 16 10
9 11 6 2 3 2 3 4 2 20 20 10 21 21 10 15 18 4 52 51 27 23 23 11
17 18 10 11 11 6 6 8 3 11 14 6 6 8 3 8 10 5 12 13 8 12 13 9 9 11 7
7 9 8 6 9 8 7 10 8 4 8 6 3 7 4 6 8 4 4 6 3 9 10 5 3 3 1 4 5 2 4 6 3
7 7 4 36 31 15 9 9 5 3 3 2 11 10 6 17 18 2 13 16 5 4 7 4 2 5 3 5 9 6
8 11 6 3 4 2 4 5 2 19 19 6 18 19 10 38 35 21 48 39 21 5 6 2 9 14 5
74 67 42 82 69 42 60 53 33 35 31 18 20 21 11 30 30 20 21 20 14
20 19 13 18 18 12 7 7 5 8 9 7 22 22 16 30 29 21 29 28 20 18 19 14
6 8 5 4 6 4 5 6 5 7 10 7 7 9 6 6 8 7 6 8 7 3 4 3 1 2 2 6 8 7 8 12 6
6 8 4 4 5 3 5 5 3 7 9 6 11 15 10 16 16 9 27 28 11 24 26 11 15 15 9
11 11 6 2 4 2 5 6 3 2 3 1 2 2 1 3 5 3 3 6 5 4 7 6 5 8 7 6 9 7 4 8 6
2 5 4 2 4 3 4 5 2 4 5 2 1 1 1 2 2 1 6 6 4 8 9 4 7 6 1 45 37 18
69 62 37 25 24 15 11 13 4 17 18 2 15 16 8 6 9 6 3 6 4 5 8 6 6 7 4
3 4 2 2 2 1 17 17 6 27 28 10 11 13 8 2 2 1 3 4 2 3 5 2 74 63 35
58 48 28 23 21 13 24 23 15 26 25 16 42 39 26 58 52 36 68 61 42
71 62 43 65 58 42 56 51 37 51 46 34 53 47 34 45 40 29 27 27 23
29 29 24 40 38 29 46 43 32 37 36 28 24 24 19 17 18 14 14 15 12
11 12 9 9 10 8 10 11 8 9 12 7 19 18 11 9 10 7 3 4 3 4 7 5 9 12 7
15 15 9 6 6 3 3 4 1 11 11 5 1 2 1 0 2 0 4 5 3 4 4 2 4 5 3 3 6 5 4 7 6
4 7 6 5 8 6 4 7 6 5 8 6 3 5 4 7 8 6 10 10 5 30 29 9 14 14 7 5 6 4
8 8 5 8 8 4 3 3 2 3 3 1 25 22 12 41 36 20 22 22 6 45 41 23 20 20 14
4 7 5 4 7 5 8 10 7 6 6 4 5 6 3 5 5 3 5 5 3 29 31 14 38 34 18 13 11 5
1 2 1 5 6 3 36 32 17 48 42 24 42 36 22 10 10 6 4 5 3 9 9 6 20 20 15
26 24 18 28 26 19 30 28 20 43 40 30 59 52 38 58 51 36 49 43 31
20 20 18 18 19 16 16 16 13 14 14 12 14 15 11 14 15 11 14 14 11
17 17 12 12 12 9 18 18 13 39 36 23 30 28 17 15 14 9 7 8 6 2 4 3 3 5 4
5 8 5 4 5 3 4 5 3 4 4 2 4 5 1 5 7 3 2 3 1 3 4 2 4 5 3 3 4 3 2 5 4
2 4 3 2 4 2 3 4 3 4 6 5 5 7 5 10 11 8 11 11 7 8 9 6 16 16 8 15 15 9
6 7 4 5 6 4 7 8 4 25 22 13 13 12 8 5 5 3 1 2 0 8 9 4 38 34 21
47 41 25 5 7 5 13 16 10 18 17 11 9 9 6 6 7 5 6 7 5 7 8 5 8 11 5
56 54 33 25 22 14 10 10 6 13 13 8 38 35 23 73 65 42 104 90 58
91 77 51 44 39 27 16 16 12 13 14 10 16 17 12 18 18 14 17 17 13
17 18 13 32 31 23 55 50 37 58 54 40 14 15 12 11 12 10 11 12 9 12 12 9
12 12 9 9 10 7 11 12 9 16 16 12 8 9 7 5 6 4 8 8 5 4 5 3 4 5 3 2 4 3
2 4 3 3 6 3 4 9 4 6 7 5 5 5 3 5 5 3 4 5 2 3 4 2 4 5 2 4 4 2 2 2 1
2 2 1 2 2 1 1 2 1 2 2 1 3 4 2 5 6 4 6 7 4 7 8 5 6 6 4 5 5 3 4 4 3
3 4 2 4 4 3 5 5 3 6 6 4 8 8 5 7 7 4 5 5 3 4 4 2 5 6 3 10 11 6
28 25 15 23 21 12 45 41 24 75 62 36 56 46 26 37 34 21 35 32 20
45 40 26 7 8 3 46 48 27 47 41 28 20 20 14 14 15 10 23 22 15 48 43 29
86 75 50 109 96 63 123 106 71 111 96 65 93 83 56 91 79 54 80 71 49
67 62 43 52 49 35 48 45 32 68 63 45 64 59 44 19 19 15 24 24 18
32 30 21 27 26 19 24 23 16 14 13 10 8 9 7 6 7 6 2 3 2 3 4 3 6 7 5
7 8 6 6 7 6 3 5 4 3 5 4 4 8 3 4 8 2 5 7 4 3 4 2 4 4 2 4 4 3 3 3 2
2 2 1 2 4 2 2 2 1 2 2 1 2 2 1 2 2 1 2 2 2 2 2 2 2 2 2 3 3 2 4 4 3
4 4 3 4 4 3 3 4 2 4 4 3 4 5 3 4 5 3 5 5 3 6 7 4 7 7 4 7 7 4 4 4 3
4 4 2 3 4 2 23 21 12 57 46 26 58 47 26 73 60 35 91 76 43 112 93 55
107 91 55 98 84 50 31 29 16 28 30 15 60 52 35 18 18 12 12 13 9
11 11 9 10 11 8 10 11 8 16 16 12 26 24 18 42 38 26 54 49 34 64 57 40
74 64 45 82 72 51 75 65 48 60 53 40 47 42 32 37 34 27 21 21 17
26 25 19 22 21 16 17 16 13 16 16 12 12 12 9 7 8 6 5 7 5 7 8 6 6 7 5
4 5 4 3 3 3 2 2 2 2 2 2 3 5 3 3 8 2 2 6 1 5 7 3 4 5 3 3 4 3 3 4 3
3 3 2 2 3 2 3 3 2 4 4 3 3 3 2 3 4 2 3 3 2 2 2 2 2 3 2 3 3 2 4 4 3
3 4 3 3 4 3 6 7 4 10 11 7 19 18 11 16 15 9 21 19 11 31 28 16 38 33 19
45 38 22 29 26 15 11 10 7 9 9 6 7 7 4 11 11 7 34 29 16 34 28 16
51 42 22 67 51 24 73 62 35 81 67 38 112 98 54 107 91 57 48 46 27
80 70 45 50 43 30 17 18 13 15 16 12 13 14 10 13 14 10 13 14 11
11 12 9 10 11 8 9 10 8 9 10 8 10 11 9 12 13 10 13 13 11 11 12 9
11 12 10 13 14 11 14 14 12 13 13 11 10 11 9 7 8 7 7 8 7 7 7 6 4 5 4
3 3 3 2 3 3 1 2 2 1 1 1 1 1 1 1 1 1 1 2 1 2 3 2 2 3 2 2 3 1 3 5 2
4 5 3 2 3 2 3 3 3 2 3 2 3 3 2 3 3 2 2 3 2 2 3 2 3 3 2 5 6 4 10 11 7
11 11 7 10 11 7 7 8 5 8 9 6 20 18 12 42 37 22 58 50 30 69 58 34
63 53 30 59 49 28 58 49 29 69 58 34 76 63 37 67 57 33 57 49 29
52 45 26 46 39 23 44 37 22 40 33 20 26 22 14 15 12 6 7 5 2 6 4 2
28 20 10 111 86 45 102 83 49 115 99 61 91 77 48 80 70 45 49 43 29
21 20 15 18 19 14 18 18 14 15 16 12 15 15 12 15 15 12 14 14 11
14 14 12 14 15 12 14 15 12 14 15 12 16 17 14 18 18 15 17 17 13
13 14 12 11 11 10 9 10 9 7 8 7 6 7 6 5 6 5 3 4 3 2 2 2 2 3 2 2 2 2
2 3 2 3 4 3 5 5 4 6 7 5 7 7 5 10 11 8 11 11 8 9 9 7 9 10 6 6 6 4
5 5 3 7 8 5 8 8 5 10 10 6 12 12 8 12 12 8 11 11 7 10 11 7 19 18 12
38 33 20 37 33 20 20 19 12 48 41 25 61 50 30 65 54 32 70 58 36
70 59 37 70 59 36 60 52 32 57 50 31 54 46 28 53 45 28 63 54 33
74 62 38 54 46 28 40 34 21 19 17 11 8 8 5 3 3 2 1 1 1 1 2 1 2 3 2
5 4 2 37 28 14 39 32 18 80 68 41 92 77 49 56 48 31 23 20 14 11 11 8
20 19 14 38 35 26 25 25 19 20 20 15 16 17 13 16 17 13 15 15 13
14 14 12 15 15 12 16 16 13 17 17 14 16 17 14 14 15 12 14 15 13
12 13 11 12 13 11 10 10 9 9 10 9 8 9 7 6 7 6 4 5 5 4 5 4 5 6 5 6 7 6
6 7 6 6 6 6 6 6 5 5 6 5 7 7 6 8 9 7 11 11 8 13 14 10 15 15 11
16 16 11 20 20 14 26 25 17 32 30 21 29 28 19 26 25 17 29 27 18
34 31 20 38 33 22 32 28 18 11 11 8 18 17 11 32 28 18 26 23 15
26 24 16 20 18 13 19 17 12 19 18 13 23 22 15 29 28 19 43 39 25
56 49 31 77 66 40 55 46 29 18 17 12 13 13 9 7 8 6 6 6 4 5 5 4 7 7 5
13 12 8 30 27 16 32 28 17 42 37 21 58 49 30 61 52 34 70 61 38
58 49 32 30 27 19 20 20 14 21 21 15 24 24 18 27 27 20 22 22 17
19 19 15 17 18 14 17 17 14 17 18 14 17 18 15 17 18 15 18 18 15
16 16 13 13 14 12 15 16 13 13 14 12 11 11 10 9 10 9 8 9 8 7 7 6 5 5 5
5 6 6 4 5 5 5 7 6 6 7 6 5 6 5 5 5 5 5 6 6 7 8 7 9 10 8 9 10 8 10 10 8
9 9 7 10 11 8 10 10 8 11 12 10 11 11 10 12 12 10 14 15 11 15 16 13
13 14 11 13 14 11 12 14 10 9 10 8 11 12 9 13 13 10 12 12 9 16 17 12
18 18 13 25 24 16 34 31 20 47 42 28 63 55 36 75 65 42 88 75 48
98 83 53 98 83 51 79 67 42 54 48 30 42 37 25 34 31 20 44 39 25
55 49 31 65 57 36 88 77 49 109 92 58 99 84 52 85 73 46 92 79 52
82 72 47 76 67 45 73 63 43 66 59 41 47 43 31 36 34 25 27 27 21
21 21 17 20 21 17 19 20 16 23 23 19 22 23 18 19 20 16 19 20 16
16 17 14 14 15 13 14 15 13 14 15 13 16 16 14 12 13 12 11 11 10
11 12 10 11 12 10 10 11 9 10 11 9 9 10 9 9 10 9 9 10 10 8 9 9 7 8 8
7 8 7 9 10 9 17 18 14 30 29 21 35 33 23 23 22 16 15 16 12 13 13 10
11 12 9 11 11 9 13 13 10 13 14 11 17 17 13 28 27 20 42 39 28 49 45 32
56 50 35 58 53 35 66 58 39 64 57 38 62 54 36 70 60 40 70 60 40
66 57 39 69 60 41 66 57 38 58 51 34 61 53 37 60 52 36 63 55 37
69 61 40 74 64 42 78 66 44 75 63 42 64 56 36 75 65 43 80 69 45
77 66 43 81 71 47 89 78 52 91 78 51 93 80 51 99 86 57 76 66 46
51 46 33 33 32 23 26 26 19 23 24 18 22 23 18 22 23 18 22 23 18
21 22 17 23 24 19 23 24 20 21 21 17 19 19 16 18 19 16 18 19 17
17 18 16 17 18 15 17 18 16 15 16 14 14 15 14 16 16 14 17 18 15
17 18 15 16 17 14 15 15 13 13 14 12 13 13 11 11 12 11 10 11 9
14 15 13 17 18 15 28 28 22 48 45 34 42 40 30 41 38 28 45 42 29
33 32 24 26 26 20 24 24 18 27 26 20 32 31 22 32 31 22 39 36 27
45 41 30 52 47 34 56 49 36 54 48 33 61 54 37 57 51 37 57 51 36
52 46 32 41 36 26 36 33 24 30 28 21 28 26 20 27 26 20 31 29 21
33 31 23 40 37 27 48 44 30 54 48 33 56 49 33 63 55 37 73 63 43
73 63 42 76 66 44 70 60 40 76 67 45 73 65 43 74 65 45 71 62 44
71 62 43 56 50 35 34 32 24 27 27 20 28 29 22 27 28 21 25 26 20
22 23 18 20 21 17 23 23 19 25 26 21 21 22 18 20 20 17 21 21 18
21 22 18 22 23 19 21 21 18 17 18 15 20 20 17 19 20 17
