P2
73 43
255
85 81 81 77 89 81 85 81 89 85 81 101 85 89 89 85 101 93 77 113 101 81
109 97 93 113 93 101 113 101 101 105 117 117 113 113 113 117 117 117
121 125 130 121 121 117 117 121 125 125 121 121 125 130 125 125 125
117 121 121 125 125 121 117 121 125 125 121 130 121 109 117 117 77 77
81 81 77 81 93 73 89 97 69 101 85 81 105 85 85 105 89 93 97 97 101
105 105 105 109 105 109 113 121 121 109 113 130 121 125 125 125 125
125 130 125 121 134 138 130 130 134 134 130 130 125 117 130 134 125
125 125 121 130 142 125 130 138 130 121 121 121 121 121 121 121 73 81
73 77 89 73 81 97 69 93 89 77 93 85 89 89 93 93 93 101 113 97 113 130
105 125 170 130 121 113 130 125 142 154 130 125 121 142 138 125 146
125 125 138 125 134 134 138 130 134 117 117 146 146 121 125 125 125
142 125 121 130 121 121 121 125 117 121 121 113 105 109 121 69 69 85
65 77 89 65 93 81 77 89 85 93 89 97 97 109 121 105 113 138 130 117
142 130 198 251 182 130 138 146 206 235 251 215 138 113 130 134 134
134 130 125 134 121 125 134 125 134 142 130 109 130 142 130 117 113
109 130 130 125 117 113 109 113 109 121 130 125 125 121 113 117 73 69
77 73 69 81 77 81 85 93 93 101 101 125 134 117 125 142 138 125 138
150 138 130 134 223 247 251 178 130 210 247 243 247 247 186 117 121
125 138 134 121 134 138 121 121 125 121 125 125 117 117 113 105 105
130 134 125 125 134 134 117 109 105 125 138 138 125 121 113 113 117
125 69 69 65 73 77 73 97 101 105 117 134 138 125 142 130 134 134 138
146 142 130 117 146 142 182 190 206 251 243 174 219 243 239 243 227
247 158 121 138 125 125 125 130 134 121 121 121 121 125 121 113 113
117 138 142 130 121 121 109 117 125 125 138 134 117 109 113 117 125
138 130 121 130 69 85 93 101 125 130 121 150 150 134 146 134 142 154
150 146 134 117 117 146 150 134 142 154 170 174 186 198 247 219 190
223 247 227 206 251 190 130 121 101 125 158 150 138 117 105 130 154
142 134 125 125 117 113 125 138 142 130 138 130 113 109 121 142 142
138 134 134 125 130 125 121 125 142 146 146 150 142 134 121 134 142
146 146 146 134 121 130 130 150 150 125 113 121 146 142 146 150 174
206 206 194 215 198 210 202 186 162 206 206 146 117 73 117 154 158
146 130 130 125 130 134 121 113 125 150 154 150 134 117 117 138 146
146 146 130 121 105 113 134 142 142 142 150 150 142 142 121 134 146
150 146 142 125 121 113 146 158 158 138 117 125 134 150 146 130 121
117 134 150 146 142 178 215 202 158 178 174 154 146 142 73 113 174
121 81 130 121 146 154 146 130 125 142 154 142 125 125 121 130 142
150 154 142 125 125 134 138 142 178 198 158 138 125 113 101 125 146
146 134 150 146 125 105 146 162 154 125 117 150 190 243 206 117 113
117 142 138 138 134 125 142 150 142 130 134 186 210 113 125 146 154
150 186 81 16 125 89 65 146 130 125 138 134 142 154 150 142 138 138
130 117 130 138 138 150 154 146 138 138 142 142 162 227 247 194 210
210 194 150 154 138 130 134 150 162 146 146 150 134 113 134 178 231
243 255 219 150 158 146 134 130 125 109 130 134 125 125 130 182 158
85 109 154 146 138 134 49 24 36 61 53 134 142 150 134 125 117 109 117
142 158 158 138 125 138 146 138 138 150 138 134 138 150 142 142 190
243 243 255 255 255 231 198 121 138 105 121 121 134 154 154 146 146
142 190 210 239 243 255 154 125 146 162 166 158 142 130 130 117 113
134 142 130 117 89 170 166 146 130 40 32 32 61 61 105 81 109 85 40 77
113 113 117 150 158 158 150 142 142 158 138 117 138 134 125 134 150
138 154 223 231 231 251 231 251 227 150 134 154 154 146 138 125 105
130 154 158 198 198 178 170 235 190 105 125 158 162 158 142 117 109
101 130 158 154 146 138 109 113 166 154 158 69 32 32 61 53 36 36 61
61 81 142 154 158 162 130 113 109 105 93 81 93 125 77 65 130 142 134
142 162 146 186 219 223 219 235 247 219 113 125 138 142 142 158 154
134 121 130 162 166 162 182 186 186 174 125 117 121 130 158 85 77 138
117 109 142 154 121 77 65 69 113 109 101 97 69 49 53 24 24 73 130 121
113 121 109 105 130 146 134 113 105 101 105 113 130 93 36 57 121 138
134 142 150 154 166 194 210 231 231 231 166 142 150 134 117 113 146
162 150 142 158 158 150 158 182 202 146 105 89 93 97 105 40 130 154
130 113 97 69 36 16 16 12 40 85 57 32 73 65 49 40 73 146 138 146 101
69 146 125 121 113 109 109 125 150 154 150 150 109 53 49 49 109 113
105 69 85 113 146 186 215 219 227 154 130 142 134 142 134 113 113 138
146 146 162 174 162 81 113 93 105 81 105 93 53 69 150 117 142 134 109
109 97 77 45 24 16 24 81 81 57 81 73 69 117 109 93 85 53 36 109 61
101 150 125 113 93 65 85 125 142 130 73 53 69 40 109 121 113 117 134
142 194 227 227 227 154 154 150 146 146 174 215 190 146 146 154 150
113 81 12 40 117 65 77 77 105 53 89 117 69 65 28 20 97 154 138 121
101 40 16 32 105 97 65 109 97 81 45 101 134 121 101 61 89 28 45 85 73
105 105 69 45 89 150 97 101 73 57 117 125 109 146 166 170 178 219 239
223 142 146 134 138 150 190 219 255 206 121 117 117 49 24 12 16 57 53
85 69 101 73 142 61 28 36 28 40 146 162 158 162 113 40 113 89 93 65
57 73 73 97 81 57 85 101 113 73 113 109 57 93 125 89 89 138 134 81 97
93 105 97 61 101 121 125 166 142 162 150 166 198 138 117 125 113 138
158 194 210 215 235 150 142 105 49 36 24 16 77 85 45 73 57 69 97 28
24 28 45 113 134 138 134 146 77 77 158 142 101 125 89 28 113 174 105
61 45 57 93 85 57 69 105 113 105 57 77 93 89 113 121 105 105 77 57 93
105 109 146 142 130 150 150 142 121 125 150 146 178 162 158 190 186
174 89 121 130 49 20 73 28 69 85 40 81 81 36 36 32 32 20 69 138 150
154 154 162 85 113 77 89 130 134 89 49 69 81 53 61 85 77 109 130 101
65 36 65 81 28 40 40 49 45 89 77 49 40 73 101 97 93 138 134 73 121
134 121 121 117 158 162 154 142 134 142 154 142 53 69 113 109 49 69
57 49 69 61 105 89 77 81 32 24 24 89 109 81 73 61 53 69 73 73 81 65
65 45 45 24 61 65 49 85 77 89 105 113 130 101 77 40 32 36 49 49 32 16
20 28 36 40 53 89 81 97 105 53 73 134 109 121 125 134 150 142 130 130
125 125 125 45 32 85 109 53 36 49 36 53 69 77 150 77 32 32 28 24 125
97 20 8 12 77 89 53 45 57 40 40 49 53 93 134 134 93 125 154 146 130
117 109 81 69 105 73 36 36 40 40 24 28 28 24 40 53 117 142 125 134 97
53 117 109 125 150 117 138 134 117 113 113 113 109 45 16 53 36 24 49
57 57 45 89 69 101 109 69 40 28 32 20 12 16 24 32 81 61 24 24 28 45
57 45 49 121 101 93 69 69 93 130 154 154 150 134 77 117 113 36 36 36
45 20 24 24 40 81 77 105 158 150 146 142 85 113 121 109 109 134 146
121 113 121 105 73 85 65 24 28 16 24 65 69 53 73 85 77 65 109 24 28
32 28 45 105 134 138 154 117 20 28 32 24 28 138 69 40 117 89 61 57 89
105 36 69 134 125 97 65 61 85 40 49 61 45 16 36 97 113 93 89 69 53 61
69 105 113 101 105 105 101 121 121 109 105 105 97 73 49 57 32 24 20
45 109 69 32 57 73 40 45 97 49 28 28 32 73 93 101 97 93 61 16 36 40
49 45 101 69 49 49 40 69 45 69 93 65 49 81 65 28 32 49 69 49 40 81 89
57 53 61 53 40 105 109 77 93 85 89 125 134 138 134 138 146 138 125
117 101 81 65 40 24 28 32 32 40 73 73 45 45 61 89 49 65 57 28 36 32
45 65 85 93 101 101 57 57 85 73 69 61 45 40 45 32 53 32 24 28 32 32
24 28 57 69 81 45 49 49 69 45 32 28 16 8 36 73 73 81 81 85 97 121 105
105 121 117 150 138 125 117 97 93 45 45 32 20 28 32 40 57 73 53 57 45
45 28 28 40 65 36 40 36 45 45 57 69 81 93 81 69 45 40 36 28 28 28 28
36 45 40 36 36 28 45 69 65 89 93 61 36 45 45 57 36 28 20 40 89 77 49
49 49 49 53 101 109 57 73 89 146 150 142 130 109 69 28 49 36 20 28 49
32 45 49 49 36 49 61 45 24 36 69 45 65 73 32 32 36 49 49 45 36 28 28
32 40 32 32 28 32 65 49 45 40 53 65 61 65 57 45 49 40 20 24 24 32 28
28 36 65 93 97 81 61 61 61 61 61 101 69 61 81 134 138 146 109 65 61
20 24 24 53 49 24 36 28 32 36 53 40 45 53 57 28 12 45 69 77 49 57 53
45 40 28 20 28 24 24 32 32 36 73 53 28 12 20 32 65 57 24 24 36 65 69
49 20 28 36 28 61 109 45 24 45 65 73 69 65 61 57 53 65 81 77 77 146
138 73 12 12 28 12 20 40 49 28 45 40 24 32 57 77 65 28 32 45 36 36 40
53 57 61 61 53 45 40 36 36 49 40 36 45 36 36 73 32 24 24 28 40 57 40
16 12 20 40 40 45 28 73 89 73 36 125 117 69 32 32 40 36 36 36 36 28
32 61 73 65 117 40 8 12 20 16 20 28 28 24 32 57 45 20 24 65 65 57 105
69 61 49 36 49 36 40 53 53 45 40 40 40 32 32 36 28 45 24 28 32 36 77
45 24 45 57 53 32 24 36 45 24 28 61 61 85 89 32 45 121 121 105 81 65
81 65 65 61 36 45 69 81 81 65 36 32 32 40 40 36 36 24 16 40 45 36 28
32 40 53 57 77 73 57 49 24 32 20 16 28 32 32 36 40 36 24 24 28 28 12
20 32 40 32 85 113 69 49 57 57 36 28 36 36 24 20 57 73 49 20 24 24
117 101 65 69 73 93 105 113 117 113 105 101 101 93 81 81 93 97 93 73
61 57 53 45 49 49 61 45 28 32 45 57 32 24 49 16 12 28 28 28 28 32 32
36 32 36 28 40 45 77 53 32 40 40 24 20 65 85 65 93 65 32 32 45 36 32
32 32 77 85 45 16 32 81 93 85 45 28 45 69 73 77 77 93 105 105 97 69
65 61 57 57 57 57 61 53 61 89 77 57 40 24 28 36 28 28 28 28 32 20 24
28 28 24 24 24 24 32 36 49 49 45 57 57 36 32 36 65 49 32 16 40 85 93
36 57 61 45 36 36 40 45 109 69 45 53 89 117 138 130 93 61 57 61 65 61
61 85 105 109 57 53 49 53 53 45 49 61 45 32 40 28 28 24 24 28 32 36
32 32 28 24 28 28 20 16 16 16 16 24 32 36 40 32 32 28 24 28 32 32 40
36 32 28 32 45 73 65 93 113 97 85 81 93 36 101 93 65 57 69 97 130 146
150 146 134 130 125 117 105 101 117 113 65 73 81 77 69 53 45 36 20 24
36 36 36 28 28 32 32 32 28 28 28 24 16 24 16 16 20 20 20 20 20 24 28
28 28 24 28 28 28 32 36 36 36 28 28 24 65 97 97 113 125 142 138 134
77 77 105 61 53 49 49 49 57 73 89 101 113 117 125 121 109 97 89 69 77
69 61 61 53 40 36 40 36 28 24 20 20 28 28 24 32 28 28 24 24 20 24 28
24 24 24 20 20 24 28 28 24 36 49 61 57 65 77 81 89 73 49 45 36 49 77
77 93 101 113 117 146 138 101 121 97 61 57 57 53 53 49 49 45 45 49 53
53 49 53 53 57 53 49 40 40 36 32 24 24 16 16 16 16 16 20 24 20 28 28
20 24 24 24 24 20 20 24 32 45 49 49 40 45 61 89 101 109 105 101 101
109 113 109 101 97 89 89 81 69 49 28 28 61 134 134 146 130 121 97 69
65 65 57 57 57 57 57 57 57 57 61 65 61 57 49 45 40 36 32 24 20 24 20
20 28 32 36 36 49 49 45 45 36 32 36 40 45 49 49 49 49 61 85 85 65 93
101 105 109 113 109 105 105 97 97 105 113 97 85 57 40 24 12 16 20 28
73 81 121 125 101 65 49 65 89 73 65 61 61 57 57 57 61 61 61 57 57 53
53 49 45 40 36 32 32 32 36 36 36 36 32 36 45 49 53 57 61 69 73 81 77
73 77 81 85 77 49 61 77 69 69 61 61 61 69 77 93 101 117 97 61 53 40
36 32 36 49 73 77 89 101 105 113 101 77 69 69 73 77 69 65 65 61 61 65
65 65 61 57 61 53 49 45 45 40 32 36 32 36 36 32 32 36 40 45 45 45 45
45 45 53 49 53 57 61 57 57 53 45 49 53 53 61 61 73 81 97 109 117 125
134 134 117 101 89 81 89 101 109 130 142 134 125 130 125 121 117 113
97 85 77 69 69 65 73 69 69 65 61 57 57 57 61 53 53 49 49 49 49 49 45
49 45 40 40 45 61 81 85 69 57 53 49 49 53 53 61 77 93 101 105 105 113
109 109 113 113 109 113 109 105 105 105 109 113 117 117 117 109 117
121 117 125 130 130 130 138 121 101 85 77 73 73 73 73 69 73 73 69 65
65 65 65 61 65 61 57 61 61 65 61 57 57 53 53 49 57 65 81 101 93 93 97
85 77 73 77 81 81 89 97 101 105 101 109 105 105 97 89 85 81 77 77 81
85 89 97 101 105 109 117 117 117 113 121 117 117 117 117 105 85 77 81
77 77 73 69 73 77 69 69 69 69 73 69 65 69 65
