P2
73 43
65535
22201 20989 21437 20161 23257 21557 22265 20901 23873 22709 21545
27017 22021 23085 23689 22045 26109 24093 20605 29489 26173 21773
28357 25641 24517 29589 24957 26725 29489 26257 26621 27421 30457
30749 29469 29193 29253 30617 30269 30997 31273 32393 33442 31429
31841 31173 31041 32013 32721 33278 31801 31409 32413 33646 33166
32541 32697 30785 31845 31777 32441 32441 32181 31165 31609 32673
32281 31345 33574 32153 28833 30189 30941 20301 20197 21373 21369
20089 20921 24149 19297 23129 25061 18405 26157 22441 21105 27269
22097 22529 27861 22901 24597 25353 25457 26077 27689 27125 27601
28297 27065 28577 29837 31509 31425 28969 29413 33638 32205 32293
33162 33190 32717 33190 33678 33154 31369 34578 35770 33690 33762
34654 34914 33546 34022 32409 30445 33734 34538 32353 32946 32990
31373 33318 37402 32733 33918 35806 33462 32009 31745 31833 31625
31521 31437 31361 19041 20961 19709 20629 23353 18945 21001 25249
17721 24553 22965 20273 24769 22169 23629 23697 24665 24961 24713
26917 29129 25697 29245 33774 27409 32830 44110 33938 32233 30101
34286 33242 37386 40246 34150 33130 31813 37278 36258 32986 38058
32573 32693 35974 32878 34394 34470 36370 34158 35314 31153 30437
37622 38078 31849 32641 32830 32413 36614 32653 31321 33502 31665
31957 31289 32593 31161 31913 31353 29641 27753 28121 32133 18529
18273 22737 17641 20613 23501 16797 24621 21813 19945 23249 22573
24005 23913 25369 25973 28121 31277 27397 29889 36154 33674 30393
36542 34054 50978 65467 47430 33714 36130 37742 54090 60415 65371
55279 35890 29653 33506 34974 34970 35094 33714 32249 34438 31549
33066 34514 33182 34786 36878 34070 28533 33310 36922 33290 31049
29477 28805 34046 33842 32705 31201 29545 28817 29361 28937 31929
33566 32677 32934 31325 30137 31205 19389 18065 19837 19681 18465
21797 20413 20897 21905 24897 24085 26697 26765 32297 35354 30601
32561 36770 36234 33138 35970 39434 36322 33374 34770 57499 63963
65143 46710 33926 54767 63899 63151 63791 63591 48874 30657 31801
32577 36218 34678 31453 34966 36302 31253 31613 33118 31297 32389
32697 30913 30677 30161 27569 28061 33522 34846 32513 32589 34390
34442 31169 28625 28065 32838 35466 35650 33226 31373 30129 29261
30177 33158 17945 18301 17529 19225 20293 19105 25577 26821 27405
30445 35326 36398 33038 37286 34050 34894 34994 35654 38006 36742
33794 30685 37846 37342 47454 48946 53282 64691 63003 44734 56187
63311 61931 62975 59087 64127 41310 31513 35594 33194 32681 33286
34130 34654 31817 31553 32081 31441 32253 32181 29801 29313 30793
35782 37198 33946 31537 31421 28553 30233 32737 33186 35534 34662
30701 28097 29465 30585 32882 35474 33386 31841 33918 18145 21945
24033 26373 32285 33782 31457 38630 39510 34934 38450 35350 36886
39726 39370 37930 35166 30921 31005 37870 39074 34382 37362 40318
44086 45578 48222 51782 64135 56247 49654 58119 63995 58943 53134
64911 49690 33398 31765 26349 32882 40594 38750 35690 31049 27445
34326 39582 36954 34390 32397 32281 30941 29377 32842 35522 36482
34194 35430 33958 29957 29113 31953 36902 36850 35674 35290 34522
33214 33730 32982 32013 32890 36430 37802 38290 38890 37134 35246
31429 34510 36946 37610 37942 37506 35226 32001 33822 33886 38602
38974 33258 30089 31537 38194 36734 38054 39398 45698 53766 53150
50218 55251 51794 54579 52166 48138 42442 54062 53394 38322 30973
19605 30813 40490 41266 37642 34074 33558 32469 33418 34810 31457
29241 32954 39026 40486 38546 34498 30393 30917 35758 38378 38386
37662 33738 31317 27629 29329 34586 36746 36882 37126 39526 39054
36682 36666 31281 34930 38326 39238 37734 37326 32557 32205 29885
37718 41234 41394 35790 30437 32269 34774 38998 37842 33354 31397
31137 35006 39082 37766 36978 46610 56131 52794 40706 46510 45698
39974 38402 36950 18993 30157 45302 31837 21077 33506 31329 37498
40514 37590 33902 32321 36622 40026 37086 33258 32441 32145 33378
36658 39374 39718 36606 32689 32693 34402 35694 37242 45850 51510
41434 36346 32982 29465 26693 32625 38342 38126 34510 38822 38310
33046 27933 37902 41958 39874 32293 31101 39398 49878 62455 53534
30481 29373 30925 36522 35510 35630 34562 33118 36930 38698 37334
34026 34774 48174 54494 29585 33166 38326 39538 39050 48390 20993
4808 32497 22889 17093 38310 33414 33046 36302 34942 36466 40526
38958 37118 36106 36070 34142 30429 33394 35734 36162 38638 40294
38330 35646 35434 36442 36666 42442 58627 63739 50198 54130 55107
50330 38858 39926 35986 33294 34550 38802 41662 38250 38342 39034
35338 29365 34390 46030 59879 62815 65535 56331 38898 40758 38154
35210 34062 32269 28417 34002 35330 32389 32249 34202 47542 41014
22769 28721 40470 37666 35974 35142 13305 6892 9632 16073 14377 34402
36666 38714 34654 32429 31077 28649 30477 37206 41218 40814 35922
33198 35862 38218 35726 35606 38598 36002 34522 36282 38914 36634
36678 49334 62527 62779 65535 65535 65535 60135 51054 31749 35718
27057 31377 31385 34934 40090 39558 38182 37938 37394 48926 54314
61991 62531 65535 40358 32850 38458 41642 42858 41594 36666 33886
33786 31029 29429 35358 37066 33386 30697 23425 44018 43326 38162
33782 10524 9020 9300 15821 15785 27409 21461 28321 22045 11121 20465
29905 29365 31105 38578 40694 40634 38854 37278 36606 41402 36090
30521 36322 34566 32982 35026 39154 35498 40262 57299 59531 59875
64799 59391 64635 58847 38830 34986 39978 40206 37462 35506 32938
27957 34114 40210 41110 51242 51766 46274 43802 60535 49862 27225
33194 40750 41914 41206 36458 30341 28805 26645 33498 40802 40526
38470 35658 28737 30065 42894 40270 40618 18221 8880 8684 16089 14317
9700 9944 16333 16329 21757 36642 40318 40966 41630 33722 29273 28517
27273 24357 21765 24649 32838 20169 16765 33378 37166 34510 37402
41710 37710 48786 56755 57819 57043 60627 64027 56391 29893 32501
36186 37334 37246 41034 40406 34862 31965 34082 42186 42974 42050
47410 48166 47882 45446 32549 30869 31613 34186 41010 21845 20337
36110 30625 29005 37394 40370 31945 20161 16985 18077 29353 28237
26217 25933 17725 13501 14533 6268 6476 18989 33322 31617 29429 31509
28249 27841 33834 38026 34898 29709 27141 26321 27729 29793 33826
24129 9820 14745 31781 35462 34454 36886 38822 40242 43150 50338
54763 59835 59967 60127 42694 36450 39066 34754 30333 30085 37778
42326 39482 37038 41350 41450 38766 41366 47098 52162 37922 27793
23857 24673 25693 28037 10424 34082 40562 33534 29797 25517 17949
9648 4488 4208 3576 11013 22829 15525 8428 19397 17305 13121 10616
19577 38102 36194 38206 27017 18041 38202 32613 31665 29333 28845
28681 32401 39074 40450 38562 38542 28169 13969 12853 12689 28197
30113 27605 18021 21941 29441 37802 48706 55727 56231 58507 40038
33654 36890 35218 37250 34678 29361 29265 35958 37766 38258 41978
45410 42454 21613 29385 24817 27617 21569 27753 24749 14521 18453
39398 31105 36742 34678 28797 28661 25885 19957 11693 6912 4800 7236
21473 21341 15285 20929 19005 18433 30445 28593 23993 22489 13653
10400 28525 15933 26389 39430 33186 29161 23957 17301 22785 33138
36458 34326 18769 13689 17857 10588 28177 31613 29245 30529 34550
37242 50810 58471 59103 59175 39778 40146 38566 37898 37490 45246
55323 49594 38238 37570 39838 38886 29745 21365 3396 10424 30269
16697 19877 20417 27209 14273 22985 30601 18197 17189 7484 5476 25013
40226 36086 32197 26761 11433 4716 9056 27161 25013 16965 28349 25673
21573 11449 26173 35190 31881 26329 16613 23661 7408 11921 21941
19157 27057 27309 18701 12333 23605 38926 25709 26185 19081 14889
30917 32617 28977 37878 43602 43766 45978 56179 61647 57807 37006
38186 35114 35530 39374 49450 56743 65535 53050 31729 30377 30285
13441 6372 4084 4332 15173 14005 22021 17825 26505 19597 37086 15729
7492 10124 7900 11393 37502 42618 41114 42270 29641 11001 29305 23053
24141 17609 15069 19225 19525 25753 21545 15081 21897 26417 29873
19121 29945 28105 14849 24933 32565 22937 23149 36398 34434 21365
25021 24269 28005 25341 15717 26309 31217 32661 42714 37046 42134
38914 43498 51210 35466 30229 33230 29397 35858 41110 50134 54302
55735 60631 39102 36706 27901 13401 10324 6372 4380 20261 22509 11529
19317 15365 18457 25053 7964 7060 8312 11557 30109 35126 35470 35098
38294 20677 20393 41078 36778 26465 32818 23245 8196 29241 44938
27849 16245 11525 14609 24497 22441 15177 18649 27425 29337 27121
14681 20689 24477 23065 29953 32125 27509 27569 20773 14693 24401
27821 28469 37882 36442 33486 38538 39230 36974 32149 32717 39042
37562 46298 42606 40650 48910 48642 44850 23521 31557 33946 12821
5584 18861 8304 18569 22837 10692 21341 21637 9772 9792 9132 8372
5432 18229 36238 39242 40450 40278 41750 22253 29189 20017 22913
33530 35230 23701 12733 18017 21593 13957 16505 22637 20409 28293
33946 26829 17493 10168 16761 21081 7600 11089 10812 13405 11625
23737 19897 12961 10460 19349 26841 25825 24717 36206 34906 19381
31705 34530 32085 32157 30981 40674 42274 39606 36698 34822 36610
40502 36754 14241 18065 29581 29105 13021 18717 14929 12949 18541
16409 27377 23849 19977 21789 8436 6620 7224 22969 28133 21197 19041
16513 14505 18169 19633 19453 21701 17385 17565 11781 12373 6932
15613 17441 13409 21913 20521 23357 27697 29673 33462 26217 19765
11441 9280 9980 12873 13145 8872 4460 5320 7620 9580 11205 14269
22949 21241 25749 27629 14385 18785 34986 28989 31673 32477 34858
39386 36658 33342 33642 32962 33278 32914 12265 8412 22253 29025
14317 10280 13133 10296 13869 18381 20629 38586 20189 8756 9304 7884
7272 32557 25489 5708 2288 3504 20369 23853 13757 12161 15373 11357
11197 12565 14029 23953 34634 35066 24069 32489 39618 37826 33610
30769 28161 21821 18261 27897 18757 9548 10072 10620 11365 6568 7984
8136 6884 11105 13657 31133 36878 33078 34530 25589 14545 30369 28465
32846 38498 30625 35994 34694 30581 29601 29865 30077 28769 12285
5172 14465 9776 6784 12581 14613 15433 12041 23585 18109 26417 28309
18469 10412 7720 9012 6064 3764 4284 6768 9192 21049 15629 6924 6532
7336 11685 15377 11945 12621 32181 26345 24881 17889 17833 24529
33854 40178 39818 39178 35230 20721 30273 29409 9512 9932 10312 12117
6036 6592 6728 10736 21413 20345 27717 40662 38526 38002 37314 22549
29905 31993 29037 28237 34874 37766 31685 29677 31829 27345 18889
22145 16953 6952 8316 4892 6848 16901 17801 14429 19145 22081 20657
16949 29085 7116 8204 8924 7892 11465 27377 35026 36370 39542 31105
5436 7440 8868 6864 7516 35434 18069 11125 31121 23381 16321 15381
23289 27385 9588 18425 34442 32549 25957 17453 16113 22537 10913
12981 16285 11785 4528 10148 25817 29353 24201 23477 17877 14301
16313 18181 27437 29841 27017 27637 27109 26577 31873 31717 28557
27993 27301 25365 18781 13141 14613 8896 7056 6112 12429 28977 18221
8328 15397 19093 10516 11533 25725 13185 7556 7420 8748 19633 24405
26305 25445 23941 16485 4512 9872 11221 13485 12481 26441 18265 13113
13213 10656 17733 11641 18441 24649 17449 13317 21097 17409 7444 8556
13425 18233 13293 10708 20985 23665 14997 14221 16637 13757 11313
27105 29121 20525 24877 22317 23821 32966 34498 35842 35146 35378
38010 35438 32986 30237 26185 21841 17517 11429 6400 7608 8840 8616
10981 18745 19337 12357 11817 15705 23477 13125 16781 14921 7984 9536
9120 12325 17165 22505 24205 26373 26133 15541 14985 22225 19237
18505 16265 12433 11265 11973 9180 14149 9212 6692 8096 8648 8708
6668 7852 14645 17993 21177 12389 12705 12749 17837 12341 8728 7368
4784 3048 10044 19029 19629 21385 21769 22237 25045 31453 27505 27369
31237 30821 38658 35530 33130 30597 25769 24713 11473 12425 9212 6012
7296 8692 10508 15489 19501 14301 14797 12009 12249 8192 7888 11037
17141 10332 10953 9532 11657 12457 14645 18713 21721 23957 20913
18589 11581 11165 9652 8168 8084 8316 8072 10188 12205 10644 10056
10128 7892 12029 17933 16777 23273 24373 15765 10144 11449 11973
15189 10096 7448 6208 11069 23601 20093 13381 12949 12977 12925 13817
27009 28589 14929 19025 22909 38006 38502 36446 33742 28129 17917
7780 12593 9716 6184 7624 13133 9340 12369 13453 13029 9508 13153
15989 12053 7092 9768 18353 11849 17501 19033 9044 8764 10288 13157
13089 11829 9848 7324 7556 8604 11389 8748 8652 7756 8984 17513 13053
12381 10824 14509 16797 15981 17177 14721 12289 13269 10900 5472 6948
6488 8588 7464 7352 10116 16721 24441 25617 21049 16501 16153 16229
15637 15669 26985 17881 16217 21297 34426 35458 38438 28513 16653
16209 5492 6372 6352 14417 12781 6756 9644 7436 8352 10232 14505
10848 12169 13577 15265 7984 3184 11837 18301 20549 13517 14965 13837
11485 10808 7804 5884 7800 6820 6780 9228 9012 10304 19345 14477 7624
3600 6220 9320 17509 14777 7240 7136 9400 16873 18213 13313 6164 7908
9912 7824 16485 28261 11889 6760 12165 17265 19053 18253 17065 16605
14949 13957 17477 21361 20169 20149 37986 35538 18909 3368 4156 7648
3604 5396 11037 12981 8220 11721 11197 6740 8520 15145 20661 16673
7988 9168 11613 9736 9624 11233 13801 14817 15937 16129 14105 12349
10480 9400 9596 12913 10428 10100 12025 10320 10200 18817 8988 6408
6912 7588 10913 15237 10628 4660 3844 5612 10548 10680 12169 8076
19169 23825 19465 10296 32401 30901 18109 8884 8576 11185 9720 9424
9368 9648 8160 9084 15877 19121 17537 30425 10404 2520 3588 5908 5184
5916 7704 8132 7168 8576 14629 11981 6212 6956 17409 17285 14993
27677 18289 16065 12609 9728 13153 9520 11233 13661 13645 12073 11269
11073 11177 9324 8552 9744 8156 11813 6384 7804 8580 10072 20725
11593 6384 12317 14981 13901 8764 6896 10136 11829 6464 7648 16221
16377 22769 23381 8492 12469 31625 31477 27693 21385 17409 21257
17521 17033 16373 10284 11569 18417 21117 20825 16937 9828 8656 8972
11241 10772 10132 10348 7000 4428 10608 11837 9856 8272 8468 10892
13961 15497 19781 18865 15097 12877 6468 8680 6144 5116 7916 8340
9148 10244 10808 9532 7160 6604 7692 7688 3692 5464 9264 10888 8680
22681 29909 18689 12865 15277 15009 10276 7992 9932 9968 7048 5564
15469 19709 13377 5852 7028 7164 30189 26197 17489 18589 19233 24197
27905 30061 30501 29393 27761 26485 26509 24381 20917 21469 24405
25785 23937 19569 16393 15041 13669 12073 12717 12521 16457 12093
7356 9084 12417 14893 9240 7068 12629 4684 3572 7928 7704 7780 8204
8936 9140 9668 9264 9576 7748 10524 12249 20041 14161 9244 10784
10684 6716 6032 17673 22849 17633 24333 17565 8784 8652 11577 9528
8996 8848 8436 20789 22317 12073 4384 8892 21373 24509 22669 12065
7772 11701 17713 19365 19973 20549 24613 27737 27501 25493 17985
17165 15949 14853 14937 14961 14665 16133 13593 16461 23245 20213
14753 10712 6424 7908 9524 7912 7980 7440 7340 9320 5356 6836 8252
7336 7048 6920 6472 7248 8632 9536 12913 13029 11521 15189 15013 9984
9180 10332 17625 13397 8836 4204 11037 22325 24377 9392 14565 15977
11865 10168 9964 10468 11473 28573 17817 12029 14229 22957 30809
36326 33674 24201 15677 14609 15941 16845 16281 16313 21957 27581
28553 14985 13625 13289 13545 13709 12229 13493 15625 11461 9292
11005 8220 7780 6480 6792 8036 9348 10084 8888 8380 7828 6816 7624
7376 5440 5104 5020 4472 5004 6956 9120 9508 10592 9300 8876 7584
6804 7552 8468 9296 10636 10068 8584 7580 9016 12389 19093 17509
24297 29741 25613 22309 21841 24289 10052 26537 24577 17341 14917
18337 25253 33378 37558 39394 37674 35014 34250 32345 30425 27229
26273 30785 30037 17217 19285 21241 19929 18565 14293 11525 10192
6208 6880 9888 10384 10224 7476 7552 8780 8640 9352 7296 7680 7740
6788 4972 6352 5072 5044 5356 5300 5200 5364 5968 6360 7452 7560 7520
7276 7832 8268 8144 8736 9680 10224 10156 7856 7704 6756 17329 25469
25745 29201 32882 36570 36110 34942 20589 20621 27577 16293 13873
13181 12553 12717 15565 19309 23813 27037 29293 30933 32701 31277
28461 25149 23021 18237 19797 18113 15893 15849 13741 10444 9624
10512 9788 8156 6792 5848 5928 7776 8256 6864 8936 7868 7484 7204
6712 6052 6700 7516 6636 6828 6624 5868 5976 6452 7456 7308 7244 9824
12669 16077 14761 16773 20005 21841 23385 19209 12525 11785 10084
13033 20341 19953 24317 26253 29717 30757 37562 36286 26185 31913
25377 16337 15353 14577 14369 14561 13473 12569 12381 12285 12965
13929 14233 13513 13609 14365 14837 14445 12817 11141 10608 10392
8432 6732 6260 4976 4520 4228 4168 4684 5988 6356 5680 7556 7984 6176
6800 6376 6596 6856 5988 6132 6712 8892 12397 12669 12609 10440 11453
16437 23117 26933 28829 27429 26429 26549 28801 30085 28489 26661
25269 23513 22969 21793 17873 13261 8228 7620 16617 34498 34406 37802
33574 32013 25257 17741 16965 16745 15433 15153 15193 14789 14937
15141 15089 15029 16089 16985 16161 14605 13129 12225 11009 10000
9028 6928 5784 6268 5564 6180 7644 8980 9708 10308 12833 13145 11953
11901 9668 8464 10392 10840 12077 13385 13485 12893 12629 16469 22073
21909 16693 24341 26929 27789 28997 29317 29121 27233 27129 25677
25481 28045 29957 25665 22049 15569 10997 6528 3864 4752 6052 7432
19373 21049 31313 33286 26257 17341 13273 17193 23005 19669 17637
16053 15877 15437 14985 15433 15685 16277 16161 15245 15029 14121
14149 12721 12257 11409 9956 8544 8516 9344 10224 9856 9780 9464 9232
10368 11633 12921 14393 15065 15617 17709 19513 21321 20469 19513
20165 21225 22125 20201 13265 15933 20097 18293 18705 16549 16189
16585 18317 20441 24009 26889 30897 25713 16069 14145 10688 9444 8964
10292 13065 19745 20205 22973 26521 27597 29805 26713 20213 17709
17961 19365 20461 18581 17321 16665 16321 16609 16653 16697 16853
15797 14757 15717 14433 13149 12313 11449 10424 8880 9560 8808 9792
10080 9180 8972 9512 10712 12321 12365 12441 11961 12461 12445 13525
13353 13637 14817 15765 14701 14605 14181 12121 13317 14097 13753
15957 16565 18953 21541 25013 28593 30973 33014 34722 34598 31093
26453 23409 21309 23909 26697 28733 33526 36686 34774 32681 33974
32437 31281 30661 29653 25505 22841 20473 18321 18029 17645 19037
18697 17705 17645 16349 15413 15409 15253 16033 14293 13529 13413
13297 12705 12541 12657 12405 12589 12005 11049 11205 12389 16553
21181 22293 18649 15577 14157 13429 13113 14081 14445 16381 20561
24345 26201 27485 27933 29257 28877 28253 29765 29597 28761 29685
28801 27449 28069 27773 28533 29741 30549 30981 30381 28637 30825
31829 31185 32425 33906 33762 34122 35498 31233 26493 22033 20137
19033 18769 18949 18897 18393 19261 19297 18201 17313 17025 17249
16777 16589 16757 15677 15357 16153 16593 16713 16065 15557 14933
14341 13577 12701 15269 16725 21057 26377 24745 24289 25445 22389
20069 19405 20149 21681 21661 23661 25025 26653 27289 26677 28349
27561 27577 25929 23165 22445 20877 20145 20189 21205 21865 23817
25801 26821 27069 28601 30597 30521 31105 29649 31457 30997 31173
30549 30517 27613 22437 20521 21137 20649 20085 18909 18021 19057
20025 18693 18005 18345 18509 18793 18429 16841 17833 17581
