P3
73 43
255
88 88 71 82 83 69 84 85 70 79 80 68 92 92 77 84 86 70 88 88 72
83 82 69 96 94 75 91 89 74 84 85 72 109 106 83 87 87 72 92 90 77
94 93 77 87 87 73 105 103 83 96 95 77 80 81 71 121 115 92 106 103 84
84 86 74 116 111 89 104 100 83 98 96 81 122 115 92 99 98 84
107 105 87 122 115 93 106 103 85 107 104 87 111 107 88 126 118 96
128 119 98 121 114 94 118 114 95 118 115 94 125 119 97 124 118 96
127 121 99 129 121 99 134 126 102 140 129 104 130 122 99 132 123 100
130 120 99 128 120 98 134 124 100 137 127 101 141 128 104 132 123 100
130 122 99 136 125 102 142 130 104 140 128 104 137 125 102
137 126 101 127 119 98 133 123 101 132 123 101 135 126 102
135 126 101 135 124 102 129 121 100 131 122 100 137 126 102
136 124 101 130 122 99 140 130 106 136 123 102 117 112 94 124 118 94
129 120 97 78 81 68 78 80 69 84 84 71 83 85 70 78 79 70 82 83 71
96 95 77 74 76 68 92 91 77 100 99 80 70 73 64 105 103 82 88 89 74
82 84 72 109 108 86 86 87 76 89 88 76 113 110 87 91 90 77 98 97 81
102 99 83 102 100 84 104 103 84 112 108 89 109 106 89 111 108 89
117 110 90 108 106 89 115 112 94 121 117 95 130 122 100 130 122 100
120 112 92 121 114 94 140 130 107 132 125 103 132 126 101 137 129 105
138 129 105 135 127 103 139 128 104 141 130 106 139 128 104
130 122 99 146 133 107 152 138 110 141 130 105 142 130 105
146 134 107 148 134 108 141 129 104 143 131 105 136 125 102
126 118 99 142 130 104 147 133 106 136 125 102 139 127 104
138 127 104 130 122 100 138 129 105 159 144 113 137 126 103
141 131 108 153 137 109 141 129 104 133 124 102 132 123 100
134 123 100 133 122 99 131 122 100 130 122 100 130 121 100 74 75 65
82 83 71 76 78 68 80 82 69 91 93 76 73 75 66 82 83 70 100 100 81
68 69 65 98 97 79 91 91 75 79 80 69 98 98 79 86 88 74 94 93 78
94 94 78 99 97 79 100 98 81 99 97 82 107 106 87 119 114 92 103 100 86
119 114 94 141 131 103 110 107 89 132 129 107 177 173 147 143 131 106
134 125 101 121 118 98 142 133 108 141 128 100 154 145 121
164 157 132 144 132 103 138 128 103 130 124 101 157 144 113
155 139 110 139 127 103 164 146 113 136 126 101 136 127 103
152 139 109 137 127 103 145 132 107 145 133 106 154 140 112
143 132 106 151 135 108 129 121 98 125 118 99 160 145 115 165 146 113
134 123 101 138 126 101 137 127 102 135 125 102 157 140 111
137 126 102 130 121 100 141 129 104 132 122 99 133 124 100 130 121 99
136 126 103 129 121 98 134 123 99 132 121 98 122 115 94 113 108 91
114 109 92 133 125 101 72 73 63 71 72 63 89 91 73 67 69 64 80 82 70
92 94 75 64 66 60 98 97 80 85 86 74 78 78 69 92 92 77 88 90 75
96 94 80 95 94 78 101 100 82 103 102 86 114 110 91 129 122 98
108 108 90 120 118 96 150 141 108 139 132 103 123 119 98 153 142 111
143 132 104 201 201 174 254 255 236 188 186 163 141 131 104
153 140 109 157 147 116 215 213 184 237 238 208 255 255 241
221 216 190 154 138 108 122 115 95 139 130 104 147 135 107
149 134 106 149 135 106 143 130 104 136 124 101 145 133 106
130 123 100 139 127 103 146 133 106 139 128 103 146 134 108
158 142 110 143 132 105 116 111 92 138 130 102 158 142 111
141 128 102 130 120 98 122 114 94 117 112 92 143 132 104 143 130 105
138 126 102 131 120 98 123 114 94 119 112 91 122 113 93 119 112 92
131 124 102 141 129 105 137 126 101 139 127 102 131 121 99 125 116 96
131 120 99 75 77 66 70 71 64 77 78 68 76 77 70 71 73 66 85 86 73
79 81 71 80 83 72 86 86 74 99 98 82 95 95 82 107 105 88 106 106 88
132 126 103 147 138 108 124 119 99 133 127 104 154 143 112
151 141 108 136 130 103 149 140 111 167 153 117 152 141 110
139 130 102 143 136 108 224 228 198 249 252 227 253 254 240
187 183 158 143 131 102 217 216 184 249 252 227 249 249 219
252 252 216 247 251 224 199 190 163 129 118 93 131 124 100
135 126 103 155 139 109 147 134 106 130 122 101 148 134 109
156 139 109 129 121 98 132 122 99 138 128 102 131 121 99 136 125 101
137 127 101 128 120 97 128 119 96 126 116 95 112 107 90 115 109 91
141 129 104 148 134 107 137 125 103 136 126 103 144 133 107
146 133 106 131 120 99 118 111 94 113 110 92 136 127 103 150 137 108
152 137 109 140 128 103 131 121 99 124 117 97 120 114 94 124 117 96
140 128 103 68 71 63 70 72 66 66 69 66 74 76 69 77 80 72 73 75 70
100 101 85 107 105 88 110 107 92 122 119 100 147 137 109 152 141 113
135 129 104 155 145 113 140 133 106 144 136 110 146 136 106
149 138 109 161 147 112 154 143 111 139 132 105 125 120 99
159 147 114 157 145 111 187 187 165 188 195 170 206 212 184
252 253 235 246 246 231 175 177 153 218 223 196 248 249 222
242 244 218 248 248 216 231 234 202 250 251 235 172 159 133
131 122 97 150 137 110 139 128 103 136 127 100 139 129 102
143 132 105 147 134 105 134 123 99 132 122 99 134 124 99 131 122 98
135 125 99 136 124 99 124 115 95 119 114 95 125 120 98 151 138 110
158 143 112 145 130 103 132 122 101 129 122 100 115 111 94 123 118 97
136 127 103 139 128 103 150 137 109 147 134 105 129 118 97 114 110 91
120 115 95 126 119 97 137 127 103 151 136 109 141 128 104 132 123 101
143 131 105 70 71 65 85 87 74 95 95 81 105 103 88 133 126 102
140 131 106 127 124 101 163 150 117 167 153 116 145 136 109
161 150 115 147 138 109 155 143 113 168 154 118 167 153 115
159 148 112 146 137 108 125 121 99 125 121 100 158 148 113
165 152 114 143 134 107 158 145 111 167 157 125 165 175 165
174 181 164 186 191 168 201 206 174 250 251 227 219 222 197
192 197 169 227 231 193 252 252 222 234 234 192 206 211 181
253 255 229 202 194 164 143 129 98 131 124 97 104 104 85 136 128 103
173 157 117 167 149 112 152 137 108 128 121 98 108 108 91 143 133 107
171 152 117 157 143 111 145 133 104 136 125 101 133 126 100
127 121 96 120 115 93 136 128 103 150 137 108 155 140 112 144 132 106
149 137 109 143 131 104 124 116 97 119 114 94 132 124 101 157 142 113
158 141 114 152 137 110 150 136 107 146 133 106 141 128 102
142 130 103 138 128 103 134 123 101 138 127 102 153 141 111
158 147 115 161 149 114 164 151 116 155 145 110 147 137 108
128 123 101 143 135 105 155 144 110 159 146 113 160 147 113
158 146 112 148 136 108 131 125 101 138 132 106 139 133 104
162 150 114 164 152 114 137 130 103 122 118 97 129 123 100
161 148 115 155 143 108 150 151 124 147 158 144 175 181 162
209 213 187 207 211 179 196 201 164 215 220 186 200 207 174
214 218 173 212 209 145 188 192 155 163 170 140 210 216 176
220 209 166 168 146 112 127 123 88 69 85 47 124 121 100 173 157 117
179 158 119 162 144 112 144 131 105 140 130 104 135 126 102
140 130 102 147 135 104 132 122 98 119 114 94 136 128 104 166 150 118
174 157 115 166 148 112 147 132 106 126 117 98 127 120 98 151 138 108
165 147 115 164 148 114 161 145 113 143 130 103 132 121 94 115 107 86
119 115 93 145 134 108 157 141 112 157 142 112 156 144 114
170 151 118 168 150 117 157 140 113 155 142 109 132 122 92
146 136 105 162 148 115 165 153 114 157 148 110 157 145 110
133 128 100 132 126 101 119 118 96 158 147 113 175 161 117
174 162 120 150 139 107 123 119 97 133 126 100 143 136 106
165 152 113 160 147 112 138 130 103 128 123 98 128 122 97 140 138 113
145 157 142 142 150 139 138 148 134 180 185 162 219 222 191
208 210 171 157 166 117 180 187 151 178 184 142 155 161 123
148 155 122 143 150 111 68 82 43 119 122 82 189 179 126 122 135 67
79 90 46 140 129 107 126 123 99 159 145 113 174 157 116 161 145 111
143 131 104 134 125 102 155 142 109 174 154 114 160 142 112
141 127 103 136 125 103 135 124 102 140 129 102 155 142 110
169 152 116 172 153 114 157 140 110 138 126 102 137 127 102
145 133 106 151 138 109 159 143 113 186 180 147 211 201 168
175 160 127 157 139 108 141 126 101 124 114 91 110 104 84 137 126 102
164 148 114 164 146 115 146 134 104 166 151 109 163 148 113
137 129 102 111 110 91 159 148 112 179 163 118 169 155 116
132 126 101 124 123 100 168 153 112 203 196 158 244 245 215
211 211 182 123 120 95 119 115 94 125 121 99 154 142 108 148 139 107
147 139 108 143 135 105 137 129 101 143 147 126 142 156 140
138 150 136 127 137 120 132 140 118 187 192 160 214 219 167
115 129 39 128 142 62 146 159 101 151 162 114 150 159 118 189 195 144
76 92 42 8 28 0 126 135 81 80 103 37 59 77 30 164 147 117 139 130 104
138 128 102 155 140 108 147 135 108 155 140 114 174 155 121
168 150 115 159 143 111 154 138 110 154 138 110 145 131 106
126 118 97 140 129 105 153 137 109 153 140 110 165 149 114
173 156 116 165 147 114 153 136 109 151 136 109 156 140 111
156 141 113 162 169 148 227 232 206 251 249 226 205 196 164
215 213 182 220 215 189 202 196 173 161 150 127 166 155 126
155 137 109 137 130 105 142 135 107 164 150 116 177 162 120
161 149 111 162 149 113 166 152 113 147 138 107 116 116 96
144 133 105 186 181 150 233 237 208 246 248 215 255 255 247
223 220 203 164 151 113 174 158 117 161 148 111 147 137 106
141 133 100 133 126 99 116 111 89 130 136 118 130 142 130 121 129 118
121 129 114 128 138 117 185 191 152 165 165 111 90 99 27 111 128 26
163 172 66 148 159 75 143 148 86 142 142 91 40 65 14 16 37 2 30 45 17
47 78 18 44 68 17 139 138 94 154 143 104 163 151 111 145 134 107
135 125 103 128 122 91 118 113 80 127 119 92 158 143 114 179 159 117
177 157 115 156 137 107 142 127 101 153 138 108 164 146 117
153 136 111 151 137 110 166 147 118 154 138 109 146 133 107
153 140 112 167 149 117 147 143 123 138 146 130 191 196 169
244 247 217 248 248 214 255 255 229 255 255 236 255 255 241
237 237 210 208 198 173 138 121 95 149 139 107 106 107 89 128 123 98
128 123 98 146 136 106 169 156 117 167 154 115 161 149 111
161 147 110 153 146 119 187 195 171 212 216 181 244 245 208
244 247 217 255 255 255 161 158 136 136 129 98 161 150 115
177 162 120 184 167 119 178 162 117 154 142 112 126 135 125
124 135 126 115 124 113 108 119 102 139 141 111 152 146 113
138 130 105 124 121 94 87 104 31 180 185 76 182 172 113 162 147 114
143 132 96 26 55 3 24 46 5 29 44 14 50 74 22 49 75 18 106 114 67
82 89 54 111 115 79 83 93 55 36 52 16 78 87 43 124 118 84 120 115 92
129 120 98 160 150 123 159 161 136 158 163 128 151 156 124
144 150 121 146 148 101 174 164 107 154 140 102 125 121 85
154 140 109 147 132 109 139 127 103 141 137 115 146 156 146
133 141 131 154 161 137 224 227 196 240 234 193 238 237 195
253 252 230 234 234 205 252 253 228 236 229 206 168 148 117
144 137 108 168 155 119 171 156 116 157 146 109 148 139 107
136 128 102 110 111 92 140 134 105 172 156 113 164 162 134
197 204 179 204 208 154 181 187 138 169 176 142 235 239 211
198 196 171 112 106 83 135 130 104 174 158 118 180 163 117
176 160 114 147 143 116 108 123 114 106 116 102 100 107 91
137 132 102 174 159 114 174 157 115 164 150 109 149 138 110
115 118 70 116 130 50 179 172 104 172 155 121 172 159 111 61 84 27
17 50 0 25 43 7 52 75 24 45 67 20 30 45 17 33 45 19 57 72 32 57 73 30
82 92 49 154 142 111 173 155 121 176 158 119 180 160 120 130 135 111
103 120 104 101 118 98 97 113 90 85 104 70 78 96 37 92 110 30
134 133 81 75 88 31 52 79 28 136 133 95 161 142 112 137 136 113
138 151 135 159 166 147 144 150 130 189 196 158 228 225 175
232 230 173 231 226 172 241 240 197 252 250 222 227 221 187
124 115 98 133 127 101 153 140 108 157 145 109 156 145 110
175 159 118 172 157 118 145 136 104 132 125 97 136 134 108
160 169 147 166 173 139 164 170 127 182 190 157 186 193 157
186 194 144 179 183 134 136 126 102 123 123 90 128 126 91 141 136 96
174 160 117 79 93 54 71 88 53 152 140 106 126 119 96 115 115 94
156 145 113 172 157 117 133 126 89 78 83 55 62 73 39 64 77 45
116 125 51 113 116 68 104 104 83 101 106 72 59 81 28 45 64 9 51 65 22
14 33 2 18 33 2 71 81 40 137 133 89 131 128 73 117 121 68 124 128 86
115 110 93 112 109 90 140 132 104 163 148 107 149 136 94 123 120 70
111 112 56 108 108 54 114 112 66 123 117 86 142 131 105 97 100 53
21 55 0 41 73 15 132 125 92 150 136 112 129 138 123 137 149 129
148 156 130 156 164 112 181 176 88 214 206 92 225 221 137 241 237 188
240 237 195 242 237 195 181 164 135 154 142 106 167 151 111
146 135 103 122 119 98 123 118 95 160 147 108 181 165 118 168 153 113
148 146 119 157 166 142 158 167 136 146 156 131 158 166 136
183 189 149 207 212 140 151 161 63 107 116 68 90 104 40 92 103 64
98 106 70 110 113 81 24 55 6 139 137 90 173 157 115 140 131 98
122 117 90 104 100 78 71 73 48 32 43 19 9 24 3 7 23 4 4 20 4 35 52 13
90 95 47 57 65 42 26 39 13 71 86 29 63 78 20 49 57 20 33 52 5
70 87 32 158 150 112 156 142 91 162 152 92 113 106 74 62 84 19
154 154 100 137 125 103 133 122 100 122 114 92 119 113 88 119 113 83
134 127 95 165 151 118 173 155 123 166 148 114 165 148 115 117 113 69
44 68 4 32 68 0 39 61 14 114 112 81 115 123 88 102 112 91 67 76 47
86 93 42 128 126 15 166 162 18 204 199 98 227 221 164 225 222 181
236 230 191 170 153 126 141 131 100 158 143 107 149 136 104
141 148 136 127 138 134 114 117 100 122 114 87 150 140 108
162 146 107 154 151 120 158 169 143 175 182 149 164 171 135 78 93 53
113 122 73 92 109 40 100 124 39 78 97 27 103 121 50 93 104 62
45 68 26 62 83 37 166 153 119 127 124 87 153 145 102 145 136 99
119 113 85 118 112 87 105 102 80 77 81 60 40 51 28 20 33 8 11 25 4
22 34 16 84 87 59 86 85 58 58 65 29 86 89 28 81 79 24 70 83 17
118 126 76 112 115 85 95 101 47 89 93 52 49 60 23 33 50 6 108 123 52
53 73 24 103 109 67 168 152 117 139 130 97 121 115 83 97 97 62
64 73 42 87 94 64 139 128 102 156 140 112 147 131 106 72 81 30
37 69 10 59 84 18 32 52 7 102 116 92 121 126 107 113 119 86
120 126 73 146 145 47 158 157 45 208 206 125 235 231 180 234 233 194
237 232 199 170 153 122 171 156 115 165 149 109 154 148 120
142 149 139 168 180 173 212 219 200 198 195 165 162 149 111
159 146 109 169 154 118 157 154 118 109 123 94 76 90 63 3 20 1
31 48 23 115 132 48 54 76 31 69 90 31 71 92 29 104 113 70 41 70 16
87 95 65 125 120 93 65 79 39 58 76 40 13 40 10 7 30 11 98 101 69
172 156 116 152 140 109 135 125 99 108 106 80 40 50 24 10 25 3
27 43 11 111 109 70 104 98 73 73 69 27 130 113 39 108 106 43 86 90 44
38 55 7 103 106 74 149 135 111 134 125 92 109 104 74 59 75 23
88 102 46 20 37 9 39 54 25 77 93 62 68 81 55 106 108 84 112 107 83
73 77 47 44 54 25 95 95 64 167 149 121 108 102 64 104 107 65 68 85 30
50 69 18 114 125 110 124 130 114 110 117 95 145 153 121 175 175 123
173 177 126 180 185 139 223 222 185 246 242 207 236 225 192
160 141 113 164 148 109 148 136 105 135 141 129 147 157 146
191 196 176 220 225 198 255 255 234 212 208 178 132 123 97 124 119 96
124 118 95 45 61 22 15 34 1 6 23 4 7 24 1 54 67 27 43 64 32 80 98 31
60 81 27 106 106 75 70 85 41 154 146 108 56 67 42 16 37 19 26 49 22
15 41 14 34 52 28 158 147 106 183 165 118 175 160 115 180 164 121
122 117 85 34 52 14 120 117 77 93 96 47 95 103 40 71 71 44 59 63 32
80 81 26 79 82 32 105 106 56 87 89 47 56 64 33 82 89 71 101 106 87
123 116 95 75 79 44 119 123 72 116 111 80 58 63 33 97 105 49
128 137 67 90 97 43 96 90 68 162 136 116 153 129 104 85 88 49
101 100 73 100 97 64 116 111 78 103 100 77 59 68 29 100 109 73
116 125 111 121 131 117 166 170 145 143 148 123 164 168 138
153 155 127 168 174 142 205 201 168 149 136 113 128 117 93
139 129 101 119 115 94 138 142 128 156 164 147 194 199 171
211 216 182 220 222 180 239 242 195 158 159 98 147 152 82 109 115 69
45 60 28 31 49 17 15 32 8 7 24 5 77 87 36 82 98 43 36 56 7 65 88 30
51 70 27 65 82 34 98 101 74 20 37 23 17 32 27 21 37 32 34 51 36
123 119 89 149 136 104 151 138 102 149 136 102 164 148 112 83 84 53
74 90 34 175 159 121 159 140 113 106 109 58 137 131 83 99 93 50
31 37 3 117 120 68 189 174 135 115 110 77 56 70 42 33 51 39 46 63 50
98 99 63 90 92 52 54 67 30 70 79 44 112 108 81 123 117 71 108 115 48
66 60 11 105 74 43 110 89 83 105 83 83 123 116 99 132 129 83
118 109 64 116 110 68 83 83 58 57 64 20 103 102 30 116 114 56
109 118 74 146 151 130 144 144 118 132 135 100 160 151 115
164 152 120 158 142 113 136 124 97 138 126 100 165 152 112
160 146 108 183 183 157 161 170 151 155 161 148 191 192 175
191 192 167 174 179 151 92 102 33 125 137 39 134 146 51 43 60 14
10 30 7 66 84 36 22 42 8 69 81 30 86 98 43 31 51 17 77 92 47 80 93 46
28 48 9 28 45 26 24 42 29 22 38 28 8 29 12 65 77 52 152 141 110
168 151 114 173 156 120 171 156 118 178 161 124 89 91 53 115 121 67
81 80 54 90 93 62 147 133 67 151 141 74 99 97 42 44 57 23 65 76 47
82 89 60 51 59 36 58 72 34 86 94 59 79 84 56 113 115 76 141 133 97
108 108 73 66 73 44 32 47 20 59 73 35 81 90 41 30 33 8 56 41 15
56 37 27 48 56 39 49 46 30 97 95 64 80 81 47 48 56 25 32 49 13
75 83 34 108 111 54 107 107 47 99 103 49 152 140 111 147 135 106
74 83 36 126 130 77 151 131 104 138 123 95 136 125 97 131 119 96
174 158 116 182 164 116 157 156 131 138 146 132 130 137 139
135 144 152 152 158 164 138 144 145 42 68 23 62 80 38 114 125 62
118 118 71 45 57 26 65 83 37 53 66 27 46 58 19 71 81 29 56 75 21
104 116 57 94 97 63 77 81 59 80 89 70 21 41 20 11 37 4 9 41 6
87 94 67 115 110 90 81 86 65 74 76 58 64 67 49 54 61 37 69 75 48
74 82 52 76 80 47 84 91 47 86 66 23 74 72 28 41 54 15 42 55 23
19 33 12 59 67 30 68 72 39 48 60 21 85 90 57 81 82 59 92 93 73
112 109 86 122 116 93 141 129 103 110 103 73 74 83 50 40 50 25
27 43 21 29 46 23 46 55 31 42 59 32 29 39 23 9 21 16 10 25 22
18 35 28 27 42 34 34 48 41 47 62 37 90 95 54 81 88 56 100 105 74
107 112 83 51 62 35 65 84 35 140 139 108 118 114 90 133 123 95
139 124 98 146 136 104 169 152 113 151 143 114 124 132 129
122 133 137 119 131 135 121 132 135 121 132 123 36 59 18 17 42 25
77 97 55 115 118 77 51 62 30 32 48 16 49 56 26 42 45 8 50 61 25
67 82 25 74 92 33 149 164 76 77 83 55 21 42 24 21 48 10 13 44 3
10 41 6 133 129 92 107 99 74 12 29 10 0 15 0 5 19 4 79 82 60 93 95 77
53 56 39 47 50 28 61 63 38 47 46 24 39 50 20 44 57 15 50 63 17
94 102 42 144 138 88 149 137 96 94 97 69 129 130 94 168 153 116
164 145 110 143 130 100 130 119 94 113 111 88 88 86 66 67 77 46
103 117 76 72 78 47 30 42 24 27 48 23 30 50 23 33 52 31 16 30 23
22 36 27 19 38 28 14 32 30 35 48 38 47 59 34 124 126 84 160 142 106
140 128 96 147 133 102 108 100 74 50 66 21 115 125 86 108 116 87
130 132 97 159 151 116 125 119 97 152 139 108 138 136 119 115 121 118
110 118 109 113 119 107 114 119 109 110 116 92 42 54 24 6 28 11
40 69 28 28 47 12 18 33 7 42 56 26 54 61 37 59 64 39 40 53 29
94 103 26 70 79 24 94 120 35 106 123 49 70 75 53 27 52 12 12 43 4
20 46 14 17 28 14 7 19 8 10 21 8 21 30 15 31 40 22 83 85 61 60 64 44
26 29 14 26 26 19 27 30 18 44 49 27 60 64 34 44 52 19 45 58 11
136 130 70 107 103 84 98 99 79 65 74 54 62 78 42 95 101 64 145 131 95
174 155 113 174 153 112 168 152 111 149 137 98 79 87 47 110 129 78
111 123 74 26 44 24 27 47 22 27 49 24 38 54 34 14 28 22 13 31 27
12 33 25 33 48 27 83 88 59 82 82 54 108 113 73 176 156 120
168 147 114 164 145 115 165 141 112 93 90 59 124 117 87 138 122 98
123 112 88 115 111 86 147 135 105 161 146 110 123 125 114 111 117 113
119 126 123 101 111 94 67 81 49 81 94 57 60 74 37 16 34 14 21 40 17
11 25 4 18 35 5 63 72 37 67 73 52 48 62 44 74 78 56 89 94 29 80 90 29
59 77 26 110 127 46 20 33 17 17 44 4 20 46 10 21 38 14 42 48 27
112 108 78 148 137 99 155 141 102 169 153 112 131 121 88 18 25 8
26 33 10 34 37 18 26 28 16 30 30 16 152 137 100 75 73 40 40 51 9
125 128 71 90 96 63 59 71 30 56 66 34 85 97 69 103 111 88 32 43 19
70 76 50 140 136 107 133 128 99 109 101 76 72 69 46 55 73 27 83 96 51
30 52 22 37 65 9 54 74 30 41 51 27 11 21 16 30 46 29 104 103 76
124 115 82 100 95 71 95 93 69 67 73 52 49 60 43 59 67 49 69 74 55
113 108 79 128 115 89 113 105 80 118 106 83 115 105 81 111 103 79
134 124 96 132 124 96 107 114 105 104 111 105 102 109 101 94 102 92
68 78 58 43 60 22 49 67 24 26 42 15 18 34 13 14 31 6 42 58 14
118 116 78 67 75 57 19 41 21 51 66 48 73 83 30 39 47 13 39 53 13
93 115 39 40 61 28 16 37 20 16 36 21 21 41 28 71 81 64 99 96 76
110 103 75 105 100 72 98 94 70 65 66 46 11 23 5 29 44 31 35 50 28
47 57 37 47 51 35 105 105 79 67 76 50 46 57 28 50 57 20 38 47 19
66 73 49 38 50 36 64 76 63 91 102 76 64 73 46 44 58 38 74 87 71
60 73 56 19 34 25 23 38 30 42 63 19 58 87 18 37 66 13 26 58 0
74 92 43 98 95 56 54 65 33 42 67 28 61 71 37 51 58 34 36 52 23
110 108 76 127 111 85 82 83 57 98 100 71 84 92 62 86 101 65
137 129 97 150 132 102 155 138 105 152 134 104 152 136 105
164 147 108 151 137 104 136 129 102 122 118 99 101 104 87 81 88 74
61 73 59 37 50 30 16 31 11 21 37 9 28 41 13 28 39 16 36 50 17
69 79 48 72 81 50 36 56 35 32 55 34 61 69 18 107 91 47 47 58 24
55 75 36 48 67 36 18 38 27 24 44 33 21 43 31 32 56 43 58 73 53
84 92 68 95 98 69 109 104 74 109 103 74 61 63 38 54 63 40 82 90 73
64 81 64 62 78 60 57 69 48 42 54 30 38 51 17 43 53 20 30 41 20
48 60 43 29 42 20 20 31 9 27 37 12 27 40 17 22 41 26 14 32 24
19 37 25 54 61 41 71 74 43 81 92 32 34 64 2 34 65 4 35 65 4 59 80 36
36 60 15 16 48 3 13 41 1 6 28 0 0 23 0 29 48 17 77 76 54 80 77 57
89 83 62 90 85 63 90 88 66 94 103 71 120 129 89 115 107 82 115 106 81
133 121 92 134 118 90 166 150 108 151 138 102 140 129 94 129 119 89
98 102 92 92 99 90 35 53 25 41 54 33 27 42 26 15 30 9 26 32 11
34 37 13 39 46 15 57 67 31 77 81 42 48 62 39 50 66 28 42 53 22
44 52 31 22 39 20 22 37 18 37 50 15 61 74 39 32 45 31 39 47 23
32 42 22 40 51 29 43 53 34 54 61 42 74 75 53 87 86 63 99 94 69
85 83 59 73 74 56 38 49 40 36 48 35 36 42 16 27 38 11 24 38 10
28 38 10 29 36 8 38 45 12 52 50 19 41 44 23 32 44 31 29 45 32
18 37 27 35 53 42 60 77 57 64 70 41 107 93 28 104 98 49 62 68 24
30 51 1 32 57 12 36 57 18 48 73 13 25 52 6 14 40 5 9 35 4 33 52 18
101 92 62 84 79 56 50 54 41 48 53 39 49 52 40 49 52 40 53 56 42
102 111 77 111 116 83 57 60 47 74 77 55 96 90 64 165 147 107
168 148 107 157 141 101 144 131 92 115 111 84 65 74 55 20 38 12
42 54 36 30 42 30 17 29 11 25 35 11 46 58 24 35 41 14 44 55 16
50 60 14 48 57 24 32 44 9 51 55 31 66 64 41 44 52 23 24 31 14
31 45 13 72 80 23 46 50 19 68 73 40 72 79 49 34 38 20 32 37 20
37 44 25 50 53 39 50 53 39 45 48 34 38 40 27 28 30 17 30 31 17
34 35 20 44 48 22 30 39 15 27 41 9 29 34 8 33 39 17 66 72 49 47 54 42
37 53 45 30 48 41 48 62 47 58 70 56 50 68 57 54 73 64 52 62 41
50 54 5 55 56 18 45 45 16 16 26 7 19 33 13 15 33 10 22 43 10 15 40 5
16 38 9 30 47 20 69 67 41 108 94 62 113 99 65 89 82 57 65 66 47
63 65 48 64 65 48 61 63 48 60 63 47 103 111 75 71 71 53 63 65 48
85 85 62 150 132 99 152 137 100 166 148 109 121 111 81 64 67 51
59 69 41 12 29 5 16 30 17 18 30 11 55 60 36 45 54 35 19 32 12
33 43 16 24 35 9 30 38 5 33 50 1 54 64 18 42 45 25 46 51 28 47 60 27
61 63 35 26 35 19 7 16 4 44 52 16 70 76 47 74 88 51 50 57 32 58 60 46
53 56 39 42 48 27 41 45 27 30 32 18 23 25 10 29 33 16 25 29 14
25 29 15 34 40 15 30 41 12 33 48 15 83 78 37 59 60 26 19 35 24
5 17 16 15 28 23 29 41 29 70 72 36 54 66 21 20 32 25 16 32 31
28 42 28 68 70 32 80 75 23 56 55 24 19 29 8 25 37 8 33 46 12 20 40 5
55 75 28 109 116 75 45 50 27 21 31 12 46 51 29 73 68 45 82 74 49
76 72 49 69 68 47 67 66 47 59 60 44 54 56 41 68 71 49 86 86 59
82 80 58 82 80 58 163 147 108 153 137 103 76 75 55 4 17 12 6 21 16
21 37 13 7 18 6 13 25 16 36 47 33 44 54 44 22 36 31 41 50 34 39 48 29
16 32 22 25 40 16 53 70 13 84 89 24 62 72 30 26 36 16 32 40 17
41 50 27 34 42 24 34 42 19 40 49 21 51 59 28 60 61 32 63 64 44
63 65 45 54 58 38 47 51 33 37 45 23 33 40 23 32 41 27 40 57 36
36 46 21 35 45 16 45 52 21 40 44 16 35 46 14 75 78 38 27 39 30
12 30 28 19 31 21 26 33 17 43 45 24 65 64 18 35 50 11 7 25 10 6 20 8
11 28 11 37 45 26 40 44 27 47 52 21 28 36 13 79 78 42 111 91 50
85 79 31 31 51 6 124 135 83 136 119 77 81 71 36 32 39 14 27 39 17
41 47 30 37 39 28 35 39 26 35 39 26 36 40 27 31 33 24 34 37 28
62 64 46 77 76 56 71 69 51 130 119 81 36 44 32 0 14 11 4 18 13
13 28 18 9 27 9 13 28 21 20 34 31 22 36 30 18 32 26 24 38 33 50 63 40
42 52 30 20 27 17 23 31 13 71 71 36 73 70 34 57 66 15 114 113 58
75 75 37 63 66 37 51 51 29 33 44 14 46 58 24 32 43 16 39 49 22
52 56 36 52 56 39 42 51 35 35 48 40 32 48 41 33 49 39 22 43 32
20 41 25 34 43 20 26 37 17 45 49 25 22 28 10 27 35 11 27 38 21
38 42 23 95 81 38 48 47 25 22 27 14 51 50 27 62 66 8 50 62 21
22 41 25 13 34 20 26 47 30 39 52 30 21 29 13 27 34 12 68 68 23
63 69 35 98 90 52 110 89 48 33 37 11 37 59 22 136 124 78 144 120 73
123 107 67 93 84 49 69 72 38 87 85 56 73 69 47 70 68 46 67 65 45
40 41 30 43 48 33 73 74 53 86 83 60 85 82 59 66 68 50 32 43 28
25 38 26 28 39 28 36 49 33 34 47 32 31 43 37 32 44 37 19 31 25
8 21 18 34 45 37 36 54 27 33 44 22 32 33 21 33 34 22 33 48 32
46 61 39 63 63 33 81 83 32 74 80 33 61 61 35 52 52 30 17 31 15
31 37 19 21 27 12 16 23 6 23 36 21 22 37 32 23 41 36 28 45 38
30 48 38 25 43 35 15 34 27 15 30 25 25 34 16 28 33 12 11 17 7
17 24 11 36 38 23 42 46 20 42 34 7 106 87 41 132 117 69 79 74 46
50 56 16 63 67 5 59 63 31 29 46 31 19 37 28 27 45 33 36 42 25
26 30 14 19 24 13 63 65 21 81 83 30 49 57 32 23 24 9 27 29 15
22 33 15 136 117 64 121 100 57 76 68 42 78 73 49 81 76 49 102 95 63
121 108 74 131 116 81 134 117 81 128 113 82 119 108 78 113 103 75
115 102 74 106 94 68 82 82 70 85 85 70 100 96 72 107 101 75 96 94 73
76 78 61 62 66 52 58 60 48 51 55 42 44 50 37 45 53 38 42 55 29
68 66 40 47 49 33 21 32 25 24 42 28 40 55 30 60 61 34 35 39 18
23 32 8 49 53 24 16 20 10 5 19 4 29 33 20 28 32 18 25 34 22 21 37 32
23 40 34 22 42 32 25 44 34 25 41 35 26 43 35 19 35 30 36 45 30
49 50 26 86 83 26 58 58 30 34 39 24 42 44 28 42 44 22 25 28 13
27 24 8 79 69 37 101 89 50 74 74 21 106 96 55 70 71 47 21 41 28
21 41 27 39 50 32 36 39 25 33 37 22 34 36 22 32 35 19 81 88 40
97 88 47 57 46 23 16 19 6 35 37 18 95 84 45 110 95 54 102 87 53
48 49 30 28 33 20 45 48 32 71 70 51 80 76 55 84 78 56 86 80 59
104 95 71 122 106 78 121 105 74 111 98 70 69 71 61 66 68 57 62 63 52
57 59 48 58 60 47 58 60 47 57 59 45 64 64 48 53 55 41 67 65 47
99 92 58 86 80 49 61 58 38 37 45 33 14 30 25 21 36 25 27 43 28
25 35 21 26 35 18 28 32 13 25 34 6 31 42 16 15 25 9 24 30 13 29 35 21
25 30 25 16 33 26 17 31 26 19 29 19 22 32 22 24 38 30 28 42 30
48 53 35 51 53 34 44 47 31 62 62 33 61 61 34 38 41 25 35 37 24
40 43 25 79 68 40 57 52 33 34 36 22 13 20 3 44 46 21 97 87 54
109 94 58 28 42 28 50 63 38 67 64 39 46 48 32 37 42 30 37 41 28
39 43 28 39 51 22 118 115 70 79 69 44 50 47 30 57 57 36 97 91 58
135 120 77 162 140 90 151 129 85 105 94 64 63 62 45 56 59 43 62 64 47
67 67 50 64 65 49 63 66 50 89 87 63 117 107 78 121 111 82 57 60 49
52 54 44 50 54 42 52 55 42 52 55 42 47 49 37 52 54 40 62 62 46
44 46 36 34 38 28 43 45 29 30 34 23 25 34 23 16 29 25 16 31 26
19 39 20 22 46 21 38 41 27 34 36 23 31 35 19 29 33 17 22 31 11
24 35 10 28 31 16 21 22 14 18 21 13 16 22 13 14 20 11 18 21 13
25 29 18 33 38 23 34 40 26 42 43 28 36 38 24 34 36 22 27 32 19
24 29 17 28 31 19 32 35 20 36 38 23 43 43 27 40 41 26 33 35 21
29 31 17 34 38 21 46 53 28 83 75 44 76 69 38 106 96 56 137 114 66
118 98 54 96 88 55 93 86 53 106 94 61 36 45 15 104 110 61 109 94 65
71 69 48 58 60 42 76 72 49 110 98 65 147 129 86 166 145 95
176 151 101 167 145 97 153 136 91 151 132 90 142 125 87 130 119 83
114 107 77 110 103 73 131 120 86 127 117 86 67 69 52 78 76 56
89 83 59 82 78 57 77 73 51 58 57 41 43 47 36 36 42 34 19 27 20
23 29 21 36 41 30 38 43 31 37 42 32 20 33 27 17 35 26 20 44 18
19 44 13 33 40 24 27 30 19 28 32 18 30 31 20 25 28 17 15 23 7
19 29 12 17 22 12 17 21 13 20 22 15 19 21 15 19 21 17 19 22 16
22 24 18 25 25 18 28 31 20 28 31 19 28 31 19 27 30 19 29 32 20
30 34 22 30 34 21 33 36 23 37 40 25 40 42 25 40 41 25 30 32 20
29 32 18 25 29 14 76 68 38 120 96 53 121 98 53 135 112 64 151 126 71
168 140 82 164 139 84 157 135 80 88 82 46 80 87 43 123 105 72
67 65 45 53 56 40 50 53 40 46 51 39 48 51 38 62 62 46 80 76 55
102 93 64 116 105 74 127 113 78 136 119 82 144 126 88 137 120 88
123 109 81 108 97 74 96 89 69 72 73 56 80 78 58 74 71 54 64 62 49
63 63 47 53 55 40 37 43 34 33 40 32 37 43 35 34 40 32 29 33 29
23 28 23 20 24 19 19 24 23 20 36 22 17 43 12 12 37 5 26 42 17
28 33 22 26 32 19 26 30 20 23 28 19 21 25 18 24 28 16 27 31 19
23 27 20 22 29 20 24 27 20 21 24 18 21 25 18 22 27 18 27 31 19
27 30 21 25 30 22 38 40 24 50 51 32 68 64 38 63 58 35 72 66 39
88 78 46 98 85 49 106 90 51 85 75 44 51 50 32 48 47 29 39 41 25
52 53 31 92 78 44 92 76 44 113 93 48 130 98 45 135 115 65 143 117 67
168 147 80 164 139 87 110 105 61 142 123 79 112 97 66 64 66 47
59 62 46 57 58 44 56 58 43 56 58 45 51 54 42 47 51 39 46 50 39
46 50 38 49 52 41 54 56 44 55 56 47 51 54 43 51 55 43 55 58 45
58 58 51 55 57 49 47 52 44 40 45 39 37 43 38 38 42 37 30 34 30
23 27 24 20 26 23 16 20 18 15 18 17 11 18 16 11 18 14 13 20 17
19 25 21 19 28 19 14 27 11 23 35 13 28 34 20 21 25 19 24 28 21
22 26 20 23 27 20 24 28 20 21 25 17 22 25 18 24 28 18 32 37 25
48 51 31 51 51 31 50 51 32 40 43 27 45 46 29 71 64 40 103 90 52
121 104 61 132 111 64 126 105 60 122 101 58 121 102 60 132 111 64
138 115 67 130 109 64 120 103 60 114 98 56 107 90 53 105 88 52
100 83 50 80 69 42 60 51 26 40 31 11 37 29 10 83 61 29 167 130 68
160 131 77 170 146 90 151 129 80 142 124 79 111 98 65 72 70 50
67 68 50 65 67 50 59 62 48 59 61 47 59 61 47 57 59 47 58 59 50
59 60 49 58 60 48 58 60 50 62 64 53 67 67 54 64 64 49 56 58 49
51 51 48 45 49 43 40 44 39 35 41 35 31 37 32 22 29 24 19 24 22
21 25 23 17 23 20 20 26 22 26 32 25 33 36 28 35 40 31 38 42 31
49 52 39 51 53 39 47 48 33 45 49 32 38 39 27 33 34 23 39 43 29
41 45 29 48 49 31 54 54 34 53 55 35 51 52 34 49 51 33 69 65 42
97 86 52 96 86 52 70 66 41 110 93 56 124 102 61 128 106 62 133 110 67
133 112 69 133 111 68 123 105 64 120 105 64 116 99 60 115 98 60
126 108 66 136 115 69 116 99 59 100 85 52 68 60 38 44 44 30 24 26 19
13 16 10 16 20 12 23 25 15 35 28 12 96 72 35 99 80 44 142 120 73
152 127 80 119 100 65 76 66 47 51 53 38 70 68 48 98 89 65 79 78 58
70 70 53 62 64 49 61 64 49 60 61 51 58 59 49 60 61 50 61 63 50
63 65 52 62 64 52 58 61 49 57 60 52 53 56 48 53 57 47 48 50 45
45 49 43 42 46 39 36 40 35 30 34 32 30 34 31 32 38 33 37 41 37
35 40 36 35 39 36 35 38 32 34 37 31 38 42 33 44 47 36 50 52 39
56 58 43 59 61 43 62 63 44 71 71 50 81 77 53 90 83 58 85 81 56
80 78 53 85 80 53 92 83 54 97 86 55 90 78 50 53 53 36 67 62 42
90 77 50 80 70 46 81 73 48 71 64 45 68 63 44 69 65 47 75 73 50
85 81 54 104 94 59 119 104 64 139 119 72 117 98 61 66 64 43 56 57 40
40 44 32 35 39 27 35 36 25 42 41 26 56 51 33 86 77 45 89 79 47
103 89 51 121 102 61 124 106 68 133 115 72 121 102 66 86 79 54
71 71 50 72 71 51 78 77 56 82 81 60 73 74 56 67 69 54 64 66 54
63 65 53 64 66 54 64 66 56 65 66 55 65 67 54 61 63 51 57 58 50
60 62 53 54 58 50 50 52 45 46 49 44 42 46 41 38 42 37 32 35 33
34 38 36 30 36 34 33 40 37 35 41 37 32 37 35 31 36 34 34 38 35
39 43 39 46 50 40 46 50 38 48 50 39 45 48 37 47 51 38 48 50 40
52 54 45 51 53 44 52 55 44 56 60 47 60 63 51 56 59 47 55 59 45
53 58 43 44 49 39 50 54 41 55 57 42 53 55 40 63 64 45 67 66 47
79 75 50 92 85 55 109 97 63 126 110 71 137 120 77 149 127 80
157 133 84 157 133 82 141 119 74 116 103 65 102 91 60 92 83 54
105 93 59 117 104 65 128 111 71 149 130 82 166 140 88 158 133 83
146 126 79 152 131 85 144 125 81 138 121 81 135 118 79 129 115 79
108 99 71 95 89 66 81 82 62 71 73 58 70 72 58 68 70 57 74 76 62
72 75 59 68 71 57 68 70 58 62 65 55 58 61 54 58 61 54 58 60 53
62 63 56 54 56 51 52 53 48 50 54 47 49 54 46 46 51 45 46 51 44
46 50 46 45 49 46 45 50 47 43 48 46 39 45 41 41 44 41 46 49 43
64 67 51 87 84 61 93 88 62 75 74 54 59 63 48 54 57 44 51 54 43
50 52 44 54 57 44 56 58 46 64 65 50 84 81 59 102 95 68 111 102 72
118 107 73 121 109 73 129 113 76 127 112 74 125 109 72 133 114 75
133 113 76 129 110 75 132 114 77 129 110 74 121 105 71 124 108 74
123 106 73 126 110 74 132 115 75 136 118 77 140 118 78 137 116 76
127 110 71 137 119 78 142 122 80 139 120 78 143 125 83 150 131 86
151 130 85 153 131 84 158 137 90 138 120 83 113 103 73 91 87 64
80 80 60 73 77 59 74 75 58 73 76 60 73 76 60 71 74 58 75 77 62
74 77 63 70 73 59 67 69 58 66 68 57 66 68 61 64 66 58 64 66 56
65 66 58 59 62 56 59 60 57 62 63 56 64 66 57 64 66 57 62 64 55
60 61 53 56 59 52 54 57 49 50 54 49 48 51 43 58 61 51 64 67 55
83 84 64 110 103 76 103 97 73 101 95 70 106 100 69 91 88 65 81 79 60
78 77 56 82 79 59 89 86 62 90 85 60 99 92 67 106 97 70 114 103 75
118 105 76 116 103 72 124 109 75 120 106 76 120 106 75 114 100 69
101 89 64 95 87 63 87 81 60 83 79 59 82 80 60 88 83 60 91 86 63
100 93 66 110 101 69 116 104 72 118 105 70 126 110 74 135 118 80
135 118 78 138 120 80 133 113 76 138 121 82 135 120 80 136 120 82
134 117 83 134 117 81 118 107 75 92 88 64 82 82 61 83 85 64 80 83 63
78 81 61 74 75 59 70 72 59 74 76 61 77 80 65 72 74 61 69 71 60
70 73 61 72 74 60 73 75 62 71 73 62 65 66 57 69 71 59 68 70 59
