P3
73 43
255
85 85 68 68 68 68 68 85 68 68 68 68 85 85 68 68 85 68 85 85 68
68 68 68 85 85 68 85 85 68 68 85 68 102 102 68 85 85 68 85 85 68
85 85 68 85 85 68 102 102 68 85 85 68 68 68 68 119 102 85 102 102 68
68 85 68 102 102 85 102 85 68 85 85 68 119 102 85 85 85 68 102 102 85
119 102 85 102 102 85 102 102 85 102 102 85 119 102 85 119 119 85
119 102 85 102 102 85 102 102 85 119 119 85 119 102 85 119 119 85
119 119 85 119 119 102 136 119 102 119 119 85 119 119 85 119 119 85
119 119 85 119 119 85 136 119 85 136 119 102 119 119 85 119 119 85
136 119 102 136 119 102 136 119 102 136 119 102 136 119 85 119 119 85
119 119 85 119 119 85 119 119 102 119 119 85 119 119 102 119 119 85
119 119 85 136 119 102 136 119 85 119 119 85 136 119 102 136 119 102
102 102 85 119 102 85 119 119 85 68 68 68 68 68 68 68 68 68 68 85 68
68 68 68 68 68 68 85 85 68 68 68 68 85 85 68 85 85 68 68 68 51
102 102 68 85 85 68 68 68 68 102 102 85 85 85 68 85 85 68 102 102 85
85 85 68 85 85 68 102 85 68 102 85 68 102 102 68 102 102 85
102 102 85 102 102 85 102 102 85 102 102 85 102 102 85 119 102 85
119 119 85 119 119 85 119 102 85 119 102 85 136 119 102 119 119 102
119 119 85 136 119 102 136 119 102 119 119 102 136 119 102
136 119 102 136 119 102 119 119 85 136 119 102 136 136 102
136 119 102 136 119 102 136 119 102 136 119 102 136 119 102
136 119 102 136 119 102 119 102 85 136 119 102 136 119 102
136 119 102 136 119 102 136 119 102 119 119 85 136 119 102
153 136 102 136 119 102 136 119 102 153 136 102 136 119 102
119 119 102 119 119 85 119 119 85 119 119 85 119 119 85 119 119 85
119 119 85 68 68 51 68 68 68 68 68 68 68 68 68 85 85 68 68 68 51
68 68 68 85 85 68 68 68 51 85 85 68 85 85 68 68 68 68 85 85 68
85 85 68 85 85 68 85 85 68 85 85 68 85 85 68 85 85 68 102 102 85
119 102 85 102 85 85 119 102 85 136 119 102 102 102 85 119 119 102
170 170 136 136 119 102 119 119 85 119 102 85 136 119 102 136 119 85
153 136 119 153 153 119 136 119 102 136 119 102 119 119 85
153 136 102 153 136 102 136 119 102 153 136 102 136 119 85
136 119 102 136 136 102 136 119 102 136 119 102 136 119 102
153 136 102 136 119 102 136 119 102 119 119 85 119 102 85 153 136 102
153 136 102 119 119 85 136 119 85 136 119 102 119 119 102 153 136 102
136 119 102 119 119 85 136 119 102 119 119 85 119 119 85 119 119 85
136 119 102 119 119 85 119 119 85 119 119 85 119 102 85 102 102 85
102 102 85 119 119 85 68 68 51 68 68 51 85 85 68 51 68 51 68 68 68
85 85 68 51 51 51 85 85 68 85 85 68 68 68 68 85 85 68 85 85 68
85 85 68 85 85 68 85 85 68 102 102 85 102 102 85 119 119 85
102 102 85 119 102 85 136 136 102 136 119 102 119 119 85 153 136 102
136 119 102 187 187 170 238 255 221 187 170 153 136 119 102
153 136 102 153 136 102 204 204 170 221 238 204 255 255 238
221 204 187 153 136 102 119 102 85 136 119 102 136 119 102
136 119 102 136 119 102 136 119 102 136 119 85 136 119 102 119 119 85
136 119 102 136 119 102 136 119 102 136 119 102 153 136 102
136 119 102 102 102 85 136 119 102 153 136 102 136 119 102 119 119 85
119 102 85 102 102 85 136 119 102 136 119 102 136 119 102 119 119 85
119 102 85 119 102 85 119 102 85 119 102 85 119 119 102 136 119 102
136 119 85 136 119 102 119 119 85 119 102 85 119 119 85 68 68 51
68 68 51 68 68 68 68 68 68 68 68 51 85 85 68 68 68 68 68 68 68
85 85 68 85 85 68 85 85 68 102 102 85 102 102 85 119 119 102
136 136 102 119 119 85 119 119 102 153 136 102 136 136 102
136 119 102 136 136 102 153 153 102 136 136 102 136 119 102
136 136 102 221 221 187 238 238 221 238 238 238 187 170 153
136 119 102 204 204 170 238 238 221 238 238 204 238 238 204
238 238 221 187 187 153 119 102 85 119 119 85 119 119 102 153 136 102
136 119 102 119 119 85 136 119 102 153 136 102 119 119 85 119 119 85
136 119 102 119 119 85 136 119 85 136 119 85 119 119 85 119 119 85
119 102 85 102 102 85 102 102 85 136 119 102 136 119 102 136 119 102
136 119 102 136 119 102 136 119 102 119 119 85 102 102 85 102 102 85
136 119 102 136 136 102 136 136 102 136 119 102 119 119 85 119 102 85
119 102 85 119 102 85 136 119 102 68 68 51 68 68 51 51 68 51 68 68 68
68 68 68 68 68 68 85 85 85 102 102 85 102 102 85 119 119 85
136 136 102 136 136 102 119 119 102 153 136 102 136 119 102
136 136 102 136 136 102 136 136 102 153 136 102 153 136 102
136 119 102 119 119 85 153 136 102 153 136 102 187 187 153
187 187 170 204 204 170 238 238 221 238 238 221 170 170 153
204 221 187 238 238 221 238 238 204 238 238 204 221 221 187
238 238 221 170 153 119 119 119 85 136 136 102 136 119 102 136 119 85
136 119 102 136 119 102 136 119 102 119 119 85 119 119 85 119 119 85
119 119 85 119 119 85 136 119 85 119 102 85 119 102 85 119 119 85
136 136 102 153 136 102 136 119 102 119 119 85 119 119 85 102 102 85
119 102 85 136 119 102 136 119 102 136 136 102 136 119 102 119 102 85
102 102 85 119 102 85 119 119 85 136 119 102 136 136 102 136 119 102
119 119 85 136 119 102 68 68 51 85 85 68 85 85 68 102 102 85
119 119 102 136 119 102 119 119 85 153 136 102 153 153 102
136 136 102 153 136 102 136 136 102 153 136 102 153 153 102
153 153 102 153 136 102 136 136 102 119 119 85 119 119 85 153 136 102
153 136 102 136 119 102 153 136 102 153 153 119 153 170 153
170 170 153 170 187 153 187 204 170 238 238 221 204 221 187
187 187 153 221 221 187 238 238 221 221 221 187 204 204 170
238 255 221 187 187 153 136 119 85 119 119 85 102 102 85 136 119 102
170 153 102 153 136 102 136 136 102 119 119 85 102 102 85 136 119 102
170 136 102 153 136 102 136 119 102 136 119 85 119 119 85 119 119 85
119 102 85 136 119 102 136 136 102 153 136 102 136 119 102
136 136 102 136 119 102 119 102 85 119 102 85 119 119 85 153 136 102
153 136 102 136 136 102 136 136 102 136 119 102 136 119 102
136 119 102 136 119 102 119 119 85 136 119 102 153 136 102
153 136 102 153 136 102 153 136 102 153 136 102 136 136 102
119 119 85 136 119 102 153 136 102 153 136 102 153 136 102
153 136 102 136 136 102 119 119 85 136 119 102 136 119 102
153 136 102 153 136 102 136 119 102 119 102 85 119 119 85 153 136 102
153 136 102 136 136 119 136 153 136 170 170 153 204 204 187
204 204 170 187 187 153 204 204 170 187 204 170 204 204 170
204 204 136 187 187 153 153 170 136 204 204 170 204 204 153
153 136 102 119 119 85 68 85 34 119 119 85 170 153 102 170 153 119
153 136 102 136 119 102 136 119 102 119 119 102 136 119 102
136 119 102 119 119 85 119 102 85 136 119 102 153 136 102 170 153 102
153 136 102 136 119 102 119 102 85 119 119 85 136 136 102 153 136 102
153 136 102 153 136 102 136 119 102 119 119 85 102 102 85 119 102 85
136 119 102 153 136 102 153 136 102 153 136 102 170 136 102
153 136 102 153 136 102 153 136 102 119 119 85 136 136 102
153 136 102 153 153 102 153 136 102 153 136 102 119 119 85 119 119 85
119 102 85 153 136 102 170 153 102 170 153 119 136 136 102 119 119 85
119 119 85 136 136 102 153 136 102 153 136 102 136 119 102 119 119 85
119 119 85 136 136 102 136 153 136 136 136 136 136 136 119
170 170 153 204 221 187 204 204 170 153 153 102 170 187 136
170 170 136 153 153 119 136 153 119 136 136 102 68 68 34 119 119 68
187 170 119 119 119 51 68 85 34 136 119 102 119 119 85 153 136 102
170 153 102 153 136 102 136 119 102 119 119 102 153 136 102
170 153 102 153 136 102 136 119 102 136 119 102 119 119 102
136 119 102 153 136 102 153 136 102 170 153 102 153 136 102
136 119 102 136 119 102 136 119 102 136 136 102 153 136 102
170 170 136 204 187 153 170 153 119 153 136 102 136 119 85 119 102 85
102 102 68 136 119 102 153 136 102 153 136 102 136 119 102
153 136 102 153 136 102 136 119 102 102 102 85 153 136 102
170 153 102 153 153 102 119 119 85 119 119 85 153 153 102 187 187 153
238 238 204 204 204 170 119 119 85 119 102 85 119 119 85 153 136 102
136 136 102 136 136 102 136 119 102 136 119 85 136 136 119
136 153 136 136 136 136 119 136 119 119 136 102 187 187 153
204 204 153 102 119 34 119 136 51 136 153 85 136 153 102 136 153 102
187 187 136 68 85 34 0 17 0 119 119 68 68 102 34 51 68 17 153 136 102
136 119 102 136 119 102 153 136 102 136 119 102 153 136 102
170 153 119 153 136 102 153 136 102 153 136 102 153 136 102
136 119 102 119 102 85 136 119 102 153 136 102 153 136 102
153 136 102 170 153 102 153 136 102 153 136 102 136 136 102
153 136 102 153 136 102 153 153 136 221 221 204 238 238 221
204 187 153 204 204 170 204 204 187 187 187 170 153 136 119
153 153 119 153 136 102 136 119 102 136 119 102 153 136 102
170 153 119 153 136 102 153 136 102 153 136 102 136 136 102
102 102 85 136 119 102 170 170 136 221 221 204 238 238 204
255 255 238 221 204 187 153 136 102 170 153 102 153 136 102
136 136 102 136 119 85 119 119 85 102 102 85 119 136 102 119 136 119
119 119 102 119 119 102 119 136 102 170 187 136 153 153 102 85 85 17
102 119 17 153 170 51 136 153 68 136 136 85 136 136 85 34 51 0 0 34 0
17 34 17 34 68 17 34 68 17 136 136 85 153 136 102 153 136 102
136 119 102 119 119 102 119 119 85 102 102 68 119 119 85 153 136 102
170 153 102 170 153 102 153 136 102 136 119 85 153 136 102
153 136 102 153 136 102 136 136 102 153 136 102 153 136 102
136 119 102 153 136 102 153 136 102 136 136 119 136 136 119
187 187 153 238 238 204 238 238 204 255 255 221 255 255 221
255 255 238 221 221 204 204 187 170 136 119 85 136 136 102 102 102 85
119 119 85 119 119 85 136 136 102 153 153 102 153 153 102 153 136 102
153 136 102 153 136 119 187 187 170 204 204 170 238 238 204
238 238 204 255 255 255 153 153 136 136 119 85 153 136 102
170 153 119 170 153 119 170 153 102 153 136 102 119 119 119
119 119 119 102 119 102 102 119 102 136 136 102 136 136 102
136 119 102 119 119 85 85 102 17 170 170 68 170 170 102 153 136 102
136 119 85 17 51 0 17 34 0 17 34 0 34 68 17 34 68 17 102 102 51
68 85 51 102 102 68 68 85 51 34 51 0 68 85 34 119 102 68 119 102 85
119 119 85 153 136 119 153 153 136 153 153 119 136 153 119
136 136 119 136 136 85 170 153 102 153 136 102 119 119 85 153 136 102
136 119 102 136 119 102 136 136 102 136 153 136 119 136 119
153 153 136 221 221 187 238 221 187 238 221 187 238 238 221
221 221 204 238 238 221 221 221 204 153 136 102 136 136 102
153 153 119 170 153 102 153 136 102 136 136 102 136 119 102
102 102 85 136 119 102 170 153 102 153 153 119 187 204 170
204 204 153 170 187 136 153 170 136 221 238 204 187 187 170
102 102 68 119 119 102 170 153 102 170 153 102 170 153 102
136 136 102 102 119 102 102 102 102 85 102 85 136 119 102 170 153 102
170 153 102 153 136 102 136 136 102 102 102 68 102 119 34 170 170 102
170 153 119 170 153 102 51 68 17 17 34 0 17 34 0 51 68 17 34 51 17
17 34 17 17 34 17 51 68 17 51 68 17 68 85 34 153 136 102 170 153 119
170 153 119 170 153 119 119 119 102 102 119 102 85 102 85 85 102 85
85 102 68 68 85 34 85 102 17 119 119 68 68 85 17 51 68 17 136 119 85
153 136 102 136 136 102 136 136 119 153 153 136 136 136 119
187 187 153 221 221 170 221 221 170 221 221 170 238 238 187
238 238 221 221 221 187 119 102 85 119 119 85 153 136 102 153 136 102
153 136 102 170 153 102 170 153 102 136 136 102 119 119 85
136 119 102 153 153 136 153 170 136 153 170 119 170 187 153
170 187 153 170 187 136 170 170 119 136 119 102 119 119 85 119 119 85
136 136 85 170 153 102 68 85 51 68 85 51 136 136 102 119 119 85
102 102 85 153 136 102 170 153 102 119 119 85 68 68 51 51 68 34
51 68 34 102 119 51 102 102 68 102 102 68 85 102 68 51 68 17 34 51 0
51 51 17 0 17 0 17 17 0 68 68 34 136 119 85 119 119 68 102 119 68
119 119 85 102 102 85 102 102 85 136 119 102 153 136 102 136 136 85
119 119 68 102 102 51 102 102 51 102 102 51 119 102 85 136 119 102
85 85 51 17 51 0 34 68 0 119 119 85 136 136 102 119 136 119
136 136 119 136 153 119 153 153 102 170 170 85 204 204 85 221 221 136
238 221 187 238 221 187 238 221 187 170 153 119 153 136 102
153 136 102 136 119 102 119 119 85 119 102 85 153 136 102 170 153 102
153 153 102 136 136 119 153 153 136 153 153 136 136 153 119
153 153 136 170 187 136 204 204 136 136 153 51 102 102 68 85 102 34
85 102 51 85 102 68 102 102 68 17 51 0 136 136 85 170 153 102
136 119 85 119 102 85 102 85 68 68 68 34 17 34 17 0 17 0 0 17 0
0 17 0 34 51 0 85 85 34 51 51 34 17 34 0 68 85 17 51 68 17 34 51 17
17 51 0 68 85 17 153 136 102 153 136 85 153 136 85 102 102 68
51 68 17 153 153 85 136 119 102 119 119 85 119 102 85 119 102 85
119 102 68 119 119 85 153 136 102 170 153 119 153 136 102 153 136 102
102 102 68 34 68 0 17 68 0 34 51 0 102 102 68 102 119 85 102 102 85
51 68 34 85 85 34 119 119 0 153 153 17 204 187 85 221 221 153
221 221 170 221 221 187 170 153 119 136 119 85 153 136 102
136 136 102 136 136 136 119 136 119 102 102 85 119 102 85 136 136 102
153 136 102 153 136 119 153 153 136 170 170 136 153 170 119 68 85 51
102 119 68 85 102 34 85 119 34 68 85 17 102 119 34 85 102 51 34 68 17
51 68 34 153 153 119 119 119 85 153 136 102 136 136 85 119 102 85
102 102 85 102 102 68 68 68 51 34 51 17 17 17 0 0 17 0 17 34 0
68 85 51 85 85 51 51 51 17 85 85 17 68 68 17 68 68 17 102 119 68
102 102 85 85 85 34 85 85 51 34 51 17 17 34 0 102 119 51 51 68 17
102 102 51 153 136 102 136 119 85 119 102 68 85 85 51 51 68 34
85 85 51 136 119 102 153 136 102 136 119 102 68 68 17 34 68 0
51 68 17 17 51 0 102 102 85 119 119 102 102 119 85 119 119 68
136 136 34 153 153 34 204 204 119 221 221 170 221 221 187 221 221 187
170 153 119 170 153 102 153 136 102 153 136 119 136 136 136
153 170 170 204 204 187 187 187 153 153 136 102 153 136 102
153 153 102 153 153 102 102 119 85 68 85 51 0 17 0 17 34 17
102 119 34 51 68 17 68 85 17 68 85 17 102 102 68 34 68 0 85 85 51
119 119 85 51 68 34 51 68 34 0 34 0 0 17 0 85 85 68 170 153 102
136 136 102 119 119 85 102 102 68 34 34 17 0 17 0 17 34 0 102 102 68
102 85 68 68 68 17 119 102 34 102 102 34 85 85 34 34 51 0 102 102 68
136 119 102 119 119 85 102 102 68 51 68 17 85 102 34 17 34 0 34 51 17
68 85 51 68 68 51 102 102 68 102 102 68 68 68 34 34 51 17 85 85 51
153 136 119 102 102 51 102 102 51 68 85 17 34 68 17 102 119 102
119 119 102 102 102 85 136 153 119 170 170 119 170 170 119
170 170 136 221 221 170 238 238 204 221 221 187 153 136 102
153 136 102 136 136 102 119 136 119 136 153 136 187 187 170
204 221 187 255 255 221 204 204 170 119 119 85 119 119 85 119 102 85
34 51 17 0 34 0 0 17 0 0 17 0 51 51 17 34 51 17 68 85 17 51 68 17
102 102 68 68 85 34 153 136 102 51 51 34 0 34 17 17 34 17 0 34 0
34 51 17 153 136 102 170 153 102 170 153 102 170 153 119 119 102 85
34 51 0 119 102 68 85 85 34 85 102 34 68 68 34 51 51 17 68 68 17
68 68 17 102 102 51 85 85 34 51 51 17 68 85 68 85 102 85 119 102 85
68 68 34 119 119 68 102 102 68 51 51 17 85 102 34 119 136 51 85 85 34
85 85 68 153 136 102 153 119 102 85 85 34 85 85 68 85 85 51
102 102 68 102 85 68 51 68 17 85 102 68 102 119 102 119 119 102
153 170 136 136 136 119 153 153 136 153 153 119 153 170 136
204 187 153 136 136 102 119 102 85 136 119 85 119 102 85 136 136 119
153 153 136 187 187 170 204 204 170 204 221 170 238 238 187
153 153 85 136 136 68 102 102 68 34 51 17 17 34 17 0 17 0 0 17 0
68 85 34 68 85 34 34 51 0 51 85 17 51 68 17 51 68 34 85 85 68
17 34 17 17 17 17 17 34 17 34 51 34 119 119 85 136 136 102
136 136 102 136 136 102 153 136 102 68 68 51 68 85 34 170 153 119
153 136 102 102 102 51 136 119 68 85 85 34 17 34 0 102 119 68
187 170 119 102 102 68 51 68 34 17 51 34 34 51 34 85 85 51 85 85 51
51 51 17 68 68 34 102 102 68 119 102 68 102 102 34 51 51 0 102 68 34
102 85 68 102 68 68 119 102 85 119 119 68 102 102 51 102 102 68
68 68 51 51 51 17 102 102 17 102 102 51 102 102 68 136 136 119
136 136 102 119 119 85 153 136 102 153 136 119 153 136 102 136 119 85
136 119 85 153 136 102 153 136 102 170 170 153 153 170 136
153 153 136 187 187 170 187 187 153 170 170 136 85 102 17 119 136 34
119 136 51 34 51 0 0 17 0 51 68 34 17 34 0 68 68 17 85 85 34 17 51 17
68 85 34 68 85 34 17 34 0 17 34 17 17 34 17 17 34 17 0 17 0 51 68 51
136 136 102 153 136 102 170 153 119 170 153 102 170 153 119 85 85 51
102 119 51 68 68 51 85 85 51 136 119 51 136 136 68 85 85 34 34 51 17
51 68 34 68 85 51 51 51 34 51 68 34 85 85 51 68 68 51 102 102 68
136 119 85 102 102 68 51 68 34 17 34 17 51 68 34 68 85 34 17 17 0
51 34 0 51 34 17 34 51 34 34 34 17 85 85 51 68 68 34 34 51 17 17 34 0
68 68 34 102 102 51 102 102 34 85 102 34 136 136 102 136 119 102
68 68 34 119 119 68 136 119 102 136 119 85 136 119 85 119 119 85
170 153 102 170 153 102 153 153 119 136 136 119 119 136 136
119 136 136 136 153 153 136 136 136 34 68 17 51 68 34 102 119 51
102 102 68 34 51 17 51 68 34 51 51 17 34 51 17 68 68 17 51 68 17
102 102 51 85 85 51 68 68 51 68 85 68 17 34 17 0 34 0 0 34 0 85 85 51
102 102 85 68 85 51 68 68 51 51 51 34 51 51 34 68 68 34 68 68 51
68 68 34 68 85 34 85 51 17 68 68 17 34 51 0 34 51 17 17 17 0 51 51 17
68 68 34 34 51 17 85 85 51 68 68 51 85 85 68 102 102 85 119 102 85
136 119 102 102 102 68 68 68 34 34 34 17 17 34 17 17 34 17 34 51 17
34 51 17 17 34 17 0 17 0 0 17 17 17 34 17 17 34 34 34 34 34 34 51 34
85 85 51 68 85 51 85 102 68 102 102 68 51 51 34 51 68 34 136 136 102
102 102 85 119 119 85 136 119 85 136 136 102 153 136 102 136 136 102
119 119 119 119 119 136 119 119 119 119 119 119 119 119 119 34 51 17
17 34 17 68 85 51 102 102 68 51 51 17 17 34 0 34 51 17 34 34 0
34 51 17 51 68 17 68 85 17 136 153 68 68 68 51 17 34 17 17 34 0
0 34 0 0 34 0 119 119 85 102 85 68 0 17 0 0 0 0 0 17 0 68 68 51
85 85 68 51 51 34 34 34 17 51 51 34 34 34 17 34 34 17 34 51 0
34 51 17 85 102 34 136 136 85 136 136 85 85 85 68 119 119 85
153 153 102 153 136 102 136 119 85 119 119 85 102 102 85 85 85 51
51 68 34 102 102 68 68 68 34 17 34 17 17 34 17 17 34 17 17 51 17
0 17 17 17 34 17 17 34 17 0 17 17 34 34 34 34 51 34 119 119 68
153 136 102 136 119 85 136 119 102 102 85 68 34 51 17 102 119 85
102 102 85 119 119 85 153 136 102 119 119 85 136 136 102 136 136 119
102 119 102 102 102 102 102 119 102 102 119 102 102 102 85 34 51 17
0 17 0 34 68 17 17 34 0 17 17 0 34 51 17 51 51 34 51 51 34 34 51 17
85 102 17 68 68 17 85 119 34 102 119 34 68 68 51 17 51 0 0 34 0
17 34 0 17 17 0 0 17 0 0 17 0 17 17 0 17 34 17 68 85 51 51 51 34
17 17 0 17 17 17 17 17 17 34 34 17 51 51 34 34 51 17 34 51 0
136 119 68 102 102 68 85 85 68 51 68 51 51 68 34 85 85 51 136 119 85
170 153 102 170 153 102 153 136 102 136 136 85 68 85 34 102 119 68
102 119 68 17 34 17 17 34 17 17 34 17 34 51 34 0 17 17 0 17 17
0 17 17 17 34 17 68 85 51 68 68 51 102 102 68 170 153 119 153 136 102
153 136 102 153 136 102 85 85 51 119 102 85 136 119 85 119 102 85
102 102 85 136 119 102 153 136 102 119 119 102 102 102 102
119 119 119 85 102 85 51 68 34 68 85 51 51 68 34 0 34 0 17 34 17
0 17 0 17 34 0 51 68 34 51 68 51 34 51 34 68 68 51 85 85 17 68 85 17
51 68 17 102 119 34 17 17 17 17 34 0 17 34 0 17 34 0 34 34 17
102 102 68 136 136 85 153 136 102 153 153 102 119 119 85 17 17 0
17 17 0 34 34 17 17 17 0 17 17 0 136 136 85 68 68 34 34 51 0
119 119 68 85 85 51 51 68 17 51 51 34 85 85 68 102 102 85 17 34 17
68 68 34 136 136 102 119 119 85 102 85 68 68 68 34 51 68 17 68 85 51
17 51 17 34 51 0 51 68 17 34 51 17 0 17 0 17 34 17 102 102 68
119 102 68 85 85 68 85 85 68 51 68 51 34 51 34 51 51 34 68 68 51
102 102 68 119 102 85 102 102 68 102 102 68 102 102 68 102 102 68
119 119 85 119 119 85 102 102 102 102 102 102 102 102 85 85 102 85
68 68 51 34 51 17 34 51 17 17 34 0 17 34 0 0 17 0 34 51 0 102 102 68
51 68 51 17 34 17 51 51 34 68 68 17 34 34 0 34 51 0 85 102 34
34 51 17 0 34 17 0 34 17 17 34 17 68 68 51 85 85 68 102 102 68
102 85 68 85 85 68 51 51 34 0 17 0 17 34 17 34 34 17 34 51 34
34 51 34 102 102 68 51 68 34 34 51 17 34 51 17 34 34 17 51 68 34
34 34 34 51 68 51 85 102 68 51 68 34 34 51 34 68 85 68 51 68 51
17 34 17 17 34 17 34 51 17 51 85 17 34 51 0 17 51 0 68 85 34 85 85 51
51 51 17 34 51 17 51 68 34 51 51 34 34 51 17 102 102 68 119 102 85
68 68 51 85 85 68 68 85 51 85 85 51 136 119 85 136 119 102
153 136 102 136 119 102 136 136 102 153 136 102 136 136 102
136 119 102 119 102 85 85 102 85 68 85 68 51 68 51 34 34 17 0 17 0
17 34 0 17 34 0 17 34 0 34 34 17 68 68 34 68 68 34 34 51 34 17 51 34
51 68 17 102 85 34 34 51 17 51 68 34 34 51 34 17 34 17 17 34 17
17 34 17 17 51 34 51 68 51 68 85 68 85 85 68 102 102 68 102 102 68
51 51 34 51 51 34 68 85 68 51 68 51 51 68 51 51 68 34 34 51 17
34 51 17 34 51 17 17 34 17 34 51 34 17 34 17 17 17 0 17 34 0 17 34 17
17 34 17 0 17 17 17 34 17 51 51 34 68 68 34 68 85 17 34 51 0 34 51 0
34 51 0 51 68 34 34 51 0 0 34 0 0 34 0 0 17 0 0 17 0 17 34 17
68 68 51 68 68 51 85 68 51 85 85 51 85 85 51 85 102 68 119 119 85
102 102 68 102 102 68 119 119 85 119 102 85 153 136 102 136 136 102
136 119 85 119 119 85 85 102 85 85 85 85 34 51 17 34 51 17 17 34 17
0 17 0 17 17 0 34 34 0 34 34 0 51 51 17 68 68 34 34 51 34 34 51 17
34 51 17 34 51 17 17 34 17 17 34 17 34 34 0 51 68 34 17 34 17
34 34 17 17 34 17 34 51 17 34 51 34 51 51 34 68 68 51 85 85 51
85 85 68 85 68 51 68 68 51 34 34 34 34 34 34 34 34 0 17 34 0 17 34 0
17 34 0 17 34 0 34 34 0 51 34 17 34 34 17 17 34 17 17 34 17 17 34 17
34 51 34 51 68 51 51 68 34 102 85 17 102 85 34 51 68 17 17 51 0
17 51 0 34 51 17 34 68 0 17 51 0 0 34 0 0 34 0 17 51 17 85 85 51
68 68 51 34 51 34 34 51 34 34 51 34 34 51 34 51 51 34 102 102 68
102 102 68 51 51 34 68 68 51 85 85 51 153 136 102 153 136 102
153 136 85 136 119 85 102 102 68 51 68 51 17 34 0 34 51 34 17 34 17
17 17 0 17 34 0 34 51 17 34 34 0 34 51 0 34 51 0 34 51 17 17 34 0
51 51 17 51 51 34 34 51 17 17 17 0 17 34 0 68 68 17 34 34 17 68 68 34
68 68 34 34 34 17 17 34 17 34 34 17 34 51 34 34 51 34 34 34 34
34 34 17 17 17 17 17 17 17 34 34 17 34 34 17 17 34 0 17 34 0 17 34 0
17 34 17 51 68 34 34 51 34 34 51 34 17 34 34 34 51 34 51 68 51
34 68 51 51 68 51 51 51 34 34 51 0 51 51 17 34 34 0 0 17 0 17 17 0
0 17 0 17 34 0 0 34 0 0 34 0 17 34 17 68 51 34 102 85 51 102 85 51
85 68 51 51 51 34 51 51 34 51 51 34 51 51 34 51 51 34 102 102 68
68 68 51 51 51 34 85 85 51 136 119 85 136 136 85 153 136 102
119 102 68 51 51 51 51 68 34 0 17 0 0 17 17 17 17 0 51 51 34 34 51 34
17 17 0 17 34 0 17 34 0 17 34 0 17 34 0 51 51 17 34 34 17 34 51 17
34 51 17 51 51 34 17 34 17 0 0 0 34 51 0 68 68 34 68 85 51 34 51 17
51 51 34 51 51 34 34 34 17 34 34 17 17 17 17 17 17 0 17 17 0 17 17 0
17 17 0 34 34 0 17 34 0 17 34 0 68 68 34 51 51 17 17 34 17 0 17 0
0 17 17 17 34 17 68 68 34 51 51 17 17 17 17 0 17 17 17 34 17 68 68 17
68 68 17 51 51 17 17 17 0 17 34 0 17 34 0 17 34 0 51 68 17 102 102 68
34 34 17 17 17 0 34 51 17 68 68 34 68 68 34 68 68 34 68 68 34
51 51 34 51 51 34 51 51 34 68 68 34 85 85 51 68 68 51 68 68 51
153 136 102 153 136 102 68 68 51 0 17 0 0 17 0 17 34 0 0 17 0 0 17 0
34 34 17 34 51 34 17 34 17 34 34 34 34 34 17 0 17 17 17 34 0 51 68 0
68 85 17 51 68 17 17 34 0 17 34 17 34 34 17 34 34 17 34 34 17
34 34 17 51 51 17 51 51 17 51 51 34 51 51 34 51 51 34 34 51 17
34 34 17 17 34 17 17 34 17 34 51 34 34 34 17 34 34 0 34 51 17 34 34 0
34 34 0 68 68 34 17 34 17 0 17 17 17 17 17 17 17 17 34 34 17 51 51 17
34 34 0 0 17 0 0 17 0 0 17 0 34 34 17 34 34 17 34 51 17 17 34 0
68 68 34 102 85 34 85 68 17 17 51 0 119 119 68 136 119 68 68 68 34
17 34 0 17 34 17 34 34 17 34 34 17 34 34 17 34 34 17 34 34 17
17 17 17 34 34 17 51 51 34 68 68 51 68 68 51 119 119 68 34 34 17
0 0 0 0 17 0 0 17 17 0 17 0 0 17 17 17 34 17 17 34 17 17 17 17
17 34 17 34 51 34 34 51 17 17 17 17 17 17 0 68 68 34 68 68 34 51 51 0
102 102 51 68 68 34 51 51 34 51 51 17 17 34 0 34 51 17 17 34 0
34 34 17 51 51 34 51 51 34 34 51 34 34 34 34 17 34 34 17 34 34
17 34 17 17 34 17 34 34 17 17 34 17 34 34 17 17 17 0 17 34 0 17 34 17
34 34 17 85 68 34 34 34 17 17 17 0 51 34 17 51 51 0 34 51 17 17 34 17
0 34 17 17 34 17 34 51 17 17 17 0 17 34 0 68 68 17 51 68 34 85 85 51
102 85 34 17 34 0 34 51 17 136 119 68 136 119 68 119 102 51 85 68 34
68 68 34 85 85 51 68 68 34 68 68 34 51 51 34 34 34 17 34 34 17
68 68 51 85 68 51 85 68 51 51 68 34 17 34 17 17 34 17 17 34 17
34 34 17 34 34 17 17 34 34 17 34 34 17 17 17 0 17 17 34 34 34
34 51 17 17 34 17 17 17 17 17 34 17 17 34 17 34 51 34 51 51 17
68 68 17 68 68 17 51 51 34 51 51 17 17 17 0 17 34 17 17 17 0 0 17 0
17 34 17 17 34 17 17 34 34 17 34 34 17 34 34 17 34 34 0 34 17 0 17 17
17 34 0 17 17 0 0 17 0 17 17 0 34 34 17 34 34 17 34 34 0 102 85 34
119 102 68 68 68 34 34 51 0 51 51 0 51 51 17 17 34 17 17 34 17
17 34 17 34 34 17 17 17 0 17 17 0 51 51 17 68 68 17 34 51 17 17 17 0
17 17 0 17 17 0 136 102 51 119 85 51 68 68 34 68 68 34 68 68 34
102 85 51 119 102 68 119 102 68 119 102 68 119 102 68 119 102 68
102 102 68 102 102 68 102 85 68 68 68 68 85 85 68 85 85 68 102 85 68
85 85 68 68 68 51 51 51 51 51 51 34 51 51 34 34 34 34 34 51 34
34 51 17 68 51 34 34 34 17 17 17 17 17 34 17 34 51 17 51 51 34
34 34 17 17 17 0 34 51 17 0 17 0 0 17 0 17 17 17 17 17 17 17 34 17
17 34 17 17 34 34 17 34 17 17 34 34 17 34 34 17 34 34 17 34 17
34 34 17 34 34 17 85 68 17 51 51 17 34 34 17 34 34 17 34 34 17
17 17 0 17 17 0 68 68 34 85 85 34 68 68 17 102 85 51 68 68 34
17 34 17 17 34 17 34 34 17 34 34 17 17 34 17 34 34 17 17 34 17
68 85 34 85 85 34 51 34 17 0 17 0 34 34 17 85 68 34 102 85 51
102 85 51 34 34 17 17 17 17 34 34 17 68 68 51 68 68 51 68 68 51
85 68 51 102 85 68 119 102 68 119 102 68 102 85 68 68 68 51 51 68 51
51 51 51 51 51 34 51 51 34 51 51 34 51 51 34 51 51 34 51 51 34
51 51 34 85 85 51 85 68 34 51 51 34 34 34 17 0 17 17 17 34 17
17 34 17 17 34 17 17 34 17 17 17 0 17 34 0 17 34 0 0 17 0 17 17 0
17 34 17 17 17 17 0 17 17 17 17 17 17 17 17 17 17 17 17 34 17
17 34 17 34 51 34 51 51 34 34 34 17 51 51 17 51 51 34 34 34 17
34 34 17 34 34 17 68 68 34 51 51 17 34 34 17 0 17 0 34 34 17 85 85 51
102 85 51 17 34 17 34 51 34 51 51 34 34 34 17 34 34 17 34 34 17
34 34 17 34 51 17 102 102 68 68 68 34 34 34 17 51 51 34 85 85 51
119 119 68 153 136 85 136 119 85 102 85 51 51 51 34 51 51 34 51 51 34
51 51 34 51 51 34 51 51 34 85 85 51 102 102 68 119 102 68 51 51 34
51 51 34 34 51 34 51 51 34 51 51 34 34 34 34 51 51 34 51 51 34
34 34 34 34 34 17 34 34 17 17 34 17 17 34 17 0 17 17 0 17 17 17 34 17
17 34 17 34 34 17 34 34 17 17 34 17 17 17 17 17 17 0 17 34 0 17 17 0
17 17 0 17 17 0 0 17 0 0 17 0 17 17 0 17 17 17 17 34 17 34 34 17
34 34 17 34 34 17 34 34 17 17 17 17 17 17 17 17 17 17 17 34 17
34 34 17 34 34 17 34 34 17 17 34 17 17 17 17 34 34 17 34 51 17
68 68 34 68 68 34 102 85 51 136 102 51 102 85 51 85 85 51 85 85 51
102 85 51 34 34 0 102 102 51 102 85 51 68 68 34 51 51 34 68 68 34
102 85 51 136 119 85 153 136 85 170 136 85 153 136 85 153 136 85
136 119 85 136 119 85 119 119 68 102 102 68 102 102 68 119 119 85
119 102 85 51 68 51 68 68 51 85 68 51 68 68 51 68 68 51 51 51 34
34 34 34 34 34 34 17 17 17 17 17 17 34 34 17 34 34 17 34 34 17
17 17 17 17 34 17 17 34 17 17 34 0 17 34 17 17 17 17 17 17 17
17 17 17 17 17 17 0 17 0 17 17 0 17 17 0 17 17 0 17 17 0 17 17 0
17 17 17 17 17 0 17 17 17 17 17 17 17 17 17 17 17 17 17 17 17
17 17 17 17 17 17 17 34 17 17 34 17 17 34 17 34 34 17 34 34 17
34 34 17 17 17 17 17 17 17 17 17 0 68 68 34 119 85 51 119 85 51
119 102 51 136 119 68 153 136 68 153 136 68 153 119 68 85 68 34
68 85 34 119 102 68 51 51 34 51 51 34 34 51 34 34 51 34 34 51 34
51 51 34 68 68 51 102 85 51 102 102 68 119 102 68 136 119 68
136 119 85 136 119 85 119 102 68 102 85 68 85 85 68 68 68 51 68 68 51
68 68 51 51 51 34 51 51 34 51 51 34 34 34 34 17 34 17 34 34 34
34 34 17 17 17 17 17 17 17 17 17 17 17 17 17 17 34 17 17 34 0 0 34 0
17 34 17 17 17 17 17 17 17 17 17 17 17 17 17 17 17 17 17 17 0
17 17 17 17 17 17 17 17 17 17 17 17 17 17 17 17 17 17 17 17 17
17 17 17 17 17 17 17 17 17 34 34 17 34 51 17 68 51 34 51 51 34
68 51 34 85 68 34 85 85 34 102 85 51 85 68 34 51 34 17 34 34 17
34 34 17 51 51 17 85 68 34 85 68 34 102 85 34 119 85 34 119 102 51
136 102 51 153 136 68 153 136 85 102 102 51 136 119 68 102 85 51
51 51 34 51 51 34 51 51 34 51 51 34 51 51 34 51 51 34 34 51 34
34 34 34 34 34 34 34 51 34 51 51 34 51 51 34 51 51 34 51 51 34
51 51 34 51 51 51 51 51 34 34 51 34 34 34 34 34 34 34 34 34 34
17 34 17 17 17 17 17 17 17 0 17 17 0 17 17 0 17 0 0 17 0 0 17 17
17 17 17 17 17 17 0 17 0 17 34 0 17 34 17 17 17 17 17 17 17 17 17 17
17 17 17 17 17 17 17 17 17 17 17 17 17 17 17 17 34 17 34 51 17
51 51 17 34 51 17 34 34 17 34 34 17 68 51 34 102 85 51 119 102 51
119 102 51 119 102 51 119 85 51 119 102 51 119 102 51 136 102 51
119 102 51 119 102 51 102 85 51 102 85 51 102 85 51 85 68 34 68 68 34
51 51 17 34 17 0 34 17 0 68 51 17 153 119 68 153 119 68 170 136 85
136 119 68 136 119 68 102 85 51 68 68 34 51 68 34 51 51 34 51 51 34
51 51 34 51 51 34 51 51 34 51 51 34 51 51 34 51 51 34 51 51 34
51 51 51 51 51 51 51 51 34 51 51 34 51 51 34 34 34 34 34 34 34
34 34 34 17 34 17 17 17 17 17 17 17 17 17 17 17 17 17 17 17 17
17 17 17 17 34 17 34 34 17 34 34 17 34 51 34 51 51 34 34 34 17
34 34 17 34 34 17 17 34 17 34 34 17 34 34 17 34 34 17 51 51 34
51 51 34 51 51 34 34 51 17 68 51 34 85 85 51 85 85 51 68 51 34
102 85 51 119 102 51 119 102 51 119 102 51 119 102 68 119 102 68
119 102 51 119 102 51 102 85 51 102 85 51 119 102 51 136 102 68
102 85 51 85 85 51 68 51 34 34 34 17 17 17 17 0 0 0 0 17 0 17 17 0
34 17 0 85 68 34 85 68 34 136 119 68 136 119 68 119 85 51 68 51 34
51 51 34 68 68 34 85 85 51 68 68 51 68 68 51 51 51 34 51 51 34
51 51 51 51 51 34 51 51 34 51 51 34 51 51 51 51 51 51 51 51 34
51 51 51 51 51 34 51 51 34 34 34 34 34 34 34 34 34 34 34 34 34
17 34 17 17 34 17 17 34 17 34 34 34 34 34 34 34 34 34 34 34 17
34 34 17 34 34 17 34 34 34 34 51 34 51 51 34 51 51 34 51 51 34
68 68 34 68 68 51 85 68 51 85 68 51 68 68 51 85 68 51 85 68 51
85 85 51 85 68 34 51 51 34 51 51 34 85 68 34 68 68 34 68 68 34
68 51 34 68 51 34 68 51 34 68 68 34 85 68 51 102 85 51 119 102 51
136 119 68 102 85 51 51 51 34 51 51 34 34 34 17 34 34 17 34 34 17
34 34 17 51 51 17 85 68 34 85 68 34 102 85 51 119 102 51 119 102 68
119 102 68 119 102 51 85 68 51 68 68 34 68 68 51 68 68 51 68 68 51
68 68 51 51 68 51 51 51 51 51 51 51 51 51 51 51 51 51 51 51 51
51 51 51 51 51 51 51 51 34 51 51 51 51 51 34 34 51 34 34 34 34
34 34 34 34 34 34 17 34 17 34 34 34 17 34 34 17 34 34 34 34 34
17 34 34 17 34 34 34 34 34 34 34 34 34 34 34 34 34 34 34 34 34
34 34 34 34 51 34 34 34 34 51 51 34 51 51 34 51 51 34 51 51 34
51 51 51 51 51 34 51 51 34 51 51 34 34 34 34 34 51 34 51 51 34
51 51 34 51 51 34 51 51 34 68 68 34 85 85 51 102 85 51 119 102 68
136 119 68 136 119 68 153 119 68 153 119 68 136 119 68 102 102 51
102 85 51 85 68 51 102 85 51 102 102 51 119 102 68 136 119 68
153 136 85 153 119 68 136 119 68 136 119 85 136 119 68 136 119 68
119 102 68 119 102 68 102 85 68 85 85 51 68 68 51 68 68 51 68 68 51
68 68 51 68 68 51 68 68 51 68 68 51 68 68 51 51 51 51 51 51 51
51 51 51 51 51 51 51 51 51 51 51 51 51 51 34 34 51 34 34 51 34
34 51 34 34 51 34 34 34 34 34 34 34 34 34 34 34 34 34 34 34 34
34 34 34 34 34 34 51 51 51 85 68 51 85 85 51 68 68 51 51 51 34
51 51 34 51 51 34 34 51 34 51 51 34 51 51 34 51 51 34 68 68 51
102 85 68 102 102 68 102 102 68 119 102 68 119 102 68 119 102 68
119 102 68 119 102 68 119 102 68 119 102 68 119 102 68 119 102 68
119 102 68 119 102 68 119 102 68 119 102 68 119 102 68 136 102 68
136 102 68 136 102 68 119 102 68 136 119 68 136 119 68 136 119 68
136 119 68 136 119 85 136 119 85 153 119 68 153 136 85 136 119 68
102 102 68 85 85 51 68 68 51 68 68 51 68 68 51 68 68 51 68 68 51
68 68 51 68 68 51 68 68 51 68 68 51 51 68 51 51 68 51 51 68 51
51 51 51 51 51 51 51 51 51 51 51 51 51 51 51 51 51 51 51 51 51
51 51 51 51 51 51 51 51 51 51 51 51 51 51 34 34 51 34 34 51 34
51 51 51 51 51 51 68 68 51 102 102 68 102 85 68 85 85 68 102 85 68
85 85 51 68 68 51 68 68 51 68 68 51 85 85 51 85 85 51 85 85 51
102 85 68 102 102 68 102 102 68 102 102 68 119 102 68 119 102 68
119 102 68 102 85 68 85 85 51 85 85 51 85 68 51 68 68 51 68 68 51
85 68 51 85 85 51 85 85 51 102 85 68 102 102 68 102 102 68 119 102 68
119 102 68 119 102 68 136 119 68 119 102 68 136 119 68 119 119 68
136 119 68 119 102 68 119 102 68 102 102 68 85 85 51 68 68 51
68 85 51 68 68 51 68 68 51 68 68 51 68 68 51 68 68 51 68 68 51
68 68 51 68 68 51 68 68 51 68 68 51 68 68 51 68 68 51 51 51 51
68 68 51 68 68 51
