P3
73 43
255
76 78 52 76 78 52 108 105 81 76 78 52 76 78 52 123 134 135 35 44 26
76 78 52 123 134 135 68 64 40 123 134 135 76 78 52 76 78 52
123 134 135 68 64 40 108 105 81 108 105 81 108 105 81 76 78 52
108 105 81 108 105 81 76 78 52 108 105 81 108 105 81 108 105 81
108 105 81 108 105 81 108 105 81 135 122 93 108 105 81 108 105 81
135 122 93 135 122 93 108 105 81 135 122 93 135 122 93 108 105 81
135 122 93 135 122 93 123 134 135 135 122 93 123 134 135 135 122 93
135 122 93 135 122 93 135 122 93 135 122 93 135 122 93 123 134 135
148 137 108 135 122 93 135 122 93 135 122 93 148 137 108 148 137 108
135 122 93 148 137 108 135 122 93 135 122 93 148 137 108 135 122 93
135 122 93 148 137 108 135 122 93 135 122 93 135 122 93 123 134 135
135 122 93 135 122 93 123 134 135 108 105 81 135 122 93 135 122 93
108 105 81 76 78 52 108 105 81 76 78 52 108 105 81 76 78 52
123 134 135 68 64 40 76 78 52 108 105 81 35 44 26 123 134 135
108 105 81 76 78 52 123 134 135 76 78 52 108 105 81 108 105 81
108 105 81 108 105 81 76 78 52 123 134 135 108 105 81 108 105 81
108 105 81 123 134 135 108 105 81 108 105 81 108 105 81 135 122 93
108 105 81 123 134 135 108 105 81 135 122 93 135 122 93 135 122 93
123 134 135 135 122 93 135 122 93 135 122 93 135 122 93 148 137 108
135 122 93 148 137 108 135 122 93 123 134 135 148 137 108 148 137 108
135 122 93 148 137 108 135 122 93 148 137 108 135 122 93 123 134 135
135 122 93 148 137 108 123 134 135 135 122 93 135 122 93 135 122 93
123 134 135 148 137 108 135 122 93 148 137 108 148 137 108 135 122 93
135 122 93 135 122 93 135 122 93 135 122 93 135 122 93 123 134 135
123 134 135 76 78 52 76 78 52 76 78 52 76 78 52 108 105 81 76 78 52
108 105 81 76 78 52 76 78 52 123 134 135 68 64 40 76 78 52
123 134 135 68 64 40 76 78 52 108 105 81 108 105 81 108 105 81
108 105 81 108 105 81 123 134 135 108 105 81 108 105 81 148 137 108
108 105 81 123 134 135 161 166 144 123 134 135 135 122 93 123 134 135
123 134 135 108 105 81 123 134 135 161 166 144 148 137 108
123 134 135 148 137 108 148 137 108 148 137 108 148 137 108
148 137 108 148 137 108 148 137 108 148 137 108 148 137 108
148 137 108 148 137 108 148 137 108 148 137 108 148 137 108
135 122 93 123 134 135 148 137 108 165 150 108 135 122 93 148 137 108
135 122 93 135 122 93 148 137 108 123 134 135 135 122 93 135 122 93
135 122 93 135 122 93 123 134 135 135 122 93 135 122 93 135 122 93
135 122 93 135 122 93 108 105 81 108 105 81 135 122 93 76 78 52
76 78 52 108 105 81 76 78 52 76 78 52 108 105 81 68 64 40 108 105 81
123 134 135 35 44 26 108 105 81 76 78 52 68 64 40 123 134 135
76 78 52 108 105 81 108 105 81 108 105 81 123 134 135 108 105 81
135 122 93 123 134 135 135 122 93 148 137 108 135 122 93 209 209 172
242 243 215 209 209 172 165 150 108 135 122 93 165 150 108
242 243 215 242 243 215 242 243 215 209 209 172 165 150 108
135 122 93 135 122 93 148 137 108 148 137 108 148 137 108 148 137 108
135 122 93 148 137 108 135 122 93 148 137 108 148 137 108 135 122 93
148 137 108 148 137 108 135 122 93 108 105 81 148 137 108 148 137 108
135 122 93 135 122 93 135 122 93 135 122 93 148 137 108 135 122 93
135 122 93 135 122 93 123 134 135 135 122 93 135 122 93 135 122 93
135 122 93 135 122 93 135 122 93 148 137 108 135 122 93 135 122 93
135 122 93 76 78 52 123 134 135 76 78 52 108 105 81 68 64 40
108 105 81 76 78 52 108 105 81 108 105 81 108 105 81 108 105 81
108 105 81 123 134 135 123 134 135 135 122 93 135 122 93 148 137 108
148 137 108 165 150 108 135 122 93 148 137 108 165 150 108
148 137 108 123 134 135 148 137 108 242 243 215 242 243 215
242 243 215 209 209 172 123 134 135 209 209 172 242 243 215
242 243 215 242 243 215 242 243 215 209 209 172 135 122 93 135 122 93
135 122 93 123 134 135 148 137 108 135 122 93 148 137 108 148 137 108
135 122 93 135 122 93 135 122 93 135 122 93 148 137 108 135 122 93
135 122 93 135 122 93 135 122 93 108 105 81 135 122 93 135 122 93
148 137 108 135 122 93 123 134 135 148 137 108 123 134 135 135 122 93
135 122 93 135 122 93 135 122 93 135 122 93 148 137 108 123 134 135
135 122 93 135 122 93 135 122 93 135 122 93 135 122 93 76 78 52
35 44 26 76 78 52 76 78 52 76 78 52 76 78 52 108 105 81 108 105 81
108 105 81 135 122 93 123 134 135 165 150 108 108 105 81 123 134 135
135 122 93 123 134 135 135 122 93 161 166 144 165 150 108 148 137 108
148 137 108 122 132 86 165 150 108 165 150 108 209 209 172
161 166 144 209 209 172 242 243 215 242 243 215 161 166 144
242 243 215 242 243 215 242 243 215 242 243 215 242 243 215
242 243 215 161 166 144 135 122 93 148 137 108 135 122 93 165 150 108
135 122 93 148 137 108 148 137 108 123 134 135 135 122 93 135 122 93
135 122 93 148 137 108 135 122 93 108 105 81 135 122 93 135 122 93
123 134 135 148 137 108 148 137 108 135 122 93 135 122 93 135 122 93
135 122 93 135 122 93 148 137 108 123 134 135 135 122 93 123 134 135
135 122 93 135 122 93 135 122 93 148 137 108 135 122 93 123 134 135
165 150 108 135 122 93 76 78 52 123 134 135 76 78 52 135 122 93
123 134 135 123 134 135 135 122 93 165 150 108 148 137 108
123 134 135 165 150 108 148 137 108 148 137 108 161 166 144
165 150 108 165 150 108 148 137 108 108 105 81 108 105 81 165 150 108
165 150 108 148 137 108 165 150 108 165 150 108 161 166 144
161 166 144 209 209 172 209 209 172 242 243 215 242 243 215
161 166 144 209 209 172 242 243 215 242 243 215 209 209 172
242 243 215 209 209 172 148 137 108 135 122 93 135 122 93 135 122 93
165 150 108 165 150 108 135 122 93 135 122 93 108 105 81 148 137 108
161 166 144 148 137 108 148 137 108 135 122 93 135 122 93 135 122 93
135 122 93 123 134 135 148 137 108 148 137 108 148 137 108
148 137 108 148 137 108 135 122 93 135 122 93 135 122 93 148 137 108
148 137 108 148 137 108 148 137 108 148 137 108 135 122 93
148 137 108 135 122 93 135 122 93 123 134 135 123 134 135 123 134 135
123 134 135 123 134 135 123 134 135 123 134 135 135 122 93
123 134 135 148 137 108 165 150 108 148 137 108 165 150 108
148 137 108 135 122 93 148 137 108 148 137 108 165 150 108
148 137 108 161 166 144 135 122 93 108 105 81 161 166 144 148 137 108
161 166 144 123 134 135 209 209 172 209 209 172 209 209 172
209 209 172 209 209 172 209 209 172 242 243 215 209 209 172
209 209 172 161 166 144 209 209 172 209 209 172 165 150 108
135 122 93 68 64 40 135 122 93 161 166 144 165 150 108 161 166 144
148 137 108 135 122 93 135 122 93 148 137 108 148 137 108 135 122 93
135 122 93 123 134 135 148 137 108 165 150 108 165 150 108
148 137 108 135 122 93 123 134 135 148 137 108 165 150 108
148 137 108 148 137 108 148 137 108 135 122 93 108 105 81 135 122 93
148 137 108 165 150 108 148 137 108 148 137 108 165 150 108
161 166 144 148 137 108 148 137 108 135 122 93 148 137 108
165 150 108 165 150 108 165 150 108 165 150 108 135 122 93 135 122 93
135 122 93 148 137 108 161 166 144 165 150 108 148 137 108 135 122 93
123 134 135 148 137 108 165 150 108 165 150 108 123 134 135
122 132 86 135 122 93 123 134 135 148 137 108 161 166 144 123 134 135
209 209 172 209 209 172 209 209 172 168 170 67 209 209 172
161 166 144 135 122 93 148 137 108 148 137 108 76 78 52 122 132 86
168 170 67 122 132 86 97 96 46 122 132 86 122 132 86 161 166 144
165 150 108 165 150 108 135 122 93 148 137 108 148 137 108
165 150 108 148 137 108 135 122 93 148 137 108 108 105 81 148 137 108
148 137 108 161 166 144 148 137 108 148 137 108 148 137 108
148 137 108 148 137 108 148 137 108 148 137 108 161 166 144
209 209 172 165 150 108 165 150 108 135 122 93 135 122 93 108 105 81
135 122 93 135 122 93 161 166 144 148 137 108 165 150 108 165 150 108
148 137 108 108 105 81 165 150 108 165 150 108 161 166 144
123 134 135 135 122 93 148 137 108 209 209 172 242 243 215
209 209 172 135 122 93 135 122 93 135 122 93 148 137 108 148 137 108
148 137 108 148 137 108 148 137 108 161 166 144 148 137 108
123 134 135 123 134 135 122 132 86 209 209 172 209 209 172 130 111 41
122 132 86 168 170 67 165 150 108 161 166 144 209 209 172 76 78 52
35 44 26 122 132 86 97 96 46 56 70 32 161 166 144 122 132 86
148 137 108 165 150 108 148 137 108 165 150 108 165 150 108
165 150 108 161 166 144 165 150 108 148 137 108 135 122 93
148 137 108 148 137 108 148 137 108 148 137 108 165 150 108
165 150 108 165 150 108 148 137 108 148 137 108 148 137 108
165 150 108 161 166 144 242 243 215 242 243 215 209 209 172
209 209 172 209 209 172 209 209 172 161 166 144 161 166 144
135 122 93 135 122 93 148 137 108 161 166 144 165 150 108 161 166 144
165 150 108 165 150 108 148 137 108 135 122 93 148 137 108
161 166 144 242 243 215 242 243 215 242 243 215 209 209 172
148 137 108 165 150 108 165 150 108 165 150 108 165 150 108
108 105 81 135 122 93 148 137 108 123 134 135 123 134 135 122 132 86
161 166 144 161 166 144 161 166 144 56 70 32 130 111 41 168 170 67
168 170 67 148 137 108 122 132 86 56 70 32 35 44 26 35 44 26 56 70 32
56 70 32 122 132 86 165 150 108 148 137 108 148 137 108 148 137 108
108 105 81 135 122 93 135 122 93 135 122 93 165 150 108 161 166 144
165 150 108 135 122 93 148 137 108 165 150 108 148 137 108
165 150 108 165 150 108 148 137 108 148 137 108 148 137 108
148 137 108 123 134 135 161 166 144 209 209 172 242 243 215
242 243 215 242 243 215 242 243 215 242 243 215 242 243 215
209 209 172 135 122 93 161 166 144 108 105 81 135 122 93 135 122 93
148 137 108 165 150 108 165 150 108 165 150 108 148 137 108
148 137 108 209 209 172 209 209 172 242 243 215 242 243 215
242 243 215 161 166 144 148 137 108 165 150 108 161 166 144
168 170 67 161 166 144 165 150 108 123 134 135 123 134 135 122 132 86
123 134 135 122 132 86 161 166 144 122 132 86 122 132 86 97 96 46
168 170 67 161 166 144 168 170 67 122 132 86 35 44 26 35 44 26
35 44 26 56 70 32 56 70 32 122 132 86 76 78 52 108 105 81 97 96 46
35 44 26 97 96 46 108 105 81 108 105 81 135 122 93 161 166 144
165 150 108 161 166 144 148 137 108 161 166 144 148 137 108
168 170 67 148 137 108 135 122 93 148 137 108 148 137 108 148 137 108
148 137 108 161 166 144 123 134 135 165 150 108 209 209 172
242 243 215 242 243 215 242 243 215 242 243 215 242 243 215
242 243 215 165 150 108 135 122 93 161 166 144 165 150 108
165 150 108 165 150 108 135 122 93 135 122 93 148 137 108 168 170 67
161 166 144 209 209 172 209 209 172 209 209 172 161 166 144
242 243 215 209 209 172 122 132 86 123 134 135 148 137 108
161 166 144 161 166 144 148 137 108 123 134 135 122 132 86 108 105 81
122 132 86 148 137 108 165 150 108 165 150 108 165 150 108 108 105 81
130 111 41 168 170 67 161 166 144 165 150 108 56 70 32 35 44 26
35 44 26 56 70 32 56 70 32 35 44 26 35 44 26 56 70 32 56 70 32
76 78 52 165 150 108 161 166 144 161 166 144 165 150 108 135 122 93
135 122 93 123 134 135 122 132 86 97 96 46 76 78 52 97 96 46
122 132 86 97 96 46 56 70 32 122 132 86 165 150 108 123 134 135
148 137 108 161 166 144 123 134 135 209 209 172 209 209 172
242 243 215 209 209 172 209 209 172 242 243 215 209 209 172
135 122 93 135 122 93 148 137 108 148 137 108 165 150 108 161 166 144
165 150 108 135 122 93 135 122 93 123 134 135 161 166 144 161 166 144
161 166 144 161 166 144 209 209 172 161 166 144 161 166 144
122 132 86 168 170 67 122 132 86 122 132 86 165 150 108 76 78 52
56 70 32 165 150 108 122 132 86 123 134 135 165 150 108 161 166 144
108 105 81 68 64 40 56 70 32 76 78 52 130 111 41 122 132 86
108 105 81 108 105 81 56 70 32 56 70 32 35 44 26 35 44 26 35 44 26
56 70 32 148 137 108 122 132 86 108 105 81 122 132 86 108 105 81
122 132 86 165 150 108 165 150 108 135 122 93 108 105 81 97 96 46
108 105 81 122 132 86 122 132 86 122 132 86 97 96 46 35 44 26
56 70 32 148 137 108 148 137 108 123 134 135 123 134 135 161 166 144
165 150 108 168 170 67 168 170 67 209 209 172 242 243 215 242 243 215
242 243 215 161 166 144 165 150 108 165 150 108 148 137 108
135 122 93 108 105 81 161 166 144 161 166 144 168 170 67 165 150 108
161 166 144 161 166 144 122 132 86 161 166 144 161 166 144
209 209 172 168 170 67 122 132 86 56 70 32 97 96 46 122 132 86
122 132 86 35 44 26 148 137 108 165 150 108 148 137 108 108 105 81
108 105 81 76 78 52 35 44 26 35 44 26 35 44 26 35 44 26 35 44 26
56 70 32 56 70 32 35 44 26 56 70 32 56 70 32 56 70 32 56 70 32
56 70 32 168 170 67 148 137 108 168 170 67 108 105 81 56 70 32
168 170 67 122 132 86 148 137 108 108 105 81 135 122 93 108 105 81
135 122 93 165 150 108 165 150 108 165 150 108 165 150 108 122 132 86
56 70 32 35 44 26 35 44 26 108 105 81 148 137 108 135 122 93 76 78 52
97 96 46 130 111 41 168 170 67 168 170 67 242 243 215 242 243 215
209 209 172 165 150 108 135 122 93 148 137 108 135 122 93 161 166 144
123 134 135 122 132 86 122 132 86 123 134 135 165 150 108 165 150 108
161 166 144 209 209 172 161 166 144 97 96 46 130 111 41 97 96 46
97 96 46 97 96 46 97 96 46 97 96 46 56 70 32 56 70 32 165 150 108
108 105 81 165 150 108 148 137 108 122 132 86 108 105 81 108 105 81
35 44 26 35 44 26 35 44 26 35 44 26 35 44 26 97 96 46 76 78 52
56 70 32 97 96 46 56 70 32 97 96 46 122 132 86 122 132 86 97 96 46
76 78 52 56 70 32 35 44 26 130 111 41 56 70 32 108 105 81 165 150 108
135 122 93 135 122 93 108 105 81 56 70 32 97 96 46 148 137 108
148 137 108 148 137 108 76 78 52 35 44 26 68 64 40 68 64 40
108 105 81 135 122 93 130 111 41 130 111 41 168 170 67 168 170 67
209 209 172 209 209 172 209 209 172 242 243 215 161 166 144
161 166 144 165 150 108 161 166 144 123 134 135 209 209 172
209 209 172 209 209 172 123 134 135 123 134 135 165 150 108
165 150 108 122 132 86 76 78 52 35 44 26 35 44 26 130 111 41 56 70 32
56 70 32 56 70 32 122 132 86 56 70 32 76 78 52 122 132 86 56 70 32
56 70 32 35 44 26 35 44 26 108 105 81 165 150 108 148 137 108
148 137 108 108 105 81 35 44 26 35 44 26 35 44 26 108 105 81 97 96 46
56 70 32 130 111 41 97 96 46 97 96 46 35 44 26 108 105 81 161 166 144
108 105 81 108 105 81 56 70 32 97 96 46 35 44 26 35 44 26 76 78 52
76 78 52 108 105 81 108 105 81 68 64 40 68 64 40 108 105 81
135 122 93 108 105 81 97 96 46 97 96 46 56 70 32 108 105 81
123 134 135 122 132 86 123 134 135 165 150 108 161 166 144
209 209 172 209 209 172 242 243 215 209 209 172 161 166 144
165 150 108 135 122 93 123 134 135 161 166 144 161 166 144
242 243 215 242 243 215 209 209 172 122 132 86 122 132 86 122 132 86
56 70 32 35 44 26 35 44 26 35 44 26 56 70 32 56 70 32 97 96 46
56 70 32 122 132 86 56 70 32 168 170 67 56 70 32 56 70 32 35 44 26
35 44 26 35 44 26 122 132 86 161 166 144 165 150 108 165 150 108
135 122 93 35 44 26 135 122 93 97 96 46 97 96 46 76 78 52 56 70 32
97 96 46 76 78 52 97 96 46 97 96 46 35 44 26 76 78 52 108 105 81
122 132 86 97 96 46 108 105 81 97 96 46 76 78 52 97 96 46 122 132 86
97 96 46 97 96 46 135 122 93 165 150 108 97 96 46 108 105 81 97 96 46
135 122 93 97 96 46 68 64 40 97 96 46 123 134 135 123 134 135
161 166 144 165 150 108 161 166 144 165 150 108 161 166 144
209 209 172 148 137 108 135 122 93 135 122 93 135 122 93 161 166 144
161 166 144 209 209 172 209 209 172 242 243 215 242 243 215
168 170 67 168 170 67 97 96 46 56 70 32 35 44 26 35 44 26 35 44 26
56 70 32 56 70 32 56 70 32 56 70 32 56 70 32 56 70 32 108 105 81
35 44 26 35 44 26 35 44 26 35 44 26 108 105 81 148 137 108
165 150 108 165 150 108 165 150 108 97 96 46 56 70 32 165 150 108
135 122 93 130 111 41 135 122 93 97 96 46 35 44 26 130 111 41
161 166 144 122 132 86 56 70 32 35 44 26 56 70 32 108 105 81 97 96 46
56 70 32 56 70 32 108 105 81 122 132 86 130 111 41 56 70 32 97 96 46
108 105 81 97 96 46 135 122 93 135 122 93 108 105 81 97 96 46
97 96 46 56 70 32 97 96 46 130 111 41 122 132 86 148 137 108
148 137 108 148 137 108 161 166 144 148 137 108 165 150 108
148 137 108 135 122 93 165 150 108 165 150 108 161 166 144
161 166 144 161 166 144 161 166 144 209 209 172 161 166 144 97 96 46
97 96 46 168 170 67 56 70 32 35 44 26 35 44 26 35 44 26 35 44 26
97 96 46 56 70 32 56 70 32 97 96 46 35 44 26 35 44 26 35 44 26
35 44 26 35 44 26 76 78 52 165 150 108 165 150 108 165 150 108
165 150 108 161 166 144 97 96 46 122 132 86 97 96 46 108 105 81
130 111 41 168 170 67 97 96 46 35 44 26 56 70 32 76 78 52 56 70 32
56 70 32 108 105 81 76 78 52 108 105 81 148 137 108 108 105 81
56 70 32 35 44 26 56 70 32 97 96 46 35 44 26 35 44 26 35 44 26
56 70 32 35 44 26 108 105 81 68 64 40 68 64 40 35 44 26 56 70 32
122 132 86 97 96 46 97 96 46 148 137 108 148 137 108 76 78 52
122 132 86 168 170 67 122 132 86 135 122 93 135 122 93 165 150 108
161 166 144 161 166 144 123 134 135 161 166 144 123 134 135
123 134 135 161 166 144 35 44 26 56 70 32 122 132 86 122 132 86
56 70 32 56 70 32 56 70 32 35 44 26 97 96 46 56 70 32 122 132 86
56 70 32 76 78 52 108 105 81 35 44 26 35 44 26 35 44 26 56 70 32
108 105 81 76 78 52 76 78 52 35 44 26 35 44 26 68 64 40 56 70 32
76 78 52 76 78 52 68 64 40 56 70 32 35 44 26 56 70 32 35 44 26
56 70 32 56 70 32 35 44 26 97 96 46 76 78 52 108 105 81 108 105 81
135 122 93 148 137 108 122 132 86 76 78 52 56 70 32 35 44 26 35 44 26
56 70 32 35 44 26 35 44 26 35 44 26 35 44 26 35 44 26 35 44 26
35 44 26 56 70 32 76 78 52 76 78 52 108 105 81 108 105 81 68 64 40
56 70 32 161 166 144 135 122 93 135 122 93 135 122 93 165 150 108
135 122 93 161 166 144 123 134 135 123 134 135 123 134 135
123 134 135 123 134 135 35 44 26 35 44 26 56 70 32 122 132 86
56 70 32 35 44 26 56 70 32 35 44 26 56 70 32 56 70 32 56 70 32
168 170 67 76 78 52 35 44 26 35 44 26 35 44 26 35 44 26 108 105 81
108 105 81 35 44 26 35 44 26 35 44 26 108 105 81 108 105 81 56 70 32
56 70 32 68 64 40 56 70 32 56 70 32 35 44 26 56 70 32 97 96 46
148 137 108 168 170 67 97 96 46 123 134 135 165 150 108 148 137 108
148 137 108 108 105 81 122 132 86 76 78 52 56 70 32 108 105 81
56 70 32 35 44 26 35 44 26 35 44 26 35 44 26 35 44 26 35 44 26
35 44 26 35 44 26 35 44 26 56 70 32 122 132 86 165 150 108 135 122 93
148 137 108 108 105 81 56 70 32 108 105 81 108 105 81 135 122 93
165 150 108 135 122 93 135 122 93 123 134 135 108 105 81 123 134 135
108 105 81 123 134 135 108 105 81 35 44 26 35 44 26 35 44 26 35 44 26
35 44 26 35 44 26 35 44 26 76 78 52 56 70 32 97 96 46 56 70 32
130 111 41 97 96 46 56 70 32 35 44 26 35 44 26 35 44 26 35 44 26
35 44 26 35 44 26 35 44 26 35 44 26 76 78 52 68 64 40 35 44 26
35 44 26 35 44 26 35 44 26 56 70 32 35 44 26 35 44 26 122 132 86
108 105 81 108 105 81 76 78 52 56 70 32 97 96 46 148 137 108
165 150 108 123 134 135 165 150 108 148 137 108 76 78 52 122 132 86
122 132 86 35 44 26 35 44 26 35 44 26 35 44 26 35 44 26 35 44 26
35 44 26 56 70 32 76 78 52 76 78 52 108 105 81 161 166 144
148 137 108 165 150 108 165 150 108 76 78 52 135 122 93 135 122 93
108 105 81 108 105 81 165 150 108 165 150 108 123 134 135 108 105 81
123 134 135 123 134 135 76 78 52 76 78 52 56 70 32 35 44 26 35 44 26
35 44 26 35 44 26 56 70 32 76 78 52 56 70 32 97 96 46 56 70 32
97 96 46 56 70 32 122 132 86 35 44 26 35 44 26 35 44 26 35 44 26
35 44 26 76 78 52 135 122 93 148 137 108 135 122 93 108 105 81
35 44 26 35 44 26 35 44 26 35 44 26 35 44 26 165 150 108 56 70 32
56 70 32 122 132 86 76 78 52 56 70 32 56 70 32 108 105 81 108 105 81
35 44 26 76 78 52 123 134 135 122 132 86 108 105 81 76 78 52 56 70 32
56 70 32 56 70 32 35 44 26 56 70 32 35 44 26 35 44 26 35 44 26
108 105 81 108 105 81 76 78 52 108 105 81 76 78 52 68 64 40 68 64 40
68 64 40 108 105 81 135 122 93 108 105 81 135 122 93 135 122 93
108 105 81 135 122 93 135 122 93 123 134 135 108 105 81 123 134 135
108 105 81 56 70 32 35 44 26 56 70 32 35 44 26 35 44 26 35 44 26
56 70 32 97 96 46 97 96 46 35 44 26 56 70 32 56 70 32 56 70 32
56 70 32 97 96 46 56 70 32 35 44 26 35 44 26 35 44 26 56 70 32
108 105 81 108 105 81 108 105 81 76 78 52 68 64 40 35 44 26 35 44 26
35 44 26 35 44 26 68 64 40 123 134 135 76 78 52 35 44 26 56 70 32
35 44 26 68 64 40 35 44 26 56 70 32 108 105 81 56 70 32 35 44 26
123 134 135 56 70 32 35 44 26 35 44 26 56 70 32 56 70 32 35 44 26
56 70 32 56 70 32 76 78 52 35 44 26 35 44 26 56 70 32 35 44 26
35 44 26 97 96 46 122 132 86 76 78 52 108 105 81 76 78 52 76 78 52
123 134 135 123 134 135 135 122 93 135 122 93 148 137 108 165 150 108
135 122 93 123 134 135 108 105 81 108 105 81 76 78 52 76 78 52
35 44 26 35 44 26 35 44 26 35 44 26 35 44 26 35 44 26 68 64 40
76 78 52 35 44 26 56 70 32 56 70 32 56 70 32 56 70 32 56 70 32
56 70 32 35 44 26 35 44 26 35 44 26 35 44 26 76 78 52 76 78 52
108 105 81 108 105 81 108 105 81 68 64 40 35 44 26 68 64 40 76 78 52
76 78 52 35 44 26 35 44 26 35 44 26 35 44 26 35 44 26 35 44 26
35 44 26 35 44 26 35 44 26 35 44 26 35 44 26 35 44 26 35 44 26
56 70 32 56 70 32 56 70 32 56 70 32 56 70 32 35 44 26 56 70 32
35 44 26 35 44 26 35 44 26 35 44 26 35 44 26 35 44 26 76 78 52
76 78 52 76 78 52 108 105 81 108 105 81 108 105 81 135 122 93
108 105 81 108 105 81 123 134 135 135 122 93 165 150 108 165 150 108
135 122 93 135 122 93 108 105 81 108 105 81 35 44 26 35 44 26
35 44 26 35 44 26 35 44 26 35 44 26 35 44 26 56 70 32 56 70 32
56 70 32 56 70 32 35 44 26 56 70 32 35 44 26 35 44 26 35 44 26
56 70 32 35 44 26 35 44 26 35 44 26 35 44 26 35 44 26 76 78 52
76 78 52 76 78 52 123 134 135 76 78 52 76 78 52 35 44 26 35 44 26
35 44 26 35 44 26 35 44 26 35 44 26 35 44 26 35 44 26 35 44 26
35 44 26 35 44 26 35 44 26 35 44 26 56 70 32 56 70 32 76 78 52
97 96 46 130 111 41 56 70 32 35 44 26 35 44 26 35 44 26 56 70 32
35 44 26 35 44 26 35 44 26 35 44 26 97 96 46 76 78 52 56 70 32
35 44 26 68 64 40 68 64 40 35 44 26 108 105 81 108 105 81 68 64 40
76 78 52 76 78 52 165 150 108 165 150 108 165 150 108 135 122 93
108 105 81 35 44 26 35 44 26 35 44 26 35 44 26 35 44 26 35 44 26
35 44 26 35 44 26 56 70 32 56 70 32 35 44 26 35 44 26 56 70 32
56 70 32 35 44 26 35 44 26 35 44 26 68 64 40 35 44 26 76 78 52
76 78 52 35 44 26 35 44 26 35 44 26 35 44 26 35 44 26 35 44 26
35 44 26 35 44 26 35 44 26 35 44 26 35 44 26 35 44 26 35 44 26
35 44 26 35 44 26 68 64 40 35 44 26 35 44 26 35 44 26 35 44 26
76 78 52 35 44 26 76 78 52 56 70 32 35 44 26 56 70 32 35 44 26
35 44 26 35 44 26 35 44 26 35 44 26 35 44 26 35 44 26 35 44 26
76 78 52 108 105 81 108 105 81 76 78 52 68 64 40 68 64 40 68 64 40
68 64 40 68 64 40 108 105 81 68 64 40 68 64 40 108 105 81 135 122 93
135 122 93 148 137 108 135 122 93 68 64 40 68 64 40 35 44 26 35 44 26
35 44 26 35 44 26 35 44 26 35 44 26 35 44 26 35 44 26 35 44 26
35 44 26 56 70 32 35 44 26 35 44 26 35 44 26 56 70 32 35 44 26
35 44 26 35 44 26 76 78 52 76 78 52 35 44 26 68 64 40 68 64 40
35 44 26 35 44 26 35 44 26 35 44 26 35 44 26 35 44 26 35 44 26
35 44 26 35 44 26 35 44 26 56 70 32 35 44 26 35 44 26 35 44 26
35 44 26 35 44 26 56 70 32 35 44 26 35 44 26 35 44 26 35 44 26
35 44 26 68 64 40 68 64 40 35 44 26 35 44 26 35 44 26 35 44 26
56 70 32 130 111 41 35 44 26 35 44 26 35 44 26 68 64 40 68 64 40
76 78 52 68 64 40 68 64 40 68 64 40 68 64 40 68 64 40 68 64 40
108 105 81 68 64 40 165 150 108 165 150 108 35 44 26 35 44 26
35 44 26 35 44 26 35 44 26 35 44 26 35 44 26 35 44 26 35 44 26
35 44 26 35 44 26 35 44 26 35 44 26 35 44 26 97 96 46 56 70 32
35 44 26 35 44 26 35 44 26 35 44 26 35 44 26 35 44 26 56 70 32
56 70 32 68 64 40 56 70 32 68 64 40 35 44 26 35 44 26 35 44 26
35 44 26 35 44 26 35 44 26 35 44 26 35 44 26 35 44 26 35 44 26
68 64 40 35 44 26 35 44 26 35 44 26 35 44 26 35 44 26 56 70 32
35 44 26 35 44 26 35 44 26 35 44 26 35 44 26 35 44 26 35 44 26
35 44 26 68 64 40 97 96 46 56 70 32 35 44 26 148 137 108 135 122 93
68 64 40 35 44 26 35 44 26 68 64 40 35 44 26 35 44 26 35 44 26
68 64 40 35 44 26 68 64 40 68 64 40 76 78 52 68 64 40 135 122 93
35 44 26 35 44 26 35 44 26 35 44 26 35 44 26 35 44 26 35 44 26
35 44 26 35 44 26 35 44 26 35 44 26 35 44 26 35 44 26 35 44 26
35 44 26 56 70 32 56 70 32 97 96 46 97 96 46 56 70 32 35 44 26
35 44 26 35 44 26 35 44 26 35 44 26 35 44 26 35 44 26 35 44 26
35 44 26 35 44 26 76 78 52 35 44 26 35 44 26 35 44 26 35 44 26
35 44 26 35 44 26 35 44 26 35 44 26 35 44 26 97 96 46 35 44 26
35 44 26 35 44 26 56 70 32 35 44 26 35 44 26 35 44 26 35 44 26
35 44 26 35 44 26 35 44 26 35 44 26 68 64 40 97 96 46 97 96 46
35 44 26 35 44 26 135 122 93 135 122 93 130 111 41 68 64 40 68 64 40
68 64 40 76 78 52 68 64 40 68 64 40 35 44 26 35 44 26 68 64 40
76 78 52 108 105 81 76 78 52 35 44 26 35 44 26 35 44 26 35 44 26
35 44 26 35 44 26 35 44 26 35 44 26 35 44 26 35 44 26 35 44 26
35 44 26 35 44 26 35 44 26 35 44 26 56 70 32 56 70 32 97 96 46
56 70 32 68 64 40 56 70 32 35 44 26 35 44 26 35 44 26 35 44 26
35 44 26 35 44 26 35 44 26 35 44 26 35 44 26 35 44 26 35 44 26
35 44 26 35 44 26 35 44 26 35 44 26 35 44 26 35 44 26 35 44 26
35 44 26 130 111 41 130 111 41 68 64 40 56 70 32 56 70 32 35 44 26
35 44 26 35 44 26 35 44 26 35 44 26 35 44 26 35 44 26 56 70 32
68 64 40 35 44 26 35 44 26 35 44 26 35 44 26 130 111 41 130 111 41
68 64 40 76 78 52 97 96 46 108 105 81 108 105 81 135 122 93
135 122 93 135 122 93 108 105 81 108 105 81 135 122 93 76 78 52
123 134 135 76 78 52 76 78 52 123 134 135 76 78 52 123 134 135
35 44 26 35 44 26 68 64 40 35 44 26 35 44 26 35 44 26 76 78 52
35 44 26 35 44 26 35 44 26 35 44 26 35 44 26 35 44 26 35 44 26
35 44 26 35 44 26 35 44 26 35 44 26 35 44 26 35 44 26 35 44 26
35 44 26 35 44 26 35 44 26 35 44 26 35 44 26 35 44 26 35 44 26
35 44 26 68 64 40 68 64 40 35 44 26 35 44 26 35 44 26 35 44 26
35 44 26 68 64 40 97 96 46 68 64 40 130 111 41 68 64 40 35 44 26
35 44 26 35 44 26 35 44 26 35 44 26 35 44 26 35 44 26 97 96 46
97 96 46 68 64 40 35 44 26 35 44 26 68 64 40 130 111 41 130 111 41
35 44 26 35 44 26 68 64 40 68 64 40 68 64 40 108 105 81 68 64 40
108 105 81 135 122 93 135 122 93 97 96 46 35 44 26 76 78 52 68 64 40
76 78 52 35 44 26 35 44 26 76 78 52 123 134 135 35 44 26 76 78 52
76 78 52 123 134 135 76 78 52 35 44 26 35 44 26 35 44 26 35 44 26
35 44 26 35 44 26 35 44 26 35 44 26 35 44 26 35 44 26 35 44 26
35 44 26 35 44 26 35 44 26 35 44 26 35 44 26 35 44 26 35 44 26
35 44 26 35 44 26 35 44 26 35 44 26 35 44 26 68 64 40 35 44 26
35 44 26 35 44 26 68 64 40 68 64 40 35 44 26 35 44 26 35 44 26
68 64 40 130 111 41 35 44 26 35 44 26 68 64 40 68 64 40 35 44 26
35 44 26 35 44 26 35 44 26 130 111 41 68 64 40 35 44 26 68 64 40
108 105 81 135 122 93 135 122 93 135 122 93 108 105 81 68 64 40
68 64 40 68 64 40 68 64 40 68 64 40 68 64 40 76 78 52 108 105 81
135 122 93 35 44 26 76 78 52 68 64 40 35 44 26 68 64 40 35 44 26
76 78 52 35 44 26 35 44 26 35 44 26 35 44 26 35 44 26 35 44 26
35 44 26 35 44 26 35 44 26 35 44 26 35 44 26 35 44 26 35 44 26
35 44 26 35 44 26 35 44 26 35 44 26 35 44 26 35 44 26 35 44 26
35 44 26 35 44 26 35 44 26 35 44 26 35 44 26 35 44 26 35 44 26
35 44 26 35 44 26 35 44 26 35 44 26 35 44 26 35 44 26 35 44 26
35 44 26 35 44 26 35 44 26 35 44 26 35 44 26 68 64 40 68 64 40
130 111 41 130 111 41 108 105 81 68 64 40 130 111 41 108 105 81
68 64 40 135 122 93 130 111 41 68 64 40 68 64 40 68 64 40 130 111 41
135 122 93 165 150 108 165 150 108 165 150 108 148 137 108
123 134 135 123 134 135 135 122 93 108 105 81 108 105 81 108 105 81
108 105 81 76 78 52 76 78 52 76 78 52 76 78 52 76 78 52 76 78 52
35 44 26 35 44 26 35 44 26 35 44 26 35 44 26 35 44 26 35 44 26
35 44 26 35 44 26 35 44 26 35 44 26 35 44 26 35 44 26 35 44 26
35 44 26 35 44 26 35 44 26 35 44 26 35 44 26 35 44 26 35 44 26
35 44 26 35 44 26 35 44 26 35 44 26 35 44 26 35 44 26 35 44 26
35 44 26 35 44 26 35 44 26 35 44 26 35 44 26 35 44 26 35 44 26
35 44 26 35 44 26 68 64 40 35 44 26 35 44 26 97 96 46 130 111 41
130 111 41 135 122 93 130 111 41 165 150 108 165 150 108 130 111 41
68 64 40 68 64 40 108 105 81 68 64 40 68 64 40 35 44 26 68 64 40
68 64 40 68 64 40 68 64 40 76 78 52 108 105 81 108 105 81 123 134 135
135 122 93 135 122 93 135 122 93 108 105 81 108 105 81 76 78 52
123 134 135 35 44 26 35 44 26 123 134 135 35 44 26 35 44 26 35 44 26
35 44 26 35 44 26 35 44 26 35 44 26 35 44 26 35 44 26 35 44 26
35 44 26 35 44 26 35 44 26 35 44 26 35 44 26 35 44 26 35 44 26
35 44 26 35 44 26 35 44 26 35 44 26 35 44 26 35 44 26 35 44 26
35 44 26 35 44 26 35 44 26 35 44 26 35 44 26 35 44 26 68 64 40
35 44 26 68 64 40 68 64 40 76 78 52 68 64 40 130 111 41 68 64 40
68 64 40 68 64 40 35 44 26 68 64 40 76 78 52 76 78 52 130 111 41
130 111 41 130 111 41 130 111 41 165 150 108 165 150 108 130 111 41
135 122 93 76 78 52 68 64 40 68 64 40 68 64 40 35 44 26 68 64 40
68 64 40 35 44 26 76 78 52 35 44 26 76 78 52 76 78 52 35 44 26
35 44 26 35 44 26 68 64 40 35 44 26 76 78 52 76 78 52 35 44 26
35 44 26 35 44 26 35 44 26 35 44 26 35 44 26 35 44 26 35 44 26
35 44 26 35 44 26 35 44 26 35 44 26 35 44 26 35 44 26 35 44 26
35 44 26 35 44 26 35 44 26 35 44 26 35 44 26 35 44 26 35 44 26
35 44 26 35 44 26 35 44 26 68 64 40 68 64 40 35 44 26 35 44 26
35 44 26 68 64 40 97 96 46 135 122 93 130 111 41 130 111 41
135 122 93 130 111 41 130 111 41 135 122 93 135 122 93 130 111 41
97 96 46 130 111 41 97 96 46 97 96 46 68 64 40 68 64 40 35 44 26
35 44 26 68 64 40 165 150 108 130 111 41 165 150 108 135 122 93
123 134 135 108 105 81 76 78 52 68 64 40 68 64 40 68 64 40 68 64 40
35 44 26 35 44 26 76 78 52 35 44 26 35 44 26 35 44 26 123 134 135
35 44 26 68 64 40 35 44 26 35 44 26 35 44 26 35 44 26 35 44 26
35 44 26 35 44 26 35 44 26 35 44 26 35 44 26 35 44 26 35 44 26
35 44 26 35 44 26 35 44 26 76 78 52 68 64 40 35 44 26 35 44 26
35 44 26 35 44 26 35 44 26 35 44 26 68 64 40 35 44 26 68 64 40
35 44 26 35 44 26 68 64 40 68 64 40 68 64 40 68 64 40 130 111 41
130 111 41 135 122 93 130 111 41 130 111 41 135 122 93 130 111 41
108 105 81 108 105 81 97 96 46 135 122 93 135 122 93 108 105 81
68 64 40 68 64 40 35 44 26 35 44 26 35 44 26 35 44 26 35 44 26
68 64 40 68 64 40 130 111 41 108 105 81 148 137 108 130 111 41
68 64 40 68 64 40 68 64 40 108 105 81 76 78 52 68 64 40 35 44 26
123 134 135 76 78 52 35 44 26 76 78 52 76 78 52 35 44 26 123 134 135
68 64 40 76 78 52 123 134 135 35 44 26 76 78 52 76 78 52 35 44 26
35 44 26 35 44 26 35 44 26 35 44 26 35 44 26 35 44 26 35 44 26
35 44 26 35 44 26 35 44 26 35 44 26 68 64 40 35 44 26 35 44 26
68 64 40 68 64 40 76 78 52 76 78 52 97 96 46 76 78 52 76 78 52
68 64 40 108 105 81 76 78 52 68 64 40 68 64 40 76 78 52 68 64 40
76 78 52 68 64 40 68 64 40 68 64 40 76 78 52 68 64 40 130 111 41
108 105 81 130 111 41 130 111 41 68 64 40 68 64 40 35 44 26 68 64 40
35 44 26 35 44 26 35 44 26 68 64 40 68 64 40 130 111 41 130 111 41
130 111 41 135 122 93 108 105 81 76 78 52 76 78 52 76 78 52 76 78 52
76 78 52 76 78 52 76 78 52 76 78 52 76 78 52 35 44 26 123 134 135
35 44 26 76 78 52 76 78 52 68 64 40 76 78 52 35 44 26 35 44 26
76 78 52 35 44 26 35 44 26 35 44 26 35 44 26 35 44 26 35 44 26
35 44 26 35 44 26 35 44 26 76 78 52 35 44 26 35 44 26 35 44 26
68 64 40 68 64 40 35 44 26 35 44 26 35 44 26 76 78 52 35 44 26
68 64 40 68 64 40 68 64 40 68 64 40 68 64 40 68 64 40 68 64 40
68 64 40 68 64 40 68 64 40 68 64 40 68 64 40 68 64 40 130 111 41
135 122 93 135 122 93 135 122 93 135 122 93 135 122 93 130 111 41
108 105 81 130 111 41 68 64 40 130 111 41 135 122 93 130 111 41
130 111 41 165 150 108 135 122 93 135 122 93 148 137 108 135 122 93
135 122 93 130 111 41 108 105 81 108 105 81 76 78 52 108 105 81
68 64 40 68 64 40 76 78 52 76 78 52 76 78 52 76 78 52 76 78 52
76 78 52 35 44 26 76 78 52 35 44 26 76 78 52 76 78 52 76 78 52
35 44 26 123 134 135 35 44 26 35 44 26 76 78 52 35 44 26 76 78 52
76 78 52 35 44 26 35 44 26 76 78 52 76 78 52 76 78 52 76 78 52
76 78 52 68 64 40 68 64 40 68 64 40 68 64 40 35 44 26 76 78 52
68 64 40 68 64 40 108 105 81 108 105 81 108 105 81 108 105 81
108 105 81 135 122 93 108 105 81 135 122 93 135 122 93 135 122 93
135 122 93 135 122 93 130 111 41 135 122 93 130 111 41 135 122 93
135 122 93 135 122 93 135 122 93 130 111 41 135 122 93 135 122 93
130 111 41 135 122 93 135 122 93 165 150 108 130 111 41 165 150 108
135 122 93 135 122 93 108 105 81 108 105 81 108 105 81 76 78 52
76 78 52 76 78 52 108 105 81 76 78 52 76 78 52 76 78 52 76 78 52
76 78 52 35 44 26 123 134 135 35 44 26 123 134 135 35 44 26 76 78 52
76 78 52 123 134 135 35 44 26 123 134 135 35 44 26 123 134 135
35 44 26 76 78 52 35 44 26 35 44 26 68 64 40 123 134 135 35 44 26
123 134 135 76 78 52 108 105 81 108 105 81 76 78 52 76 78 52 76 78 52
76 78 52 123 134 135 68 64 40 108 105 81 108 105 81 135 122 93
130 111 41 108 105 81 135 122 93 108 105 81 130 111 41 108 105 81
108 105 81 76 78 52 97 96 46 68 64 40 76 78 52 108 105 81 68 64 40
108 105 81 135 122 93 130 111 41 130 111 41 135 122 93 135 122 93
130 111 41 135 122 93 135 122 93 135 122 93 130 111 41 135 122 93
165 150 108 135 122 93 123 134 135 68 64 40 68 64 40 108 105 81
68 64 40 76 78 52 76 78 52 76 78 52 68 64 40 76 78 52 76 78 52
76 78 52 76 78 52 35 44 26 123 134 135 35 44 26 76 78 52 35 44 26
123 134 135
