P2
73 43
255
85 0 0 0 85 0 85 0 85 85 0 85 85 85 85 85 85 85 0 85 85 0 85 85 85 85
85 85 85 85 85 85 85 85 85 85 85 85 85 85 85 85 85 85 85 85 85 85 85
85 85 85 85 85 85 85 85 85 85 85 85 85 85 85 85 85 85 85 85 85 85 85
85 0 0 0 0 0 0 85 0 85 85 0 85 85 0 85 85 85 85 85 85 85 85 85 85 85
85 85 85 85 85 85 85 85 85 85 85 85 85 85 85 85 85 85 85 85 85 85 85
85 85 85 85 85 85 85 85 85 85 85 85 85 85 85 85 85 85 85 85 85 85 85
85 85 0 0 0 0 85 0 0 85 0 85 85 0 85 85 85 85 85 85 85 85 85 85 85 85
85 85 170 85 85 85 85 85 85 85 85 85 85 85 85 85 85 85 85 85 85 85 85
85 85 85 85 85 85 85 85 85 85 85 85 85 85 85 85 85 85 85 85 85 85 85
85 85 85 0 0 85 0 0 85 0 85 0 0 85 85 85 85 85 85 85 85 85 85 85 85
85 85 85 170 170 170 85 85 85 170 170 170 170 85 85 85 85 85 85 85 85
85 85 85 85 85 85 85 85 85 85 85 85 85 85 85 85 85 85 85 85 85 85 85
85 85 85 85 85 85 85 0 0 0 0 0 0 0 0 85 85 85 85 85 85 85 85 85 85 85
85 85 85 85 85 85 170 170 170 170 85 170 170 170 170 170 170 85 85 85
85 85 85 85 85 85 85 85 85 85 85 85 85 85 85 85 85 85 85 85 85 85 85
85 85 85 85 85 85 85 85 85 85 85 0 0 0 0 0 0 85 85 85 85 85 85 85 85
85 85 85 85 85 85 85 85 85 85 170 170 170 170 170 170 170 170 170 170
170 170 85 85 85 85 85 85 85 85 85 85 85 85 85 85 85 85 85 85 85 85
85 85 85 85 85 85 85 85 85 85 85 85 85 85 85 85 85 0 85 85 85 85 85
85 85 85 85 85 85 85 85 85 85 85 85 85 85 85 85 85 85 170 170 170 170
170 170 170 170 170 170 170 170 170 85 85 85 85 85 85 85 85 85 85 85
85 85 85 85 85 85 85 85 85 85 85 85 85 85 85 85 85 85 85 85 85 85 85
85 85 85 85 85 85 85 85 85 85 85 85 85 85 85 85 85 85 85 85 85 85 85
85 85 85 85 170 170 170 170 170 170 170 170 170 85 170 170 85 85 0 85
85 85 85 85 85 85 85 85 85 85 85 85 85 85 85 85 85 85 85 85 85 85 85
85 85 85 85 85 85 85 85 85 85 85 85 85 85 85 85 85 85 85 85 85 85 85
85 85 85 85 85 85 85 85 85 85 85 85 170 170 170 85 170 170 85 85 85 0
85 170 85 0 85 85 85 85 85 85 85 85 85 85 85 85 85 85 85 85 85 85 85
85 85 85 85 170 170 85 85 85 85 85 85 85 85 85 85 85 85 85 85 85 85
85 85 85 170 170 170 85 85 85 85 85 85 85 85 85 85 85 85 85 170 170
85 85 85 85 85 170 0 0 85 85 0 85 85 85 85 85 85 85 85 85 85 85 85 85
85 85 85 85 85 85 85 85 85 85 85 170 170 170 170 170 170 85 85 85 85
85 85 85 85 85 85 85 85 85 170 170 170 255 170 85 85 85 85 85 85 85
85 85 85 85 85 170 85 85 85 85 85 85 85 0 0 0 0 0 85 85 85 85 85 85
85 85 85 85 85 85 85 85 85 85 85 85 85 85 85 85 85 85 170 170 170 255
255 255 170 170 85 85 85 85 85 85 85 85 85 85 85 170 170 170 170 255
85 85 85 85 85 85 85 85 85 85 85 85 85 85 85 85 170 85 85 85 0 0 0 0
0 85 0 85 85 0 0 85 85 85 85 85 85 85 85 85 85 85 85 85 85 85 85 85
85 85 170 170 170 170 170 170 170 85 85 85 85 85 85 85 85 85 85 85
170 170 170 170 170 170 85 85 85 85 85 85 85 85 85 85 85 85 85 85 85
85 85 85 85 0 0 0 0 0 0 0 0 0 0 85 85 85 85 85 85 85 85 85 0 85 85 0
0 85 85 85 85 85 85 170 170 170 170 170 170 170 85 85 85 85 85 85 85
85 85 85 85 85 85 170 170 170 170 85 85 85 85 85 85 0 85 85 85 85 85
85 0 0 0 85 85 85 85 0 0 0 0 0 0 85 85 85 85 85 85 85 85 85 85 85 85
85 85 85 85 0 0 85 85 85 85 85 85 85 170 170 170 170 170 85 85 85 85
85 85 85 85 85 85 85 85 85 85 170 170 85 85 85 85 85 85 0 85 85 85 85
85 0 0 0 0 0 0 85 0 0 0 0 0 0 0 85 85 85 85 0 85 85 85 85 85 85 85 85
85 85 85 85 0 0 0 85 85 85 0 85 85 85 170 170 170 170 85 85 85 85 85
85 85 85 85 85 85 85 170 85 0 85 85 85 0 85 85 0 0 85 85 85 85 85 85
85 0 0 0 0 0 0 0 0 0 0 0 85 85 85 85 0 0 85 0 85 85 85 85 85 0 85 85
85 85 0 0 0 0 85 85 85 85 85 85 170 170 170 170 85 85 85 85 85 170
170 170 85 85 85 85 85 0 0 0 85 0 0 0 85 0 85 85 0 0 0 0 85 85 85 85
85 0 0 0 85 85 0 85 85 0 0 85 85 85 85 0 85 0 0 85 0 85 85 0 0 85 85
85 85 0 0 85 85 85 85 85 170 170 170 170 170 85 85 85 85 85 170 170
255 170 85 85 85 0 0 0 0 0 0 85 0 85 0 85 0 0 0 0 0 85 85 85 85 85 0
85 85 85 0 0 0 0 85 0 0 85 85 85 0 85 85 0 85 85 85 85 85 85 0 85 85
85 85 0 85 85 85 85 85 85 85 85 170 85 85 85 85 85 85 170 170 170 170
85 85 85 0 0 0 0 0 85 0 0 0 0 85 0 0 0 0 85 85 85 85 85 0 0 85 85 85
85 85 0 85 170 85 0 0 0 85 85 0 0 85 85 85 0 0 85 85 85 85 85 85 0 0
85 85 85 85 85 85 85 85 85 85 85 85 85 170 85 85 170 170 170 85 85 85
0 0 0 0 0 85 0 0 0 0 0 0 0 0 0 85 85 85 85 85 85 85 0 85 85 85 85 0 0
0 0 0 85 0 85 85 85 0 0 0 0 0 0 0 0 0 85 0 0 0 0 85 85 85 85 85 0 85
85 85 85 85 85 85 85 85 85 85 85 85 0 0 85 85 0 0 0 0 0 0 85 85 0 0 0
0 0 85 85 0 0 0 0 0 0 0 0 0 0 0 0 0 0 0 0 85 0 85 85 85 85 85 0 0 0 0
0 0 0 0 0 0 0 0 0 85 0 85 85 0 0 85 85 85 85 85 85 85 85 85 85 85 85
0 0 85 85 0 0 0 0 0 0 0 85 0 0 0 0 0 85 85 0 0 0 0 85 0 0 0 0 0 0 0
85 85 85 85 85 85 85 85 85 85 0 0 85 0 0 0 0 0 0 0 0 0 0 0 85 85 85
85 85 0 85 85 85 85 85 85 85 85 85 85 85 85 0 0 0 0 0 0 0 0 0 85 0 85
85 0 0 0 0 0 0 0 0 0 0 0 0 0 0 0 0 0 0 85 85 85 0 0 85 85 85 85 85 85
0 85 85 0 0 0 0 0 0 0 0 0 0 85 85 85 85 85 85 85 85 85 85 85 85 85 85
85 85 0 85 0 0 0 0 0 0 0 0 0 85 0 0 85 0 0 0 0 0 85 85 85 85 85 0 0 0
0 0 85 0 0 85 85 0 0 85 85 0 0 85 85 85 0 0 85 0 0 0 0 0 0 85 85 85
85 0 0 0 0 85 85 85 85 85 85 85 85 85 85 85 85 0 0 0 0 0 0 0 85 0 0 0
0 0 0 85 0 0 0 0 0 85 85 85 85 0 0 0 0 0 0 85 0 0 0 0 0 0 0 85 0 0 0
0 0 0 0 0 0 0 0 85 0 0 0 0 0 85 85 0 85 85 85 85 85 85 85 85 85 85 85
85 85 0 0 0 0 0 0 0 0 0 0 0 0 0 85 0 0 0 0 0 0 0 0 85 85 85 85 0 0 85
0 0 0 0 0 0 0 0 0 0 0 0 0 0 0 0 0 0 0 0 0 0 0 0 0 0 0 0 0 0 0 0 85 85
85 85 85 85 85 85 85 85 85 85 85 0 0 0 0 0 0 0 0 0 0 0 0 0 0 0 0 0 0
0 0 0 0 0 0 0 85 0 0 0 0 0 0 0 0 0 0 0 0 0 0 0 0 0 0 85 85 0 0 0 0 0
0 0 0 0 85 0 0 0 0 0 0 85 85 0 0 85 85 85 85 85 85 0 0 0 0 0 0 0 0 0
0 0 0 0 0 0 0 0 0 0 0 0 0 0 0 0 0 0 0 0 0 0 0 0 0 0 0 0 0 0 0 0 0 0 0
0 0 0 0 0 0 0 0 0 0 0 0 85 85 0 0 0 0 0 0 85 0 0 0 85 85 85 85 0 0 0
0 0 0 0 0 0 0 0 0 0 0 0 0 0 0 0 0 0 0 0 0 0 0 0 0 0 0 0 0 0 0 0 0 0 0
0 0 0 0 0 0 0 0 0 0 0 0 0 0 0 0 85 0 0 0 0 0 0 0 0 0 0 0 0 0 0 85 85
0 0 0 0 0 0 0 0 0 0 0 0 0 0 0 0 0 0 0 0 0 0 0 0 0 0 0 0 0 0 0 0 0 0 0
0 0 0 0 0 0 0 0 0 0 0 0 0 0 0 0 0 0 85 0 0 85 85 0 0 0 0 0 0 0 0 0 0
0 0 0 85 0 0 0 0 0 0 0 0 0 0 0 0 0 0 0 0 0 85 0 0 0 0 0 0 0 0 0 0 0 0
0 0 0 0 0 0 0 0 0 0 0 0 0 0 0 0 0 0 0 0 0 0 0 0 85 85 0 0 85 85 85 0
0 0 0 0 0 0 0 0 0 0 0 0 0 0 0 0 0 0 0 0 0 0 0 0 0 0 0 0 0 0 0 0 0 0 0
0 0 0 0 0 0 0 0 0 0 0 0 0 0 0 0 85 85 0 0 0 0 0 0 0 0 0 0 0 0 0 0 0 0
85 85 0 0 0 85 85 85 85 85 85 85 85 85 0 0 85 85 85 0 0 0 0 0 0 0 0 0
0 0 0 0 0 0 0 0 0 0 0 0 0 0 0 0 0 0 0 0 0 0 0 0 0 0 0 0 0 85 0 85 0 0
0 0 0 0 0 0 0 85 0 0 0 0 85 85 0 0 0 0 0 0 0 85 85 85 85 0 0 0 0 0 0
0 0 0 0 85 0 0 0 0 0 0 0 0 0 0 0 0 0 0 0 0 0 0 0 0 0 0 0 0 0 0 0 0 0
0 0 0 0 0 85 85 0 0 0 0 0 0 0 0 85 0 0 0 85 85 85 85 85 0 0 0 0 0 0
85 85 85 0 0 0 0 0 0 0 0 0 0 0 0 0 0 0 0 0 0 0 0 0 0 0 0 0 0 0 0 0 0
0 0 0 0 0 0 0 0 0 0 0 0 0 0 0 0 0 0 85 85 85 85 0 85 0 85 85 0 0 0 85
85 85 85 85 85 85 85 85 85 85 85 85 0 0 0 0 0 0 0 0 0 0 0 0 0 0 0 0 0
0 0 0 0 0 0 0 0 0 0 0 0 0 0 0 0 0 0 0 0 0 0 0 0 0 0 0 0 0 0 85 85 85
85 85 85 85 0 0 85 0 0 0 0 0 0 0 85 85 85 85 85 85 85 85 85 0 0 0 0 0
0 0 0 0 0 0 0 0 0 0 0 0 0 0 0 0 0 0 0 0 0 0 0 0 0 0 0 0 0 0 0 0 0 0 0
0 85 0 0 0 0 0 0 0 85 85 85 85 85 85 85 85 85 0 0 0 0 0 0 0 0 0 0 0 0
0 0 0 0 0 0 0 0 0 0 0 0 0 0 0 0 0 0 0 0 0 0 0 0 0 0 0 0 0 0 0 0 0 0 0
0 0 85 85 85 85 85 85 85 85 85 85 85 85 85 0 0 0 0 0 0 85 85 85 85 85
85 0 0 0 0 0 0 0 0 0 0 0 0 0 0 0 0 0 0 0 0 0 0 0 0 0 0 0 0 0 0 0 0 0
0 0 0 0 0 0 0 0 0 0 85 85 0 85 85 85 85 85 85 85 85 85 85 85 85 85 85
0 0 0 0 0 0 0 0 0 85 85 85 0 0 0 85 0 0 0 0 0 0 0 0 0 0 0 0 0 0 0 0 0
0 0 0 0 0 0 0 0 0 0 0 0 0 0 0 0 0 0 0 0 0 0 85 0 0 0 0 0 0 0 0 0 0 0
85 85 85 85 0 0 0 0 0 0 0 0 0 85 85 85 85 85 0 0 0 0 0 0 0 0 0 0 0 0
0 0 0 0 0 0 0 0 0 0 0 0 0 0 0 0 0 0 0 0 0 0 0 0 0 0 0 0 0 0 0 0 0 0 0
0 0 0 0 0 85 85 85 85 85 85 85 85 85 0 85 85 85 85 85 85 85 85 85 85
85 85 85 85 0 0 0 0 0 0 0 0 0 0 0 0 0 0 0 0 0 0 0 0 0 0 0 0 0 0 0 0
85 0 0 0 0 0 0 0 0 0 85 85 85 85 85 85 85 85 85 85 85 85 85 85 85 85
85 85 85 85 85 85 85 85 85 85 85 85 85 85 85 85 0 0 0 0 0 0 0 0 0 0 0
0 0 0 0 0 0 0 0 0 0 0 0 0 0 0 0 0 0 85 85 85 85 85 0 0 0 0 0 85 85 85
85 85 85 85 85 85 85 85 0 0 0 0 85 85 85 85 85 85 85 85 85 85 85 85
85 85 85 85 85 0 0 0 0 0 0 0 0 0 0 0 0 0 0 0 0 0
